G04 #@! TF.GenerationSoftware,KiCad,Pcbnew,8.0.4*
G04 #@! TF.CreationDate,2025-01-10T10:23:46-05:00*
G04 #@! TF.ProjectId,555 Blink-a-tron SMD,35353520-426c-4696-9e6b-2d612d74726f,rev?*
G04 #@! TF.SameCoordinates,Original*
G04 #@! TF.FileFunction,Soldermask,Top*
G04 #@! TF.FilePolarity,Negative*
%FSLAX46Y46*%
G04 Gerber Fmt 4.6, Leading zero omitted, Abs format (unit mm)*
G04 Created by KiCad (PCBNEW 8.0.4) date 2025-01-10 10:23:46*
%MOMM*%
%LPD*%
G01*
G04 APERTURE LIST*
G04 Aperture macros list*
%AMRoundRect*
0 Rectangle with rounded corners*
0 $1 Rounding radius*
0 $2 $3 $4 $5 $6 $7 $8 $9 X,Y pos of 4 corners*
0 Add a 4 corners polygon primitive as box body*
4,1,4,$2,$3,$4,$5,$6,$7,$8,$9,$2,$3,0*
0 Add four circle primitives for the rounded corners*
1,1,$1+$1,$2,$3*
1,1,$1+$1,$4,$5*
1,1,$1+$1,$6,$7*
1,1,$1+$1,$8,$9*
0 Add four rect primitives between the rounded corners*
20,1,$1+$1,$2,$3,$4,$5,0*
20,1,$1+$1,$4,$5,$6,$7,0*
20,1,$1+$1,$6,$7,$8,$9,0*
20,1,$1+$1,$8,$9,$2,$3,0*%
G04 Aperture macros list end*
%ADD10R,1.500000X1.500000*%
%ADD11RoundRect,0.250000X0.375000X0.625000X-0.375000X0.625000X-0.375000X-0.625000X0.375000X-0.625000X0*%
%ADD12RoundRect,0.150000X-0.825000X-0.150000X0.825000X-0.150000X0.825000X0.150000X-0.825000X0.150000X0*%
%ADD13RoundRect,0.250000X-0.325000X-0.650000X0.325000X-0.650000X0.325000X0.650000X-0.325000X0.650000X0*%
%ADD14RoundRect,0.250000X0.312500X0.625000X-0.312500X0.625000X-0.312500X-0.625000X0.312500X-0.625000X0*%
%ADD15RoundRect,0.250000X0.625000X-0.312500X0.625000X0.312500X-0.625000X0.312500X-0.625000X-0.312500X0*%
%ADD16C,3.200000*%
%ADD17R,2.300000X1.400000*%
%ADD18R,1.700000X1.700000*%
%ADD19O,1.700000X1.700000*%
G04 APERTURE END LIST*
D10*
X140000000Y-95500000D03*
D11*
X107900000Y-84500000D03*
X105100000Y-84500000D03*
D12*
X123025000Y-73555000D03*
X123025000Y-74825000D03*
X123025000Y-76095000D03*
X123025000Y-77365000D03*
X123025000Y-78635000D03*
X123025000Y-79905000D03*
X123025000Y-81175000D03*
X123025000Y-82445000D03*
X127975000Y-82445000D03*
X127975000Y-81175000D03*
X127975000Y-79905000D03*
X127975000Y-78635000D03*
X127975000Y-77365000D03*
X127975000Y-76095000D03*
X127975000Y-74825000D03*
X127975000Y-73555000D03*
D13*
X123525000Y-67000000D03*
X126475000Y-67000000D03*
D11*
X107900000Y-73500000D03*
X105100000Y-73500000D03*
D12*
X124050000Y-59000000D03*
X124050000Y-60270000D03*
X124050000Y-61540000D03*
X124050000Y-62810000D03*
X129000000Y-62810000D03*
X129000000Y-61540000D03*
X129000000Y-60270000D03*
X129000000Y-59000000D03*
D14*
X144000000Y-74000000D03*
X141075000Y-74000000D03*
D11*
X107900000Y-90500000D03*
X105100000Y-90500000D03*
X107900000Y-62000000D03*
X105100000Y-62000000D03*
D10*
X119000000Y-77000000D03*
X121000000Y-57500000D03*
D15*
X132500000Y-55962500D03*
X132500000Y-53037500D03*
D11*
X107900000Y-67500000D03*
X105100000Y-67500000D03*
D16*
X145500000Y-95500000D03*
D10*
X133000000Y-89000000D03*
D17*
X128650000Y-97750000D03*
X121350000Y-97750000D03*
X128650000Y-93250000D03*
X121350000Y-93250000D03*
D13*
X131050000Y-72000000D03*
X134000000Y-72000000D03*
D11*
X108000000Y-96000000D03*
X105200000Y-96000000D03*
X107900000Y-79000000D03*
X105100000Y-79000000D03*
D15*
X118500000Y-60462500D03*
X118500000Y-57537500D03*
D13*
X140150000Y-61500000D03*
X143100000Y-61500000D03*
X132525000Y-66500000D03*
X135475000Y-66500000D03*
D18*
X143480000Y-53900000D03*
D19*
X140940000Y-53900000D03*
X138400000Y-53900000D03*
D11*
X108000000Y-56500000D03*
X105200000Y-56500000D03*
M02*
