G04 #@! TF.GenerationSoftware,KiCad,Pcbnew,8.0.4*
G04 #@! TF.CreationDate,2025-01-10T10:23:46-05:00*
G04 #@! TF.ProjectId,555 Blink-a-tron SMD,35353520-426c-4696-9e6b-2d612d74726f,rev?*
G04 #@! TF.SameCoordinates,Original*
G04 #@! TF.FileFunction,Legend,Top*
G04 #@! TF.FilePolarity,Positive*
%FSLAX46Y46*%
G04 Gerber Fmt 4.6, Leading zero omitted, Abs format (unit mm)*
G04 Created by KiCad (PCBNEW 8.0.4) date 2025-01-10 10:23:46*
%MOMM*%
%LPD*%
G01*
G04 APERTURE LIST*
G04 Aperture macros list*
%AMRoundRect*
0 Rectangle with rounded corners*
0 $1 Rounding radius*
0 $2 $3 $4 $5 $6 $7 $8 $9 X,Y pos of 4 corners*
0 Add a 4 corners polygon primitive as box body*
4,1,4,$2,$3,$4,$5,$6,$7,$8,$9,$2,$3,0*
0 Add four circle primitives for the rounded corners*
1,1,$1+$1,$2,$3*
1,1,$1+$1,$4,$5*
1,1,$1+$1,$6,$7*
1,1,$1+$1,$8,$9*
0 Add four rect primitives between the rounded corners*
20,1,$1+$1,$2,$3,$4,$5,0*
20,1,$1+$1,$4,$5,$6,$7,0*
20,1,$1+$1,$6,$7,$8,$9,0*
20,1,$1+$1,$8,$9,$2,$3,0*%
G04 Aperture macros list end*
%ADD10C,0.300000*%
%ADD11C,0.200000*%
%ADD12C,0.100000*%
%ADD13C,0.250000*%
%ADD14C,0.150000*%
%ADD15C,0.120000*%
%ADD16R,1.500000X1.500000*%
%ADD17RoundRect,0.250000X0.375000X0.625000X-0.375000X0.625000X-0.375000X-0.625000X0.375000X-0.625000X0*%
%ADD18RoundRect,0.150000X-0.825000X-0.150000X0.825000X-0.150000X0.825000X0.150000X-0.825000X0.150000X0*%
%ADD19RoundRect,0.250000X-0.325000X-0.650000X0.325000X-0.650000X0.325000X0.650000X-0.325000X0.650000X0*%
%ADD20RoundRect,0.250000X0.312500X0.625000X-0.312500X0.625000X-0.312500X-0.625000X0.312500X-0.625000X0*%
%ADD21RoundRect,0.250000X0.625000X-0.312500X0.625000X0.312500X-0.625000X0.312500X-0.625000X-0.312500X0*%
%ADD22C,3.200000*%
%ADD23R,2.300000X1.400000*%
%ADD24R,1.700000X1.700000*%
%ADD25O,1.700000X1.700000*%
G04 APERTURE END LIST*
D10*
X105768796Y-52300828D02*
X105054510Y-52300828D01*
X105054510Y-52300828D02*
X105054510Y-50800828D01*
X106268796Y-51515114D02*
X106768796Y-51515114D01*
X106983082Y-52300828D02*
X106268796Y-52300828D01*
X106268796Y-52300828D02*
X106268796Y-50800828D01*
X106268796Y-50800828D02*
X106983082Y-50800828D01*
X107625939Y-52300828D02*
X107625939Y-50800828D01*
X107625939Y-50800828D02*
X107983082Y-50800828D01*
X107983082Y-50800828D02*
X108197368Y-50872257D01*
X108197368Y-50872257D02*
X108340225Y-51015114D01*
X108340225Y-51015114D02*
X108411654Y-51157971D01*
X108411654Y-51157971D02*
X108483082Y-51443685D01*
X108483082Y-51443685D02*
X108483082Y-51657971D01*
X108483082Y-51657971D02*
X108411654Y-51943685D01*
X108411654Y-51943685D02*
X108340225Y-52086542D01*
X108340225Y-52086542D02*
X108197368Y-52229400D01*
X108197368Y-52229400D02*
X107983082Y-52300828D01*
X107983082Y-52300828D02*
X107625939Y-52300828D01*
D11*
X107000000Y-53000000D02*
X107000000Y-54500000D01*
X107000000Y-53700000D02*
X106000000Y-54500000D01*
X106000000Y-53000000D01*
X107000000Y-53700000D01*
G36*
X107000000Y-53700000D02*
G01*
X106000000Y-54500000D01*
X106000000Y-53000000D01*
X107000000Y-53700000D01*
G37*
X105500000Y-53700000D02*
X107700000Y-53700000D01*
D12*
X146000000Y-79200000D02*
X134500000Y-79200000D01*
D11*
X134869673Y-78917499D02*
X134869673Y-77917499D01*
X135488720Y-78917499D02*
X135393482Y-78869880D01*
X135393482Y-78869880D02*
X135345863Y-78822260D01*
X135345863Y-78822260D02*
X135298244Y-78727022D01*
X135298244Y-78727022D02*
X135298244Y-78441308D01*
X135298244Y-78441308D02*
X135345863Y-78346070D01*
X135345863Y-78346070D02*
X135393482Y-78298451D01*
X135393482Y-78298451D02*
X135488720Y-78250832D01*
X135488720Y-78250832D02*
X135631577Y-78250832D01*
X135631577Y-78250832D02*
X135726815Y-78298451D01*
X135726815Y-78298451D02*
X135774434Y-78346070D01*
X135774434Y-78346070D02*
X135822053Y-78441308D01*
X135822053Y-78441308D02*
X135822053Y-78727022D01*
X135822053Y-78727022D02*
X135774434Y-78822260D01*
X135774434Y-78822260D02*
X135726815Y-78869880D01*
X135726815Y-78869880D02*
X135631577Y-78917499D01*
X135631577Y-78917499D02*
X135488720Y-78917499D01*
X136679196Y-78250832D02*
X136679196Y-78917499D01*
X136250625Y-78250832D02*
X136250625Y-78774641D01*
X136250625Y-78774641D02*
X136298244Y-78869880D01*
X136298244Y-78869880D02*
X136393482Y-78917499D01*
X136393482Y-78917499D02*
X136536339Y-78917499D01*
X136536339Y-78917499D02*
X136631577Y-78869880D01*
X136631577Y-78869880D02*
X136679196Y-78822260D01*
X137012530Y-78250832D02*
X137393482Y-78250832D01*
X137155387Y-77917499D02*
X137155387Y-78774641D01*
X137155387Y-78774641D02*
X137203006Y-78869880D01*
X137203006Y-78869880D02*
X137298244Y-78917499D01*
X137298244Y-78917499D02*
X137393482Y-78917499D01*
X138631578Y-78917499D02*
X138536340Y-78869880D01*
X138536340Y-78869880D02*
X138488721Y-78774641D01*
X138488721Y-78774641D02*
X138488721Y-77917499D01*
X139012531Y-78917499D02*
X139012531Y-78250832D01*
X139012531Y-77917499D02*
X138964912Y-77965118D01*
X138964912Y-77965118D02*
X139012531Y-78012737D01*
X139012531Y-78012737D02*
X139060150Y-77965118D01*
X139060150Y-77965118D02*
X139012531Y-77917499D01*
X139012531Y-77917499D02*
X139012531Y-78012737D01*
X139488721Y-78917499D02*
X139488721Y-78250832D01*
X139488721Y-78346070D02*
X139536340Y-78298451D01*
X139536340Y-78298451D02*
X139631578Y-78250832D01*
X139631578Y-78250832D02*
X139774435Y-78250832D01*
X139774435Y-78250832D02*
X139869673Y-78298451D01*
X139869673Y-78298451D02*
X139917292Y-78393689D01*
X139917292Y-78393689D02*
X139917292Y-78917499D01*
X139917292Y-78393689D02*
X139964911Y-78298451D01*
X139964911Y-78298451D02*
X140060149Y-78250832D01*
X140060149Y-78250832D02*
X140203006Y-78250832D01*
X140203006Y-78250832D02*
X140298245Y-78298451D01*
X140298245Y-78298451D02*
X140345864Y-78393689D01*
X140345864Y-78393689D02*
X140345864Y-78917499D01*
X140822054Y-78917499D02*
X140822054Y-78250832D01*
X140822054Y-77917499D02*
X140774435Y-77965118D01*
X140774435Y-77965118D02*
X140822054Y-78012737D01*
X140822054Y-78012737D02*
X140869673Y-77965118D01*
X140869673Y-77965118D02*
X140822054Y-77917499D01*
X140822054Y-77917499D02*
X140822054Y-78012737D01*
X141155387Y-78250832D02*
X141536339Y-78250832D01*
X141298244Y-77917499D02*
X141298244Y-78774641D01*
X141298244Y-78774641D02*
X141345863Y-78869880D01*
X141345863Y-78869880D02*
X141441101Y-78917499D01*
X141441101Y-78917499D02*
X141536339Y-78917499D01*
X141822054Y-78869880D02*
X141917292Y-78917499D01*
X141917292Y-78917499D02*
X142107768Y-78917499D01*
X142107768Y-78917499D02*
X142203006Y-78869880D01*
X142203006Y-78869880D02*
X142250625Y-78774641D01*
X142250625Y-78774641D02*
X142250625Y-78727022D01*
X142250625Y-78727022D02*
X142203006Y-78631784D01*
X142203006Y-78631784D02*
X142107768Y-78584165D01*
X142107768Y-78584165D02*
X141964911Y-78584165D01*
X141964911Y-78584165D02*
X141869673Y-78536546D01*
X141869673Y-78536546D02*
X141822054Y-78441308D01*
X141822054Y-78441308D02*
X141822054Y-78393689D01*
X141822054Y-78393689D02*
X141869673Y-78298451D01*
X141869673Y-78298451D02*
X141964911Y-78250832D01*
X141964911Y-78250832D02*
X142107768Y-78250832D01*
X142107768Y-78250832D02*
X142203006Y-78298451D01*
X143726816Y-79298451D02*
X143679197Y-79250832D01*
X143679197Y-79250832D02*
X143583959Y-79107975D01*
X143583959Y-79107975D02*
X143536340Y-79012737D01*
X143536340Y-79012737D02*
X143488721Y-78869880D01*
X143488721Y-78869880D02*
X143441102Y-78631784D01*
X143441102Y-78631784D02*
X143441102Y-78441308D01*
X143441102Y-78441308D02*
X143488721Y-78203213D01*
X143488721Y-78203213D02*
X143536340Y-78060356D01*
X143536340Y-78060356D02*
X143583959Y-77965118D01*
X143583959Y-77965118D02*
X143679197Y-77822260D01*
X143679197Y-77822260D02*
X143726816Y-77774641D01*
X144679197Y-78917499D02*
X144345864Y-78441308D01*
X144107769Y-78917499D02*
X144107769Y-77917499D01*
X144107769Y-77917499D02*
X144488721Y-77917499D01*
X144488721Y-77917499D02*
X144583959Y-77965118D01*
X144583959Y-77965118D02*
X144631578Y-78012737D01*
X144631578Y-78012737D02*
X144679197Y-78107975D01*
X144679197Y-78107975D02*
X144679197Y-78250832D01*
X144679197Y-78250832D02*
X144631578Y-78346070D01*
X144631578Y-78346070D02*
X144583959Y-78393689D01*
X144583959Y-78393689D02*
X144488721Y-78441308D01*
X144488721Y-78441308D02*
X144107769Y-78441308D01*
X145012531Y-77917499D02*
X145631578Y-77917499D01*
X145631578Y-77917499D02*
X145298245Y-78298451D01*
X145298245Y-78298451D02*
X145441102Y-78298451D01*
X145441102Y-78298451D02*
X145536340Y-78346070D01*
X145536340Y-78346070D02*
X145583959Y-78393689D01*
X145583959Y-78393689D02*
X145631578Y-78488927D01*
X145631578Y-78488927D02*
X145631578Y-78727022D01*
X145631578Y-78727022D02*
X145583959Y-78822260D01*
X145583959Y-78822260D02*
X145536340Y-78869880D01*
X145536340Y-78869880D02*
X145441102Y-78917499D01*
X145441102Y-78917499D02*
X145155388Y-78917499D01*
X145155388Y-78917499D02*
X145060150Y-78869880D01*
X145060150Y-78869880D02*
X145012531Y-78822260D01*
X145964912Y-79298451D02*
X146012531Y-79250832D01*
X146012531Y-79250832D02*
X146107769Y-79107975D01*
X146107769Y-79107975D02*
X146155388Y-79012737D01*
X146155388Y-79012737D02*
X146203007Y-78869880D01*
X146203007Y-78869880D02*
X146250626Y-78631784D01*
X146250626Y-78631784D02*
X146250626Y-78441308D01*
X146250626Y-78441308D02*
X146203007Y-78203213D01*
X146203007Y-78203213D02*
X146155388Y-78060356D01*
X146155388Y-78060356D02*
X146107769Y-77965118D01*
X146107769Y-77965118D02*
X146012531Y-77822260D01*
X146012531Y-77822260D02*
X145964912Y-77774641D01*
X146726817Y-78822260D02*
X146774436Y-78869880D01*
X146774436Y-78869880D02*
X146726817Y-78917499D01*
X146726817Y-78917499D02*
X146679198Y-78869880D01*
X146679198Y-78869880D02*
X146726817Y-78822260D01*
X146726817Y-78822260D02*
X146726817Y-78917499D01*
X146726817Y-78298451D02*
X146774436Y-78346070D01*
X146774436Y-78346070D02*
X146726817Y-78393689D01*
X146726817Y-78393689D02*
X146679198Y-78346070D01*
X146679198Y-78346070D02*
X146726817Y-78298451D01*
X146726817Y-78298451D02*
X146726817Y-78393689D01*
X135345863Y-79527443D02*
X134869673Y-79527443D01*
X134869673Y-79527443D02*
X134822054Y-80003633D01*
X134822054Y-80003633D02*
X134869673Y-79956014D01*
X134869673Y-79956014D02*
X134964911Y-79908395D01*
X134964911Y-79908395D02*
X135203006Y-79908395D01*
X135203006Y-79908395D02*
X135298244Y-79956014D01*
X135298244Y-79956014D02*
X135345863Y-80003633D01*
X135345863Y-80003633D02*
X135393482Y-80098871D01*
X135393482Y-80098871D02*
X135393482Y-80336966D01*
X135393482Y-80336966D02*
X135345863Y-80432204D01*
X135345863Y-80432204D02*
X135298244Y-80479824D01*
X135298244Y-80479824D02*
X135203006Y-80527443D01*
X135203006Y-80527443D02*
X134964911Y-80527443D01*
X134964911Y-80527443D02*
X134869673Y-80479824D01*
X134869673Y-80479824D02*
X134822054Y-80432204D01*
X135774435Y-79622681D02*
X135822054Y-79575062D01*
X135822054Y-79575062D02*
X135917292Y-79527443D01*
X135917292Y-79527443D02*
X136155387Y-79527443D01*
X136155387Y-79527443D02*
X136250625Y-79575062D01*
X136250625Y-79575062D02*
X136298244Y-79622681D01*
X136298244Y-79622681D02*
X136345863Y-79717919D01*
X136345863Y-79717919D02*
X136345863Y-79813157D01*
X136345863Y-79813157D02*
X136298244Y-79956014D01*
X136298244Y-79956014D02*
X135726816Y-80527443D01*
X135726816Y-80527443D02*
X136345863Y-80527443D01*
X136774435Y-80527443D02*
X136774435Y-79860776D01*
X136774435Y-79956014D02*
X136822054Y-79908395D01*
X136822054Y-79908395D02*
X136917292Y-79860776D01*
X136917292Y-79860776D02*
X137060149Y-79860776D01*
X137060149Y-79860776D02*
X137155387Y-79908395D01*
X137155387Y-79908395D02*
X137203006Y-80003633D01*
X137203006Y-80003633D02*
X137203006Y-80527443D01*
X137203006Y-80003633D02*
X137250625Y-79908395D01*
X137250625Y-79908395D02*
X137345863Y-79860776D01*
X137345863Y-79860776D02*
X137488720Y-79860776D01*
X137488720Y-79860776D02*
X137583959Y-79908395D01*
X137583959Y-79908395D02*
X137631578Y-80003633D01*
X137631578Y-80003633D02*
X137631578Y-80527443D01*
X138060149Y-80241728D02*
X138536339Y-80241728D01*
X137964911Y-80527443D02*
X138298244Y-79527443D01*
X138298244Y-79527443D02*
X138631577Y-80527443D01*
X139964911Y-80860776D02*
X139964911Y-79432204D01*
X141345864Y-79527443D02*
X141964911Y-79527443D01*
X141964911Y-79527443D02*
X141631578Y-79908395D01*
X141631578Y-79908395D02*
X141774435Y-79908395D01*
X141774435Y-79908395D02*
X141869673Y-79956014D01*
X141869673Y-79956014D02*
X141917292Y-80003633D01*
X141917292Y-80003633D02*
X141964911Y-80098871D01*
X141964911Y-80098871D02*
X141964911Y-80336966D01*
X141964911Y-80336966D02*
X141917292Y-80432204D01*
X141917292Y-80432204D02*
X141869673Y-80479824D01*
X141869673Y-80479824D02*
X141774435Y-80527443D01*
X141774435Y-80527443D02*
X141488721Y-80527443D01*
X141488721Y-80527443D02*
X141393483Y-80479824D01*
X141393483Y-80479824D02*
X141345864Y-80432204D01*
X142822054Y-79527443D02*
X142631578Y-79527443D01*
X142631578Y-79527443D02*
X142536340Y-79575062D01*
X142536340Y-79575062D02*
X142488721Y-79622681D01*
X142488721Y-79622681D02*
X142393483Y-79765538D01*
X142393483Y-79765538D02*
X142345864Y-79956014D01*
X142345864Y-79956014D02*
X142345864Y-80336966D01*
X142345864Y-80336966D02*
X142393483Y-80432204D01*
X142393483Y-80432204D02*
X142441102Y-80479824D01*
X142441102Y-80479824D02*
X142536340Y-80527443D01*
X142536340Y-80527443D02*
X142726816Y-80527443D01*
X142726816Y-80527443D02*
X142822054Y-80479824D01*
X142822054Y-80479824D02*
X142869673Y-80432204D01*
X142869673Y-80432204D02*
X142917292Y-80336966D01*
X142917292Y-80336966D02*
X142917292Y-80098871D01*
X142917292Y-80098871D02*
X142869673Y-80003633D01*
X142869673Y-80003633D02*
X142822054Y-79956014D01*
X142822054Y-79956014D02*
X142726816Y-79908395D01*
X142726816Y-79908395D02*
X142536340Y-79908395D01*
X142536340Y-79908395D02*
X142441102Y-79956014D01*
X142441102Y-79956014D02*
X142393483Y-80003633D01*
X142393483Y-80003633D02*
X142345864Y-80098871D01*
X143536340Y-79527443D02*
X143631578Y-79527443D01*
X143631578Y-79527443D02*
X143726816Y-79575062D01*
X143726816Y-79575062D02*
X143774435Y-79622681D01*
X143774435Y-79622681D02*
X143822054Y-79717919D01*
X143822054Y-79717919D02*
X143869673Y-79908395D01*
X143869673Y-79908395D02*
X143869673Y-80146490D01*
X143869673Y-80146490D02*
X143822054Y-80336966D01*
X143822054Y-80336966D02*
X143774435Y-80432204D01*
X143774435Y-80432204D02*
X143726816Y-80479824D01*
X143726816Y-80479824D02*
X143631578Y-80527443D01*
X143631578Y-80527443D02*
X143536340Y-80527443D01*
X143536340Y-80527443D02*
X143441102Y-80479824D01*
X143441102Y-80479824D02*
X143393483Y-80432204D01*
X143393483Y-80432204D02*
X143345864Y-80336966D01*
X143345864Y-80336966D02*
X143298245Y-80146490D01*
X143298245Y-80146490D02*
X143298245Y-79908395D01*
X143298245Y-79908395D02*
X143345864Y-79717919D01*
X143345864Y-79717919D02*
X143393483Y-79622681D01*
X143393483Y-79622681D02*
X143441102Y-79575062D01*
X143441102Y-79575062D02*
X143536340Y-79527443D01*
X145012531Y-80527443D02*
X145250626Y-80527443D01*
X145250626Y-80527443D02*
X145250626Y-80336966D01*
X145250626Y-80336966D02*
X145155388Y-80289347D01*
X145155388Y-80289347D02*
X145060150Y-80194109D01*
X145060150Y-80194109D02*
X145012531Y-80051252D01*
X145012531Y-80051252D02*
X145012531Y-79813157D01*
X145012531Y-79813157D02*
X145060150Y-79670300D01*
X145060150Y-79670300D02*
X145155388Y-79575062D01*
X145155388Y-79575062D02*
X145298245Y-79527443D01*
X145298245Y-79527443D02*
X145488721Y-79527443D01*
X145488721Y-79527443D02*
X145631578Y-79575062D01*
X145631578Y-79575062D02*
X145726816Y-79670300D01*
X145726816Y-79670300D02*
X145774435Y-79813157D01*
X145774435Y-79813157D02*
X145774435Y-80051252D01*
X145774435Y-80051252D02*
X145726816Y-80194109D01*
X145726816Y-80194109D02*
X145631578Y-80289347D01*
X145631578Y-80289347D02*
X145536340Y-80336966D01*
X145536340Y-80336966D02*
X145536340Y-80527443D01*
X145536340Y-80527443D02*
X145774435Y-80527443D01*
X134822054Y-81232625D02*
X134869673Y-81185006D01*
X134869673Y-81185006D02*
X134964911Y-81137387D01*
X134964911Y-81137387D02*
X135203006Y-81137387D01*
X135203006Y-81137387D02*
X135298244Y-81185006D01*
X135298244Y-81185006D02*
X135345863Y-81232625D01*
X135345863Y-81232625D02*
X135393482Y-81327863D01*
X135393482Y-81327863D02*
X135393482Y-81423101D01*
X135393482Y-81423101D02*
X135345863Y-81565958D01*
X135345863Y-81565958D02*
X134774435Y-82137387D01*
X134774435Y-82137387D02*
X135393482Y-82137387D01*
X136250625Y-81137387D02*
X136060149Y-81137387D01*
X136060149Y-81137387D02*
X135964911Y-81185006D01*
X135964911Y-81185006D02*
X135917292Y-81232625D01*
X135917292Y-81232625D02*
X135822054Y-81375482D01*
X135822054Y-81375482D02*
X135774435Y-81565958D01*
X135774435Y-81565958D02*
X135774435Y-81946910D01*
X135774435Y-81946910D02*
X135822054Y-82042148D01*
X135822054Y-82042148D02*
X135869673Y-82089768D01*
X135869673Y-82089768D02*
X135964911Y-82137387D01*
X135964911Y-82137387D02*
X136155387Y-82137387D01*
X136155387Y-82137387D02*
X136250625Y-82089768D01*
X136250625Y-82089768D02*
X136298244Y-82042148D01*
X136298244Y-82042148D02*
X136345863Y-81946910D01*
X136345863Y-81946910D02*
X136345863Y-81708815D01*
X136345863Y-81708815D02*
X136298244Y-81613577D01*
X136298244Y-81613577D02*
X136250625Y-81565958D01*
X136250625Y-81565958D02*
X136155387Y-81518339D01*
X136155387Y-81518339D02*
X135964911Y-81518339D01*
X135964911Y-81518339D02*
X135869673Y-81565958D01*
X135869673Y-81565958D02*
X135822054Y-81613577D01*
X135822054Y-81613577D02*
X135774435Y-81708815D01*
X136774435Y-82137387D02*
X136774435Y-81470720D01*
X136774435Y-81565958D02*
X136822054Y-81518339D01*
X136822054Y-81518339D02*
X136917292Y-81470720D01*
X136917292Y-81470720D02*
X137060149Y-81470720D01*
X137060149Y-81470720D02*
X137155387Y-81518339D01*
X137155387Y-81518339D02*
X137203006Y-81613577D01*
X137203006Y-81613577D02*
X137203006Y-82137387D01*
X137203006Y-81613577D02*
X137250625Y-81518339D01*
X137250625Y-81518339D02*
X137345863Y-81470720D01*
X137345863Y-81470720D02*
X137488720Y-81470720D01*
X137488720Y-81470720D02*
X137583959Y-81518339D01*
X137583959Y-81518339D02*
X137631578Y-81613577D01*
X137631578Y-81613577D02*
X137631578Y-82137387D01*
X138060149Y-81851672D02*
X138536339Y-81851672D01*
X137964911Y-82137387D02*
X138298244Y-81137387D01*
X138298244Y-81137387D02*
X138631577Y-82137387D01*
X139964911Y-82470720D02*
X139964911Y-81042148D01*
X141345864Y-81137387D02*
X142012530Y-81137387D01*
X142012530Y-81137387D02*
X141583959Y-82137387D01*
X142345864Y-81232625D02*
X142393483Y-81185006D01*
X142393483Y-81185006D02*
X142488721Y-81137387D01*
X142488721Y-81137387D02*
X142726816Y-81137387D01*
X142726816Y-81137387D02*
X142822054Y-81185006D01*
X142822054Y-81185006D02*
X142869673Y-81232625D01*
X142869673Y-81232625D02*
X142917292Y-81327863D01*
X142917292Y-81327863D02*
X142917292Y-81423101D01*
X142917292Y-81423101D02*
X142869673Y-81565958D01*
X142869673Y-81565958D02*
X142298245Y-82137387D01*
X142298245Y-82137387D02*
X142917292Y-82137387D01*
X143536340Y-81137387D02*
X143631578Y-81137387D01*
X143631578Y-81137387D02*
X143726816Y-81185006D01*
X143726816Y-81185006D02*
X143774435Y-81232625D01*
X143774435Y-81232625D02*
X143822054Y-81327863D01*
X143822054Y-81327863D02*
X143869673Y-81518339D01*
X143869673Y-81518339D02*
X143869673Y-81756434D01*
X143869673Y-81756434D02*
X143822054Y-81946910D01*
X143822054Y-81946910D02*
X143774435Y-82042148D01*
X143774435Y-82042148D02*
X143726816Y-82089768D01*
X143726816Y-82089768D02*
X143631578Y-82137387D01*
X143631578Y-82137387D02*
X143536340Y-82137387D01*
X143536340Y-82137387D02*
X143441102Y-82089768D01*
X143441102Y-82089768D02*
X143393483Y-82042148D01*
X143393483Y-82042148D02*
X143345864Y-81946910D01*
X143345864Y-81946910D02*
X143298245Y-81756434D01*
X143298245Y-81756434D02*
X143298245Y-81518339D01*
X143298245Y-81518339D02*
X143345864Y-81327863D01*
X143345864Y-81327863D02*
X143393483Y-81232625D01*
X143393483Y-81232625D02*
X143441102Y-81185006D01*
X143441102Y-81185006D02*
X143536340Y-81137387D01*
X145012531Y-82137387D02*
X145250626Y-82137387D01*
X145250626Y-82137387D02*
X145250626Y-81946910D01*
X145250626Y-81946910D02*
X145155388Y-81899291D01*
X145155388Y-81899291D02*
X145060150Y-81804053D01*
X145060150Y-81804053D02*
X145012531Y-81661196D01*
X145012531Y-81661196D02*
X145012531Y-81423101D01*
X145012531Y-81423101D02*
X145060150Y-81280244D01*
X145060150Y-81280244D02*
X145155388Y-81185006D01*
X145155388Y-81185006D02*
X145298245Y-81137387D01*
X145298245Y-81137387D02*
X145488721Y-81137387D01*
X145488721Y-81137387D02*
X145631578Y-81185006D01*
X145631578Y-81185006D02*
X145726816Y-81280244D01*
X145726816Y-81280244D02*
X145774435Y-81423101D01*
X145774435Y-81423101D02*
X145774435Y-81661196D01*
X145774435Y-81661196D02*
X145726816Y-81804053D01*
X145726816Y-81804053D02*
X145631578Y-81899291D01*
X145631578Y-81899291D02*
X145536340Y-81946910D01*
X145536340Y-81946910D02*
X145536340Y-82137387D01*
X145536340Y-82137387D02*
X145774435Y-82137387D01*
X135393482Y-83747331D02*
X134822054Y-83747331D01*
X135107768Y-83747331D02*
X135107768Y-82747331D01*
X135107768Y-82747331D02*
X135012530Y-82890188D01*
X135012530Y-82890188D02*
X134917292Y-82985426D01*
X134917292Y-82985426D02*
X134822054Y-83033045D01*
X135774435Y-82842569D02*
X135822054Y-82794950D01*
X135822054Y-82794950D02*
X135917292Y-82747331D01*
X135917292Y-82747331D02*
X136155387Y-82747331D01*
X136155387Y-82747331D02*
X136250625Y-82794950D01*
X136250625Y-82794950D02*
X136298244Y-82842569D01*
X136298244Y-82842569D02*
X136345863Y-82937807D01*
X136345863Y-82937807D02*
X136345863Y-83033045D01*
X136345863Y-83033045D02*
X136298244Y-83175902D01*
X136298244Y-83175902D02*
X135726816Y-83747331D01*
X135726816Y-83747331D02*
X136345863Y-83747331D01*
X136774435Y-83747331D02*
X136774435Y-83080664D01*
X136774435Y-83175902D02*
X136822054Y-83128283D01*
X136822054Y-83128283D02*
X136917292Y-83080664D01*
X136917292Y-83080664D02*
X137060149Y-83080664D01*
X137060149Y-83080664D02*
X137155387Y-83128283D01*
X137155387Y-83128283D02*
X137203006Y-83223521D01*
X137203006Y-83223521D02*
X137203006Y-83747331D01*
X137203006Y-83223521D02*
X137250625Y-83128283D01*
X137250625Y-83128283D02*
X137345863Y-83080664D01*
X137345863Y-83080664D02*
X137488720Y-83080664D01*
X137488720Y-83080664D02*
X137583959Y-83128283D01*
X137583959Y-83128283D02*
X137631578Y-83223521D01*
X137631578Y-83223521D02*
X137631578Y-83747331D01*
X138060149Y-83461616D02*
X138536339Y-83461616D01*
X137964911Y-83747331D02*
X138298244Y-82747331D01*
X138298244Y-82747331D02*
X138631577Y-83747331D01*
X139964911Y-84080664D02*
X139964911Y-82652092D01*
X141964911Y-83747331D02*
X141393483Y-83747331D01*
X141679197Y-83747331D02*
X141679197Y-82747331D01*
X141679197Y-82747331D02*
X141583959Y-82890188D01*
X141583959Y-82890188D02*
X141488721Y-82985426D01*
X141488721Y-82985426D02*
X141393483Y-83033045D01*
X142393483Y-83652092D02*
X142441102Y-83699712D01*
X142441102Y-83699712D02*
X142393483Y-83747331D01*
X142393483Y-83747331D02*
X142345864Y-83699712D01*
X142345864Y-83699712D02*
X142393483Y-83652092D01*
X142393483Y-83652092D02*
X142393483Y-83747331D01*
X143345863Y-82747331D02*
X142869673Y-82747331D01*
X142869673Y-82747331D02*
X142822054Y-83223521D01*
X142822054Y-83223521D02*
X142869673Y-83175902D01*
X142869673Y-83175902D02*
X142964911Y-83128283D01*
X142964911Y-83128283D02*
X143203006Y-83128283D01*
X143203006Y-83128283D02*
X143298244Y-83175902D01*
X143298244Y-83175902D02*
X143345863Y-83223521D01*
X143345863Y-83223521D02*
X143393482Y-83318759D01*
X143393482Y-83318759D02*
X143393482Y-83556854D01*
X143393482Y-83556854D02*
X143345863Y-83652092D01*
X143345863Y-83652092D02*
X143298244Y-83699712D01*
X143298244Y-83699712D02*
X143203006Y-83747331D01*
X143203006Y-83747331D02*
X142964911Y-83747331D01*
X142964911Y-83747331D02*
X142869673Y-83699712D01*
X142869673Y-83699712D02*
X142822054Y-83652092D01*
X143822054Y-83747331D02*
X143822054Y-82747331D01*
X143917292Y-83366378D02*
X144203006Y-83747331D01*
X144203006Y-83080664D02*
X143822054Y-83461616D01*
X145345864Y-83747331D02*
X145583959Y-83747331D01*
X145583959Y-83747331D02*
X145583959Y-83556854D01*
X145583959Y-83556854D02*
X145488721Y-83509235D01*
X145488721Y-83509235D02*
X145393483Y-83413997D01*
X145393483Y-83413997D02*
X145345864Y-83271140D01*
X145345864Y-83271140D02*
X145345864Y-83033045D01*
X145345864Y-83033045D02*
X145393483Y-82890188D01*
X145393483Y-82890188D02*
X145488721Y-82794950D01*
X145488721Y-82794950D02*
X145631578Y-82747331D01*
X145631578Y-82747331D02*
X145822054Y-82747331D01*
X145822054Y-82747331D02*
X145964911Y-82794950D01*
X145964911Y-82794950D02*
X146060149Y-82890188D01*
X146060149Y-82890188D02*
X146107768Y-83033045D01*
X146107768Y-83033045D02*
X146107768Y-83271140D01*
X146107768Y-83271140D02*
X146060149Y-83413997D01*
X146060149Y-83413997D02*
X145964911Y-83509235D01*
X145964911Y-83509235D02*
X145869673Y-83556854D01*
X145869673Y-83556854D02*
X145869673Y-83747331D01*
X145869673Y-83747331D02*
X146107768Y-83747331D01*
X135060149Y-84357275D02*
X135155387Y-84357275D01*
X135155387Y-84357275D02*
X135250625Y-84404894D01*
X135250625Y-84404894D02*
X135298244Y-84452513D01*
X135298244Y-84452513D02*
X135345863Y-84547751D01*
X135345863Y-84547751D02*
X135393482Y-84738227D01*
X135393482Y-84738227D02*
X135393482Y-84976322D01*
X135393482Y-84976322D02*
X135345863Y-85166798D01*
X135345863Y-85166798D02*
X135298244Y-85262036D01*
X135298244Y-85262036D02*
X135250625Y-85309656D01*
X135250625Y-85309656D02*
X135155387Y-85357275D01*
X135155387Y-85357275D02*
X135060149Y-85357275D01*
X135060149Y-85357275D02*
X134964911Y-85309656D01*
X134964911Y-85309656D02*
X134917292Y-85262036D01*
X134917292Y-85262036D02*
X134869673Y-85166798D01*
X134869673Y-85166798D02*
X134822054Y-84976322D01*
X134822054Y-84976322D02*
X134822054Y-84738227D01*
X134822054Y-84738227D02*
X134869673Y-84547751D01*
X134869673Y-84547751D02*
X134917292Y-84452513D01*
X134917292Y-84452513D02*
X134964911Y-84404894D01*
X134964911Y-84404894D02*
X135060149Y-84357275D01*
X136250625Y-84357275D02*
X136060149Y-84357275D01*
X136060149Y-84357275D02*
X135964911Y-84404894D01*
X135964911Y-84404894D02*
X135917292Y-84452513D01*
X135917292Y-84452513D02*
X135822054Y-84595370D01*
X135822054Y-84595370D02*
X135774435Y-84785846D01*
X135774435Y-84785846D02*
X135774435Y-85166798D01*
X135774435Y-85166798D02*
X135822054Y-85262036D01*
X135822054Y-85262036D02*
X135869673Y-85309656D01*
X135869673Y-85309656D02*
X135964911Y-85357275D01*
X135964911Y-85357275D02*
X136155387Y-85357275D01*
X136155387Y-85357275D02*
X136250625Y-85309656D01*
X136250625Y-85309656D02*
X136298244Y-85262036D01*
X136298244Y-85262036D02*
X136345863Y-85166798D01*
X136345863Y-85166798D02*
X136345863Y-84928703D01*
X136345863Y-84928703D02*
X136298244Y-84833465D01*
X136298244Y-84833465D02*
X136250625Y-84785846D01*
X136250625Y-84785846D02*
X136155387Y-84738227D01*
X136155387Y-84738227D02*
X135964911Y-84738227D01*
X135964911Y-84738227D02*
X135869673Y-84785846D01*
X135869673Y-84785846D02*
X135822054Y-84833465D01*
X135822054Y-84833465D02*
X135774435Y-84928703D01*
X136774435Y-85357275D02*
X136774435Y-84690608D01*
X136774435Y-84785846D02*
X136822054Y-84738227D01*
X136822054Y-84738227D02*
X136917292Y-84690608D01*
X136917292Y-84690608D02*
X137060149Y-84690608D01*
X137060149Y-84690608D02*
X137155387Y-84738227D01*
X137155387Y-84738227D02*
X137203006Y-84833465D01*
X137203006Y-84833465D02*
X137203006Y-85357275D01*
X137203006Y-84833465D02*
X137250625Y-84738227D01*
X137250625Y-84738227D02*
X137345863Y-84690608D01*
X137345863Y-84690608D02*
X137488720Y-84690608D01*
X137488720Y-84690608D02*
X137583959Y-84738227D01*
X137583959Y-84738227D02*
X137631578Y-84833465D01*
X137631578Y-84833465D02*
X137631578Y-85357275D01*
X138060149Y-85071560D02*
X138536339Y-85071560D01*
X137964911Y-85357275D02*
X138298244Y-84357275D01*
X138298244Y-84357275D02*
X138631577Y-85357275D01*
X139964911Y-85690608D02*
X139964911Y-84262036D01*
X141345864Y-84357275D02*
X141964911Y-84357275D01*
X141964911Y-84357275D02*
X141631578Y-84738227D01*
X141631578Y-84738227D02*
X141774435Y-84738227D01*
X141774435Y-84738227D02*
X141869673Y-84785846D01*
X141869673Y-84785846D02*
X141917292Y-84833465D01*
X141917292Y-84833465D02*
X141964911Y-84928703D01*
X141964911Y-84928703D02*
X141964911Y-85166798D01*
X141964911Y-85166798D02*
X141917292Y-85262036D01*
X141917292Y-85262036D02*
X141869673Y-85309656D01*
X141869673Y-85309656D02*
X141774435Y-85357275D01*
X141774435Y-85357275D02*
X141488721Y-85357275D01*
X141488721Y-85357275D02*
X141393483Y-85309656D01*
X141393483Y-85309656D02*
X141345864Y-85262036D01*
X142393483Y-85262036D02*
X142441102Y-85309656D01*
X142441102Y-85309656D02*
X142393483Y-85357275D01*
X142393483Y-85357275D02*
X142345864Y-85309656D01*
X142345864Y-85309656D02*
X142393483Y-85262036D01*
X142393483Y-85262036D02*
X142393483Y-85357275D01*
X143060149Y-84357275D02*
X143155387Y-84357275D01*
X143155387Y-84357275D02*
X143250625Y-84404894D01*
X143250625Y-84404894D02*
X143298244Y-84452513D01*
X143298244Y-84452513D02*
X143345863Y-84547751D01*
X143345863Y-84547751D02*
X143393482Y-84738227D01*
X143393482Y-84738227D02*
X143393482Y-84976322D01*
X143393482Y-84976322D02*
X143345863Y-85166798D01*
X143345863Y-85166798D02*
X143298244Y-85262036D01*
X143298244Y-85262036D02*
X143250625Y-85309656D01*
X143250625Y-85309656D02*
X143155387Y-85357275D01*
X143155387Y-85357275D02*
X143060149Y-85357275D01*
X143060149Y-85357275D02*
X142964911Y-85309656D01*
X142964911Y-85309656D02*
X142917292Y-85262036D01*
X142917292Y-85262036D02*
X142869673Y-85166798D01*
X142869673Y-85166798D02*
X142822054Y-84976322D01*
X142822054Y-84976322D02*
X142822054Y-84738227D01*
X142822054Y-84738227D02*
X142869673Y-84547751D01*
X142869673Y-84547751D02*
X142917292Y-84452513D01*
X142917292Y-84452513D02*
X142964911Y-84404894D01*
X142964911Y-84404894D02*
X143060149Y-84357275D01*
X143822054Y-85357275D02*
X143822054Y-84357275D01*
X143917292Y-84976322D02*
X144203006Y-85357275D01*
X144203006Y-84690608D02*
X143822054Y-85071560D01*
X145345864Y-85357275D02*
X145583959Y-85357275D01*
X145583959Y-85357275D02*
X145583959Y-85166798D01*
X145583959Y-85166798D02*
X145488721Y-85119179D01*
X145488721Y-85119179D02*
X145393483Y-85023941D01*
X145393483Y-85023941D02*
X145345864Y-84881084D01*
X145345864Y-84881084D02*
X145345864Y-84642989D01*
X145345864Y-84642989D02*
X145393483Y-84500132D01*
X145393483Y-84500132D02*
X145488721Y-84404894D01*
X145488721Y-84404894D02*
X145631578Y-84357275D01*
X145631578Y-84357275D02*
X145822054Y-84357275D01*
X145822054Y-84357275D02*
X145964911Y-84404894D01*
X145964911Y-84404894D02*
X146060149Y-84500132D01*
X146060149Y-84500132D02*
X146107768Y-84642989D01*
X146107768Y-84642989D02*
X146107768Y-84881084D01*
X146107768Y-84881084D02*
X146060149Y-85023941D01*
X146060149Y-85023941D02*
X145964911Y-85119179D01*
X145964911Y-85119179D02*
X145869673Y-85166798D01*
X145869673Y-85166798D02*
X145869673Y-85357275D01*
X145869673Y-85357275D02*
X146107768Y-85357275D01*
X135060149Y-85967219D02*
X135155387Y-85967219D01*
X135155387Y-85967219D02*
X135250625Y-86014838D01*
X135250625Y-86014838D02*
X135298244Y-86062457D01*
X135298244Y-86062457D02*
X135345863Y-86157695D01*
X135345863Y-86157695D02*
X135393482Y-86348171D01*
X135393482Y-86348171D02*
X135393482Y-86586266D01*
X135393482Y-86586266D02*
X135345863Y-86776742D01*
X135345863Y-86776742D02*
X135298244Y-86871980D01*
X135298244Y-86871980D02*
X135250625Y-86919600D01*
X135250625Y-86919600D02*
X135155387Y-86967219D01*
X135155387Y-86967219D02*
X135060149Y-86967219D01*
X135060149Y-86967219D02*
X134964911Y-86919600D01*
X134964911Y-86919600D02*
X134917292Y-86871980D01*
X134917292Y-86871980D02*
X134869673Y-86776742D01*
X134869673Y-86776742D02*
X134822054Y-86586266D01*
X134822054Y-86586266D02*
X134822054Y-86348171D01*
X134822054Y-86348171D02*
X134869673Y-86157695D01*
X134869673Y-86157695D02*
X134917292Y-86062457D01*
X134917292Y-86062457D02*
X134964911Y-86014838D01*
X134964911Y-86014838D02*
X135060149Y-85967219D01*
X135726816Y-85967219D02*
X136345863Y-85967219D01*
X136345863Y-85967219D02*
X136012530Y-86348171D01*
X136012530Y-86348171D02*
X136155387Y-86348171D01*
X136155387Y-86348171D02*
X136250625Y-86395790D01*
X136250625Y-86395790D02*
X136298244Y-86443409D01*
X136298244Y-86443409D02*
X136345863Y-86538647D01*
X136345863Y-86538647D02*
X136345863Y-86776742D01*
X136345863Y-86776742D02*
X136298244Y-86871980D01*
X136298244Y-86871980D02*
X136250625Y-86919600D01*
X136250625Y-86919600D02*
X136155387Y-86967219D01*
X136155387Y-86967219D02*
X135869673Y-86967219D01*
X135869673Y-86967219D02*
X135774435Y-86919600D01*
X135774435Y-86919600D02*
X135726816Y-86871980D01*
X136774435Y-86967219D02*
X136774435Y-86300552D01*
X136774435Y-86395790D02*
X136822054Y-86348171D01*
X136822054Y-86348171D02*
X136917292Y-86300552D01*
X136917292Y-86300552D02*
X137060149Y-86300552D01*
X137060149Y-86300552D02*
X137155387Y-86348171D01*
X137155387Y-86348171D02*
X137203006Y-86443409D01*
X137203006Y-86443409D02*
X137203006Y-86967219D01*
X137203006Y-86443409D02*
X137250625Y-86348171D01*
X137250625Y-86348171D02*
X137345863Y-86300552D01*
X137345863Y-86300552D02*
X137488720Y-86300552D01*
X137488720Y-86300552D02*
X137583959Y-86348171D01*
X137583959Y-86348171D02*
X137631578Y-86443409D01*
X137631578Y-86443409D02*
X137631578Y-86967219D01*
X138060149Y-86681504D02*
X138536339Y-86681504D01*
X137964911Y-86967219D02*
X138298244Y-85967219D01*
X138298244Y-85967219D02*
X138631577Y-86967219D01*
X139964911Y-87300552D02*
X139964911Y-85871980D01*
X141869673Y-85967219D02*
X141679197Y-85967219D01*
X141679197Y-85967219D02*
X141583959Y-86014838D01*
X141583959Y-86014838D02*
X141536340Y-86062457D01*
X141536340Y-86062457D02*
X141441102Y-86205314D01*
X141441102Y-86205314D02*
X141393483Y-86395790D01*
X141393483Y-86395790D02*
X141393483Y-86776742D01*
X141393483Y-86776742D02*
X141441102Y-86871980D01*
X141441102Y-86871980D02*
X141488721Y-86919600D01*
X141488721Y-86919600D02*
X141583959Y-86967219D01*
X141583959Y-86967219D02*
X141774435Y-86967219D01*
X141774435Y-86967219D02*
X141869673Y-86919600D01*
X141869673Y-86919600D02*
X141917292Y-86871980D01*
X141917292Y-86871980D02*
X141964911Y-86776742D01*
X141964911Y-86776742D02*
X141964911Y-86538647D01*
X141964911Y-86538647D02*
X141917292Y-86443409D01*
X141917292Y-86443409D02*
X141869673Y-86395790D01*
X141869673Y-86395790D02*
X141774435Y-86348171D01*
X141774435Y-86348171D02*
X141583959Y-86348171D01*
X141583959Y-86348171D02*
X141488721Y-86395790D01*
X141488721Y-86395790D02*
X141441102Y-86443409D01*
X141441102Y-86443409D02*
X141393483Y-86538647D01*
X142393483Y-86871980D02*
X142441102Y-86919600D01*
X142441102Y-86919600D02*
X142393483Y-86967219D01*
X142393483Y-86967219D02*
X142345864Y-86919600D01*
X142345864Y-86919600D02*
X142393483Y-86871980D01*
X142393483Y-86871980D02*
X142393483Y-86967219D01*
X143060149Y-85967219D02*
X143155387Y-85967219D01*
X143155387Y-85967219D02*
X143250625Y-86014838D01*
X143250625Y-86014838D02*
X143298244Y-86062457D01*
X143298244Y-86062457D02*
X143345863Y-86157695D01*
X143345863Y-86157695D02*
X143393482Y-86348171D01*
X143393482Y-86348171D02*
X143393482Y-86586266D01*
X143393482Y-86586266D02*
X143345863Y-86776742D01*
X143345863Y-86776742D02*
X143298244Y-86871980D01*
X143298244Y-86871980D02*
X143250625Y-86919600D01*
X143250625Y-86919600D02*
X143155387Y-86967219D01*
X143155387Y-86967219D02*
X143060149Y-86967219D01*
X143060149Y-86967219D02*
X142964911Y-86919600D01*
X142964911Y-86919600D02*
X142917292Y-86871980D01*
X142917292Y-86871980D02*
X142869673Y-86776742D01*
X142869673Y-86776742D02*
X142822054Y-86586266D01*
X142822054Y-86586266D02*
X142822054Y-86348171D01*
X142822054Y-86348171D02*
X142869673Y-86157695D01*
X142869673Y-86157695D02*
X142917292Y-86062457D01*
X142917292Y-86062457D02*
X142964911Y-86014838D01*
X142964911Y-86014838D02*
X143060149Y-85967219D01*
X143822054Y-86967219D02*
X143822054Y-85967219D01*
X143917292Y-86586266D02*
X144203006Y-86967219D01*
X144203006Y-86300552D02*
X143822054Y-86681504D01*
X145345864Y-86967219D02*
X145583959Y-86967219D01*
X145583959Y-86967219D02*
X145583959Y-86776742D01*
X145583959Y-86776742D02*
X145488721Y-86729123D01*
X145488721Y-86729123D02*
X145393483Y-86633885D01*
X145393483Y-86633885D02*
X145345864Y-86491028D01*
X145345864Y-86491028D02*
X145345864Y-86252933D01*
X145345864Y-86252933D02*
X145393483Y-86110076D01*
X145393483Y-86110076D02*
X145488721Y-86014838D01*
X145488721Y-86014838D02*
X145631578Y-85967219D01*
X145631578Y-85967219D02*
X145822054Y-85967219D01*
X145822054Y-85967219D02*
X145964911Y-86014838D01*
X145964911Y-86014838D02*
X146060149Y-86110076D01*
X146060149Y-86110076D02*
X146107768Y-86252933D01*
X146107768Y-86252933D02*
X146107768Y-86491028D01*
X146107768Y-86491028D02*
X146060149Y-86633885D01*
X146060149Y-86633885D02*
X145964911Y-86729123D01*
X145964911Y-86729123D02*
X145869673Y-86776742D01*
X145869673Y-86776742D02*
X145869673Y-86967219D01*
X145869673Y-86967219D02*
X146107768Y-86967219D01*
D12*
X120861027Y-55272419D02*
X121432455Y-55272419D01*
X121146741Y-56272419D02*
X121146741Y-55272419D01*
X121765789Y-56272419D02*
X121765789Y-55272419D01*
X121765789Y-55748609D02*
X122337217Y-55748609D01*
X122337217Y-56272419D02*
X122337217Y-55272419D01*
X123384836Y-56272419D02*
X123051503Y-55796228D01*
X122813408Y-56272419D02*
X122813408Y-55272419D01*
X122813408Y-55272419D02*
X123194360Y-55272419D01*
X123194360Y-55272419D02*
X123289598Y-55320038D01*
X123289598Y-55320038D02*
X123337217Y-55367657D01*
X123337217Y-55367657D02*
X123384836Y-55462895D01*
X123384836Y-55462895D02*
X123384836Y-55605752D01*
X123384836Y-55605752D02*
X123337217Y-55700990D01*
X123337217Y-55700990D02*
X123289598Y-55748609D01*
X123289598Y-55748609D02*
X123194360Y-55796228D01*
X123194360Y-55796228D02*
X122813408Y-55796228D01*
X133684836Y-95824800D02*
X133589598Y-95872419D01*
X133589598Y-95872419D02*
X133399122Y-95872419D01*
X133399122Y-95872419D02*
X133303884Y-95824800D01*
X133303884Y-95824800D02*
X133256265Y-95729561D01*
X133256265Y-95729561D02*
X133256265Y-95348609D01*
X133256265Y-95348609D02*
X133303884Y-95253371D01*
X133303884Y-95253371D02*
X133399122Y-95205752D01*
X133399122Y-95205752D02*
X133589598Y-95205752D01*
X133589598Y-95205752D02*
X133684836Y-95253371D01*
X133684836Y-95253371D02*
X133732455Y-95348609D01*
X133732455Y-95348609D02*
X133732455Y-95443847D01*
X133732455Y-95443847D02*
X133256265Y-95539085D01*
X134065789Y-95872419D02*
X134589598Y-95205752D01*
X134065789Y-95205752D02*
X134589598Y-95872419D01*
X134827694Y-95205752D02*
X135208646Y-95205752D01*
X134970551Y-94872419D02*
X134970551Y-95729561D01*
X134970551Y-95729561D02*
X135018170Y-95824800D01*
X135018170Y-95824800D02*
X135113408Y-95872419D01*
X135113408Y-95872419D02*
X135208646Y-95872419D01*
X136161028Y-95205752D02*
X136541980Y-95205752D01*
X136303885Y-94872419D02*
X136303885Y-95729561D01*
X136303885Y-95729561D02*
X136351504Y-95824800D01*
X136351504Y-95824800D02*
X136446742Y-95872419D01*
X136446742Y-95872419D02*
X136541980Y-95872419D01*
X136875314Y-95872419D02*
X136875314Y-95205752D01*
X136875314Y-95396228D02*
X136922933Y-95300990D01*
X136922933Y-95300990D02*
X136970552Y-95253371D01*
X136970552Y-95253371D02*
X137065790Y-95205752D01*
X137065790Y-95205752D02*
X137161028Y-95205752D01*
X137494362Y-95872419D02*
X137494362Y-95205752D01*
X137494362Y-94872419D02*
X137446743Y-94920038D01*
X137446743Y-94920038D02*
X137494362Y-94967657D01*
X137494362Y-94967657D02*
X137541981Y-94920038D01*
X137541981Y-94920038D02*
X137494362Y-94872419D01*
X137494362Y-94872419D02*
X137494362Y-94967657D01*
X138399123Y-95205752D02*
X138399123Y-96015276D01*
X138399123Y-96015276D02*
X138351504Y-96110514D01*
X138351504Y-96110514D02*
X138303885Y-96158133D01*
X138303885Y-96158133D02*
X138208647Y-96205752D01*
X138208647Y-96205752D02*
X138065790Y-96205752D01*
X138065790Y-96205752D02*
X137970552Y-96158133D01*
X138399123Y-95824800D02*
X138303885Y-95872419D01*
X138303885Y-95872419D02*
X138113409Y-95872419D01*
X138113409Y-95872419D02*
X138018171Y-95824800D01*
X138018171Y-95824800D02*
X137970552Y-95777180D01*
X137970552Y-95777180D02*
X137922933Y-95681942D01*
X137922933Y-95681942D02*
X137922933Y-95396228D01*
X137922933Y-95396228D02*
X137970552Y-95300990D01*
X137970552Y-95300990D02*
X138018171Y-95253371D01*
X138018171Y-95253371D02*
X138113409Y-95205752D01*
X138113409Y-95205752D02*
X138303885Y-95205752D01*
X138303885Y-95205752D02*
X138399123Y-95253371D01*
X128756265Y-89824800D02*
X128899122Y-89872419D01*
X128899122Y-89872419D02*
X129137217Y-89872419D01*
X129137217Y-89872419D02*
X129232455Y-89824800D01*
X129232455Y-89824800D02*
X129280074Y-89777180D01*
X129280074Y-89777180D02*
X129327693Y-89681942D01*
X129327693Y-89681942D02*
X129327693Y-89586704D01*
X129327693Y-89586704D02*
X129280074Y-89491466D01*
X129280074Y-89491466D02*
X129232455Y-89443847D01*
X129232455Y-89443847D02*
X129137217Y-89396228D01*
X129137217Y-89396228D02*
X128946741Y-89348609D01*
X128946741Y-89348609D02*
X128851503Y-89300990D01*
X128851503Y-89300990D02*
X128803884Y-89253371D01*
X128803884Y-89253371D02*
X128756265Y-89158133D01*
X128756265Y-89158133D02*
X128756265Y-89062895D01*
X128756265Y-89062895D02*
X128803884Y-88967657D01*
X128803884Y-88967657D02*
X128851503Y-88920038D01*
X128851503Y-88920038D02*
X128946741Y-88872419D01*
X128946741Y-88872419D02*
X129184836Y-88872419D01*
X129184836Y-88872419D02*
X129327693Y-88920038D01*
X129756265Y-89872419D02*
X129756265Y-88872419D01*
X129756265Y-88872419D02*
X129994360Y-88872419D01*
X129994360Y-88872419D02*
X130137217Y-88920038D01*
X130137217Y-88920038D02*
X130232455Y-89015276D01*
X130232455Y-89015276D02*
X130280074Y-89110514D01*
X130280074Y-89110514D02*
X130327693Y-89300990D01*
X130327693Y-89300990D02*
X130327693Y-89443847D01*
X130327693Y-89443847D02*
X130280074Y-89634323D01*
X130280074Y-89634323D02*
X130232455Y-89729561D01*
X130232455Y-89729561D02*
X130137217Y-89824800D01*
X130137217Y-89824800D02*
X129994360Y-89872419D01*
X129994360Y-89872419D02*
X129756265Y-89872419D01*
X130946741Y-88872419D02*
X131137217Y-88872419D01*
X131137217Y-88872419D02*
X131232455Y-88920038D01*
X131232455Y-88920038D02*
X131327693Y-89015276D01*
X131327693Y-89015276D02*
X131375312Y-89205752D01*
X131375312Y-89205752D02*
X131375312Y-89539085D01*
X131375312Y-89539085D02*
X131327693Y-89729561D01*
X131327693Y-89729561D02*
X131232455Y-89824800D01*
X131232455Y-89824800D02*
X131137217Y-89872419D01*
X131137217Y-89872419D02*
X130946741Y-89872419D01*
X130946741Y-89872419D02*
X130851503Y-89824800D01*
X130851503Y-89824800D02*
X130756265Y-89729561D01*
X130756265Y-89729561D02*
X130708646Y-89539085D01*
X130708646Y-89539085D02*
X130708646Y-89205752D01*
X130708646Y-89205752D02*
X130756265Y-89015276D01*
X130756265Y-89015276D02*
X130851503Y-88920038D01*
X130851503Y-88920038D02*
X130946741Y-88872419D01*
D10*
G36*
X124179942Y-89995535D02*
G01*
X124276208Y-90091801D01*
X124333082Y-90319292D01*
X124333082Y-90782363D01*
X124276208Y-91009854D01*
X124179941Y-91106122D01*
X124090529Y-91150828D01*
X123875635Y-91150828D01*
X123786221Y-91106121D01*
X123689954Y-91009854D01*
X123633082Y-90782364D01*
X123633082Y-90319291D01*
X123689954Y-90091802D01*
X123786221Y-89995534D01*
X123875635Y-89950828D01*
X124090529Y-89950828D01*
X124179942Y-89995535D01*
G37*
G36*
X126299749Y-91617495D02*
G01*
X123166415Y-91617495D01*
X123166415Y-90300828D01*
X123333082Y-90300828D01*
X123333082Y-90800828D01*
X123333584Y-90805931D01*
X123333259Y-90808119D01*
X123334878Y-90819069D01*
X123335964Y-90830092D01*
X123336811Y-90832136D01*
X123337561Y-90837208D01*
X123408989Y-91122922D01*
X123418882Y-91150613D01*
X123425521Y-91159573D01*
X123429789Y-91169877D01*
X123448444Y-91192608D01*
X123591302Y-91335466D01*
X123602806Y-91344907D01*
X123605401Y-91347899D01*
X123609910Y-91350737D01*
X123614033Y-91354121D01*
X123617694Y-91355637D01*
X123630286Y-91363564D01*
X123773144Y-91434992D01*
X123800607Y-91445502D01*
X123805982Y-91445883D01*
X123810961Y-91447946D01*
X123840225Y-91450828D01*
X124125939Y-91450828D01*
X124155203Y-91447946D01*
X124160181Y-91445883D01*
X124165557Y-91445502D01*
X124193021Y-91434992D01*
X124335878Y-91363564D01*
X124348469Y-91355637D01*
X124352132Y-91354121D01*
X124356254Y-91350737D01*
X124360764Y-91347899D01*
X124363359Y-91344906D01*
X124374862Y-91335466D01*
X124517719Y-91192608D01*
X124536374Y-91169877D01*
X124540640Y-91159575D01*
X124547281Y-91150614D01*
X124557174Y-91122923D01*
X124628603Y-90837209D01*
X124629353Y-90832136D01*
X124630200Y-90830092D01*
X124631285Y-90819072D01*
X124632905Y-90808120D01*
X124632579Y-90805931D01*
X124633082Y-90800828D01*
X124633082Y-90300828D01*
X124632579Y-90295724D01*
X124632905Y-90293536D01*
X124631285Y-90282583D01*
X124630200Y-90271564D01*
X124629353Y-90269519D01*
X124628603Y-90264447D01*
X124557174Y-89978733D01*
X124547281Y-89951042D01*
X124540641Y-89942081D01*
X124536374Y-89931778D01*
X124517719Y-89909048D01*
X124409499Y-89800828D01*
X124975939Y-89800828D01*
X124975939Y-91300828D01*
X124978821Y-91330092D01*
X125001219Y-91384164D01*
X125042603Y-91425548D01*
X125096675Y-91447946D01*
X125155203Y-91447946D01*
X125209275Y-91425548D01*
X125250659Y-91384164D01*
X125273057Y-91330092D01*
X125275939Y-91300828D01*
X125275939Y-90365661D01*
X125852846Y-91375249D01*
X125857223Y-91381416D01*
X125858362Y-91384164D01*
X125861161Y-91386963D01*
X125869867Y-91399227D01*
X125885640Y-91411442D01*
X125899746Y-91425548D01*
X125908579Y-91429206D01*
X125916141Y-91435063D01*
X125935389Y-91440312D01*
X125953818Y-91447946D01*
X125963380Y-91447946D01*
X125972605Y-91450462D01*
X125992396Y-91447946D01*
X126012346Y-91447946D01*
X126021179Y-91444286D01*
X126030665Y-91443081D01*
X126047987Y-91433182D01*
X126066418Y-91425548D01*
X126073178Y-91418787D01*
X126081481Y-91414043D01*
X126093694Y-91398271D01*
X126107802Y-91384164D01*
X126111461Y-91375328D01*
X126117316Y-91367769D01*
X126122564Y-91348524D01*
X126130200Y-91330092D01*
X126131673Y-91315127D01*
X126132716Y-91311306D01*
X126132340Y-91308354D01*
X126133082Y-91300828D01*
X126133082Y-89800828D01*
X126130200Y-89771564D01*
X126107802Y-89717492D01*
X126066418Y-89676108D01*
X126012346Y-89653710D01*
X125953818Y-89653710D01*
X125899746Y-89676108D01*
X125858362Y-89717492D01*
X125835964Y-89771564D01*
X125833082Y-89800828D01*
X125833082Y-90735992D01*
X125256175Y-89726407D01*
X125251797Y-89720239D01*
X125250659Y-89717492D01*
X125247859Y-89714692D01*
X125239154Y-89702429D01*
X125223382Y-89690215D01*
X125209275Y-89676108D01*
X125200439Y-89672448D01*
X125192880Y-89666594D01*
X125173635Y-89661345D01*
X125155203Y-89653710D01*
X125145641Y-89653710D01*
X125136416Y-89651194D01*
X125116625Y-89653710D01*
X125096675Y-89653710D01*
X125087841Y-89657369D01*
X125078356Y-89658575D01*
X125061033Y-89668473D01*
X125042603Y-89676108D01*
X125035842Y-89682868D01*
X125027540Y-89687613D01*
X125015326Y-89703384D01*
X125001219Y-89717492D01*
X124997559Y-89726327D01*
X124991705Y-89733887D01*
X124986456Y-89753131D01*
X124978821Y-89771564D01*
X124977347Y-89786530D01*
X124976305Y-89790351D01*
X124976680Y-89793302D01*
X124975939Y-89800828D01*
X124409499Y-89800828D01*
X124374862Y-89766191D01*
X124363360Y-89756751D01*
X124360764Y-89753758D01*
X124356250Y-89750917D01*
X124352131Y-89747536D01*
X124348471Y-89746020D01*
X124335878Y-89738093D01*
X124193021Y-89666664D01*
X124165558Y-89656155D01*
X124160183Y-89655773D01*
X124155203Y-89653710D01*
X124125939Y-89650828D01*
X123840225Y-89650828D01*
X123810961Y-89653710D01*
X123805980Y-89655773D01*
X123800606Y-89656155D01*
X123773142Y-89666664D01*
X123630286Y-89738093D01*
X123617692Y-89746020D01*
X123614033Y-89747536D01*
X123609913Y-89750917D01*
X123605400Y-89753758D01*
X123602803Y-89756752D01*
X123591302Y-89766191D01*
X123448444Y-89909048D01*
X123429789Y-89931778D01*
X123425520Y-89942083D01*
X123418882Y-89951043D01*
X123408989Y-89978734D01*
X123337561Y-90264448D01*
X123336811Y-90269519D01*
X123335964Y-90271564D01*
X123334878Y-90282586D01*
X123333259Y-90293537D01*
X123333584Y-90295724D01*
X123333082Y-90300828D01*
X123166415Y-90300828D01*
X123166415Y-89484161D01*
X126299749Y-89484161D01*
X126299749Y-91617495D01*
G37*
D12*
X117875312Y-75277180D02*
X117827693Y-75324800D01*
X117827693Y-75324800D02*
X117684836Y-75372419D01*
X117684836Y-75372419D02*
X117589598Y-75372419D01*
X117589598Y-75372419D02*
X117446741Y-75324800D01*
X117446741Y-75324800D02*
X117351503Y-75229561D01*
X117351503Y-75229561D02*
X117303884Y-75134323D01*
X117303884Y-75134323D02*
X117256265Y-74943847D01*
X117256265Y-74943847D02*
X117256265Y-74800990D01*
X117256265Y-74800990D02*
X117303884Y-74610514D01*
X117303884Y-74610514D02*
X117351503Y-74515276D01*
X117351503Y-74515276D02*
X117446741Y-74420038D01*
X117446741Y-74420038D02*
X117589598Y-74372419D01*
X117589598Y-74372419D02*
X117684836Y-74372419D01*
X117684836Y-74372419D02*
X117827693Y-74420038D01*
X117827693Y-74420038D02*
X117875312Y-74467657D01*
X118780074Y-75372419D02*
X118303884Y-75372419D01*
X118303884Y-75372419D02*
X118303884Y-74372419D01*
X119113408Y-75372419D02*
X119113408Y-74372419D01*
X119684836Y-75372419D02*
X119256265Y-74800990D01*
X119684836Y-74372419D02*
X119113408Y-74943847D01*
D13*
G36*
X145890662Y-57614619D02*
G01*
X138059732Y-57614619D01*
X138059732Y-56340233D01*
X138184732Y-56340233D01*
X138184732Y-56389005D01*
X138203396Y-56434065D01*
X138237884Y-56468553D01*
X138282944Y-56487217D01*
X138307330Y-56489619D01*
X138650906Y-56489619D01*
X138498972Y-56663258D01*
X138491436Y-56673798D01*
X138489110Y-56676125D01*
X138488196Y-56678330D01*
X138484721Y-56683192D01*
X138478214Y-56702430D01*
X138470446Y-56721185D01*
X138470446Y-56725398D01*
X138469095Y-56729393D01*
X138470446Y-56749654D01*
X138470446Y-56769957D01*
X138472059Y-56773852D01*
X138472340Y-56778059D01*
X138481339Y-56796257D01*
X138489110Y-56815017D01*
X138492091Y-56817998D01*
X138493960Y-56821777D01*
X138509240Y-56835147D01*
X138523598Y-56849505D01*
X138527492Y-56851118D01*
X138530665Y-56853894D01*
X138549903Y-56860400D01*
X138568658Y-56868169D01*
X138574602Y-56868754D01*
X138576866Y-56869520D01*
X138580150Y-56869300D01*
X138593044Y-56870571D01*
X138706393Y-56870571D01*
X138757094Y-56895921D01*
X138776026Y-56914854D01*
X138801377Y-56965555D01*
X138801377Y-57144633D01*
X138776025Y-57195336D01*
X138757094Y-57214268D01*
X138706393Y-57239619D01*
X138479696Y-57239619D01*
X138428994Y-57214268D01*
X138395719Y-57180993D01*
X138376777Y-57165447D01*
X138331718Y-57146782D01*
X138282945Y-57146782D01*
X138237885Y-57165446D01*
X138203397Y-57199933D01*
X138184732Y-57244992D01*
X138184732Y-57293765D01*
X138203396Y-57338825D01*
X138218941Y-57357767D01*
X138266560Y-57405387D01*
X138276148Y-57413256D01*
X138278310Y-57415749D01*
X138282064Y-57418112D01*
X138285501Y-57420933D01*
X138288554Y-57422197D01*
X138299047Y-57428803D01*
X138394285Y-57476422D01*
X138417171Y-57485180D01*
X138421651Y-57485498D01*
X138425801Y-57487217D01*
X138450187Y-57489619D01*
X138735901Y-57489619D01*
X138760287Y-57487217D01*
X138764435Y-57485498D01*
X138768917Y-57485180D01*
X138791803Y-57476422D01*
X138887040Y-57428804D01*
X138897536Y-57422196D01*
X138900586Y-57420933D01*
X138904019Y-57418114D01*
X138907778Y-57415749D01*
X138909940Y-57413255D01*
X138919528Y-57405387D01*
X138967147Y-57357768D01*
X138975014Y-57348180D01*
X138977507Y-57346019D01*
X138979873Y-57342259D01*
X138982692Y-57338825D01*
X138983954Y-57335776D01*
X138990561Y-57325282D01*
X139006896Y-57292613D01*
X139184732Y-57292613D01*
X139184732Y-57292614D01*
X139184732Y-57292615D01*
X139184732Y-57341388D01*
X139203397Y-57386447D01*
X139203401Y-57386451D01*
X139218942Y-57405388D01*
X139266560Y-57453007D01*
X139285502Y-57468552D01*
X139285503Y-57468553D01*
X139311898Y-57479485D01*
X139330562Y-57487217D01*
X139330563Y-57487217D01*
X139379335Y-57487217D01*
X139379336Y-57487217D01*
X139392533Y-57481750D01*
X139424395Y-57468553D01*
X139424400Y-57468547D01*
X139443337Y-57453007D01*
X139490956Y-57405389D01*
X139506501Y-57386447D01*
X139522019Y-57348984D01*
X139525166Y-57341388D01*
X139525166Y-57292614D01*
X139506502Y-57247555D01*
X139490957Y-57228612D01*
X139443338Y-57180993D01*
X139424396Y-57165447D01*
X139424395Y-57165446D01*
X139405731Y-57157715D01*
X139379337Y-57146782D01*
X139379335Y-57146782D01*
X139379334Y-57146782D01*
X139330561Y-57146782D01*
X139285501Y-57165447D01*
X139266560Y-57180993D01*
X139218941Y-57228613D01*
X139203396Y-57247555D01*
X139201217Y-57252816D01*
X139184732Y-57292613D01*
X139006896Y-57292613D01*
X139038180Y-57230044D01*
X139046938Y-57207158D01*
X139047256Y-57202677D01*
X139048975Y-57198528D01*
X139051377Y-57174142D01*
X139051377Y-56936047D01*
X139048975Y-56911661D01*
X139047256Y-56907511D01*
X139046938Y-56903031D01*
X139038180Y-56880145D01*
X138990561Y-56784907D01*
X138983954Y-56774412D01*
X138982691Y-56771362D01*
X138979872Y-56767927D01*
X138977507Y-56764170D01*
X138975015Y-56762008D01*
X138967146Y-56752420D01*
X138919527Y-56704802D01*
X138909941Y-56696935D01*
X138907778Y-56694441D01*
X138904016Y-56692072D01*
X138900585Y-56689257D01*
X138897538Y-56687995D01*
X138887040Y-56681386D01*
X138837134Y-56656433D01*
X139020449Y-56446932D01*
X139027984Y-56436391D01*
X139030311Y-56434065D01*
X139031224Y-56431859D01*
X139034700Y-56426998D01*
X139041206Y-56407759D01*
X139048975Y-56389005D01*
X139048975Y-56384791D01*
X139050326Y-56380797D01*
X139048975Y-56360529D01*
X139048975Y-56340233D01*
X139613303Y-56340233D01*
X139613303Y-56389005D01*
X139631967Y-56434065D01*
X139666455Y-56468553D01*
X139711515Y-56487217D01*
X139735901Y-56489619D01*
X140079477Y-56489619D01*
X139927543Y-56663258D01*
X139920007Y-56673798D01*
X139917681Y-56676125D01*
X139916767Y-56678330D01*
X139913292Y-56683192D01*
X139906785Y-56702430D01*
X139899017Y-56721185D01*
X139899017Y-56725398D01*
X139897666Y-56729393D01*
X139899017Y-56749654D01*
X139899017Y-56769957D01*
X139900630Y-56773852D01*
X139900911Y-56778059D01*
X139909910Y-56796257D01*
X139917681Y-56815017D01*
X139920662Y-56817998D01*
X139922531Y-56821777D01*
X139937811Y-56835147D01*
X139952169Y-56849505D01*
X139956063Y-56851118D01*
X139959236Y-56853894D01*
X139978474Y-56860400D01*
X139997229Y-56868169D01*
X140003173Y-56868754D01*
X140005437Y-56869520D01*
X140008721Y-56869300D01*
X140021615Y-56870571D01*
X140134964Y-56870571D01*
X140185665Y-56895921D01*
X140204597Y-56914854D01*
X140229948Y-56965555D01*
X140229948Y-57144633D01*
X140204596Y-57195336D01*
X140185665Y-57214268D01*
X140134964Y-57239619D01*
X139908267Y-57239619D01*
X139857565Y-57214268D01*
X139824290Y-57180993D01*
X139805348Y-57165447D01*
X139760289Y-57146782D01*
X139711516Y-57146782D01*
X139666456Y-57165446D01*
X139631968Y-57199933D01*
X139613303Y-57244992D01*
X139613303Y-57293765D01*
X139631967Y-57338825D01*
X139647512Y-57357767D01*
X139695131Y-57405387D01*
X139704719Y-57413256D01*
X139706881Y-57415749D01*
X139710635Y-57418112D01*
X139714072Y-57420933D01*
X139717125Y-57422197D01*
X139727618Y-57428803D01*
X139822856Y-57476422D01*
X139845742Y-57485180D01*
X139850222Y-57485498D01*
X139854372Y-57487217D01*
X139878758Y-57489619D01*
X140164472Y-57489619D01*
X140188858Y-57487217D01*
X140193006Y-57485498D01*
X140197488Y-57485180D01*
X140220374Y-57476422D01*
X140315611Y-57428804D01*
X140326107Y-57422196D01*
X140329157Y-57420933D01*
X140332590Y-57418114D01*
X140336349Y-57415749D01*
X140338511Y-57413255D01*
X140348099Y-57405387D01*
X140395718Y-57357768D01*
X140403585Y-57348180D01*
X140406078Y-57346019D01*
X140408444Y-57342259D01*
X140411263Y-57338825D01*
X140412525Y-57335776D01*
X140419132Y-57325282D01*
X140466751Y-57230044D01*
X140475509Y-57207158D01*
X140475827Y-57202677D01*
X140477546Y-57198528D01*
X140479948Y-57174142D01*
X140479948Y-56959280D01*
X140660922Y-56959280D01*
X140660922Y-57008052D01*
X140679586Y-57053112D01*
X140714074Y-57087600D01*
X140759134Y-57106264D01*
X140783520Y-57108666D01*
X141545425Y-57108666D01*
X141569811Y-57106264D01*
X141614871Y-57087600D01*
X141649359Y-57053112D01*
X141668023Y-57008052D01*
X141668023Y-56959280D01*
X141649359Y-56914220D01*
X141614871Y-56879732D01*
X141569811Y-56861068D01*
X141545425Y-56858666D01*
X140783520Y-56858666D01*
X140759134Y-56861068D01*
X140714074Y-56879732D01*
X140679586Y-56914220D01*
X140660922Y-56959280D01*
X140479948Y-56959280D01*
X140479948Y-56936047D01*
X140477546Y-56911661D01*
X140475827Y-56907511D01*
X140475509Y-56903031D01*
X140466751Y-56880145D01*
X140453116Y-56852875D01*
X141849580Y-56852875D01*
X141851398Y-56858900D01*
X141851398Y-56865196D01*
X141858389Y-56882075D01*
X141863668Y-56899569D01*
X141867655Y-56904442D01*
X141870063Y-56910255D01*
X141882978Y-56923170D01*
X141894553Y-56937317D01*
X141900101Y-56940293D01*
X141904550Y-56944742D01*
X141921428Y-56951733D01*
X141937532Y-56960372D01*
X141943793Y-56960998D01*
X141949609Y-56963407D01*
X141967882Y-56963407D01*
X141986062Y-56965225D01*
X141992088Y-56963407D01*
X141998383Y-56963407D01*
X142015262Y-56956415D01*
X142032756Y-56951137D01*
X142037629Y-56947149D01*
X142043442Y-56944742D01*
X142062384Y-56929197D01*
X142095660Y-56895921D01*
X142146362Y-56870571D01*
X142325440Y-56870571D01*
X142376141Y-56895921D01*
X142395073Y-56914854D01*
X142420424Y-56965555D01*
X142420424Y-57144633D01*
X142395072Y-57195336D01*
X142376141Y-57214268D01*
X142325440Y-57239619D01*
X142146362Y-57239619D01*
X142095660Y-57214268D01*
X142062385Y-57180993D01*
X142043443Y-57165447D01*
X141998384Y-57146782D01*
X141949611Y-57146782D01*
X141904551Y-57165446D01*
X141870063Y-57199933D01*
X141851398Y-57244992D01*
X141851398Y-57293765D01*
X141870062Y-57338825D01*
X141885607Y-57357767D01*
X141933226Y-57405387D01*
X141942814Y-57413256D01*
X141944976Y-57415749D01*
X141948730Y-57418112D01*
X141952167Y-57420933D01*
X141955220Y-57422197D01*
X141965713Y-57428803D01*
X142060951Y-57476422D01*
X142083837Y-57485180D01*
X142088317Y-57485498D01*
X142092467Y-57487217D01*
X142116853Y-57489619D01*
X142354948Y-57489619D01*
X142379334Y-57487217D01*
X142383482Y-57485498D01*
X142387964Y-57485180D01*
X142410850Y-57476422D01*
X142506087Y-57428804D01*
X142516583Y-57422196D01*
X142519633Y-57420933D01*
X142523066Y-57418114D01*
X142526825Y-57415749D01*
X142528987Y-57413255D01*
X142538575Y-57405387D01*
X142586194Y-57357768D01*
X142594061Y-57348180D01*
X142596554Y-57346019D01*
X142598920Y-57342259D01*
X142601739Y-57338825D01*
X142603001Y-57335776D01*
X142609608Y-57325282D01*
X142657227Y-57230044D01*
X142665985Y-57207158D01*
X142666303Y-57202677D01*
X142668022Y-57198528D01*
X142670424Y-57174142D01*
X142670424Y-56936047D01*
X142668022Y-56911661D01*
X142666303Y-56907511D01*
X142665985Y-56903031D01*
X142657227Y-56880145D01*
X142609608Y-56784907D01*
X142603001Y-56774412D01*
X142601738Y-56771362D01*
X142598919Y-56767927D01*
X142596554Y-56764170D01*
X142594062Y-56762008D01*
X142586193Y-56752420D01*
X142538574Y-56704802D01*
X142528988Y-56696935D01*
X142526825Y-56694441D01*
X142523063Y-56692072D01*
X142519632Y-56689257D01*
X142516585Y-56687995D01*
X142506087Y-56681386D01*
X142410850Y-56633768D01*
X142387964Y-56625010D01*
X142383482Y-56624691D01*
X142379334Y-56622973D01*
X142354948Y-56620571D01*
X142121644Y-56620571D01*
X142134739Y-56489619D01*
X142497805Y-56489619D01*
X142522191Y-56487217D01*
X142567251Y-56468553D01*
X142601739Y-56434065D01*
X142620403Y-56389005D01*
X142620403Y-56380253D01*
X142707121Y-56380253D01*
X142712554Y-56404147D01*
X143045886Y-57404147D01*
X143055877Y-57426522D01*
X143061727Y-57433268D01*
X143065723Y-57441259D01*
X143077563Y-57451527D01*
X143087832Y-57463368D01*
X143095823Y-57467363D01*
X143102569Y-57473214D01*
X143117434Y-57478169D01*
X143131456Y-57485180D01*
X143140366Y-57485813D01*
X143148838Y-57488637D01*
X143164471Y-57487526D01*
X143180106Y-57488637D01*
X143188577Y-57485813D01*
X143197487Y-57485180D01*
X143211507Y-57478169D01*
X143226375Y-57473214D01*
X143233120Y-57467363D01*
X143241112Y-57463368D01*
X143251383Y-57451524D01*
X143263221Y-57441258D01*
X143267215Y-57433269D01*
X143273067Y-57426522D01*
X143283057Y-57404147D01*
X143616390Y-56404148D01*
X143621823Y-56380254D01*
X143620712Y-56364619D01*
X144468044Y-56364619D01*
X144468044Y-57364619D01*
X144470446Y-57389005D01*
X144489110Y-57434065D01*
X144523598Y-57468553D01*
X144568658Y-57487217D01*
X144617430Y-57487217D01*
X144662490Y-57468553D01*
X144696978Y-57434065D01*
X144715642Y-57389005D01*
X144718044Y-57364619D01*
X144718044Y-56364619D01*
X144944234Y-56364619D01*
X144944234Y-57364619D01*
X144946636Y-57389005D01*
X144965300Y-57434065D01*
X144999788Y-57468553D01*
X145044848Y-57487217D01*
X145093620Y-57487217D01*
X145138680Y-57468553D01*
X145173168Y-57434065D01*
X145191832Y-57389005D01*
X145194234Y-57364619D01*
X145194234Y-56835313D01*
X145532132Y-57426636D01*
X145535778Y-57431773D01*
X145536728Y-57434065D01*
X145539062Y-57436399D01*
X145546316Y-57446618D01*
X145559460Y-57456797D01*
X145571216Y-57468553D01*
X145578576Y-57471601D01*
X145584877Y-57476481D01*
X145600918Y-57480855D01*
X145616276Y-57487217D01*
X145624243Y-57487217D01*
X145631932Y-57489314D01*
X145648427Y-57487217D01*
X145665048Y-57487217D01*
X145672408Y-57484168D01*
X145680315Y-57483163D01*
X145694749Y-57474914D01*
X145710108Y-57468553D01*
X145715742Y-57462918D01*
X145722661Y-57458965D01*
X145732840Y-57445820D01*
X145744596Y-57434065D01*
X145747644Y-57426704D01*
X145752524Y-57420404D01*
X145756899Y-57404361D01*
X145763260Y-57389005D01*
X145764488Y-57376535D01*
X145765357Y-57373350D01*
X145765044Y-57370890D01*
X145765662Y-57364619D01*
X145765662Y-56364619D01*
X145763260Y-56340233D01*
X145744596Y-56295173D01*
X145710108Y-56260685D01*
X145665048Y-56242021D01*
X145616276Y-56242021D01*
X145571216Y-56260685D01*
X145536728Y-56295173D01*
X145518064Y-56340233D01*
X145515662Y-56364619D01*
X145515662Y-56893923D01*
X145177764Y-56302602D01*
X145174117Y-56297464D01*
X145173168Y-56295173D01*
X145170833Y-56292838D01*
X145163580Y-56282620D01*
X145150435Y-56272440D01*
X145138680Y-56260685D01*
X145131319Y-56257636D01*
X145125019Y-56252757D01*
X145108977Y-56248382D01*
X145093620Y-56242021D01*
X145085653Y-56242021D01*
X145077964Y-56239924D01*
X145061469Y-56242021D01*
X145044848Y-56242021D01*
X145037487Y-56245069D01*
X145029581Y-56246075D01*
X145015146Y-56254323D01*
X144999788Y-56260685D01*
X144994153Y-56266319D01*
X144987235Y-56270273D01*
X144977055Y-56283417D01*
X144965300Y-56295173D01*
X144962251Y-56302533D01*
X144957372Y-56308834D01*
X144952997Y-56324875D01*
X144946636Y-56340233D01*
X144945407Y-56352704D01*
X144944539Y-56355889D01*
X144944851Y-56358348D01*
X144944234Y-56364619D01*
X144718044Y-56364619D01*
X144715642Y-56340233D01*
X144696978Y-56295173D01*
X144662490Y-56260685D01*
X144617430Y-56242021D01*
X144568658Y-56242021D01*
X144523598Y-56260685D01*
X144489110Y-56295173D01*
X144470446Y-56340233D01*
X144468044Y-56364619D01*
X143620712Y-56364619D01*
X143618366Y-56331604D01*
X143596554Y-56287980D01*
X143559708Y-56256024D01*
X143513439Y-56240601D01*
X143464789Y-56244058D01*
X143421165Y-56265870D01*
X143389210Y-56302716D01*
X143379219Y-56325091D01*
X143164471Y-56969334D01*
X142949724Y-56325091D01*
X142939734Y-56302716D01*
X142907779Y-56265870D01*
X142864154Y-56244058D01*
X142815505Y-56240601D01*
X142769236Y-56256024D01*
X142732390Y-56287979D01*
X142710578Y-56331604D01*
X142707121Y-56380253D01*
X142620403Y-56380253D01*
X142620403Y-56340233D01*
X142601739Y-56295173D01*
X142567251Y-56260685D01*
X142522191Y-56242021D01*
X142497805Y-56239619D01*
X142021615Y-56239619D01*
X142012594Y-56240507D01*
X142009549Y-56240203D01*
X142006574Y-56241100D01*
X141997229Y-56242021D01*
X141980347Y-56249013D01*
X141962855Y-56254291D01*
X141957983Y-56258276D01*
X141952169Y-56260685D01*
X141939248Y-56273605D01*
X141925107Y-56285176D01*
X141922131Y-56290722D01*
X141917681Y-56295173D01*
X141910688Y-56312055D01*
X141902052Y-56328155D01*
X141900205Y-56337362D01*
X141899017Y-56340233D01*
X141899017Y-56343292D01*
X141897235Y-56352181D01*
X141849616Y-56828371D01*
X141849580Y-56852875D01*
X140453116Y-56852875D01*
X140419132Y-56784907D01*
X140412525Y-56774412D01*
X140411262Y-56771362D01*
X140408443Y-56767927D01*
X140406078Y-56764170D01*
X140403586Y-56762008D01*
X140395717Y-56752420D01*
X140348098Y-56704802D01*
X140338512Y-56696935D01*
X140336349Y-56694441D01*
X140332587Y-56692072D01*
X140329156Y-56689257D01*
X140326109Y-56687995D01*
X140315611Y-56681386D01*
X140265705Y-56656433D01*
X140449020Y-56446932D01*
X140456555Y-56436391D01*
X140458882Y-56434065D01*
X140459795Y-56431859D01*
X140463271Y-56426998D01*
X140469777Y-56407759D01*
X140477546Y-56389005D01*
X140477546Y-56384791D01*
X140478897Y-56380797D01*
X140477546Y-56360529D01*
X140477546Y-56340233D01*
X140475933Y-56336340D01*
X140475653Y-56332131D01*
X140466649Y-56313925D01*
X140458882Y-56295173D01*
X140455900Y-56292191D01*
X140454032Y-56288413D01*
X140438751Y-56275042D01*
X140424394Y-56260685D01*
X140420499Y-56259071D01*
X140417327Y-56256296D01*
X140398088Y-56249789D01*
X140379334Y-56242021D01*
X140373389Y-56241435D01*
X140371126Y-56240670D01*
X140367841Y-56240888D01*
X140354948Y-56239619D01*
X139735901Y-56239619D01*
X139711515Y-56242021D01*
X139666455Y-56260685D01*
X139631967Y-56295173D01*
X139613303Y-56340233D01*
X139048975Y-56340233D01*
X139047362Y-56336340D01*
X139047082Y-56332131D01*
X139038078Y-56313925D01*
X139030311Y-56295173D01*
X139027329Y-56292191D01*
X139025461Y-56288413D01*
X139010180Y-56275042D01*
X138995823Y-56260685D01*
X138991928Y-56259071D01*
X138988756Y-56256296D01*
X138969517Y-56249789D01*
X138950763Y-56242021D01*
X138944818Y-56241435D01*
X138942555Y-56240670D01*
X138939270Y-56240888D01*
X138926377Y-56239619D01*
X138307330Y-56239619D01*
X138282944Y-56242021D01*
X138237884Y-56260685D01*
X138203396Y-56295173D01*
X138184732Y-56340233D01*
X138059732Y-56340233D01*
X138059732Y-56114619D01*
X145890662Y-56114619D01*
X145890662Y-57614619D01*
G37*
D11*
G36*
X148432505Y-76664894D02*
G01*
X148480985Y-76713374D01*
X148534600Y-76820602D01*
X148534600Y-77059101D01*
X148480985Y-77166329D01*
X148432505Y-77214809D01*
X148325278Y-77268423D01*
X148015349Y-77268423D01*
X147908120Y-77214809D01*
X147859644Y-77166332D01*
X147806028Y-77059100D01*
X147806028Y-76820603D01*
X147859644Y-76713371D01*
X147908119Y-76664895D01*
X148015349Y-76611280D01*
X148325277Y-76611280D01*
X148432505Y-76664894D01*
G37*
G36*
X149003934Y-73807752D02*
G01*
X149052414Y-73856232D01*
X149106028Y-73963459D01*
X149106028Y-74201960D01*
X149052414Y-74309187D01*
X149003934Y-74357667D01*
X148896707Y-74411281D01*
X148586778Y-74411281D01*
X148479550Y-74357667D01*
X148431070Y-74309187D01*
X148377457Y-74201960D01*
X148377457Y-73963459D01*
X148431070Y-73856232D01*
X148479550Y-73807752D01*
X148586778Y-73754138D01*
X148896706Y-73754138D01*
X149003934Y-73807752D01*
G37*
G36*
X148813978Y-68605631D02*
G01*
X148932508Y-68664896D01*
X149047197Y-68779585D01*
X149106028Y-68956078D01*
X149106028Y-69196996D01*
X147806028Y-69196996D01*
X147806028Y-68956080D01*
X147864859Y-68779586D01*
X147979548Y-68664896D01*
X148098076Y-68605631D01*
X148361194Y-68539853D01*
X148550862Y-68539853D01*
X148813978Y-68605631D01*
G37*
G36*
X148813978Y-65962774D02*
G01*
X148932508Y-66022039D01*
X149047197Y-66136728D01*
X149106028Y-66313221D01*
X149106028Y-66554139D01*
X147806028Y-66554139D01*
X147806028Y-66313223D01*
X147864859Y-66136729D01*
X147979548Y-66022039D01*
X148098076Y-65962774D01*
X148361194Y-65896996D01*
X148550862Y-65896996D01*
X148813978Y-65962774D01*
G37*
G36*
X148584048Y-62339853D02*
G01*
X148443921Y-62339853D01*
X148351993Y-62293889D01*
X148306028Y-62201959D01*
X148306028Y-61963461D01*
X148351993Y-61871531D01*
X148443921Y-61825568D01*
X148481191Y-61825568D01*
X148584048Y-62339853D01*
G37*
G36*
X148885407Y-58177061D02*
G01*
X149003937Y-58236327D01*
X149052414Y-58284803D01*
X149106028Y-58392031D01*
X149106028Y-58487675D01*
X149052413Y-58594904D01*
X149003937Y-58643380D01*
X148885407Y-58702646D01*
X148622291Y-58768425D01*
X148289766Y-58768425D01*
X148026647Y-58702646D01*
X147908119Y-58643381D01*
X147859642Y-58594903D01*
X147806028Y-58487675D01*
X147806028Y-58392033D01*
X147859643Y-58284803D01*
X147908119Y-58236326D01*
X148026646Y-58177062D01*
X148289766Y-58111282D01*
X148622290Y-58111282D01*
X148885407Y-58177061D01*
G37*
G36*
X149472695Y-91348907D02*
G01*
X147439361Y-91348907D01*
X147439361Y-90296993D01*
X147606028Y-90296993D01*
X147606028Y-91011279D01*
X147606738Y-91018495D01*
X147606495Y-91020932D01*
X147607212Y-91023310D01*
X147607949Y-91030788D01*
X147613545Y-91044297D01*
X147617766Y-91058287D01*
X147620953Y-91062183D01*
X147622881Y-91066836D01*
X147633217Y-91077172D01*
X147642473Y-91088485D01*
X147646910Y-91090865D01*
X147650471Y-91094426D01*
X147663976Y-91100020D01*
X147676857Y-91106930D01*
X147684221Y-91108406D01*
X147686519Y-91109358D01*
X147688969Y-91109358D01*
X147696078Y-91110783D01*
X148410363Y-91182211D01*
X148429967Y-91182240D01*
X148434788Y-91180785D01*
X148439824Y-91180785D01*
X148453332Y-91175189D01*
X148467321Y-91170969D01*
X148471215Y-91167782D01*
X148475872Y-91165854D01*
X148486214Y-91155511D01*
X148497520Y-91146262D01*
X148499899Y-91141826D01*
X148503462Y-91138264D01*
X148509057Y-91124755D01*
X148515965Y-91111878D01*
X148516465Y-91106867D01*
X148518393Y-91102215D01*
X148518392Y-91087599D01*
X148519847Y-91073054D01*
X148518392Y-91068232D01*
X148518392Y-91063197D01*
X148512797Y-91049690D01*
X148508576Y-91035699D01*
X148505389Y-91031803D01*
X148503461Y-91027149D01*
X148491024Y-91011996D01*
X148431070Y-90952043D01*
X148377457Y-90844815D01*
X148377457Y-90534885D01*
X148431070Y-90427658D01*
X148479550Y-90379178D01*
X148586778Y-90325564D01*
X148896706Y-90325564D01*
X149003934Y-90379178D01*
X149052414Y-90427658D01*
X149106028Y-90534885D01*
X149106028Y-90844815D01*
X149052414Y-90952043D01*
X148992461Y-91011996D01*
X148980024Y-91027149D01*
X148965093Y-91063197D01*
X148965092Y-91102215D01*
X148980023Y-91138264D01*
X149007613Y-91165854D01*
X149043661Y-91180785D01*
X149082679Y-91180786D01*
X149118728Y-91165855D01*
X149133881Y-91153418D01*
X149205310Y-91081990D01*
X149211605Y-91074320D01*
X149213600Y-91072590D01*
X149215491Y-91069584D01*
X149217747Y-91066837D01*
X149218758Y-91064395D01*
X149224043Y-91056000D01*
X149295471Y-90913143D01*
X149302477Y-90894834D01*
X149302731Y-90891251D01*
X149304107Y-90887931D01*
X149306028Y-90868422D01*
X149306028Y-90511279D01*
X149304107Y-90491770D01*
X149302731Y-90488449D01*
X149302477Y-90484867D01*
X149295471Y-90466558D01*
X149224043Y-90323701D01*
X149218757Y-90315304D01*
X149217747Y-90312865D01*
X149215493Y-90310118D01*
X149213600Y-90307111D01*
X149211605Y-90305381D01*
X149205311Y-90297711D01*
X149133882Y-90226282D01*
X149126215Y-90219990D01*
X149124483Y-90217993D01*
X149121471Y-90216097D01*
X149118728Y-90213846D01*
X149116290Y-90212836D01*
X149107892Y-90207550D01*
X148965036Y-90136121D01*
X148946727Y-90129115D01*
X148943143Y-90128860D01*
X148939823Y-90127485D01*
X148920314Y-90125564D01*
X148563171Y-90125564D01*
X148543662Y-90127485D01*
X148540341Y-90128860D01*
X148536758Y-90129115D01*
X148518449Y-90136121D01*
X148375592Y-90207550D01*
X148367193Y-90212836D01*
X148364757Y-90213846D01*
X148362013Y-90216097D01*
X148359002Y-90217993D01*
X148357269Y-90219990D01*
X148349603Y-90226282D01*
X148278174Y-90297711D01*
X148271882Y-90305377D01*
X148269885Y-90307110D01*
X148267989Y-90310121D01*
X148265738Y-90312865D01*
X148264728Y-90315302D01*
X148259442Y-90323701D01*
X148188014Y-90466558D01*
X148181008Y-90484866D01*
X148180753Y-90488449D01*
X148179378Y-90491770D01*
X148177457Y-90511279D01*
X148177457Y-90868422D01*
X148179378Y-90887931D01*
X148180753Y-90891251D01*
X148181008Y-90894835D01*
X148188014Y-90913143D01*
X148212137Y-90961390D01*
X147806028Y-90920779D01*
X147806028Y-90296993D01*
X147804107Y-90277484D01*
X147789175Y-90241436D01*
X147761585Y-90213846D01*
X147725537Y-90198914D01*
X147686519Y-90198914D01*
X147650471Y-90213846D01*
X147622881Y-90241436D01*
X147607949Y-90277484D01*
X147606028Y-90296993D01*
X147439361Y-90296993D01*
X147439361Y-88868422D01*
X147606028Y-88868422D01*
X147606028Y-89582708D01*
X147606738Y-89589924D01*
X147606495Y-89592361D01*
X147607212Y-89594739D01*
X147607949Y-89602217D01*
X147613545Y-89615726D01*
X147617766Y-89629716D01*
X147620953Y-89633612D01*
X147622881Y-89638265D01*
X147633217Y-89648601D01*
X147642473Y-89659914D01*
X147646910Y-89662294D01*
X147650471Y-89665855D01*
X147663976Y-89671449D01*
X147676857Y-89678359D01*
X147684221Y-89679835D01*
X147686519Y-89680787D01*
X147688969Y-89680787D01*
X147696078Y-89682212D01*
X148410363Y-89753640D01*
X148429967Y-89753669D01*
X148434788Y-89752214D01*
X148439824Y-89752214D01*
X148453332Y-89746618D01*
X148467321Y-89742398D01*
X148471215Y-89739211D01*
X148475872Y-89737283D01*
X148486214Y-89726940D01*
X148497520Y-89717691D01*
X148499899Y-89713255D01*
X148503462Y-89709693D01*
X148509057Y-89696184D01*
X148515965Y-89683307D01*
X148516465Y-89678296D01*
X148518393Y-89673644D01*
X148518392Y-89659028D01*
X148519847Y-89644483D01*
X148518392Y-89639661D01*
X148518392Y-89634626D01*
X148512797Y-89621119D01*
X148508576Y-89607128D01*
X148505389Y-89603232D01*
X148503461Y-89598578D01*
X148491024Y-89583425D01*
X148431070Y-89523472D01*
X148377457Y-89416244D01*
X148377457Y-89106314D01*
X148431070Y-88999087D01*
X148479550Y-88950607D01*
X148586778Y-88896993D01*
X148896706Y-88896993D01*
X149003934Y-88950607D01*
X149052414Y-88999087D01*
X149106028Y-89106314D01*
X149106028Y-89416244D01*
X149052414Y-89523472D01*
X148992461Y-89583425D01*
X148980024Y-89598578D01*
X148965093Y-89634626D01*
X148965092Y-89673644D01*
X148980023Y-89709693D01*
X149007613Y-89737283D01*
X149043661Y-89752214D01*
X149082679Y-89752215D01*
X149118728Y-89737284D01*
X149133881Y-89724847D01*
X149205310Y-89653419D01*
X149211605Y-89645749D01*
X149213600Y-89644019D01*
X149215491Y-89641013D01*
X149217747Y-89638266D01*
X149218758Y-89635824D01*
X149224043Y-89627429D01*
X149295471Y-89484572D01*
X149302477Y-89466263D01*
X149302731Y-89462680D01*
X149304107Y-89459360D01*
X149306028Y-89439851D01*
X149306028Y-89082708D01*
X149304107Y-89063199D01*
X149302731Y-89059878D01*
X149302477Y-89056296D01*
X149295471Y-89037987D01*
X149224043Y-88895130D01*
X149218757Y-88886733D01*
X149217747Y-88884294D01*
X149215493Y-88881547D01*
X149213600Y-88878540D01*
X149211605Y-88876810D01*
X149205311Y-88869140D01*
X149133882Y-88797711D01*
X149126215Y-88791419D01*
X149124483Y-88789422D01*
X149121471Y-88787526D01*
X149118728Y-88785275D01*
X149116290Y-88784265D01*
X149107892Y-88778979D01*
X148965036Y-88707550D01*
X148946727Y-88700544D01*
X148943143Y-88700289D01*
X148939823Y-88698914D01*
X148920314Y-88696993D01*
X148563171Y-88696993D01*
X148543662Y-88698914D01*
X148540341Y-88700289D01*
X148536758Y-88700544D01*
X148518449Y-88707550D01*
X148375592Y-88778979D01*
X148367193Y-88784265D01*
X148364757Y-88785275D01*
X148362013Y-88787526D01*
X148359002Y-88789422D01*
X148357269Y-88791419D01*
X148349603Y-88797711D01*
X148278174Y-88869140D01*
X148271882Y-88876806D01*
X148269885Y-88878539D01*
X148267989Y-88881550D01*
X148265738Y-88884294D01*
X148264728Y-88886731D01*
X148259442Y-88895130D01*
X148188014Y-89037987D01*
X148181008Y-89056295D01*
X148180753Y-89059878D01*
X148179378Y-89063199D01*
X148177457Y-89082708D01*
X148177457Y-89439851D01*
X148179378Y-89459360D01*
X148180753Y-89462680D01*
X148181008Y-89466264D01*
X148188014Y-89484572D01*
X148212137Y-89532819D01*
X147806028Y-89492208D01*
X147806028Y-88868422D01*
X147804107Y-88848913D01*
X147789175Y-88812865D01*
X147761585Y-88785275D01*
X147725537Y-88770343D01*
X147686519Y-88770343D01*
X147650471Y-88785275D01*
X147622881Y-88812865D01*
X147607949Y-88848913D01*
X147606028Y-88868422D01*
X147439361Y-88868422D01*
X147439361Y-87439851D01*
X147606028Y-87439851D01*
X147606028Y-88154137D01*
X147606738Y-88161353D01*
X147606495Y-88163790D01*
X147607212Y-88166168D01*
X147607949Y-88173646D01*
X147613545Y-88187155D01*
X147617766Y-88201145D01*
X147620953Y-88205041D01*
X147622881Y-88209694D01*
X147633217Y-88220030D01*
X147642473Y-88231343D01*
X147646910Y-88233723D01*
X147650471Y-88237284D01*
X147663976Y-88242878D01*
X147676857Y-88249788D01*
X147684221Y-88251264D01*
X147686519Y-88252216D01*
X147688969Y-88252216D01*
X147696078Y-88253641D01*
X148410363Y-88325069D01*
X148429967Y-88325098D01*
X148434788Y-88323643D01*
X148439824Y-88323643D01*
X148453332Y-88318047D01*
X148467321Y-88313827D01*
X148471215Y-88310640D01*
X148475872Y-88308712D01*
X148486214Y-88298369D01*
X148497520Y-88289120D01*
X148499899Y-88284684D01*
X148503462Y-88281122D01*
X148509057Y-88267613D01*
X148515965Y-88254736D01*
X148516465Y-88249725D01*
X148518393Y-88245073D01*
X148518392Y-88230457D01*
X148519847Y-88215912D01*
X148518392Y-88211090D01*
X148518392Y-88206055D01*
X148512797Y-88192548D01*
X148508576Y-88178557D01*
X148505389Y-88174661D01*
X148503461Y-88170007D01*
X148491024Y-88154854D01*
X148431070Y-88094901D01*
X148377457Y-87987673D01*
X148377457Y-87677743D01*
X148431070Y-87570516D01*
X148479550Y-87522036D01*
X148586778Y-87468422D01*
X148896706Y-87468422D01*
X149003934Y-87522036D01*
X149052414Y-87570516D01*
X149106028Y-87677743D01*
X149106028Y-87987673D01*
X149052414Y-88094901D01*
X148992461Y-88154854D01*
X148980024Y-88170007D01*
X148965093Y-88206055D01*
X148965092Y-88245073D01*
X148980023Y-88281122D01*
X149007613Y-88308712D01*
X149043661Y-88323643D01*
X149082679Y-88323644D01*
X149118728Y-88308713D01*
X149133881Y-88296276D01*
X149205310Y-88224848D01*
X149211605Y-88217178D01*
X149213600Y-88215448D01*
X149215491Y-88212442D01*
X149217747Y-88209695D01*
X149218758Y-88207253D01*
X149224043Y-88198858D01*
X149295471Y-88056001D01*
X149302477Y-88037692D01*
X149302731Y-88034109D01*
X149304107Y-88030789D01*
X149306028Y-88011280D01*
X149306028Y-87654137D01*
X149304107Y-87634628D01*
X149302731Y-87631307D01*
X149302477Y-87627725D01*
X149295471Y-87609416D01*
X149224043Y-87466559D01*
X149218757Y-87458162D01*
X149217747Y-87455723D01*
X149215493Y-87452976D01*
X149213600Y-87449969D01*
X149211605Y-87448239D01*
X149205311Y-87440569D01*
X149133882Y-87369140D01*
X149126215Y-87362848D01*
X149124483Y-87360851D01*
X149121471Y-87358955D01*
X149118728Y-87356704D01*
X149116290Y-87355694D01*
X149107892Y-87350408D01*
X148965036Y-87278979D01*
X148946727Y-87271973D01*
X148943143Y-87271718D01*
X148939823Y-87270343D01*
X148920314Y-87268422D01*
X148563171Y-87268422D01*
X148543662Y-87270343D01*
X148540341Y-87271718D01*
X148536758Y-87271973D01*
X148518449Y-87278979D01*
X148375592Y-87350408D01*
X148367193Y-87355694D01*
X148364757Y-87356704D01*
X148362013Y-87358955D01*
X148359002Y-87360851D01*
X148357269Y-87362848D01*
X148349603Y-87369140D01*
X148278174Y-87440569D01*
X148271882Y-87448235D01*
X148269885Y-87449968D01*
X148267989Y-87452979D01*
X148265738Y-87455723D01*
X148264728Y-87458160D01*
X148259442Y-87466559D01*
X148188014Y-87609416D01*
X148181008Y-87627724D01*
X148180753Y-87631307D01*
X148179378Y-87634628D01*
X148177457Y-87654137D01*
X148177457Y-88011280D01*
X148179378Y-88030789D01*
X148180753Y-88034109D01*
X148181008Y-88037693D01*
X148188014Y-88056001D01*
X148212137Y-88104248D01*
X147806028Y-88063637D01*
X147806028Y-87439851D01*
X147804107Y-87420342D01*
X147789175Y-87384294D01*
X147761585Y-87356704D01*
X147725537Y-87341772D01*
X147686519Y-87341772D01*
X147650471Y-87356704D01*
X147622881Y-87384294D01*
X147607949Y-87420342D01*
X147606028Y-87439851D01*
X147439361Y-87439851D01*
X147439361Y-84991771D01*
X147965092Y-84991771D01*
X147965092Y-85030789D01*
X147980024Y-85066837D01*
X148007614Y-85094427D01*
X148043662Y-85109359D01*
X148063171Y-85111280D01*
X148534600Y-85111280D01*
X148534600Y-85582709D01*
X148536521Y-85602218D01*
X148551453Y-85638266D01*
X148579043Y-85665856D01*
X148615091Y-85680788D01*
X148654109Y-85680788D01*
X148690157Y-85665856D01*
X148717747Y-85638266D01*
X148732679Y-85602218D01*
X148734600Y-85582709D01*
X148734600Y-85111280D01*
X149206028Y-85111280D01*
X149225537Y-85109359D01*
X149261585Y-85094427D01*
X149289175Y-85066837D01*
X149304107Y-85030789D01*
X149304107Y-84991771D01*
X149289175Y-84955723D01*
X149261585Y-84928133D01*
X149225537Y-84913201D01*
X149206028Y-84911280D01*
X148734600Y-84911280D01*
X148734600Y-84439852D01*
X148732679Y-84420343D01*
X148717747Y-84384295D01*
X148690157Y-84356705D01*
X148654109Y-84341773D01*
X148615091Y-84341773D01*
X148579043Y-84356705D01*
X148551453Y-84384295D01*
X148536521Y-84420343D01*
X148534600Y-84439852D01*
X148534600Y-84911280D01*
X148063171Y-84911280D01*
X148043662Y-84913201D01*
X148007614Y-84928133D01*
X147980024Y-84955723D01*
X147965092Y-84991771D01*
X147439361Y-84991771D01*
X147439361Y-81939852D01*
X147606028Y-81939852D01*
X147606028Y-82796994D01*
X147607949Y-82816503D01*
X147622881Y-82852551D01*
X147650471Y-82880141D01*
X147686519Y-82895073D01*
X147725537Y-82895073D01*
X147761585Y-82880141D01*
X147789175Y-82852551D01*
X147804107Y-82816503D01*
X147806028Y-82796994D01*
X147806028Y-82468423D01*
X149206028Y-82468423D01*
X149225537Y-82466502D01*
X149261585Y-82451570D01*
X149289175Y-82423980D01*
X149304107Y-82387932D01*
X149304107Y-82348914D01*
X149289175Y-82312866D01*
X149261585Y-82285276D01*
X149225537Y-82270344D01*
X149206028Y-82268423D01*
X147806028Y-82268423D01*
X147806028Y-81939852D01*
X147804107Y-81920343D01*
X147789175Y-81884295D01*
X147761585Y-81856705D01*
X147725537Y-81841773D01*
X147686519Y-81841773D01*
X147650471Y-81856705D01*
X147622881Y-81884295D01*
X147607949Y-81920343D01*
X147606028Y-81939852D01*
X147439361Y-81939852D01*
X147439361Y-81420343D01*
X147607949Y-81420343D01*
X147607949Y-81459361D01*
X147622881Y-81495409D01*
X147650471Y-81522999D01*
X147686519Y-81537931D01*
X147706028Y-81539852D01*
X149206028Y-81539852D01*
X149225537Y-81537931D01*
X149261585Y-81522999D01*
X149289175Y-81495409D01*
X149304107Y-81459361D01*
X149306028Y-81439852D01*
X149306028Y-80725566D01*
X149304107Y-80706057D01*
X149289175Y-80670009D01*
X149261585Y-80642419D01*
X149225537Y-80627487D01*
X149186519Y-80627487D01*
X149150471Y-80642419D01*
X149122881Y-80670009D01*
X149107949Y-80706057D01*
X149106028Y-80725566D01*
X149106028Y-81339852D01*
X147706028Y-81339852D01*
X147686519Y-81341773D01*
X147650471Y-81356705D01*
X147622881Y-81384295D01*
X147607949Y-81420343D01*
X147439361Y-81420343D01*
X147439361Y-79654137D01*
X147606028Y-79654137D01*
X147606028Y-79796994D01*
X147607000Y-79806867D01*
X147606813Y-79809502D01*
X147607600Y-79812965D01*
X147607949Y-79816503D01*
X147608960Y-79818944D01*
X147611160Y-79828617D01*
X147682589Y-80042903D01*
X147690580Y-80060803D01*
X147692935Y-80063518D01*
X147694310Y-80066837D01*
X147706746Y-80081991D01*
X147849603Y-80224847D01*
X147857269Y-80231139D01*
X147859002Y-80233137D01*
X147862011Y-80235031D01*
X147864756Y-80237284D01*
X147867194Y-80238294D01*
X147875592Y-80243580D01*
X148018449Y-80315009D01*
X148019877Y-80315555D01*
X148020457Y-80315985D01*
X148028627Y-80318903D01*
X148036758Y-80322015D01*
X148037480Y-80322066D01*
X148038918Y-80322580D01*
X148324631Y-80394008D01*
X148328012Y-80394508D01*
X148329376Y-80395073D01*
X148336726Y-80395796D01*
X148344024Y-80396876D01*
X148345482Y-80396658D01*
X148348885Y-80396994D01*
X148563171Y-80396994D01*
X148566573Y-80396658D01*
X148568032Y-80396876D01*
X148575328Y-80395796D01*
X148582680Y-80395073D01*
X148584044Y-80394507D01*
X148587424Y-80394008D01*
X148873138Y-80322580D01*
X148874575Y-80322066D01*
X148875298Y-80322015D01*
X148883428Y-80318903D01*
X148891599Y-80315985D01*
X148892178Y-80315555D01*
X148893607Y-80315009D01*
X149036463Y-80243580D01*
X149044861Y-80238293D01*
X149047299Y-80237284D01*
X149050041Y-80235032D01*
X149053054Y-80233137D01*
X149054787Y-80231138D01*
X149062452Y-80224848D01*
X149205310Y-80081991D01*
X149217747Y-80066838D01*
X149219121Y-80063518D01*
X149221477Y-80060803D01*
X149229468Y-80042903D01*
X149300896Y-79828617D01*
X149303095Y-79818945D01*
X149304107Y-79816503D01*
X149304455Y-79812964D01*
X149305243Y-79809501D01*
X149305055Y-79806867D01*
X149306028Y-79796994D01*
X149306028Y-79654137D01*
X149305055Y-79644263D01*
X149305243Y-79641630D01*
X149304455Y-79638166D01*
X149304107Y-79634628D01*
X149303095Y-79632185D01*
X149300896Y-79622514D01*
X149229468Y-79408228D01*
X149221477Y-79390328D01*
X149219122Y-79387612D01*
X149217747Y-79384293D01*
X149205310Y-79369140D01*
X149133881Y-79297712D01*
X149118728Y-79285275D01*
X149082679Y-79270344D01*
X149043661Y-79270345D01*
X149007613Y-79285276D01*
X148980023Y-79312866D01*
X148965092Y-79348915D01*
X148965093Y-79387933D01*
X148980024Y-79423981D01*
X148992461Y-79439134D01*
X149047197Y-79493869D01*
X149106028Y-79670362D01*
X149106028Y-79780768D01*
X149047197Y-79957261D01*
X148932508Y-80071950D01*
X148813978Y-80131215D01*
X148550862Y-80196994D01*
X148361194Y-80196994D01*
X148098076Y-80131215D01*
X147979548Y-80071950D01*
X147864859Y-79957260D01*
X147806028Y-79780766D01*
X147806028Y-79670364D01*
X147864859Y-79493870D01*
X147919595Y-79439134D01*
X147932032Y-79423981D01*
X147946963Y-79387932D01*
X147946963Y-79348914D01*
X147932032Y-79312866D01*
X147904442Y-79285276D01*
X147868394Y-79270345D01*
X147829376Y-79270345D01*
X147793327Y-79285276D01*
X147778174Y-79297713D01*
X147706746Y-79369140D01*
X147694310Y-79384294D01*
X147692935Y-79387612D01*
X147690580Y-79390328D01*
X147682589Y-79408228D01*
X147611160Y-79622514D01*
X147608960Y-79632186D01*
X147607949Y-79634628D01*
X147607600Y-79638165D01*
X147606813Y-79641629D01*
X147607000Y-79644263D01*
X147606028Y-79654137D01*
X147439361Y-79654137D01*
X147439361Y-78011280D01*
X147606028Y-78011280D01*
X147606028Y-78725566D01*
X147606738Y-78732782D01*
X147606495Y-78735219D01*
X147607212Y-78737597D01*
X147607949Y-78745075D01*
X147613545Y-78758584D01*
X147617766Y-78772574D01*
X147620953Y-78776470D01*
X147622881Y-78781123D01*
X147633217Y-78791459D01*
X147642473Y-78802772D01*
X147646910Y-78805152D01*
X147650471Y-78808713D01*
X147663976Y-78814307D01*
X147676857Y-78821217D01*
X147684221Y-78822693D01*
X147686519Y-78823645D01*
X147688969Y-78823645D01*
X147696078Y-78825070D01*
X148410363Y-78896498D01*
X148429967Y-78896527D01*
X148434788Y-78895072D01*
X148439824Y-78895072D01*
X148453332Y-78889476D01*
X148467321Y-78885256D01*
X148471215Y-78882069D01*
X148475872Y-78880141D01*
X148486214Y-78869798D01*
X148497520Y-78860549D01*
X148499899Y-78856113D01*
X148503462Y-78852551D01*
X148509057Y-78839042D01*
X148515965Y-78826165D01*
X148516465Y-78821154D01*
X148518393Y-78816502D01*
X148518392Y-78801886D01*
X148519847Y-78787341D01*
X148518392Y-78782519D01*
X148518392Y-78777484D01*
X148512797Y-78763977D01*
X148508576Y-78749986D01*
X148505389Y-78746090D01*
X148503461Y-78741436D01*
X148491024Y-78726283D01*
X148431070Y-78666330D01*
X148377457Y-78559102D01*
X148377457Y-78249172D01*
X148431070Y-78141945D01*
X148479550Y-78093465D01*
X148586778Y-78039851D01*
X148896706Y-78039851D01*
X149003934Y-78093465D01*
X149052414Y-78141945D01*
X149106028Y-78249172D01*
X149106028Y-78559102D01*
X149052414Y-78666330D01*
X148992461Y-78726283D01*
X148980024Y-78741436D01*
X148965093Y-78777484D01*
X148965092Y-78816502D01*
X148980023Y-78852551D01*
X149007613Y-78880141D01*
X149043661Y-78895072D01*
X149082679Y-78895073D01*
X149118728Y-78880142D01*
X149133881Y-78867705D01*
X149205310Y-78796277D01*
X149211605Y-78788607D01*
X149213600Y-78786877D01*
X149215491Y-78783871D01*
X149217747Y-78781124D01*
X149218758Y-78778682D01*
X149224043Y-78770287D01*
X149295471Y-78627430D01*
X149302477Y-78609121D01*
X149302731Y-78605538D01*
X149304107Y-78602218D01*
X149306028Y-78582709D01*
X149306028Y-78225566D01*
X149304107Y-78206057D01*
X149302731Y-78202736D01*
X149302477Y-78199154D01*
X149295471Y-78180845D01*
X149224043Y-78037988D01*
X149218757Y-78029591D01*
X149217747Y-78027152D01*
X149215493Y-78024405D01*
X149213600Y-78021398D01*
X149211605Y-78019668D01*
X149205311Y-78011998D01*
X149133882Y-77940569D01*
X149126215Y-77934277D01*
X149124483Y-77932280D01*
X149121471Y-77930384D01*
X149118728Y-77928133D01*
X149116290Y-77927123D01*
X149107892Y-77921837D01*
X148965036Y-77850408D01*
X148946727Y-77843402D01*
X148943143Y-77843147D01*
X148939823Y-77841772D01*
X148920314Y-77839851D01*
X148563171Y-77839851D01*
X148543662Y-77841772D01*
X148540341Y-77843147D01*
X148536758Y-77843402D01*
X148518449Y-77850408D01*
X148375592Y-77921837D01*
X148367193Y-77927123D01*
X148364757Y-77928133D01*
X148362013Y-77930384D01*
X148359002Y-77932280D01*
X148357269Y-77934277D01*
X148349603Y-77940569D01*
X148278174Y-78011998D01*
X148271882Y-78019664D01*
X148269885Y-78021397D01*
X148267989Y-78024408D01*
X148265738Y-78027152D01*
X148264728Y-78029589D01*
X148259442Y-78037988D01*
X148188014Y-78180845D01*
X148181008Y-78199153D01*
X148180753Y-78202736D01*
X148179378Y-78206057D01*
X148177457Y-78225566D01*
X148177457Y-78582709D01*
X148179378Y-78602218D01*
X148180753Y-78605538D01*
X148181008Y-78609122D01*
X148188014Y-78627430D01*
X148212137Y-78675677D01*
X147806028Y-78635066D01*
X147806028Y-78011280D01*
X147804107Y-77991771D01*
X147789175Y-77955723D01*
X147761585Y-77928133D01*
X147725537Y-77913201D01*
X147686519Y-77913201D01*
X147650471Y-77928133D01*
X147622881Y-77955723D01*
X147607949Y-77991771D01*
X147606028Y-78011280D01*
X147439361Y-78011280D01*
X147439361Y-76796995D01*
X147606028Y-76796995D01*
X147606028Y-77082709D01*
X147607949Y-77102218D01*
X147609324Y-77105538D01*
X147609579Y-77109122D01*
X147616585Y-77127431D01*
X147688014Y-77270287D01*
X147693297Y-77278681D01*
X147694309Y-77281123D01*
X147696563Y-77283870D01*
X147698457Y-77286878D01*
X147700453Y-77288609D01*
X147706746Y-77296276D01*
X147778174Y-77367705D01*
X147785843Y-77374000D01*
X147787574Y-77375995D01*
X147790579Y-77377886D01*
X147793327Y-77380142D01*
X147795768Y-77381153D01*
X147804164Y-77386438D01*
X147947021Y-77457866D01*
X147965330Y-77464872D01*
X147968912Y-77465126D01*
X147972233Y-77466502D01*
X147991742Y-77468423D01*
X148348885Y-77468423D01*
X148368394Y-77466502D01*
X148371714Y-77465126D01*
X148375298Y-77464872D01*
X148393606Y-77457866D01*
X148536463Y-77386438D01*
X148544861Y-77381151D01*
X148547299Y-77380142D01*
X148550042Y-77377890D01*
X148553054Y-77375995D01*
X148554786Y-77373997D01*
X148562453Y-77367706D01*
X148633882Y-77296277D01*
X148640173Y-77288610D01*
X148642171Y-77286878D01*
X148644066Y-77283866D01*
X148646318Y-77281123D01*
X148647327Y-77278686D01*
X148652614Y-77270288D01*
X148724043Y-77127431D01*
X148731049Y-77109122D01*
X148731303Y-77105538D01*
X148732679Y-77102218D01*
X148734600Y-77082709D01*
X148734600Y-76796995D01*
X148732679Y-76777486D01*
X148731303Y-76774165D01*
X148731049Y-76770582D01*
X148724043Y-76752273D01*
X148668215Y-76640618D01*
X148807826Y-76675521D01*
X148999460Y-76803277D01*
X149052414Y-76856231D01*
X149106028Y-76963458D01*
X149106028Y-77225566D01*
X149107949Y-77245075D01*
X149122881Y-77281123D01*
X149150471Y-77308713D01*
X149186519Y-77323645D01*
X149225537Y-77323645D01*
X149261585Y-77308713D01*
X149289175Y-77281123D01*
X149304107Y-77245075D01*
X149306028Y-77225566D01*
X149306028Y-76939852D01*
X149304107Y-76920343D01*
X149302731Y-76917022D01*
X149302477Y-76913440D01*
X149295471Y-76895131D01*
X149224043Y-76752274D01*
X149218757Y-76743877D01*
X149217747Y-76741438D01*
X149215493Y-76738691D01*
X149213600Y-76735684D01*
X149211605Y-76733954D01*
X149205311Y-76726284D01*
X149133882Y-76654855D01*
X149133827Y-76654810D01*
X149133808Y-76654781D01*
X149126259Y-76648599D01*
X149118728Y-76642419D01*
X149118695Y-76642405D01*
X149118641Y-76642361D01*
X148904355Y-76499504D01*
X148893585Y-76493761D01*
X148891599Y-76492290D01*
X148889253Y-76491452D01*
X148887057Y-76490281D01*
X148884633Y-76489801D01*
X148873138Y-76485695D01*
X148587425Y-76414266D01*
X148584043Y-76413765D01*
X148582680Y-76413201D01*
X148575329Y-76412477D01*
X148568032Y-76411398D01*
X148566573Y-76411615D01*
X148563171Y-76411280D01*
X147991742Y-76411280D01*
X147972233Y-76413201D01*
X147968912Y-76414576D01*
X147965329Y-76414831D01*
X147947020Y-76421837D01*
X147804163Y-76493266D01*
X147795765Y-76498551D01*
X147793327Y-76499562D01*
X147790582Y-76501814D01*
X147787573Y-76503709D01*
X147785840Y-76505706D01*
X147778174Y-76511999D01*
X147706746Y-76583428D01*
X147700453Y-76591094D01*
X147698457Y-76592826D01*
X147696563Y-76595833D01*
X147694309Y-76598581D01*
X147693297Y-76601022D01*
X147688014Y-76609417D01*
X147616585Y-76752273D01*
X147609579Y-76770582D01*
X147609324Y-76774165D01*
X147607949Y-76777486D01*
X147606028Y-76796995D01*
X147439361Y-76796995D01*
X147439361Y-75511386D01*
X147606028Y-75511386D01*
X147607949Y-75520991D01*
X147607949Y-75530790D01*
X147611738Y-75539938D01*
X147613680Y-75549646D01*
X147619131Y-75557786D01*
X147622881Y-75566838D01*
X147629880Y-75573837D01*
X147635391Y-75582066D01*
X147650397Y-75594354D01*
X147650471Y-75594428D01*
X147650503Y-75594441D01*
X147650558Y-75594486D01*
X147856603Y-75731849D01*
X147980984Y-75856229D01*
X148045157Y-75984573D01*
X148055600Y-76001164D01*
X148085077Y-76026728D01*
X148122093Y-76039067D01*
X148161013Y-76036301D01*
X148195912Y-76018851D01*
X148221476Y-75989375D01*
X148233815Y-75952359D01*
X148231049Y-75913439D01*
X148224043Y-75895130D01*
X148152614Y-75752273D01*
X148147328Y-75743875D01*
X148146318Y-75741437D01*
X148144065Y-75738692D01*
X148142171Y-75735683D01*
X148140173Y-75733950D01*
X148133881Y-75726284D01*
X148018879Y-75611281D01*
X149106028Y-75611281D01*
X149106028Y-75939852D01*
X149107949Y-75959361D01*
X149122881Y-75995409D01*
X149150471Y-76022999D01*
X149186519Y-76037931D01*
X149225537Y-76037931D01*
X149261585Y-76022999D01*
X149289175Y-75995409D01*
X149304107Y-75959361D01*
X149306028Y-75939852D01*
X149306028Y-75082709D01*
X149304107Y-75063200D01*
X149289175Y-75027152D01*
X149261585Y-74999562D01*
X149225537Y-74984630D01*
X149186519Y-74984630D01*
X149150471Y-74999562D01*
X149122881Y-75027152D01*
X149107949Y-75063200D01*
X149106028Y-75082709D01*
X149106028Y-75411281D01*
X147706028Y-75411281D01*
X147705957Y-75411287D01*
X147705923Y-75411281D01*
X147705821Y-75411301D01*
X147686519Y-75413202D01*
X147677370Y-75416991D01*
X147667663Y-75418933D01*
X147659522Y-75424384D01*
X147650471Y-75428134D01*
X147643471Y-75435133D01*
X147635243Y-75440644D01*
X147629807Y-75448797D01*
X147622881Y-75455724D01*
X147619092Y-75464870D01*
X147613600Y-75473109D01*
X147611698Y-75482719D01*
X147607949Y-75491772D01*
X147607949Y-75501675D01*
X147606028Y-75511386D01*
X147439361Y-75511386D01*
X147439361Y-73796996D01*
X147606028Y-73796996D01*
X147606028Y-74082710D01*
X147607949Y-74102219D01*
X147609324Y-74105539D01*
X147609579Y-74109123D01*
X147616585Y-74127432D01*
X147688014Y-74270288D01*
X147693297Y-74278682D01*
X147694309Y-74281124D01*
X147696563Y-74283871D01*
X147698457Y-74286879D01*
X147700453Y-74288610D01*
X147706746Y-74296277D01*
X147778174Y-74367706D01*
X147778226Y-74367749D01*
X147778248Y-74367781D01*
X147785841Y-74373998D01*
X147793327Y-74380143D01*
X147793361Y-74380157D01*
X147793415Y-74380201D01*
X148007701Y-74523058D01*
X148018472Y-74528801D01*
X148020457Y-74530272D01*
X148022800Y-74531109D01*
X148025000Y-74532282D01*
X148027427Y-74532762D01*
X148038918Y-74536867D01*
X148324631Y-74608295D01*
X148328012Y-74608795D01*
X148329376Y-74609360D01*
X148336726Y-74610083D01*
X148344024Y-74611163D01*
X148345482Y-74610945D01*
X148348885Y-74611281D01*
X148920314Y-74611281D01*
X148939823Y-74609360D01*
X148943143Y-74607984D01*
X148946727Y-74607730D01*
X148965035Y-74600724D01*
X149107892Y-74529296D01*
X149116290Y-74524009D01*
X149118728Y-74523000D01*
X149121471Y-74520748D01*
X149124483Y-74518853D01*
X149126215Y-74516855D01*
X149133882Y-74510564D01*
X149205311Y-74439135D01*
X149211605Y-74431464D01*
X149213600Y-74429735D01*
X149215493Y-74426727D01*
X149217747Y-74423981D01*
X149218757Y-74421541D01*
X149224043Y-74413145D01*
X149295471Y-74270288D01*
X149302477Y-74251979D01*
X149302731Y-74248396D01*
X149304107Y-74245076D01*
X149306028Y-74225567D01*
X149306028Y-73939853D01*
X149304107Y-73920344D01*
X149302731Y-73917023D01*
X149302477Y-73913441D01*
X149295471Y-73895132D01*
X149224043Y-73752275D01*
X149218757Y-73743878D01*
X149217747Y-73741439D01*
X149215493Y-73738692D01*
X149213600Y-73735685D01*
X149211605Y-73733955D01*
X149205311Y-73726285D01*
X149133882Y-73654856D01*
X149126215Y-73648564D01*
X149124483Y-73646567D01*
X149121471Y-73644671D01*
X149118728Y-73642420D01*
X149116290Y-73641410D01*
X149107892Y-73636124D01*
X148965036Y-73564695D01*
X148946727Y-73557689D01*
X148943143Y-73557434D01*
X148939823Y-73556059D01*
X148920314Y-73554138D01*
X148563171Y-73554138D01*
X148543662Y-73556059D01*
X148540341Y-73557434D01*
X148536758Y-73557689D01*
X148518449Y-73564695D01*
X148375592Y-73636124D01*
X148367193Y-73641410D01*
X148364757Y-73642420D01*
X148362013Y-73644671D01*
X148359002Y-73646567D01*
X148357269Y-73648564D01*
X148349603Y-73654856D01*
X148278174Y-73726285D01*
X148271882Y-73733951D01*
X148269885Y-73735684D01*
X148267989Y-73738695D01*
X148265738Y-73741439D01*
X148264728Y-73743876D01*
X148259442Y-73752275D01*
X148188014Y-73895132D01*
X148181008Y-73913440D01*
X148180753Y-73917023D01*
X148179378Y-73920344D01*
X148177457Y-73939853D01*
X148177457Y-74225567D01*
X148179378Y-74245076D01*
X148180753Y-74248396D01*
X148181008Y-74251980D01*
X148188014Y-74270288D01*
X148243841Y-74381943D01*
X148104229Y-74347040D01*
X147912593Y-74219283D01*
X147859644Y-74166333D01*
X147806028Y-74059101D01*
X147806028Y-73796996D01*
X147804107Y-73777487D01*
X147789175Y-73741439D01*
X147761585Y-73713849D01*
X147725537Y-73698917D01*
X147686519Y-73698917D01*
X147650471Y-73713849D01*
X147622881Y-73741439D01*
X147607949Y-73777487D01*
X147606028Y-73796996D01*
X147439361Y-73796996D01*
X147439361Y-71848916D01*
X147607949Y-71848916D01*
X147607949Y-71887934D01*
X147622881Y-71923982D01*
X147650471Y-71951572D01*
X147686519Y-71966504D01*
X147706028Y-71968425D01*
X149206028Y-71968425D01*
X149225537Y-71966504D01*
X149261585Y-71951572D01*
X149289175Y-71923982D01*
X149304107Y-71887934D01*
X149306028Y-71868425D01*
X149306028Y-71154139D01*
X149304107Y-71134630D01*
X149289175Y-71098582D01*
X149261585Y-71070992D01*
X149225537Y-71056060D01*
X149186519Y-71056060D01*
X149150471Y-71070992D01*
X149122881Y-71098582D01*
X149107949Y-71134630D01*
X149106028Y-71154139D01*
X149106028Y-71768425D01*
X147706028Y-71768425D01*
X147686519Y-71770346D01*
X147650471Y-71785278D01*
X147622881Y-71812868D01*
X147607949Y-71848916D01*
X147439361Y-71848916D01*
X147439361Y-69939853D01*
X147606028Y-69939853D01*
X147606028Y-70654139D01*
X147607949Y-70673648D01*
X147622881Y-70709696D01*
X147650471Y-70737286D01*
X147686519Y-70752218D01*
X147706028Y-70754139D01*
X149206028Y-70754139D01*
X149225537Y-70752218D01*
X149261585Y-70737286D01*
X149289175Y-70709696D01*
X149304107Y-70673648D01*
X149306028Y-70654139D01*
X149306028Y-69939853D01*
X149304107Y-69920344D01*
X149289175Y-69884296D01*
X149261585Y-69856706D01*
X149225537Y-69841774D01*
X149186519Y-69841774D01*
X149150471Y-69856706D01*
X149122881Y-69884296D01*
X149107949Y-69920344D01*
X149106028Y-69939853D01*
X149106028Y-70554139D01*
X148520314Y-70554139D01*
X148520314Y-70154139D01*
X148518393Y-70134630D01*
X148503461Y-70098582D01*
X148475871Y-70070992D01*
X148439823Y-70056060D01*
X148400805Y-70056060D01*
X148364757Y-70070992D01*
X148337167Y-70098582D01*
X148322235Y-70134630D01*
X148320314Y-70154139D01*
X148320314Y-70554139D01*
X147806028Y-70554139D01*
X147806028Y-69939853D01*
X147804107Y-69920344D01*
X147789175Y-69884296D01*
X147761585Y-69856706D01*
X147725537Y-69841774D01*
X147686519Y-69841774D01*
X147650471Y-69856706D01*
X147622881Y-69884296D01*
X147607949Y-69920344D01*
X147606028Y-69939853D01*
X147439361Y-69939853D01*
X147439361Y-68939853D01*
X147606028Y-68939853D01*
X147606028Y-69296996D01*
X147607949Y-69316505D01*
X147622881Y-69352553D01*
X147650471Y-69380143D01*
X147686519Y-69395075D01*
X147706028Y-69396996D01*
X149206028Y-69396996D01*
X149225537Y-69395075D01*
X149261585Y-69380143D01*
X149289175Y-69352553D01*
X149304107Y-69316505D01*
X149306028Y-69296996D01*
X149306028Y-68939853D01*
X149305055Y-68929979D01*
X149305243Y-68927346D01*
X149304455Y-68923882D01*
X149304107Y-68920344D01*
X149303095Y-68917901D01*
X149300896Y-68908230D01*
X149229468Y-68693944D01*
X149221477Y-68676044D01*
X149219121Y-68673328D01*
X149217747Y-68670009D01*
X149205310Y-68654856D01*
X149062452Y-68511999D01*
X149054787Y-68505708D01*
X149053054Y-68503710D01*
X149050041Y-68501814D01*
X149047299Y-68499563D01*
X149044861Y-68498553D01*
X149036463Y-68493267D01*
X148893607Y-68421838D01*
X148892178Y-68421291D01*
X148891599Y-68420862D01*
X148883428Y-68417943D01*
X148875298Y-68414832D01*
X148874575Y-68414780D01*
X148873138Y-68414267D01*
X148587424Y-68342839D01*
X148584044Y-68342339D01*
X148582680Y-68341774D01*
X148575328Y-68341050D01*
X148568032Y-68339971D01*
X148566573Y-68340188D01*
X148563171Y-68339853D01*
X148348885Y-68339853D01*
X148345482Y-68340188D01*
X148344024Y-68339971D01*
X148336726Y-68341050D01*
X148329376Y-68341774D01*
X148328012Y-68342338D01*
X148324631Y-68342839D01*
X148038918Y-68414267D01*
X148037480Y-68414780D01*
X148036758Y-68414832D01*
X148028627Y-68417943D01*
X148020457Y-68420862D01*
X148019877Y-68421291D01*
X148018449Y-68421838D01*
X147875592Y-68493267D01*
X147867194Y-68498552D01*
X147864756Y-68499563D01*
X147862011Y-68501815D01*
X147859002Y-68503710D01*
X147857269Y-68505707D01*
X147849603Y-68512000D01*
X147706746Y-68654856D01*
X147694310Y-68670010D01*
X147692935Y-68673328D01*
X147690580Y-68676044D01*
X147682589Y-68693944D01*
X147611160Y-68908230D01*
X147608960Y-68917902D01*
X147607949Y-68920344D01*
X147607600Y-68923881D01*
X147606813Y-68927345D01*
X147607000Y-68929979D01*
X147606028Y-68939853D01*
X147439361Y-68939853D01*
X147439361Y-66296996D01*
X147606028Y-66296996D01*
X147606028Y-66654139D01*
X147607949Y-66673648D01*
X147622881Y-66709696D01*
X147650471Y-66737286D01*
X147686519Y-66752218D01*
X147706028Y-66754139D01*
X149206028Y-66754139D01*
X149225537Y-66752218D01*
X149261585Y-66737286D01*
X149289175Y-66709696D01*
X149304107Y-66673648D01*
X149306028Y-66654139D01*
X149306028Y-66296996D01*
X149305055Y-66287122D01*
X149305243Y-66284489D01*
X149304455Y-66281025D01*
X149304107Y-66277487D01*
X149303095Y-66275044D01*
X149300896Y-66265373D01*
X149229468Y-66051087D01*
X149221477Y-66033187D01*
X149219121Y-66030471D01*
X149217747Y-66027152D01*
X149205310Y-66011999D01*
X149062452Y-65869142D01*
X149054787Y-65862851D01*
X149053054Y-65860853D01*
X149050041Y-65858957D01*
X149047299Y-65856706D01*
X149044861Y-65855696D01*
X149036463Y-65850410D01*
X148893607Y-65778981D01*
X148892178Y-65778434D01*
X148891599Y-65778005D01*
X148883428Y-65775086D01*
X148875298Y-65771975D01*
X148874575Y-65771923D01*
X148873138Y-65771410D01*
X148587424Y-65699982D01*
X148584044Y-65699482D01*
X148582680Y-65698917D01*
X148575328Y-65698193D01*
X148568032Y-65697114D01*
X148566573Y-65697331D01*
X148563171Y-65696996D01*
X148348885Y-65696996D01*
X148345482Y-65697331D01*
X148344024Y-65697114D01*
X148336726Y-65698193D01*
X148329376Y-65698917D01*
X148328012Y-65699481D01*
X148324631Y-65699982D01*
X148038918Y-65771410D01*
X148037480Y-65771923D01*
X148036758Y-65771975D01*
X148028627Y-65775086D01*
X148020457Y-65778005D01*
X148019877Y-65778434D01*
X148018449Y-65778981D01*
X147875592Y-65850410D01*
X147867194Y-65855695D01*
X147864756Y-65856706D01*
X147862011Y-65858958D01*
X147859002Y-65860853D01*
X147857269Y-65862850D01*
X147849603Y-65869143D01*
X147706746Y-66011999D01*
X147694310Y-66027153D01*
X147692935Y-66030471D01*
X147690580Y-66033187D01*
X147682589Y-66051087D01*
X147611160Y-66265373D01*
X147608960Y-66275045D01*
X147607949Y-66277487D01*
X147607600Y-66281024D01*
X147606813Y-66284488D01*
X147607000Y-66287122D01*
X147606028Y-66296996D01*
X147439361Y-66296996D01*
X147439361Y-64725567D01*
X148106028Y-64725567D01*
X148106028Y-64868424D01*
X148107949Y-64887933D01*
X148109324Y-64891253D01*
X148109579Y-64894837D01*
X148116585Y-64913145D01*
X148187971Y-65055917D01*
X148186519Y-65056060D01*
X148150471Y-65070992D01*
X148122881Y-65098582D01*
X148107949Y-65134630D01*
X148107949Y-65173648D01*
X148122881Y-65209696D01*
X148150471Y-65237286D01*
X148186519Y-65252218D01*
X148206028Y-65254139D01*
X149206028Y-65254139D01*
X149225537Y-65252218D01*
X149261585Y-65237286D01*
X149289175Y-65209696D01*
X149304107Y-65173648D01*
X149304107Y-65134630D01*
X149289175Y-65098582D01*
X149261585Y-65070992D01*
X149225537Y-65056060D01*
X149206028Y-65054139D01*
X148515349Y-65054139D01*
X148408119Y-65000523D01*
X148359642Y-64952045D01*
X148306028Y-64844817D01*
X148306028Y-64725567D01*
X148304107Y-64706058D01*
X148289175Y-64670010D01*
X148261585Y-64642420D01*
X148225537Y-64627488D01*
X148186519Y-64627488D01*
X148150471Y-64642420D01*
X148122881Y-64670010D01*
X148107949Y-64706058D01*
X148106028Y-64725567D01*
X147439361Y-64725567D01*
X147439361Y-64206059D01*
X147607949Y-64206059D01*
X147607949Y-64245077D01*
X147616696Y-64266194D01*
X147622881Y-64281126D01*
X147635318Y-64296279D01*
X147706747Y-64367707D01*
X147721900Y-64380144D01*
X147747390Y-64390701D01*
X147757948Y-64395075D01*
X147757949Y-64395075D01*
X147796966Y-64395075D01*
X147818083Y-64386327D01*
X147833015Y-64380143D01*
X147833019Y-64380138D01*
X147848168Y-64367707D01*
X147919595Y-64296279D01*
X147932032Y-64281126D01*
X147936405Y-64270567D01*
X147946964Y-64245077D01*
X147946964Y-64206059D01*
X148107949Y-64206059D01*
X148107949Y-64245077D01*
X148122881Y-64281125D01*
X148150471Y-64308715D01*
X148186519Y-64323647D01*
X148206028Y-64325568D01*
X149206028Y-64325568D01*
X149225537Y-64323647D01*
X149261585Y-64308715D01*
X149289175Y-64281125D01*
X149304107Y-64245077D01*
X149304107Y-64206059D01*
X149289175Y-64170011D01*
X149261585Y-64142421D01*
X149225537Y-64127489D01*
X149206028Y-64125568D01*
X148206028Y-64125568D01*
X148186519Y-64127489D01*
X148150471Y-64142421D01*
X148122881Y-64170011D01*
X148107949Y-64206059D01*
X147946964Y-64206059D01*
X147933539Y-64173648D01*
X147932033Y-64170011D01*
X147919596Y-64154858D01*
X147848168Y-64083429D01*
X147833015Y-64070992D01*
X147818083Y-64064807D01*
X147796966Y-64056060D01*
X147757948Y-64056060D01*
X147747390Y-64060433D01*
X147721900Y-64070991D01*
X147721894Y-64070996D01*
X147706746Y-64083428D01*
X147635317Y-64154857D01*
X147622885Y-64170005D01*
X147622880Y-64170011D01*
X147621374Y-64173648D01*
X147607949Y-64206059D01*
X147439361Y-64206059D01*
X147439361Y-62925238D01*
X148107101Y-62925238D01*
X148109039Y-62964208D01*
X148125742Y-62999470D01*
X148154668Y-63025657D01*
X148172394Y-63034027D01*
X148908706Y-63296996D01*
X148172394Y-63559965D01*
X148154668Y-63568335D01*
X148125742Y-63594522D01*
X148109039Y-63629784D01*
X148107101Y-63668754D01*
X148120224Y-63705499D01*
X148146411Y-63734425D01*
X148181673Y-63751128D01*
X148220643Y-63753066D01*
X148239662Y-63748313D01*
X149239662Y-63391170D01*
X149257388Y-63382800D01*
X149261110Y-63379429D01*
X149265645Y-63377282D01*
X149275463Y-63366435D01*
X149286314Y-63356613D01*
X149288462Y-63352076D01*
X149291831Y-63348356D01*
X149296753Y-63334574D01*
X149303017Y-63321351D01*
X149303266Y-63316339D01*
X149304955Y-63311611D01*
X149304228Y-63296996D01*
X149304955Y-63282381D01*
X149303266Y-63277652D01*
X149303017Y-63272641D01*
X149296753Y-63259417D01*
X149291831Y-63245636D01*
X149288462Y-63241915D01*
X149286314Y-63237379D01*
X149275463Y-63227556D01*
X149265645Y-63216710D01*
X149261110Y-63214562D01*
X149257388Y-63211192D01*
X149239662Y-63202822D01*
X148239662Y-62845679D01*
X148220643Y-62840926D01*
X148181673Y-62842864D01*
X148146411Y-62859567D01*
X148120224Y-62888493D01*
X148107101Y-62925238D01*
X147439361Y-62925238D01*
X147439361Y-61939853D01*
X148106028Y-61939853D01*
X148106028Y-62225568D01*
X148107949Y-62245077D01*
X148109324Y-62248397D01*
X148109579Y-62251981D01*
X148116585Y-62270290D01*
X148188014Y-62413146D01*
X148190068Y-62416409D01*
X148190581Y-62417948D01*
X148192242Y-62419863D01*
X148198457Y-62429737D01*
X148207932Y-62437954D01*
X148216146Y-62447425D01*
X148226017Y-62453638D01*
X148227934Y-62455301D01*
X148229472Y-62455814D01*
X148232736Y-62457868D01*
X148375593Y-62529296D01*
X148393902Y-62536302D01*
X148397484Y-62536556D01*
X148400805Y-62537932D01*
X148420314Y-62539853D01*
X148706128Y-62539853D01*
X148706133Y-62539854D01*
X148706138Y-62539853D01*
X148991742Y-62539853D01*
X149011251Y-62537932D01*
X149014571Y-62536556D01*
X149018154Y-62536302D01*
X149036463Y-62529296D01*
X149179321Y-62457868D01*
X149182584Y-62455813D01*
X149184123Y-62455301D01*
X149186038Y-62453639D01*
X149195912Y-62447425D01*
X149204129Y-62437949D01*
X149213600Y-62429736D01*
X149219813Y-62419864D01*
X149221476Y-62417948D01*
X149221989Y-62416408D01*
X149224043Y-62413146D01*
X149295471Y-62270289D01*
X149302477Y-62251980D01*
X149302731Y-62248397D01*
X149304107Y-62245077D01*
X149306028Y-62225568D01*
X149306028Y-61939853D01*
X149304107Y-61920344D01*
X149302731Y-61917023D01*
X149302477Y-61913441D01*
X149295471Y-61895132D01*
X149224043Y-61752275D01*
X149213600Y-61735685D01*
X149184123Y-61710120D01*
X149147108Y-61697781D01*
X149108187Y-61700547D01*
X149073289Y-61717996D01*
X149047724Y-61747473D01*
X149035385Y-61784488D01*
X149038151Y-61823409D01*
X149045157Y-61841717D01*
X149106028Y-61963459D01*
X149106028Y-62201961D01*
X149060064Y-62293889D01*
X148968135Y-62339853D01*
X148788008Y-62339853D01*
X148661229Y-61705956D01*
X148655519Y-61687203D01*
X148650067Y-61679062D01*
X148646318Y-61670011D01*
X148639318Y-61663011D01*
X148633808Y-61654783D01*
X148625654Y-61649347D01*
X148618728Y-61642421D01*
X148609581Y-61638632D01*
X148601343Y-61633140D01*
X148591732Y-61631238D01*
X148582680Y-61627489D01*
X148563171Y-61625568D01*
X148420314Y-61625568D01*
X148400805Y-61627489D01*
X148397484Y-61628864D01*
X148393902Y-61629119D01*
X148375593Y-61636125D01*
X148232736Y-61707553D01*
X148229472Y-61709606D01*
X148227934Y-61710120D01*
X148226017Y-61711782D01*
X148216146Y-61717996D01*
X148207932Y-61727466D01*
X148198457Y-61735684D01*
X148192242Y-61745557D01*
X148190581Y-61747473D01*
X148190068Y-61749011D01*
X148188014Y-61752275D01*
X148116585Y-61895131D01*
X148109579Y-61913440D01*
X148109324Y-61917023D01*
X148107949Y-61920344D01*
X148106028Y-61939853D01*
X147439361Y-61939853D01*
X147439361Y-59353810D01*
X148107101Y-59353810D01*
X148109039Y-59392780D01*
X148125742Y-59428042D01*
X148154668Y-59454229D01*
X148172394Y-59462599D01*
X148908706Y-59725568D01*
X148172394Y-59988537D01*
X148154668Y-59996907D01*
X148125742Y-60023094D01*
X148109039Y-60058356D01*
X148107101Y-60097326D01*
X148120224Y-60134071D01*
X148146411Y-60162997D01*
X148181673Y-60179700D01*
X148220643Y-60181638D01*
X148239662Y-60176885D01*
X149239662Y-59819742D01*
X149257388Y-59811372D01*
X149261110Y-59808001D01*
X149265645Y-59805854D01*
X149275463Y-59795007D01*
X149286314Y-59785185D01*
X149288462Y-59780648D01*
X149291831Y-59776928D01*
X149296753Y-59763146D01*
X149303017Y-59749923D01*
X149303266Y-59744911D01*
X149304955Y-59740183D01*
X149304228Y-59725568D01*
X149304955Y-59710953D01*
X149303266Y-59706224D01*
X149303017Y-59701213D01*
X149296753Y-59687989D01*
X149291831Y-59674208D01*
X149288462Y-59670487D01*
X149286314Y-59665951D01*
X149275463Y-59656128D01*
X149265645Y-59645282D01*
X149261110Y-59643134D01*
X149257388Y-59639764D01*
X149239662Y-59631394D01*
X148239662Y-59274251D01*
X148220643Y-59269498D01*
X148181673Y-59271436D01*
X148146411Y-59288139D01*
X148120224Y-59317065D01*
X148107101Y-59353810D01*
X147439361Y-59353810D01*
X147439361Y-58368425D01*
X147606028Y-58368425D01*
X147606028Y-58511282D01*
X147607949Y-58530791D01*
X147609324Y-58534111D01*
X147609579Y-58537695D01*
X147616585Y-58556003D01*
X147688014Y-58698861D01*
X147693300Y-58707259D01*
X147694310Y-58709697D01*
X147696561Y-58712440D01*
X147698457Y-58715452D01*
X147700454Y-58717184D01*
X147706746Y-58724851D01*
X147778174Y-58796278D01*
X147785840Y-58802570D01*
X147787573Y-58804568D01*
X147790582Y-58806462D01*
X147793327Y-58808715D01*
X147795765Y-58809725D01*
X147804163Y-58815011D01*
X147947020Y-58886440D01*
X147948448Y-58886986D01*
X147949028Y-58887416D01*
X147957198Y-58890334D01*
X147965329Y-58893446D01*
X147966051Y-58893497D01*
X147967489Y-58894011D01*
X148253204Y-58965439D01*
X148256583Y-58965938D01*
X148257948Y-58966504D01*
X148265299Y-58967227D01*
X148272596Y-58968307D01*
X148274054Y-58968089D01*
X148277457Y-58968425D01*
X148634600Y-58968425D01*
X148638002Y-58968089D01*
X148639461Y-58968307D01*
X148646757Y-58967227D01*
X148654109Y-58966504D01*
X148655473Y-58965938D01*
X148658853Y-58965439D01*
X148944567Y-58894011D01*
X148946004Y-58893497D01*
X148946727Y-58893446D01*
X148954857Y-58890334D01*
X148963028Y-58887416D01*
X148963607Y-58886986D01*
X148965036Y-58886440D01*
X149107892Y-58815011D01*
X149116286Y-58809727D01*
X149118728Y-58808716D01*
X149121475Y-58806461D01*
X149124483Y-58804568D01*
X149126214Y-58802571D01*
X149133881Y-58796279D01*
X149205310Y-58724851D01*
X149211604Y-58717181D01*
X149213600Y-58715451D01*
X149215491Y-58712445D01*
X149217747Y-58709698D01*
X149218758Y-58707256D01*
X149224043Y-58698861D01*
X149295471Y-58556003D01*
X149302478Y-58537694D01*
X149302732Y-58534108D01*
X149304107Y-58530791D01*
X149306028Y-58511282D01*
X149306028Y-58368425D01*
X149304107Y-58348916D01*
X149302731Y-58345595D01*
X149302477Y-58342013D01*
X149295471Y-58323704D01*
X149224043Y-58180847D01*
X149218758Y-58172451D01*
X149217747Y-58170010D01*
X149215491Y-58167262D01*
X149213600Y-58164257D01*
X149211605Y-58162526D01*
X149205310Y-58154857D01*
X149133881Y-58083429D01*
X149126214Y-58077136D01*
X149124483Y-58075140D01*
X149121475Y-58073246D01*
X149118728Y-58070992D01*
X149116286Y-58069980D01*
X149107892Y-58064697D01*
X148965036Y-57993268D01*
X148963607Y-57992721D01*
X148963028Y-57992292D01*
X148954857Y-57989373D01*
X148946727Y-57986262D01*
X148946004Y-57986210D01*
X148944567Y-57985697D01*
X148658854Y-57914268D01*
X148655472Y-57913767D01*
X148654109Y-57913203D01*
X148646758Y-57912479D01*
X148639461Y-57911400D01*
X148638002Y-57911617D01*
X148634600Y-57911282D01*
X148277457Y-57911282D01*
X148274053Y-57911617D01*
X148272595Y-57911400D01*
X148265296Y-57912479D01*
X148257948Y-57913203D01*
X148256584Y-57913767D01*
X148253203Y-57914268D01*
X147967488Y-57985697D01*
X147966049Y-57986210D01*
X147965329Y-57986262D01*
X147957204Y-57989370D01*
X147949028Y-57992292D01*
X147948448Y-57992721D01*
X147947020Y-57993268D01*
X147804163Y-58064697D01*
X147795765Y-58069982D01*
X147793327Y-58070993D01*
X147790582Y-58073245D01*
X147787573Y-58075140D01*
X147785840Y-58077137D01*
X147778174Y-58083430D01*
X147706746Y-58154857D01*
X147700454Y-58162523D01*
X147698457Y-58164256D01*
X147696561Y-58167267D01*
X147694310Y-58170011D01*
X147693300Y-58172448D01*
X147688014Y-58180847D01*
X147616585Y-58323703D01*
X147609579Y-58342012D01*
X147609324Y-58345595D01*
X147607949Y-58348916D01*
X147606028Y-58368425D01*
X147439361Y-58368425D01*
X147439361Y-57348917D01*
X148965092Y-57348917D01*
X148965092Y-57387935D01*
X148973839Y-57409052D01*
X148980024Y-57423984D01*
X148992461Y-57439137D01*
X149063890Y-57510565D01*
X149079043Y-57523002D01*
X149104533Y-57533559D01*
X149115091Y-57537933D01*
X149115092Y-57537933D01*
X149154109Y-57537933D01*
X149175226Y-57529185D01*
X149190158Y-57523001D01*
X149190162Y-57522996D01*
X149205311Y-57510565D01*
X149276738Y-57439137D01*
X149289175Y-57423984D01*
X149293548Y-57413425D01*
X149304107Y-57387935D01*
X149304107Y-57348917D01*
X149290682Y-57316506D01*
X149289176Y-57312869D01*
X149276739Y-57297716D01*
X149205311Y-57226287D01*
X149190158Y-57213850D01*
X149175226Y-57207665D01*
X149154109Y-57198918D01*
X149115091Y-57198918D01*
X149104533Y-57203291D01*
X149079043Y-57213849D01*
X149079037Y-57213854D01*
X149063889Y-57226286D01*
X148992460Y-57297715D01*
X148980028Y-57312863D01*
X148980023Y-57312869D01*
X148978517Y-57316506D01*
X148965092Y-57348917D01*
X147439361Y-57348917D01*
X147439361Y-56154140D01*
X147606028Y-56154140D01*
X147606028Y-56511283D01*
X147607949Y-56530792D01*
X147609324Y-56534112D01*
X147609579Y-56537696D01*
X147616585Y-56556005D01*
X147688014Y-56698861D01*
X147693300Y-56707259D01*
X147694310Y-56709697D01*
X147696561Y-56712440D01*
X147698457Y-56715452D01*
X147700454Y-56717184D01*
X147706746Y-56724851D01*
X147778174Y-56796278D01*
X147793327Y-56808715D01*
X147829376Y-56823646D01*
X147868394Y-56823646D01*
X147904442Y-56808715D01*
X147932032Y-56781125D01*
X147946963Y-56745077D01*
X147946963Y-56706059D01*
X147932032Y-56670010D01*
X147919595Y-56654857D01*
X147859643Y-56594904D01*
X147806028Y-56487674D01*
X147806028Y-56177748D01*
X147859644Y-56070516D01*
X147908119Y-56022040D01*
X148015349Y-55968425D01*
X148118373Y-55968425D01*
X148294865Y-56027256D01*
X149135317Y-56867707D01*
X149150470Y-56880144D01*
X149161028Y-56884517D01*
X149186519Y-56895076D01*
X149225537Y-56895076D01*
X149261585Y-56880144D01*
X149289175Y-56852554D01*
X149304107Y-56816506D01*
X149306028Y-56796997D01*
X149306028Y-55868425D01*
X149304107Y-55848916D01*
X149289175Y-55812868D01*
X149261585Y-55785278D01*
X149225537Y-55770346D01*
X149186519Y-55770346D01*
X149150471Y-55785278D01*
X149122881Y-55812868D01*
X149107949Y-55848916D01*
X149106028Y-55868425D01*
X149106028Y-56555575D01*
X148419596Y-55869143D01*
X148404442Y-55856707D01*
X148401123Y-55855332D01*
X148398408Y-55852977D01*
X148380508Y-55844986D01*
X148166223Y-55773557D01*
X148156550Y-55771357D01*
X148154109Y-55770346D01*
X148150571Y-55769997D01*
X148147108Y-55769210D01*
X148144473Y-55769397D01*
X148134600Y-55768425D01*
X147991742Y-55768425D01*
X147972233Y-55770346D01*
X147968912Y-55771721D01*
X147965329Y-55771976D01*
X147947020Y-55778982D01*
X147804163Y-55850411D01*
X147795765Y-55855696D01*
X147793327Y-55856707D01*
X147790582Y-55858959D01*
X147787573Y-55860854D01*
X147785840Y-55862851D01*
X147778174Y-55869144D01*
X147706746Y-55940573D01*
X147700453Y-55948239D01*
X147698457Y-55949971D01*
X147696563Y-55952978D01*
X147694309Y-55955726D01*
X147693297Y-55958167D01*
X147688014Y-55966562D01*
X147616585Y-56109418D01*
X147609579Y-56127727D01*
X147609324Y-56131310D01*
X147607949Y-56134631D01*
X147606028Y-56154140D01*
X147439361Y-56154140D01*
X147439361Y-55601758D01*
X149472695Y-55601758D01*
X149472695Y-91348907D01*
G37*
D14*
X139404761Y-97859580D02*
X139357142Y-97907200D01*
X139357142Y-97907200D02*
X139214285Y-97954819D01*
X139214285Y-97954819D02*
X139119047Y-97954819D01*
X139119047Y-97954819D02*
X138976190Y-97907200D01*
X138976190Y-97907200D02*
X138880952Y-97811961D01*
X138880952Y-97811961D02*
X138833333Y-97716723D01*
X138833333Y-97716723D02*
X138785714Y-97526247D01*
X138785714Y-97526247D02*
X138785714Y-97383390D01*
X138785714Y-97383390D02*
X138833333Y-97192914D01*
X138833333Y-97192914D02*
X138880952Y-97097676D01*
X138880952Y-97097676D02*
X138976190Y-97002438D01*
X138976190Y-97002438D02*
X139119047Y-96954819D01*
X139119047Y-96954819D02*
X139214285Y-96954819D01*
X139214285Y-96954819D02*
X139357142Y-97002438D01*
X139357142Y-97002438D02*
X139404761Y-97050057D01*
X140309523Y-97954819D02*
X139833333Y-97954819D01*
X139833333Y-97954819D02*
X139833333Y-96954819D01*
X141214285Y-97954819D02*
X140880952Y-97478628D01*
X140642857Y-97954819D02*
X140642857Y-96954819D01*
X140642857Y-96954819D02*
X141023809Y-96954819D01*
X141023809Y-96954819D02*
X141119047Y-97002438D01*
X141119047Y-97002438D02*
X141166666Y-97050057D01*
X141166666Y-97050057D02*
X141214285Y-97145295D01*
X141214285Y-97145295D02*
X141214285Y-97288152D01*
X141214285Y-97288152D02*
X141166666Y-97383390D01*
X141166666Y-97383390D02*
X141119047Y-97431009D01*
X141119047Y-97431009D02*
X141023809Y-97478628D01*
X141023809Y-97478628D02*
X140642857Y-97478628D01*
X105761905Y-86954819D02*
X105761905Y-85954819D01*
X105761905Y-85954819D02*
X106000000Y-85954819D01*
X106000000Y-85954819D02*
X106142857Y-86002438D01*
X106142857Y-86002438D02*
X106238095Y-86097676D01*
X106238095Y-86097676D02*
X106285714Y-86192914D01*
X106285714Y-86192914D02*
X106333333Y-86383390D01*
X106333333Y-86383390D02*
X106333333Y-86526247D01*
X106333333Y-86526247D02*
X106285714Y-86716723D01*
X106285714Y-86716723D02*
X106238095Y-86811961D01*
X106238095Y-86811961D02*
X106142857Y-86907200D01*
X106142857Y-86907200D02*
X106000000Y-86954819D01*
X106000000Y-86954819D02*
X105761905Y-86954819D01*
X106666667Y-85954819D02*
X107285714Y-85954819D01*
X107285714Y-85954819D02*
X106952381Y-86335771D01*
X106952381Y-86335771D02*
X107095238Y-86335771D01*
X107095238Y-86335771D02*
X107190476Y-86383390D01*
X107190476Y-86383390D02*
X107238095Y-86431009D01*
X107238095Y-86431009D02*
X107285714Y-86526247D01*
X107285714Y-86526247D02*
X107285714Y-86764342D01*
X107285714Y-86764342D02*
X107238095Y-86859580D01*
X107238095Y-86859580D02*
X107190476Y-86907200D01*
X107190476Y-86907200D02*
X107095238Y-86954819D01*
X107095238Y-86954819D02*
X106809524Y-86954819D01*
X106809524Y-86954819D02*
X106714286Y-86907200D01*
X106714286Y-86907200D02*
X106666667Y-86859580D01*
X124738095Y-71554819D02*
X124738095Y-72364342D01*
X124738095Y-72364342D02*
X124785714Y-72459580D01*
X124785714Y-72459580D02*
X124833333Y-72507200D01*
X124833333Y-72507200D02*
X124928571Y-72554819D01*
X124928571Y-72554819D02*
X125119047Y-72554819D01*
X125119047Y-72554819D02*
X125214285Y-72507200D01*
X125214285Y-72507200D02*
X125261904Y-72459580D01*
X125261904Y-72459580D02*
X125309523Y-72364342D01*
X125309523Y-72364342D02*
X125309523Y-71554819D01*
X125738095Y-71650057D02*
X125785714Y-71602438D01*
X125785714Y-71602438D02*
X125880952Y-71554819D01*
X125880952Y-71554819D02*
X126119047Y-71554819D01*
X126119047Y-71554819D02*
X126214285Y-71602438D01*
X126214285Y-71602438D02*
X126261904Y-71650057D01*
X126261904Y-71650057D02*
X126309523Y-71745295D01*
X126309523Y-71745295D02*
X126309523Y-71840533D01*
X126309523Y-71840533D02*
X126261904Y-71983390D01*
X126261904Y-71983390D02*
X125690476Y-72554819D01*
X125690476Y-72554819D02*
X126309523Y-72554819D01*
X121333333Y-67359580D02*
X121285714Y-67407200D01*
X121285714Y-67407200D02*
X121142857Y-67454819D01*
X121142857Y-67454819D02*
X121047619Y-67454819D01*
X121047619Y-67454819D02*
X120904762Y-67407200D01*
X120904762Y-67407200D02*
X120809524Y-67311961D01*
X120809524Y-67311961D02*
X120761905Y-67216723D01*
X120761905Y-67216723D02*
X120714286Y-67026247D01*
X120714286Y-67026247D02*
X120714286Y-66883390D01*
X120714286Y-66883390D02*
X120761905Y-66692914D01*
X120761905Y-66692914D02*
X120809524Y-66597676D01*
X120809524Y-66597676D02*
X120904762Y-66502438D01*
X120904762Y-66502438D02*
X121047619Y-66454819D01*
X121047619Y-66454819D02*
X121142857Y-66454819D01*
X121142857Y-66454819D02*
X121285714Y-66502438D01*
X121285714Y-66502438D02*
X121333333Y-66550057D01*
X121714286Y-66550057D02*
X121761905Y-66502438D01*
X121761905Y-66502438D02*
X121857143Y-66454819D01*
X121857143Y-66454819D02*
X122095238Y-66454819D01*
X122095238Y-66454819D02*
X122190476Y-66502438D01*
X122190476Y-66502438D02*
X122238095Y-66550057D01*
X122238095Y-66550057D02*
X122285714Y-66645295D01*
X122285714Y-66645295D02*
X122285714Y-66740533D01*
X122285714Y-66740533D02*
X122238095Y-66883390D01*
X122238095Y-66883390D02*
X121666667Y-67454819D01*
X121666667Y-67454819D02*
X122285714Y-67454819D01*
X105761905Y-75954819D02*
X105761905Y-74954819D01*
X105761905Y-74954819D02*
X106000000Y-74954819D01*
X106000000Y-74954819D02*
X106142857Y-75002438D01*
X106142857Y-75002438D02*
X106238095Y-75097676D01*
X106238095Y-75097676D02*
X106285714Y-75192914D01*
X106285714Y-75192914D02*
X106333333Y-75383390D01*
X106333333Y-75383390D02*
X106333333Y-75526247D01*
X106333333Y-75526247D02*
X106285714Y-75716723D01*
X106285714Y-75716723D02*
X106238095Y-75811961D01*
X106238095Y-75811961D02*
X106142857Y-75907200D01*
X106142857Y-75907200D02*
X106000000Y-75954819D01*
X106000000Y-75954819D02*
X105761905Y-75954819D01*
X107238095Y-74954819D02*
X106761905Y-74954819D01*
X106761905Y-74954819D02*
X106714286Y-75431009D01*
X106714286Y-75431009D02*
X106761905Y-75383390D01*
X106761905Y-75383390D02*
X106857143Y-75335771D01*
X106857143Y-75335771D02*
X107095238Y-75335771D01*
X107095238Y-75335771D02*
X107190476Y-75383390D01*
X107190476Y-75383390D02*
X107238095Y-75431009D01*
X107238095Y-75431009D02*
X107285714Y-75526247D01*
X107285714Y-75526247D02*
X107285714Y-75764342D01*
X107285714Y-75764342D02*
X107238095Y-75859580D01*
X107238095Y-75859580D02*
X107190476Y-75907200D01*
X107190476Y-75907200D02*
X107095238Y-75954819D01*
X107095238Y-75954819D02*
X106857143Y-75954819D01*
X106857143Y-75954819D02*
X106761905Y-75907200D01*
X106761905Y-75907200D02*
X106714286Y-75859580D01*
X125763095Y-56959819D02*
X125763095Y-57769342D01*
X125763095Y-57769342D02*
X125810714Y-57864580D01*
X125810714Y-57864580D02*
X125858333Y-57912200D01*
X125858333Y-57912200D02*
X125953571Y-57959819D01*
X125953571Y-57959819D02*
X126144047Y-57959819D01*
X126144047Y-57959819D02*
X126239285Y-57912200D01*
X126239285Y-57912200D02*
X126286904Y-57864580D01*
X126286904Y-57864580D02*
X126334523Y-57769342D01*
X126334523Y-57769342D02*
X126334523Y-56959819D01*
X127334523Y-57959819D02*
X126763095Y-57959819D01*
X127048809Y-57959819D02*
X127048809Y-56959819D01*
X127048809Y-56959819D02*
X126953571Y-57102676D01*
X126953571Y-57102676D02*
X126858333Y-57197914D01*
X126858333Y-57197914D02*
X126763095Y-57245533D01*
X142370833Y-76274819D02*
X142037500Y-75798628D01*
X141799405Y-76274819D02*
X141799405Y-75274819D01*
X141799405Y-75274819D02*
X142180357Y-75274819D01*
X142180357Y-75274819D02*
X142275595Y-75322438D01*
X142275595Y-75322438D02*
X142323214Y-75370057D01*
X142323214Y-75370057D02*
X142370833Y-75465295D01*
X142370833Y-75465295D02*
X142370833Y-75608152D01*
X142370833Y-75608152D02*
X142323214Y-75703390D01*
X142323214Y-75703390D02*
X142275595Y-75751009D01*
X142275595Y-75751009D02*
X142180357Y-75798628D01*
X142180357Y-75798628D02*
X141799405Y-75798628D01*
X142704167Y-75274819D02*
X143323214Y-75274819D01*
X143323214Y-75274819D02*
X142989881Y-75655771D01*
X142989881Y-75655771D02*
X143132738Y-75655771D01*
X143132738Y-75655771D02*
X143227976Y-75703390D01*
X143227976Y-75703390D02*
X143275595Y-75751009D01*
X143275595Y-75751009D02*
X143323214Y-75846247D01*
X143323214Y-75846247D02*
X143323214Y-76084342D01*
X143323214Y-76084342D02*
X143275595Y-76179580D01*
X143275595Y-76179580D02*
X143227976Y-76227200D01*
X143227976Y-76227200D02*
X143132738Y-76274819D01*
X143132738Y-76274819D02*
X142847024Y-76274819D01*
X142847024Y-76274819D02*
X142751786Y-76227200D01*
X142751786Y-76227200D02*
X142704167Y-76179580D01*
X105761905Y-92954819D02*
X105761905Y-91954819D01*
X105761905Y-91954819D02*
X106000000Y-91954819D01*
X106000000Y-91954819D02*
X106142857Y-92002438D01*
X106142857Y-92002438D02*
X106238095Y-92097676D01*
X106238095Y-92097676D02*
X106285714Y-92192914D01*
X106285714Y-92192914D02*
X106333333Y-92383390D01*
X106333333Y-92383390D02*
X106333333Y-92526247D01*
X106333333Y-92526247D02*
X106285714Y-92716723D01*
X106285714Y-92716723D02*
X106238095Y-92811961D01*
X106238095Y-92811961D02*
X106142857Y-92907200D01*
X106142857Y-92907200D02*
X106000000Y-92954819D01*
X106000000Y-92954819D02*
X105761905Y-92954819D01*
X106714286Y-92050057D02*
X106761905Y-92002438D01*
X106761905Y-92002438D02*
X106857143Y-91954819D01*
X106857143Y-91954819D02*
X107095238Y-91954819D01*
X107095238Y-91954819D02*
X107190476Y-92002438D01*
X107190476Y-92002438D02*
X107238095Y-92050057D01*
X107238095Y-92050057D02*
X107285714Y-92145295D01*
X107285714Y-92145295D02*
X107285714Y-92240533D01*
X107285714Y-92240533D02*
X107238095Y-92383390D01*
X107238095Y-92383390D02*
X106666667Y-92954819D01*
X106666667Y-92954819D02*
X107285714Y-92954819D01*
X105761905Y-64454819D02*
X105761905Y-63454819D01*
X105761905Y-63454819D02*
X106000000Y-63454819D01*
X106000000Y-63454819D02*
X106142857Y-63502438D01*
X106142857Y-63502438D02*
X106238095Y-63597676D01*
X106238095Y-63597676D02*
X106285714Y-63692914D01*
X106285714Y-63692914D02*
X106333333Y-63883390D01*
X106333333Y-63883390D02*
X106333333Y-64026247D01*
X106333333Y-64026247D02*
X106285714Y-64216723D01*
X106285714Y-64216723D02*
X106238095Y-64311961D01*
X106238095Y-64311961D02*
X106142857Y-64407200D01*
X106142857Y-64407200D02*
X106000000Y-64454819D01*
X106000000Y-64454819D02*
X105761905Y-64454819D01*
X106666667Y-63454819D02*
X107333333Y-63454819D01*
X107333333Y-63454819D02*
X106904762Y-64454819D01*
X132333333Y-51654819D02*
X132000000Y-51178628D01*
X131761905Y-51654819D02*
X131761905Y-50654819D01*
X131761905Y-50654819D02*
X132142857Y-50654819D01*
X132142857Y-50654819D02*
X132238095Y-50702438D01*
X132238095Y-50702438D02*
X132285714Y-50750057D01*
X132285714Y-50750057D02*
X132333333Y-50845295D01*
X132333333Y-50845295D02*
X132333333Y-50988152D01*
X132333333Y-50988152D02*
X132285714Y-51083390D01*
X132285714Y-51083390D02*
X132238095Y-51131009D01*
X132238095Y-51131009D02*
X132142857Y-51178628D01*
X132142857Y-51178628D02*
X131761905Y-51178628D01*
X133285714Y-51654819D02*
X132714286Y-51654819D01*
X133000000Y-51654819D02*
X133000000Y-50654819D01*
X133000000Y-50654819D02*
X132904762Y-50797676D01*
X132904762Y-50797676D02*
X132809524Y-50892914D01*
X132809524Y-50892914D02*
X132714286Y-50940533D01*
X105761905Y-69954819D02*
X105761905Y-68954819D01*
X105761905Y-68954819D02*
X106000000Y-68954819D01*
X106000000Y-68954819D02*
X106142857Y-69002438D01*
X106142857Y-69002438D02*
X106238095Y-69097676D01*
X106238095Y-69097676D02*
X106285714Y-69192914D01*
X106285714Y-69192914D02*
X106333333Y-69383390D01*
X106333333Y-69383390D02*
X106333333Y-69526247D01*
X106333333Y-69526247D02*
X106285714Y-69716723D01*
X106285714Y-69716723D02*
X106238095Y-69811961D01*
X106238095Y-69811961D02*
X106142857Y-69907200D01*
X106142857Y-69907200D02*
X106000000Y-69954819D01*
X106000000Y-69954819D02*
X105761905Y-69954819D01*
X107190476Y-68954819D02*
X107000000Y-68954819D01*
X107000000Y-68954819D02*
X106904762Y-69002438D01*
X106904762Y-69002438D02*
X106857143Y-69050057D01*
X106857143Y-69050057D02*
X106761905Y-69192914D01*
X106761905Y-69192914D02*
X106714286Y-69383390D01*
X106714286Y-69383390D02*
X106714286Y-69764342D01*
X106714286Y-69764342D02*
X106761905Y-69859580D01*
X106761905Y-69859580D02*
X106809524Y-69907200D01*
X106809524Y-69907200D02*
X106904762Y-69954819D01*
X106904762Y-69954819D02*
X107095238Y-69954819D01*
X107095238Y-69954819D02*
X107190476Y-69907200D01*
X107190476Y-69907200D02*
X107238095Y-69859580D01*
X107238095Y-69859580D02*
X107285714Y-69764342D01*
X107285714Y-69764342D02*
X107285714Y-69526247D01*
X107285714Y-69526247D02*
X107238095Y-69431009D01*
X107238095Y-69431009D02*
X107190476Y-69383390D01*
X107190476Y-69383390D02*
X107095238Y-69335771D01*
X107095238Y-69335771D02*
X106904762Y-69335771D01*
X106904762Y-69335771D02*
X106809524Y-69383390D01*
X106809524Y-69383390D02*
X106761905Y-69431009D01*
X106761905Y-69431009D02*
X106714286Y-69526247D01*
X118166667Y-95907200D02*
X118309524Y-95954819D01*
X118309524Y-95954819D02*
X118547619Y-95954819D01*
X118547619Y-95954819D02*
X118642857Y-95907200D01*
X118642857Y-95907200D02*
X118690476Y-95859580D01*
X118690476Y-95859580D02*
X118738095Y-95764342D01*
X118738095Y-95764342D02*
X118738095Y-95669104D01*
X118738095Y-95669104D02*
X118690476Y-95573866D01*
X118690476Y-95573866D02*
X118642857Y-95526247D01*
X118642857Y-95526247D02*
X118547619Y-95478628D01*
X118547619Y-95478628D02*
X118357143Y-95431009D01*
X118357143Y-95431009D02*
X118261905Y-95383390D01*
X118261905Y-95383390D02*
X118214286Y-95335771D01*
X118214286Y-95335771D02*
X118166667Y-95240533D01*
X118166667Y-95240533D02*
X118166667Y-95145295D01*
X118166667Y-95145295D02*
X118214286Y-95050057D01*
X118214286Y-95050057D02*
X118261905Y-95002438D01*
X118261905Y-95002438D02*
X118357143Y-94954819D01*
X118357143Y-94954819D02*
X118595238Y-94954819D01*
X118595238Y-94954819D02*
X118738095Y-95002438D01*
X119071429Y-94954819D02*
X119309524Y-95954819D01*
X119309524Y-95954819D02*
X119500000Y-95240533D01*
X119500000Y-95240533D02*
X119690476Y-95954819D01*
X119690476Y-95954819D02*
X119928572Y-94954819D01*
X120833333Y-95954819D02*
X120261905Y-95954819D01*
X120547619Y-95954819D02*
X120547619Y-94954819D01*
X120547619Y-94954819D02*
X120452381Y-95097676D01*
X120452381Y-95097676D02*
X120357143Y-95192914D01*
X120357143Y-95192914D02*
X120261905Y-95240533D01*
X132358333Y-70509580D02*
X132310714Y-70557200D01*
X132310714Y-70557200D02*
X132167857Y-70604819D01*
X132167857Y-70604819D02*
X132072619Y-70604819D01*
X132072619Y-70604819D02*
X131929762Y-70557200D01*
X131929762Y-70557200D02*
X131834524Y-70461961D01*
X131834524Y-70461961D02*
X131786905Y-70366723D01*
X131786905Y-70366723D02*
X131739286Y-70176247D01*
X131739286Y-70176247D02*
X131739286Y-70033390D01*
X131739286Y-70033390D02*
X131786905Y-69842914D01*
X131786905Y-69842914D02*
X131834524Y-69747676D01*
X131834524Y-69747676D02*
X131929762Y-69652438D01*
X131929762Y-69652438D02*
X132072619Y-69604819D01*
X132072619Y-69604819D02*
X132167857Y-69604819D01*
X132167857Y-69604819D02*
X132310714Y-69652438D01*
X132310714Y-69652438D02*
X132358333Y-69700057D01*
X133310714Y-70604819D02*
X132739286Y-70604819D01*
X133025000Y-70604819D02*
X133025000Y-69604819D01*
X133025000Y-69604819D02*
X132929762Y-69747676D01*
X132929762Y-69747676D02*
X132834524Y-69842914D01*
X132834524Y-69842914D02*
X132739286Y-69890533D01*
X105861905Y-98454819D02*
X105861905Y-97454819D01*
X105861905Y-97454819D02*
X106100000Y-97454819D01*
X106100000Y-97454819D02*
X106242857Y-97502438D01*
X106242857Y-97502438D02*
X106338095Y-97597676D01*
X106338095Y-97597676D02*
X106385714Y-97692914D01*
X106385714Y-97692914D02*
X106433333Y-97883390D01*
X106433333Y-97883390D02*
X106433333Y-98026247D01*
X106433333Y-98026247D02*
X106385714Y-98216723D01*
X106385714Y-98216723D02*
X106338095Y-98311961D01*
X106338095Y-98311961D02*
X106242857Y-98407200D01*
X106242857Y-98407200D02*
X106100000Y-98454819D01*
X106100000Y-98454819D02*
X105861905Y-98454819D01*
X107385714Y-98454819D02*
X106814286Y-98454819D01*
X107100000Y-98454819D02*
X107100000Y-97454819D01*
X107100000Y-97454819D02*
X107004762Y-97597676D01*
X107004762Y-97597676D02*
X106909524Y-97692914D01*
X106909524Y-97692914D02*
X106814286Y-97740533D01*
X105761905Y-81454819D02*
X105761905Y-80454819D01*
X105761905Y-80454819D02*
X106000000Y-80454819D01*
X106000000Y-80454819D02*
X106142857Y-80502438D01*
X106142857Y-80502438D02*
X106238095Y-80597676D01*
X106238095Y-80597676D02*
X106285714Y-80692914D01*
X106285714Y-80692914D02*
X106333333Y-80883390D01*
X106333333Y-80883390D02*
X106333333Y-81026247D01*
X106333333Y-81026247D02*
X106285714Y-81216723D01*
X106285714Y-81216723D02*
X106238095Y-81311961D01*
X106238095Y-81311961D02*
X106142857Y-81407200D01*
X106142857Y-81407200D02*
X106000000Y-81454819D01*
X106000000Y-81454819D02*
X105761905Y-81454819D01*
X107190476Y-80788152D02*
X107190476Y-81454819D01*
X106952381Y-80407200D02*
X106714286Y-81121485D01*
X106714286Y-81121485D02*
X107333333Y-81121485D01*
X117433333Y-56354819D02*
X117100000Y-55878628D01*
X116861905Y-56354819D02*
X116861905Y-55354819D01*
X116861905Y-55354819D02*
X117242857Y-55354819D01*
X117242857Y-55354819D02*
X117338095Y-55402438D01*
X117338095Y-55402438D02*
X117385714Y-55450057D01*
X117385714Y-55450057D02*
X117433333Y-55545295D01*
X117433333Y-55545295D02*
X117433333Y-55688152D01*
X117433333Y-55688152D02*
X117385714Y-55783390D01*
X117385714Y-55783390D02*
X117338095Y-55831009D01*
X117338095Y-55831009D02*
X117242857Y-55878628D01*
X117242857Y-55878628D02*
X116861905Y-55878628D01*
X117814286Y-55450057D02*
X117861905Y-55402438D01*
X117861905Y-55402438D02*
X117957143Y-55354819D01*
X117957143Y-55354819D02*
X118195238Y-55354819D01*
X118195238Y-55354819D02*
X118290476Y-55402438D01*
X118290476Y-55402438D02*
X118338095Y-55450057D01*
X118338095Y-55450057D02*
X118385714Y-55545295D01*
X118385714Y-55545295D02*
X118385714Y-55640533D01*
X118385714Y-55640533D02*
X118338095Y-55783390D01*
X118338095Y-55783390D02*
X117766667Y-56354819D01*
X117766667Y-56354819D02*
X118385714Y-56354819D01*
X141458333Y-60009580D02*
X141410714Y-60057200D01*
X141410714Y-60057200D02*
X141267857Y-60104819D01*
X141267857Y-60104819D02*
X141172619Y-60104819D01*
X141172619Y-60104819D02*
X141029762Y-60057200D01*
X141029762Y-60057200D02*
X140934524Y-59961961D01*
X140934524Y-59961961D02*
X140886905Y-59866723D01*
X140886905Y-59866723D02*
X140839286Y-59676247D01*
X140839286Y-59676247D02*
X140839286Y-59533390D01*
X140839286Y-59533390D02*
X140886905Y-59342914D01*
X140886905Y-59342914D02*
X140934524Y-59247676D01*
X140934524Y-59247676D02*
X141029762Y-59152438D01*
X141029762Y-59152438D02*
X141172619Y-59104819D01*
X141172619Y-59104819D02*
X141267857Y-59104819D01*
X141267857Y-59104819D02*
X141410714Y-59152438D01*
X141410714Y-59152438D02*
X141458333Y-59200057D01*
X142315476Y-59438152D02*
X142315476Y-60104819D01*
X142077381Y-59057200D02*
X141839286Y-59771485D01*
X141839286Y-59771485D02*
X142458333Y-59771485D01*
X133833333Y-65009580D02*
X133785714Y-65057200D01*
X133785714Y-65057200D02*
X133642857Y-65104819D01*
X133642857Y-65104819D02*
X133547619Y-65104819D01*
X133547619Y-65104819D02*
X133404762Y-65057200D01*
X133404762Y-65057200D02*
X133309524Y-64961961D01*
X133309524Y-64961961D02*
X133261905Y-64866723D01*
X133261905Y-64866723D02*
X133214286Y-64676247D01*
X133214286Y-64676247D02*
X133214286Y-64533390D01*
X133214286Y-64533390D02*
X133261905Y-64342914D01*
X133261905Y-64342914D02*
X133309524Y-64247676D01*
X133309524Y-64247676D02*
X133404762Y-64152438D01*
X133404762Y-64152438D02*
X133547619Y-64104819D01*
X133547619Y-64104819D02*
X133642857Y-64104819D01*
X133642857Y-64104819D02*
X133785714Y-64152438D01*
X133785714Y-64152438D02*
X133833333Y-64200057D01*
X134166667Y-64104819D02*
X134785714Y-64104819D01*
X134785714Y-64104819D02*
X134452381Y-64485771D01*
X134452381Y-64485771D02*
X134595238Y-64485771D01*
X134595238Y-64485771D02*
X134690476Y-64533390D01*
X134690476Y-64533390D02*
X134738095Y-64581009D01*
X134738095Y-64581009D02*
X134785714Y-64676247D01*
X134785714Y-64676247D02*
X134785714Y-64914342D01*
X134785714Y-64914342D02*
X134738095Y-65009580D01*
X134738095Y-65009580D02*
X134690476Y-65057200D01*
X134690476Y-65057200D02*
X134595238Y-65104819D01*
X134595238Y-65104819D02*
X134309524Y-65104819D01*
X134309524Y-65104819D02*
X134214286Y-65057200D01*
X134214286Y-65057200D02*
X134166667Y-65009580D01*
X105861905Y-58954819D02*
X105861905Y-57954819D01*
X105861905Y-57954819D02*
X106100000Y-57954819D01*
X106100000Y-57954819D02*
X106242857Y-58002438D01*
X106242857Y-58002438D02*
X106338095Y-58097676D01*
X106338095Y-58097676D02*
X106385714Y-58192914D01*
X106385714Y-58192914D02*
X106433333Y-58383390D01*
X106433333Y-58383390D02*
X106433333Y-58526247D01*
X106433333Y-58526247D02*
X106385714Y-58716723D01*
X106385714Y-58716723D02*
X106338095Y-58811961D01*
X106338095Y-58811961D02*
X106242857Y-58907200D01*
X106242857Y-58907200D02*
X106100000Y-58954819D01*
X106100000Y-58954819D02*
X105861905Y-58954819D01*
X107004762Y-58383390D02*
X106909524Y-58335771D01*
X106909524Y-58335771D02*
X106861905Y-58288152D01*
X106861905Y-58288152D02*
X106814286Y-58192914D01*
X106814286Y-58192914D02*
X106814286Y-58145295D01*
X106814286Y-58145295D02*
X106861905Y-58050057D01*
X106861905Y-58050057D02*
X106909524Y-58002438D01*
X106909524Y-58002438D02*
X107004762Y-57954819D01*
X107004762Y-57954819D02*
X107195238Y-57954819D01*
X107195238Y-57954819D02*
X107290476Y-58002438D01*
X107290476Y-58002438D02*
X107338095Y-58050057D01*
X107338095Y-58050057D02*
X107385714Y-58145295D01*
X107385714Y-58145295D02*
X107385714Y-58192914D01*
X107385714Y-58192914D02*
X107338095Y-58288152D01*
X107338095Y-58288152D02*
X107290476Y-58335771D01*
X107290476Y-58335771D02*
X107195238Y-58383390D01*
X107195238Y-58383390D02*
X107004762Y-58383390D01*
X107004762Y-58383390D02*
X106909524Y-58431009D01*
X106909524Y-58431009D02*
X106861905Y-58478628D01*
X106861905Y-58478628D02*
X106814286Y-58573866D01*
X106814286Y-58573866D02*
X106814286Y-58764342D01*
X106814286Y-58764342D02*
X106861905Y-58859580D01*
X106861905Y-58859580D02*
X106909524Y-58907200D01*
X106909524Y-58907200D02*
X107004762Y-58954819D01*
X107004762Y-58954819D02*
X107195238Y-58954819D01*
X107195238Y-58954819D02*
X107290476Y-58907200D01*
X107290476Y-58907200D02*
X107338095Y-58859580D01*
X107338095Y-58859580D02*
X107385714Y-58764342D01*
X107385714Y-58764342D02*
X107385714Y-58573866D01*
X107385714Y-58573866D02*
X107338095Y-58478628D01*
X107338095Y-58478628D02*
X107290476Y-58431009D01*
X107290476Y-58431009D02*
X107195238Y-58383390D01*
D15*
X139050000Y-94550000D02*
X140950000Y-94550000D01*
X139050000Y-96450000D02*
X139050000Y-94550000D01*
X140950000Y-94550000D02*
X140950000Y-96450000D01*
X140950000Y-96450000D02*
X139050000Y-96450000D01*
X104900000Y-85635000D02*
X108785000Y-85635000D01*
X108785000Y-83365000D02*
X104900000Y-83365000D01*
X108785000Y-85635000D02*
X108785000Y-83365000D01*
X125500000Y-72940000D02*
X123550000Y-72940000D01*
X125500000Y-72940000D02*
X127450000Y-72940000D01*
X125500000Y-83060000D02*
X123550000Y-83060000D01*
X125500000Y-83060000D02*
X127450000Y-83060000D01*
X122800000Y-72995000D02*
X122560000Y-72665000D01*
X123040000Y-72665000D01*
X122800000Y-72995000D01*
G36*
X122800000Y-72995000D02*
G01*
X122560000Y-72665000D01*
X123040000Y-72665000D01*
X122800000Y-72995000D01*
G37*
X124288748Y-66090000D02*
X125711252Y-66090000D01*
X124288748Y-67910000D02*
X125711252Y-67910000D01*
X104900000Y-74635000D02*
X108785000Y-74635000D01*
X108785000Y-72365000D02*
X104900000Y-72365000D01*
X108785000Y-74635000D02*
X108785000Y-72365000D01*
X126525000Y-58345000D02*
X124575000Y-58345000D01*
X126525000Y-58345000D02*
X128475000Y-58345000D01*
X126525000Y-63465000D02*
X124575000Y-63465000D01*
X126525000Y-63465000D02*
X128475000Y-63465000D01*
X123825000Y-58440000D02*
X123585000Y-58110000D01*
X124065000Y-58110000D01*
X123825000Y-58440000D01*
G36*
X123825000Y-58440000D02*
G01*
X123585000Y-58110000D01*
X124065000Y-58110000D01*
X123825000Y-58440000D01*
G37*
X143264564Y-73090000D02*
X141810436Y-73090000D01*
X143264564Y-74910000D02*
X141810436Y-74910000D01*
X104900000Y-91635000D02*
X108785000Y-91635000D01*
X108785000Y-89365000D02*
X104900000Y-89365000D01*
X108785000Y-91635000D02*
X108785000Y-89365000D01*
X104900000Y-63135000D02*
X108785000Y-63135000D01*
X108785000Y-60865000D02*
X104900000Y-60865000D01*
X108785000Y-63135000D02*
X108785000Y-60865000D01*
X118050000Y-76050000D02*
X119950000Y-76050000D01*
X118050000Y-77950000D02*
X118050000Y-76050000D01*
X119950000Y-76050000D02*
X119950000Y-77950000D01*
X119950000Y-77950000D02*
X118050000Y-77950000D01*
X120050000Y-56550000D02*
X121950000Y-56550000D01*
X120050000Y-58450000D02*
X120050000Y-56550000D01*
X121950000Y-56550000D02*
X121950000Y-58450000D01*
X121950000Y-58450000D02*
X120050000Y-58450000D01*
X131590000Y-55227064D02*
X131590000Y-53772936D01*
X133410000Y-55227064D02*
X133410000Y-53772936D01*
X104900000Y-68635000D02*
X108785000Y-68635000D01*
X108785000Y-66365000D02*
X104900000Y-66365000D01*
X108785000Y-68635000D02*
X108785000Y-66365000D01*
X132050000Y-88050000D02*
X133950000Y-88050000D01*
X132050000Y-89950000D02*
X132050000Y-88050000D01*
X133950000Y-88050000D02*
X133950000Y-89950000D01*
X133950000Y-89950000D02*
X132050000Y-89950000D01*
X121900000Y-96800000D02*
X121900000Y-94200000D01*
X122000000Y-92250000D02*
X128000000Y-92250000D01*
X122100000Y-98750000D02*
X127900000Y-98750000D01*
X128100000Y-96800000D02*
X128100000Y-94200000D01*
X130100000Y-97800000D02*
X130100000Y-98800000D01*
X130100000Y-98800000D02*
X129100000Y-98800000D01*
X131813748Y-71090000D02*
X133236252Y-71090000D01*
X131813748Y-72910000D02*
X133236252Y-72910000D01*
X105000000Y-97135000D02*
X108885000Y-97135000D01*
X108885000Y-94865000D02*
X105000000Y-94865000D01*
X108885000Y-97135000D02*
X108885000Y-94865000D01*
X104900000Y-80135000D02*
X108785000Y-80135000D01*
X108785000Y-77865000D02*
X104900000Y-77865000D01*
X108785000Y-80135000D02*
X108785000Y-77865000D01*
X117590000Y-59727064D02*
X117590000Y-58272936D01*
X119410000Y-59727064D02*
X119410000Y-58272936D01*
X140913748Y-60590000D02*
X142336252Y-60590000D01*
X140913748Y-62410000D02*
X142336252Y-62410000D01*
X133288748Y-65590000D02*
X134711252Y-65590000D01*
X133288748Y-67410000D02*
X134711252Y-67410000D01*
X137070000Y-52570000D02*
X137070000Y-55230000D01*
X142210000Y-52570000D02*
X137070000Y-52570000D01*
X142210000Y-52570000D02*
X142210000Y-55230000D01*
X142210000Y-55230000D02*
X137070000Y-55230000D01*
X143480000Y-52570000D02*
X144810000Y-52570000D01*
X144810000Y-52570000D02*
X144810000Y-53900000D01*
X105000000Y-57635000D02*
X108885000Y-57635000D01*
X108885000Y-55365000D02*
X105000000Y-55365000D01*
X108885000Y-57635000D02*
X108885000Y-55365000D01*
%LPC*%
D16*
X140000000Y-95500000D03*
D17*
X107900000Y-84500000D03*
X105100000Y-84500000D03*
D18*
X123025000Y-73555000D03*
X123025000Y-74825000D03*
X123025000Y-76095000D03*
X123025000Y-77365000D03*
X123025000Y-78635000D03*
X123025000Y-79905000D03*
X123025000Y-81175000D03*
X123025000Y-82445000D03*
X127975000Y-82445000D03*
X127975000Y-81175000D03*
X127975000Y-79905000D03*
X127975000Y-78635000D03*
X127975000Y-77365000D03*
X127975000Y-76095000D03*
X127975000Y-74825000D03*
X127975000Y-73555000D03*
D19*
X123525000Y-67000000D03*
X126475000Y-67000000D03*
D17*
X107900000Y-73500000D03*
X105100000Y-73500000D03*
D18*
X124050000Y-59000000D03*
X124050000Y-60270000D03*
X124050000Y-61540000D03*
X124050000Y-62810000D03*
X129000000Y-62810000D03*
X129000000Y-61540000D03*
X129000000Y-60270000D03*
X129000000Y-59000000D03*
D20*
X144000000Y-74000000D03*
X141075000Y-74000000D03*
D17*
X107900000Y-90500000D03*
X105100000Y-90500000D03*
X107900000Y-62000000D03*
X105100000Y-62000000D03*
D16*
X119000000Y-77000000D03*
X121000000Y-57500000D03*
D21*
X132500000Y-55962500D03*
X132500000Y-53037500D03*
D17*
X107900000Y-67500000D03*
X105100000Y-67500000D03*
D22*
X145500000Y-95500000D03*
D16*
X133000000Y-89000000D03*
D23*
X128650000Y-97750000D03*
X121350000Y-97750000D03*
X128650000Y-93250000D03*
X121350000Y-93250000D03*
D19*
X131050000Y-72000000D03*
X134000000Y-72000000D03*
D17*
X108000000Y-96000000D03*
X105200000Y-96000000D03*
X107900000Y-79000000D03*
X105100000Y-79000000D03*
D21*
X118500000Y-60462500D03*
X118500000Y-57537500D03*
D19*
X140150000Y-61500000D03*
X143100000Y-61500000D03*
X132525000Y-66500000D03*
X135475000Y-66500000D03*
D24*
X143480000Y-53900000D03*
D25*
X140940000Y-53900000D03*
X138400000Y-53900000D03*
D17*
X108000000Y-56500000D03*
X105200000Y-56500000D03*
%LPD*%
M02*
