G04 #@! TF.GenerationSoftware,KiCad,Pcbnew,8.0.4*
G04 #@! TF.CreationDate,2025-01-10T10:23:46-05:00*
G04 #@! TF.ProjectId,555 Blink-a-tron SMD,35353520-426c-4696-9e6b-2d612d74726f,rev?*
G04 #@! TF.SameCoordinates,Original*
G04 #@! TF.FileFunction,Copper,L2,Bot*
G04 #@! TF.FilePolarity,Positive*
%FSLAX46Y46*%
G04 Gerber Fmt 4.6, Leading zero omitted, Abs format (unit mm)*
G04 Created by KiCad (PCBNEW 8.0.4) date 2025-01-10 10:23:46*
%MOMM*%
%LPD*%
G01*
G04 APERTURE LIST*
%ADD10C,0.100000*%
G04 #@! TA.AperFunction,NonConductor*
%ADD11C,0.100000*%
G04 #@! TD*
%ADD12C,0.300000*%
G04 #@! TA.AperFunction,ComponentPad*
%ADD13R,1.500000X1.500000*%
G04 #@! TD*
G04 #@! TA.AperFunction,ComponentPad*
%ADD14R,1.700000X1.700000*%
G04 #@! TD*
G04 #@! TA.AperFunction,ComponentPad*
%ADD15O,1.700000X1.700000*%
G04 #@! TD*
G04 #@! TA.AperFunction,SMDPad,CuDef*
%ADD16R,3.505000X3.250000*%
G04 #@! TD*
G04 #@! TA.AperFunction,SMDPad,CuDef*
%ADD17R,3.505000X3.500000*%
G04 #@! TD*
G04 #@! TA.AperFunction,ViaPad*
%ADD18C,0.600000*%
G04 #@! TD*
G04 #@! TA.AperFunction,Conductor*
%ADD19C,0.304800*%
G04 #@! TD*
G04 APERTURE END LIST*
D10*
D11*
X103785144Y-86743734D02*
X103737524Y-86600877D01*
X103737524Y-86600877D02*
X103737524Y-86362782D01*
X103737524Y-86362782D02*
X103785144Y-86267544D01*
X103785144Y-86267544D02*
X103832763Y-86219925D01*
X103832763Y-86219925D02*
X103928001Y-86172306D01*
X103928001Y-86172306D02*
X104023239Y-86172306D01*
X104023239Y-86172306D02*
X104118477Y-86219925D01*
X104118477Y-86219925D02*
X104166096Y-86267544D01*
X104166096Y-86267544D02*
X104213715Y-86362782D01*
X104213715Y-86362782D02*
X104261334Y-86553258D01*
X104261334Y-86553258D02*
X104308953Y-86648496D01*
X104308953Y-86648496D02*
X104356572Y-86696115D01*
X104356572Y-86696115D02*
X104451810Y-86743734D01*
X104451810Y-86743734D02*
X104547048Y-86743734D01*
X104547048Y-86743734D02*
X104642286Y-86696115D01*
X104642286Y-86696115D02*
X104689905Y-86648496D01*
X104689905Y-86648496D02*
X104737524Y-86553258D01*
X104737524Y-86553258D02*
X104737524Y-86315163D01*
X104737524Y-86315163D02*
X104689905Y-86172306D01*
X103737524Y-85743734D02*
X104737524Y-85743734D01*
X104737524Y-85743734D02*
X104023239Y-85410401D01*
X104023239Y-85410401D02*
X104737524Y-85077068D01*
X104737524Y-85077068D02*
X103737524Y-85077068D01*
X103737524Y-84600877D02*
X104737524Y-84600877D01*
X104737524Y-84600877D02*
X104737524Y-84362782D01*
X104737524Y-84362782D02*
X104689905Y-84219925D01*
X104689905Y-84219925D02*
X104594667Y-84124687D01*
X104594667Y-84124687D02*
X104499429Y-84077068D01*
X104499429Y-84077068D02*
X104308953Y-84029449D01*
X104308953Y-84029449D02*
X104166096Y-84029449D01*
X104166096Y-84029449D02*
X103975620Y-84077068D01*
X103975620Y-84077068D02*
X103880382Y-84124687D01*
X103880382Y-84124687D02*
X103785144Y-84219925D01*
X103785144Y-84219925D02*
X103737524Y-84362782D01*
X103737524Y-84362782D02*
X103737524Y-84600877D01*
X103737524Y-82838972D02*
X104404191Y-82838972D01*
X104737524Y-82838972D02*
X104689905Y-82886591D01*
X104689905Y-82886591D02*
X104642286Y-82838972D01*
X104642286Y-82838972D02*
X104689905Y-82791353D01*
X104689905Y-82791353D02*
X104737524Y-82838972D01*
X104737524Y-82838972D02*
X104642286Y-82838972D01*
X103785144Y-82410401D02*
X103737524Y-82315163D01*
X103737524Y-82315163D02*
X103737524Y-82124687D01*
X103737524Y-82124687D02*
X103785144Y-82029449D01*
X103785144Y-82029449D02*
X103880382Y-81981830D01*
X103880382Y-81981830D02*
X103928001Y-81981830D01*
X103928001Y-81981830D02*
X104023239Y-82029449D01*
X104023239Y-82029449D02*
X104070858Y-82124687D01*
X104070858Y-82124687D02*
X104070858Y-82267544D01*
X104070858Y-82267544D02*
X104118477Y-82362782D01*
X104118477Y-82362782D02*
X104213715Y-82410401D01*
X104213715Y-82410401D02*
X104261334Y-82410401D01*
X104261334Y-82410401D02*
X104356572Y-82362782D01*
X104356572Y-82362782D02*
X104404191Y-82267544D01*
X104404191Y-82267544D02*
X104404191Y-82124687D01*
X104404191Y-82124687D02*
X104356572Y-82029449D01*
X104404191Y-80934210D02*
X104404191Y-80553258D01*
X103737524Y-80791353D02*
X104594667Y-80791353D01*
X104594667Y-80791353D02*
X104689905Y-80743734D01*
X104689905Y-80743734D02*
X104737524Y-80648496D01*
X104737524Y-80648496D02*
X104737524Y-80553258D01*
X103737524Y-80077067D02*
X103785144Y-80172305D01*
X103785144Y-80172305D02*
X103832763Y-80219924D01*
X103832763Y-80219924D02*
X103928001Y-80267543D01*
X103928001Y-80267543D02*
X104213715Y-80267543D01*
X104213715Y-80267543D02*
X104308953Y-80219924D01*
X104308953Y-80219924D02*
X104356572Y-80172305D01*
X104356572Y-80172305D02*
X104404191Y-80077067D01*
X104404191Y-80077067D02*
X104404191Y-79934210D01*
X104404191Y-79934210D02*
X104356572Y-79838972D01*
X104356572Y-79838972D02*
X104308953Y-79791353D01*
X104308953Y-79791353D02*
X104213715Y-79743734D01*
X104213715Y-79743734D02*
X103928001Y-79743734D01*
X103928001Y-79743734D02*
X103832763Y-79791353D01*
X103832763Y-79791353D02*
X103785144Y-79838972D01*
X103785144Y-79838972D02*
X103737524Y-79934210D01*
X103737524Y-79934210D02*
X103737524Y-80077067D01*
X103737524Y-79315162D02*
X104404191Y-79315162D01*
X104213715Y-79315162D02*
X104308953Y-79267543D01*
X104308953Y-79267543D02*
X104356572Y-79219924D01*
X104356572Y-79219924D02*
X104404191Y-79124686D01*
X104404191Y-79124686D02*
X104404191Y-79029448D01*
X103737524Y-77934209D02*
X104404191Y-77934209D01*
X104308953Y-77934209D02*
X104356572Y-77886590D01*
X104356572Y-77886590D02*
X104404191Y-77791352D01*
X104404191Y-77791352D02*
X104404191Y-77648495D01*
X104404191Y-77648495D02*
X104356572Y-77553257D01*
X104356572Y-77553257D02*
X104261334Y-77505638D01*
X104261334Y-77505638D02*
X103737524Y-77505638D01*
X104261334Y-77505638D02*
X104356572Y-77458019D01*
X104356572Y-77458019D02*
X104404191Y-77362781D01*
X104404191Y-77362781D02*
X104404191Y-77219924D01*
X104404191Y-77219924D02*
X104356572Y-77124685D01*
X104356572Y-77124685D02*
X104261334Y-77077066D01*
X104261334Y-77077066D02*
X103737524Y-77077066D01*
X103785144Y-76219924D02*
X103737524Y-76315162D01*
X103737524Y-76315162D02*
X103737524Y-76505638D01*
X103737524Y-76505638D02*
X103785144Y-76600876D01*
X103785144Y-76600876D02*
X103880382Y-76648495D01*
X103880382Y-76648495D02*
X104261334Y-76648495D01*
X104261334Y-76648495D02*
X104356572Y-76600876D01*
X104356572Y-76600876D02*
X104404191Y-76505638D01*
X104404191Y-76505638D02*
X104404191Y-76315162D01*
X104404191Y-76315162D02*
X104356572Y-76219924D01*
X104356572Y-76219924D02*
X104261334Y-76172305D01*
X104261334Y-76172305D02*
X104166096Y-76172305D01*
X104166096Y-76172305D02*
X104070858Y-76648495D01*
X103832763Y-75743733D02*
X103785144Y-75696114D01*
X103785144Y-75696114D02*
X103737524Y-75743733D01*
X103737524Y-75743733D02*
X103785144Y-75791352D01*
X103785144Y-75791352D02*
X103832763Y-75743733D01*
X103832763Y-75743733D02*
X103737524Y-75743733D01*
X104118477Y-75743733D02*
X104689905Y-75791352D01*
X104689905Y-75791352D02*
X104737524Y-75743733D01*
X104737524Y-75743733D02*
X104689905Y-75696114D01*
X104689905Y-75696114D02*
X104118477Y-75743733D01*
X104118477Y-75743733D02*
X104737524Y-75743733D01*
X103032342Y-86743734D02*
X103079961Y-86696115D01*
X103079961Y-86696115D02*
X103127580Y-86600877D01*
X103127580Y-86600877D02*
X103127580Y-86362782D01*
X103127580Y-86362782D02*
X103079961Y-86267544D01*
X103079961Y-86267544D02*
X103032342Y-86219925D01*
X103032342Y-86219925D02*
X102937104Y-86172306D01*
X102937104Y-86172306D02*
X102841866Y-86172306D01*
X102841866Y-86172306D02*
X102699009Y-86219925D01*
X102699009Y-86219925D02*
X102127580Y-86791353D01*
X102127580Y-86791353D02*
X102127580Y-86172306D01*
X103127580Y-85553258D02*
X103127580Y-85458020D01*
X103127580Y-85458020D02*
X103079961Y-85362782D01*
X103079961Y-85362782D02*
X103032342Y-85315163D01*
X103032342Y-85315163D02*
X102937104Y-85267544D01*
X102937104Y-85267544D02*
X102746628Y-85219925D01*
X102746628Y-85219925D02*
X102508533Y-85219925D01*
X102508533Y-85219925D02*
X102318057Y-85267544D01*
X102318057Y-85267544D02*
X102222819Y-85315163D01*
X102222819Y-85315163D02*
X102175200Y-85362782D01*
X102175200Y-85362782D02*
X102127580Y-85458020D01*
X102127580Y-85458020D02*
X102127580Y-85553258D01*
X102127580Y-85553258D02*
X102175200Y-85648496D01*
X102175200Y-85648496D02*
X102222819Y-85696115D01*
X102222819Y-85696115D02*
X102318057Y-85743734D01*
X102318057Y-85743734D02*
X102508533Y-85791353D01*
X102508533Y-85791353D02*
X102746628Y-85791353D01*
X102746628Y-85791353D02*
X102937104Y-85743734D01*
X102937104Y-85743734D02*
X103032342Y-85696115D01*
X103032342Y-85696115D02*
X103079961Y-85648496D01*
X103079961Y-85648496D02*
X103127580Y-85553258D01*
X103032342Y-84838972D02*
X103079961Y-84791353D01*
X103079961Y-84791353D02*
X103127580Y-84696115D01*
X103127580Y-84696115D02*
X103127580Y-84458020D01*
X103127580Y-84458020D02*
X103079961Y-84362782D01*
X103079961Y-84362782D02*
X103032342Y-84315163D01*
X103032342Y-84315163D02*
X102937104Y-84267544D01*
X102937104Y-84267544D02*
X102841866Y-84267544D01*
X102841866Y-84267544D02*
X102699009Y-84315163D01*
X102699009Y-84315163D02*
X102127580Y-84886591D01*
X102127580Y-84886591D02*
X102127580Y-84267544D01*
X102794247Y-83410401D02*
X102127580Y-83410401D01*
X103175200Y-83648496D02*
X102460914Y-83886591D01*
X102460914Y-83886591D02*
X102460914Y-83267544D01*
X102127580Y-81553258D02*
X102603771Y-81886591D01*
X102127580Y-82124686D02*
X103127580Y-82124686D01*
X103127580Y-82124686D02*
X103127580Y-81743734D01*
X103127580Y-81743734D02*
X103079961Y-81648496D01*
X103079961Y-81648496D02*
X103032342Y-81600877D01*
X103032342Y-81600877D02*
X102937104Y-81553258D01*
X102937104Y-81553258D02*
X102794247Y-81553258D01*
X102794247Y-81553258D02*
X102699009Y-81600877D01*
X102699009Y-81600877D02*
X102651390Y-81648496D01*
X102651390Y-81648496D02*
X102603771Y-81743734D01*
X102603771Y-81743734D02*
X102603771Y-82124686D01*
X102794247Y-81219924D02*
X102127580Y-80981829D01*
X102794247Y-80743734D02*
X102127580Y-80981829D01*
X102127580Y-80981829D02*
X101889485Y-81077067D01*
X101889485Y-81077067D02*
X101841866Y-81124686D01*
X101841866Y-81124686D02*
X101794247Y-81219924D01*
X102127580Y-79934210D02*
X102651390Y-79934210D01*
X102651390Y-79934210D02*
X102746628Y-79981829D01*
X102746628Y-79981829D02*
X102794247Y-80077067D01*
X102794247Y-80077067D02*
X102794247Y-80267543D01*
X102794247Y-80267543D02*
X102746628Y-80362781D01*
X102175200Y-79934210D02*
X102127580Y-80029448D01*
X102127580Y-80029448D02*
X102127580Y-80267543D01*
X102127580Y-80267543D02*
X102175200Y-80362781D01*
X102175200Y-80362781D02*
X102270438Y-80410400D01*
X102270438Y-80410400D02*
X102365676Y-80410400D01*
X102365676Y-80410400D02*
X102460914Y-80362781D01*
X102460914Y-80362781D02*
X102508533Y-80267543D01*
X102508533Y-80267543D02*
X102508533Y-80029448D01*
X102508533Y-80029448D02*
X102556152Y-79934210D01*
X102794247Y-79458019D02*
X102127580Y-79458019D01*
X102699009Y-79458019D02*
X102746628Y-79410400D01*
X102746628Y-79410400D02*
X102794247Y-79315162D01*
X102794247Y-79315162D02*
X102794247Y-79172305D01*
X102794247Y-79172305D02*
X102746628Y-79077067D01*
X102746628Y-79077067D02*
X102651390Y-79029448D01*
X102651390Y-79029448D02*
X102127580Y-79029448D01*
X102651390Y-77458019D02*
X102603771Y-77315162D01*
X102603771Y-77315162D02*
X102556152Y-77267543D01*
X102556152Y-77267543D02*
X102460914Y-77219924D01*
X102460914Y-77219924D02*
X102318057Y-77219924D01*
X102318057Y-77219924D02*
X102222819Y-77267543D01*
X102222819Y-77267543D02*
X102175200Y-77315162D01*
X102175200Y-77315162D02*
X102127580Y-77410400D01*
X102127580Y-77410400D02*
X102127580Y-77791352D01*
X102127580Y-77791352D02*
X103127580Y-77791352D01*
X103127580Y-77791352D02*
X103127580Y-77458019D01*
X103127580Y-77458019D02*
X103079961Y-77362781D01*
X103079961Y-77362781D02*
X103032342Y-77315162D01*
X103032342Y-77315162D02*
X102937104Y-77267543D01*
X102937104Y-77267543D02*
X102841866Y-77267543D01*
X102841866Y-77267543D02*
X102746628Y-77315162D01*
X102746628Y-77315162D02*
X102699009Y-77362781D01*
X102699009Y-77362781D02*
X102651390Y-77458019D01*
X102651390Y-77458019D02*
X102651390Y-77791352D01*
X102127580Y-76362781D02*
X102651390Y-76362781D01*
X102651390Y-76362781D02*
X102746628Y-76410400D01*
X102746628Y-76410400D02*
X102794247Y-76505638D01*
X102794247Y-76505638D02*
X102794247Y-76696114D01*
X102794247Y-76696114D02*
X102746628Y-76791352D01*
X102175200Y-76362781D02*
X102127580Y-76458019D01*
X102127580Y-76458019D02*
X102127580Y-76696114D01*
X102127580Y-76696114D02*
X102175200Y-76791352D01*
X102175200Y-76791352D02*
X102270438Y-76838971D01*
X102270438Y-76838971D02*
X102365676Y-76838971D01*
X102365676Y-76838971D02*
X102460914Y-76791352D01*
X102460914Y-76791352D02*
X102508533Y-76696114D01*
X102508533Y-76696114D02*
X102508533Y-76458019D01*
X102508533Y-76458019D02*
X102556152Y-76362781D01*
X102794247Y-76029447D02*
X102794247Y-75648495D01*
X103127580Y-75886590D02*
X102270438Y-75886590D01*
X102270438Y-75886590D02*
X102175200Y-75838971D01*
X102175200Y-75838971D02*
X102127580Y-75743733D01*
X102127580Y-75743733D02*
X102127580Y-75648495D01*
X102175200Y-74934209D02*
X102127580Y-75029447D01*
X102127580Y-75029447D02*
X102127580Y-75219923D01*
X102127580Y-75219923D02*
X102175200Y-75315161D01*
X102175200Y-75315161D02*
X102270438Y-75362780D01*
X102270438Y-75362780D02*
X102651390Y-75362780D01*
X102651390Y-75362780D02*
X102746628Y-75315161D01*
X102746628Y-75315161D02*
X102794247Y-75219923D01*
X102794247Y-75219923D02*
X102794247Y-75029447D01*
X102794247Y-75029447D02*
X102746628Y-74934209D01*
X102746628Y-74934209D02*
X102651390Y-74886590D01*
X102651390Y-74886590D02*
X102556152Y-74886590D01*
X102556152Y-74886590D02*
X102460914Y-75362780D01*
X102175200Y-74505637D02*
X102127580Y-74410399D01*
X102127580Y-74410399D02*
X102127580Y-74219923D01*
X102127580Y-74219923D02*
X102175200Y-74124685D01*
X102175200Y-74124685D02*
X102270438Y-74077066D01*
X102270438Y-74077066D02*
X102318057Y-74077066D01*
X102318057Y-74077066D02*
X102413295Y-74124685D01*
X102413295Y-74124685D02*
X102460914Y-74219923D01*
X102460914Y-74219923D02*
X102460914Y-74362780D01*
X102460914Y-74362780D02*
X102508533Y-74458018D01*
X102508533Y-74458018D02*
X102603771Y-74505637D01*
X102603771Y-74505637D02*
X102651390Y-74505637D01*
X102651390Y-74505637D02*
X102746628Y-74458018D01*
X102746628Y-74458018D02*
X102794247Y-74362780D01*
X102794247Y-74362780D02*
X102794247Y-74219923D01*
X102794247Y-74219923D02*
X102746628Y-74124685D01*
D12*
G36*
X114081203Y-58464961D02*
G01*
X114081203Y-59136694D01*
X114052936Y-59150828D01*
X113838041Y-59150828D01*
X113748628Y-59106122D01*
X113711624Y-59069118D01*
X113666917Y-58979703D01*
X113666917Y-58621952D01*
X113711624Y-58532538D01*
X113748628Y-58495534D01*
X113838041Y-58450828D01*
X114052936Y-58450828D01*
X114081203Y-58464961D01*
G37*
G36*
X115438346Y-58464961D02*
G01*
X115438346Y-59136694D01*
X115410079Y-59150828D01*
X115195184Y-59150828D01*
X115105771Y-59106122D01*
X115068767Y-59069118D01*
X115024060Y-58979703D01*
X115024060Y-58621952D01*
X115068767Y-58532538D01*
X115105771Y-58495534D01*
X115195184Y-58450828D01*
X115410079Y-58450828D01*
X115438346Y-58464961D01*
G37*
G36*
X102652633Y-59150828D02*
G01*
X102469833Y-59150828D01*
X102312230Y-59098294D01*
X102211625Y-58997688D01*
X102158444Y-58891328D01*
X102095490Y-58639507D01*
X102095490Y-58462148D01*
X102158444Y-58210327D01*
X102211625Y-58103967D01*
X102312231Y-58003361D01*
X102469833Y-57950828D01*
X102652633Y-57950828D01*
X102652633Y-59150828D01*
G37*
G36*
X105905115Y-58912630D02*
G01*
X105938347Y-58979094D01*
X105938347Y-59051132D01*
X105905115Y-59117596D01*
X105838652Y-59150828D01*
X105552329Y-59150828D01*
X105524062Y-59136694D01*
X105524062Y-58879400D01*
X105838652Y-58879400D01*
X105905115Y-58912630D01*
G37*
G36*
X107190829Y-58484060D02*
G01*
X107224061Y-58550523D01*
X107224061Y-58617857D01*
X106816831Y-58536411D01*
X106843007Y-58484060D01*
X106909471Y-58450828D01*
X107124366Y-58450828D01*
X107190829Y-58484060D01*
G37*
G36*
X112762256Y-58484060D02*
G01*
X112795488Y-58550523D01*
X112795488Y-58617857D01*
X112388258Y-58536411D01*
X112414434Y-58484060D01*
X112480898Y-58450828D01*
X112695793Y-58450828D01*
X112762256Y-58484060D01*
G37*
G36*
X116785207Y-58495535D02*
G01*
X116822211Y-58532539D01*
X116866917Y-58621951D01*
X116866917Y-58979704D01*
X116822210Y-59069117D01*
X116785205Y-59106122D01*
X116695793Y-59150828D01*
X116552327Y-59150828D01*
X116462914Y-59106122D01*
X116425910Y-59069118D01*
X116381203Y-58979703D01*
X116381203Y-58621952D01*
X116425910Y-58532538D01*
X116462914Y-58495534D01*
X116552327Y-58450828D01*
X116695793Y-58450828D01*
X116785207Y-58495535D01*
G37*
G36*
X109380233Y-58722257D02*
G01*
X109082174Y-58722257D01*
X109231203Y-58275169D01*
X109380233Y-58722257D01*
G37*
G36*
X118833584Y-60114613D02*
G01*
X101628823Y-60114613D01*
X101628823Y-58443685D01*
X101795490Y-58443685D01*
X101795490Y-58657971D01*
X101795992Y-58663074D01*
X101795667Y-58665262D01*
X101797286Y-58676212D01*
X101798372Y-58687235D01*
X101799219Y-58689279D01*
X101799969Y-58694351D01*
X101871397Y-58980065D01*
X101872168Y-58982223D01*
X101872245Y-58983304D01*
X101876903Y-58995478D01*
X101881290Y-59007756D01*
X101881934Y-59008626D01*
X101882754Y-59010767D01*
X101954183Y-59153624D01*
X101962110Y-59166217D01*
X101963626Y-59169877D01*
X101967007Y-59173996D01*
X101969848Y-59178510D01*
X101972841Y-59181106D01*
X101982281Y-59192608D01*
X102125138Y-59335466D01*
X102147868Y-59354121D01*
X102152847Y-59356183D01*
X102156919Y-59359715D01*
X102183770Y-59371703D01*
X102398056Y-59443131D01*
X102412568Y-59446430D01*
X102416226Y-59447946D01*
X102421528Y-59448468D01*
X102426730Y-59449651D01*
X102430684Y-59449369D01*
X102445490Y-59450828D01*
X102802633Y-59450828D01*
X102831897Y-59447946D01*
X102885969Y-59425548D01*
X102927353Y-59384164D01*
X102949751Y-59330092D01*
X102949751Y-59330090D01*
X102952633Y-59300828D01*
X102952633Y-59200138D01*
X103298372Y-59200138D01*
X103298372Y-59258664D01*
X103300598Y-59264037D01*
X103320769Y-59312735D01*
X103320770Y-59312736D01*
X103339425Y-59335467D01*
X103410854Y-59406895D01*
X103433583Y-59425548D01*
X103433584Y-59425549D01*
X103456382Y-59434992D01*
X103487655Y-59447946D01*
X103487656Y-59447946D01*
X103487657Y-59447946D01*
X103546182Y-59447946D01*
X103546183Y-59447946D01*
X103577456Y-59434992D01*
X103600254Y-59425549D01*
X103622985Y-59406894D01*
X103694413Y-59335466D01*
X103713068Y-59312736D01*
X103735464Y-59258663D01*
X103735464Y-59231215D01*
X103735465Y-59200138D01*
X103713068Y-59146065D01*
X103694414Y-59123335D01*
X103622986Y-59051906D01*
X103600255Y-59033251D01*
X103600254Y-59033250D01*
X103568580Y-59020130D01*
X103546183Y-59010853D01*
X103487655Y-59010853D01*
X103465258Y-59020130D01*
X103433584Y-59033250D01*
X103410853Y-59051905D01*
X103339424Y-59123334D01*
X103320769Y-59146065D01*
X103300599Y-59194762D01*
X103298372Y-59200138D01*
X102952633Y-59200138D01*
X102952633Y-58414422D01*
X103298372Y-58414422D01*
X103298372Y-58472948D01*
X103320769Y-58527020D01*
X103339424Y-58549751D01*
X103410853Y-58621180D01*
X103433584Y-58639835D01*
X103462968Y-58652006D01*
X103487655Y-58662232D01*
X103487656Y-58662232D01*
X103487657Y-58662232D01*
X103546183Y-58662232D01*
X103570870Y-58652006D01*
X103600254Y-58639835D01*
X103600255Y-58639834D01*
X103622986Y-58621179D01*
X103694414Y-58549750D01*
X103713068Y-58527020D01*
X103717999Y-58515114D01*
X105224062Y-58515114D01*
X105224062Y-59300828D01*
X105226944Y-59330092D01*
X105249342Y-59384164D01*
X105290726Y-59425548D01*
X105344798Y-59447946D01*
X105403326Y-59447946D01*
X105442933Y-59431539D01*
X105449838Y-59434992D01*
X105477301Y-59445502D01*
X105482676Y-59445883D01*
X105487655Y-59447946D01*
X105516919Y-59450828D01*
X105874062Y-59450828D01*
X105903326Y-59447946D01*
X105908304Y-59445883D01*
X105913680Y-59445502D01*
X105941144Y-59434992D01*
X106084001Y-59363564D01*
X106088893Y-59360484D01*
X106091204Y-59359714D01*
X106094080Y-59357219D01*
X106108887Y-59347899D01*
X106121208Y-59333691D01*
X106135419Y-59321367D01*
X106144739Y-59306559D01*
X106147233Y-59303684D01*
X106148002Y-59301374D01*
X106151083Y-59296481D01*
X106222512Y-59153623D01*
X106233021Y-59126160D01*
X106233402Y-59120784D01*
X106235465Y-59115806D01*
X106238347Y-59086542D01*
X106238347Y-58943685D01*
X106235465Y-58914421D01*
X106233402Y-58909442D01*
X106233021Y-58904067D01*
X106222511Y-58876604D01*
X106151083Y-58733746D01*
X106148002Y-58728852D01*
X106147233Y-58726544D01*
X106144739Y-58723668D01*
X106135418Y-58708861D01*
X106121211Y-58696540D01*
X106108887Y-58682329D01*
X106094076Y-58673006D01*
X106091203Y-58670514D01*
X106088895Y-58669744D01*
X106084001Y-58666664D01*
X105941144Y-58595236D01*
X105913680Y-58584726D01*
X105908304Y-58584344D01*
X105903326Y-58582282D01*
X105874062Y-58579400D01*
X105552329Y-58579400D01*
X105524062Y-58565266D01*
X105524062Y-58550523D01*
X105557293Y-58484060D01*
X105623757Y-58450828D01*
X105838652Y-58450828D01*
X105949836Y-58506421D01*
X105977300Y-58516930D01*
X106035680Y-58521079D01*
X106053575Y-58515114D01*
X106509776Y-58515114D01*
X106509776Y-58657971D01*
X106512658Y-58687235D01*
X106518282Y-58700812D01*
X106521134Y-58715229D01*
X106529372Y-58727586D01*
X106535056Y-58741307D01*
X106545448Y-58751699D01*
X106553599Y-58763925D01*
X106565937Y-58772188D01*
X106576440Y-58782691D01*
X106590016Y-58788314D01*
X106602228Y-58796493D01*
X106630359Y-58805058D01*
X106630510Y-58805088D01*
X106630512Y-58805089D01*
X106630514Y-58805089D01*
X107224061Y-58923798D01*
X107224061Y-59051132D01*
X107190829Y-59117596D01*
X107124366Y-59150828D01*
X106909471Y-59150828D01*
X106798286Y-59095236D01*
X106770822Y-59084726D01*
X106712442Y-59080578D01*
X106656920Y-59099086D01*
X106612705Y-59137433D01*
X106586530Y-59189782D01*
X106582382Y-59248162D01*
X106600890Y-59303684D01*
X106639237Y-59347899D01*
X106664122Y-59363564D01*
X106806980Y-59434992D01*
X106834443Y-59445502D01*
X106839818Y-59445883D01*
X106844797Y-59447946D01*
X106874061Y-59450828D01*
X107159776Y-59450828D01*
X107189040Y-59447946D01*
X107194018Y-59445883D01*
X107199394Y-59445502D01*
X107226858Y-59434992D01*
X107369715Y-59363564D01*
X107374607Y-59360484D01*
X107376918Y-59359714D01*
X107379794Y-59357219D01*
X107394601Y-59347899D01*
X107406922Y-59333691D01*
X107421133Y-59321367D01*
X107430453Y-59306559D01*
X107432947Y-59303684D01*
X107433716Y-59301374D01*
X107436797Y-59296481D01*
X107508226Y-59153623D01*
X107518735Y-59126160D01*
X107519116Y-59120784D01*
X107521179Y-59115806D01*
X107524061Y-59086542D01*
X107524061Y-58800989D01*
X107524062Y-58800985D01*
X107524061Y-58800979D01*
X107524061Y-58515114D01*
X107521179Y-58485850D01*
X107519116Y-58480871D01*
X107518735Y-58475496D01*
X107508225Y-58448033D01*
X107436797Y-58305175D01*
X107433716Y-58300281D01*
X107432947Y-58297973D01*
X107430453Y-58295097D01*
X107421132Y-58280290D01*
X107411070Y-58271564D01*
X107655514Y-58271564D01*
X107655514Y-58330092D01*
X107677912Y-58384164D01*
X107719296Y-58425548D01*
X107773368Y-58447946D01*
X107802632Y-58450828D01*
X107910079Y-58450828D01*
X107999493Y-58495535D01*
X108036497Y-58532539D01*
X108081204Y-58621952D01*
X108081204Y-59300828D01*
X108084086Y-59330092D01*
X108106484Y-59384164D01*
X108147868Y-59425548D01*
X108201940Y-59447946D01*
X108260468Y-59447946D01*
X108314540Y-59425548D01*
X108355924Y-59384164D01*
X108378322Y-59330092D01*
X108381204Y-59300828D01*
X108381204Y-59282067D01*
X108582381Y-59282067D01*
X108586530Y-59340448D01*
X108612704Y-59392795D01*
X108656918Y-59431142D01*
X108712442Y-59449650D01*
X108770823Y-59445501D01*
X108823170Y-59419327D01*
X108861517Y-59375113D01*
X108873505Y-59348262D01*
X108982174Y-59022257D01*
X109480233Y-59022257D01*
X109588901Y-59348262D01*
X109600889Y-59375113D01*
X109639236Y-59419328D01*
X109691584Y-59445501D01*
X109749964Y-59449651D01*
X109805488Y-59431142D01*
X109849702Y-59392795D01*
X109875876Y-59340448D01*
X109880026Y-59282068D01*
X109873506Y-59253394D01*
X109546229Y-58271564D01*
X111012656Y-58271564D01*
X111012656Y-58330092D01*
X111035054Y-58384164D01*
X111076438Y-58425548D01*
X111130510Y-58447946D01*
X111159774Y-58450828D01*
X111267221Y-58450828D01*
X111356635Y-58495535D01*
X111393639Y-58532539D01*
X111438346Y-58621952D01*
X111438346Y-59300828D01*
X111441228Y-59330092D01*
X111463626Y-59384164D01*
X111505010Y-59425548D01*
X111559082Y-59447946D01*
X111617610Y-59447946D01*
X111671682Y-59425548D01*
X111713066Y-59384164D01*
X111735464Y-59330092D01*
X111738346Y-59300828D01*
X111738346Y-58515114D01*
X112081203Y-58515114D01*
X112081203Y-58657971D01*
X112084085Y-58687235D01*
X112089709Y-58700812D01*
X112092561Y-58715229D01*
X112100799Y-58727586D01*
X112106483Y-58741307D01*
X112116875Y-58751699D01*
X112125026Y-58763925D01*
X112137364Y-58772188D01*
X112147867Y-58782691D01*
X112161443Y-58788314D01*
X112173655Y-58796493D01*
X112201786Y-58805058D01*
X112201937Y-58805088D01*
X112201939Y-58805089D01*
X112201941Y-58805089D01*
X112795488Y-58923798D01*
X112795488Y-59051132D01*
X112762256Y-59117596D01*
X112695793Y-59150828D01*
X112480898Y-59150828D01*
X112369713Y-59095236D01*
X112342249Y-59084726D01*
X112283869Y-59080578D01*
X112228347Y-59099086D01*
X112184132Y-59137433D01*
X112157957Y-59189782D01*
X112153809Y-59248162D01*
X112172317Y-59303684D01*
X112210664Y-59347899D01*
X112235549Y-59363564D01*
X112378407Y-59434992D01*
X112405870Y-59445502D01*
X112411245Y-59445883D01*
X112416224Y-59447946D01*
X112445488Y-59450828D01*
X112731203Y-59450828D01*
X112760467Y-59447946D01*
X112765445Y-59445883D01*
X112770821Y-59445502D01*
X112798285Y-59434992D01*
X112941142Y-59363564D01*
X112946034Y-59360484D01*
X112948345Y-59359714D01*
X112951221Y-59357219D01*
X112966028Y-59347899D01*
X112978349Y-59333691D01*
X112992560Y-59321367D01*
X113001880Y-59306559D01*
X113004374Y-59303684D01*
X113005143Y-59301374D01*
X113008224Y-59296481D01*
X113079653Y-59153623D01*
X113090162Y-59126160D01*
X113090543Y-59120784D01*
X113092606Y-59115806D01*
X113095488Y-59086542D01*
X113095488Y-58800989D01*
X113095489Y-58800985D01*
X113095488Y-58800979D01*
X113095488Y-58586542D01*
X113366917Y-58586542D01*
X113366917Y-59015114D01*
X113369799Y-59044378D01*
X113371862Y-59049358D01*
X113372244Y-59054733D01*
X113382753Y-59082196D01*
X113454182Y-59225053D01*
X113462110Y-59237648D01*
X113463625Y-59241305D01*
X113467004Y-59245422D01*
X113469847Y-59249939D01*
X113472841Y-59252536D01*
X113482279Y-59264036D01*
X113553707Y-59335465D01*
X113565212Y-59344907D01*
X113567807Y-59347899D01*
X113572317Y-59350738D01*
X113576438Y-59354120D01*
X113580097Y-59355635D01*
X113592692Y-59363564D01*
X113735550Y-59434992D01*
X113763013Y-59445502D01*
X113768388Y-59445883D01*
X113773367Y-59447946D01*
X113802631Y-59450828D01*
X114081203Y-59450828D01*
X114081203Y-59800828D01*
X114084085Y-59830092D01*
X114106483Y-59884164D01*
X114147867Y-59925548D01*
X114201939Y-59947946D01*
X114260467Y-59947946D01*
X114314539Y-59925548D01*
X114355923Y-59884164D01*
X114378321Y-59830092D01*
X114381203Y-59800828D01*
X114381203Y-58586542D01*
X114724060Y-58586542D01*
X114724060Y-59015114D01*
X114726942Y-59044378D01*
X114729005Y-59049358D01*
X114729387Y-59054733D01*
X114739896Y-59082196D01*
X114811325Y-59225053D01*
X114819253Y-59237648D01*
X114820768Y-59241305D01*
X114824147Y-59245422D01*
X114826990Y-59249939D01*
X114829984Y-59252536D01*
X114839422Y-59264036D01*
X114910850Y-59335465D01*
X114922355Y-59344907D01*
X114924950Y-59347899D01*
X114929460Y-59350738D01*
X114933581Y-59354120D01*
X114937240Y-59355635D01*
X114949835Y-59363564D01*
X115092693Y-59434992D01*
X115120156Y-59445502D01*
X115125531Y-59445883D01*
X115130510Y-59447946D01*
X115159774Y-59450828D01*
X115438346Y-59450828D01*
X115438346Y-59800828D01*
X115441228Y-59830092D01*
X115463626Y-59884164D01*
X115505010Y-59925548D01*
X115559082Y-59947946D01*
X115617610Y-59947946D01*
X115671682Y-59925548D01*
X115713066Y-59884164D01*
X115735464Y-59830092D01*
X115738346Y-59800828D01*
X115738346Y-58586542D01*
X116081203Y-58586542D01*
X116081203Y-59015114D01*
X116084085Y-59044378D01*
X116086148Y-59049358D01*
X116086530Y-59054733D01*
X116097039Y-59082196D01*
X116168468Y-59225053D01*
X116176396Y-59237648D01*
X116177911Y-59241305D01*
X116181290Y-59245422D01*
X116184133Y-59249939D01*
X116187127Y-59252536D01*
X116196565Y-59264036D01*
X116267993Y-59335465D01*
X116279498Y-59344907D01*
X116282093Y-59347899D01*
X116286603Y-59350738D01*
X116290724Y-59354120D01*
X116294383Y-59355635D01*
X116306978Y-59363564D01*
X116449836Y-59434992D01*
X116477299Y-59445502D01*
X116482674Y-59445883D01*
X116487653Y-59447946D01*
X116516917Y-59450828D01*
X116731203Y-59450828D01*
X116760467Y-59447946D01*
X116765445Y-59445883D01*
X116770821Y-59445502D01*
X116798285Y-59434992D01*
X116941142Y-59363564D01*
X116953735Y-59355636D01*
X116957395Y-59354121D01*
X116961514Y-59350739D01*
X116966028Y-59347899D01*
X116968624Y-59344905D01*
X116980126Y-59335466D01*
X117051555Y-59264037D01*
X117060996Y-59252532D01*
X117063988Y-59249938D01*
X117066826Y-59245428D01*
X117070210Y-59241306D01*
X117071726Y-59237644D01*
X117079653Y-59225053D01*
X117151081Y-59082195D01*
X117161591Y-59054732D01*
X117161972Y-59049356D01*
X117164035Y-59044378D01*
X117166917Y-59015114D01*
X117166917Y-58586542D01*
X117164035Y-58557278D01*
X117161972Y-58552299D01*
X117161591Y-58546924D01*
X117151081Y-58519461D01*
X117079653Y-58376603D01*
X117071724Y-58364008D01*
X117070209Y-58360349D01*
X117066827Y-58356228D01*
X117063988Y-58351718D01*
X117060996Y-58349123D01*
X117051554Y-58337618D01*
X116980125Y-58266190D01*
X116968625Y-58256752D01*
X116966028Y-58253758D01*
X116961511Y-58250915D01*
X116957394Y-58247536D01*
X116953737Y-58246021D01*
X116941142Y-58238093D01*
X116798285Y-58166664D01*
X116770822Y-58156155D01*
X116765447Y-58155773D01*
X116760467Y-58153710D01*
X116731203Y-58150828D01*
X116516917Y-58150828D01*
X116487653Y-58153710D01*
X116482672Y-58155773D01*
X116477298Y-58156155D01*
X116449834Y-58166664D01*
X116306978Y-58238093D01*
X116294386Y-58246019D01*
X116290724Y-58247536D01*
X116286601Y-58250919D01*
X116282092Y-58253758D01*
X116279496Y-58256750D01*
X116267994Y-58266191D01*
X116196566Y-58337619D01*
X116187126Y-58349120D01*
X116184133Y-58351717D01*
X116181292Y-58356230D01*
X116177911Y-58360350D01*
X116176395Y-58364009D01*
X116168468Y-58376603D01*
X116097039Y-58519460D01*
X116086530Y-58546923D01*
X116086148Y-58552297D01*
X116084085Y-58557278D01*
X116081203Y-58586542D01*
X115738346Y-58586542D01*
X115738346Y-58300828D01*
X115735464Y-58271564D01*
X115713066Y-58217492D01*
X115671682Y-58176108D01*
X115617610Y-58153710D01*
X115559082Y-58153710D01*
X115519475Y-58170116D01*
X115512571Y-58166664D01*
X115485108Y-58156155D01*
X115479733Y-58155773D01*
X115474753Y-58153710D01*
X115445489Y-58150828D01*
X115159774Y-58150828D01*
X115130510Y-58153710D01*
X115125529Y-58155773D01*
X115120155Y-58156155D01*
X115092691Y-58166664D01*
X114949835Y-58238093D01*
X114937243Y-58246019D01*
X114933581Y-58247536D01*
X114929458Y-58250919D01*
X114924949Y-58253758D01*
X114922353Y-58256750D01*
X114910851Y-58266191D01*
X114839423Y-58337619D01*
X114829983Y-58349120D01*
X114826990Y-58351717D01*
X114824149Y-58356230D01*
X114820768Y-58360350D01*
X114819252Y-58364009D01*
X114811325Y-58376603D01*
X114739896Y-58519460D01*
X114729387Y-58546923D01*
X114729005Y-58552297D01*
X114726942Y-58557278D01*
X114724060Y-58586542D01*
X114381203Y-58586542D01*
X114381203Y-58300828D01*
X114378321Y-58271564D01*
X114355923Y-58217492D01*
X114314539Y-58176108D01*
X114260467Y-58153710D01*
X114201939Y-58153710D01*
X114162332Y-58170116D01*
X114155428Y-58166664D01*
X114127965Y-58156155D01*
X114122590Y-58155773D01*
X114117610Y-58153710D01*
X114088346Y-58150828D01*
X113802631Y-58150828D01*
X113773367Y-58153710D01*
X113768386Y-58155773D01*
X113763012Y-58156155D01*
X113735548Y-58166664D01*
X113592692Y-58238093D01*
X113580100Y-58246019D01*
X113576438Y-58247536D01*
X113572315Y-58250919D01*
X113567806Y-58253758D01*
X113565210Y-58256750D01*
X113553708Y-58266191D01*
X113482280Y-58337619D01*
X113472840Y-58349120D01*
X113469847Y-58351717D01*
X113467006Y-58356230D01*
X113463625Y-58360350D01*
X113462109Y-58364009D01*
X113454182Y-58376603D01*
X113382753Y-58519460D01*
X113372244Y-58546923D01*
X113371862Y-58552297D01*
X113369799Y-58557278D01*
X113366917Y-58586542D01*
X113095488Y-58586542D01*
X113095488Y-58515114D01*
X113092606Y-58485850D01*
X113090543Y-58480871D01*
X113090162Y-58475496D01*
X113079652Y-58448033D01*
X113008224Y-58305175D01*
X113005143Y-58300281D01*
X113004374Y-58297973D01*
X113001880Y-58295097D01*
X112992559Y-58280290D01*
X112978352Y-58267969D01*
X112966028Y-58253758D01*
X112951217Y-58244435D01*
X112948344Y-58241943D01*
X112946036Y-58241173D01*
X112941142Y-58238093D01*
X112798285Y-58166664D01*
X112770822Y-58156155D01*
X112765447Y-58155773D01*
X112760467Y-58153710D01*
X112731203Y-58150828D01*
X112445488Y-58150828D01*
X112416224Y-58153710D01*
X112411243Y-58155773D01*
X112405869Y-58156155D01*
X112378405Y-58166664D01*
X112235549Y-58238093D01*
X112230654Y-58241173D01*
X112228347Y-58241943D01*
X112225472Y-58244435D01*
X112210663Y-58253758D01*
X112198339Y-58267967D01*
X112184132Y-58280289D01*
X112174812Y-58295094D01*
X112172316Y-58297973D01*
X112171545Y-58300284D01*
X112168467Y-58305175D01*
X112097039Y-58448032D01*
X112086529Y-58475496D01*
X112086147Y-58480871D01*
X112084085Y-58485850D01*
X112081203Y-58515114D01*
X111738346Y-58515114D01*
X111738346Y-58300828D01*
X111735464Y-58271564D01*
X111713066Y-58217492D01*
X111671682Y-58176108D01*
X111617610Y-58153710D01*
X111559082Y-58153710D01*
X111505010Y-58176108D01*
X111466207Y-58214911D01*
X111369713Y-58166664D01*
X111342250Y-58156154D01*
X111336872Y-58155771D01*
X111331895Y-58153710D01*
X111302631Y-58150828D01*
X111159774Y-58150828D01*
X111130510Y-58153710D01*
X111076438Y-58176108D01*
X111035054Y-58217492D01*
X111012656Y-58271564D01*
X109546229Y-58271564D01*
X109427181Y-57914422D01*
X117441228Y-57914422D01*
X117441228Y-57972948D01*
X117463625Y-58027020D01*
X117505011Y-58068406D01*
X117559083Y-58090803D01*
X117617609Y-58090803D01*
X117671681Y-58068406D01*
X117694412Y-58049751D01*
X117740801Y-58003361D01*
X117898403Y-57950828D01*
X117992577Y-57950828D01*
X118150175Y-58003361D01*
X118250782Y-58103968D01*
X118303961Y-58210327D01*
X118366917Y-58462148D01*
X118366917Y-58639507D01*
X118303961Y-58891328D01*
X118250782Y-58997688D01*
X118150176Y-59098294D01*
X117992574Y-59150828D01*
X117898403Y-59150828D01*
X117740800Y-59098294D01*
X117694413Y-59051906D01*
X117671682Y-59033251D01*
X117617610Y-59010853D01*
X117559084Y-59010853D01*
X117505012Y-59033250D01*
X117463626Y-59074635D01*
X117441228Y-59128707D01*
X117441228Y-59187233D01*
X117463625Y-59241305D01*
X117482279Y-59264036D01*
X117553707Y-59335465D01*
X117576438Y-59354120D01*
X117581414Y-59356181D01*
X117585489Y-59359715D01*
X117612340Y-59371703D01*
X117826626Y-59443131D01*
X117841138Y-59446430D01*
X117844796Y-59447946D01*
X117850098Y-59448468D01*
X117855300Y-59449651D01*
X117859254Y-59449369D01*
X117874060Y-59450828D01*
X118016917Y-59450828D01*
X118031722Y-59449369D01*
X118035677Y-59449651D01*
X118040878Y-59448468D01*
X118046181Y-59447946D01*
X118049838Y-59446430D01*
X118064351Y-59443131D01*
X118278637Y-59371703D01*
X118305488Y-59359715D01*
X118309559Y-59356183D01*
X118314539Y-59354121D01*
X118337269Y-59335466D01*
X118480126Y-59192608D01*
X118489564Y-59181106D01*
X118492559Y-59178510D01*
X118495399Y-59173996D01*
X118498781Y-59169877D01*
X118500296Y-59166217D01*
X118508224Y-59153624D01*
X118579653Y-59010768D01*
X118580472Y-59008625D01*
X118581117Y-59007756D01*
X118585501Y-58995484D01*
X118590162Y-58983304D01*
X118590238Y-58982223D01*
X118591010Y-58980065D01*
X118662438Y-58694351D01*
X118663187Y-58689279D01*
X118664035Y-58687235D01*
X118665120Y-58676212D01*
X118666740Y-58665262D01*
X118666414Y-58663074D01*
X118666917Y-58657971D01*
X118666917Y-58443685D01*
X118666414Y-58438581D01*
X118666740Y-58436394D01*
X118665120Y-58425443D01*
X118664035Y-58414421D01*
X118663187Y-58412376D01*
X118662438Y-58407305D01*
X118591010Y-58121591D01*
X118590238Y-58119432D01*
X118590162Y-58118352D01*
X118585501Y-58106171D01*
X118581117Y-58093900D01*
X118580472Y-58093030D01*
X118579653Y-58090888D01*
X118508224Y-57948032D01*
X118500297Y-57935440D01*
X118498781Y-57931778D01*
X118495397Y-57927655D01*
X118492559Y-57923146D01*
X118489566Y-57920550D01*
X118480126Y-57909048D01*
X118337269Y-57766191D01*
X118314538Y-57747536D01*
X118309558Y-57745473D01*
X118305488Y-57741943D01*
X118278637Y-57729954D01*
X118064351Y-57658526D01*
X118049843Y-57655227D01*
X118046181Y-57653710D01*
X118040872Y-57653187D01*
X118035678Y-57652006D01*
X118031728Y-57652286D01*
X118016917Y-57650828D01*
X117874060Y-57650828D01*
X117859248Y-57652286D01*
X117855299Y-57652006D01*
X117850104Y-57653187D01*
X117844796Y-57653710D01*
X117841134Y-57655226D01*
X117826625Y-57658526D01*
X117612340Y-57729955D01*
X117585489Y-57741943D01*
X117581418Y-57745472D01*
X117576438Y-57747536D01*
X117553708Y-57766191D01*
X117482280Y-57837619D01*
X117463625Y-57860350D01*
X117441228Y-57914422D01*
X109427181Y-57914422D01*
X109373505Y-57753394D01*
X109361517Y-57726543D01*
X109354494Y-57718446D01*
X109349702Y-57708861D01*
X109335493Y-57696537D01*
X109323170Y-57682329D01*
X109313584Y-57677536D01*
X109305488Y-57670514D01*
X109287644Y-57664565D01*
X109270823Y-57656155D01*
X109260134Y-57655395D01*
X109249964Y-57652005D01*
X109231198Y-57653338D01*
X109212442Y-57652006D01*
X109202274Y-57655395D01*
X109191584Y-57656155D01*
X109174760Y-57664566D01*
X109156918Y-57670514D01*
X109148823Y-57677534D01*
X109139236Y-57682328D01*
X109126910Y-57696539D01*
X109112704Y-57708861D01*
X109107911Y-57718445D01*
X109100889Y-57726543D01*
X109088901Y-57753394D01*
X108588901Y-59253394D01*
X108582381Y-59282067D01*
X108381204Y-59282067D01*
X108381204Y-58300828D01*
X108378322Y-58271564D01*
X108355924Y-58217492D01*
X108314540Y-58176108D01*
X108260468Y-58153710D01*
X108201940Y-58153710D01*
X108147868Y-58176108D01*
X108109065Y-58214911D01*
X108012571Y-58166664D01*
X107985108Y-58156154D01*
X107979730Y-58155771D01*
X107974753Y-58153710D01*
X107945489Y-58150828D01*
X107802632Y-58150828D01*
X107773368Y-58153710D01*
X107719296Y-58176108D01*
X107677912Y-58217492D01*
X107655514Y-58271564D01*
X107411070Y-58271564D01*
X107406925Y-58267969D01*
X107394601Y-58253758D01*
X107379790Y-58244435D01*
X107376917Y-58241943D01*
X107374609Y-58241173D01*
X107369715Y-58238093D01*
X107226858Y-58166664D01*
X107199395Y-58156155D01*
X107194020Y-58155773D01*
X107189040Y-58153710D01*
X107159776Y-58150828D01*
X106874061Y-58150828D01*
X106844797Y-58153710D01*
X106839816Y-58155773D01*
X106834442Y-58156155D01*
X106806978Y-58166664D01*
X106664122Y-58238093D01*
X106659227Y-58241173D01*
X106656920Y-58241943D01*
X106654045Y-58244435D01*
X106639236Y-58253758D01*
X106626912Y-58267967D01*
X106612705Y-58280289D01*
X106603385Y-58295094D01*
X106600889Y-58297973D01*
X106600118Y-58300284D01*
X106597040Y-58305175D01*
X106525612Y-58448032D01*
X106515102Y-58475496D01*
X106514720Y-58480871D01*
X106512658Y-58485850D01*
X106509776Y-58515114D01*
X106053575Y-58515114D01*
X106091202Y-58502572D01*
X106135418Y-58464225D01*
X106161592Y-58411876D01*
X106165741Y-58353496D01*
X106147233Y-58297973D01*
X106108887Y-58253758D01*
X106084001Y-58238093D01*
X105941144Y-58166664D01*
X105913681Y-58156155D01*
X105908306Y-58155773D01*
X105903326Y-58153710D01*
X105874062Y-58150828D01*
X105588347Y-58150828D01*
X105559083Y-58153710D01*
X105554102Y-58155773D01*
X105548728Y-58156155D01*
X105521264Y-58166664D01*
X105378408Y-58238093D01*
X105373513Y-58241173D01*
X105371206Y-58241943D01*
X105368331Y-58244435D01*
X105353522Y-58253758D01*
X105341198Y-58267967D01*
X105326991Y-58280289D01*
X105317671Y-58295094D01*
X105315175Y-58297973D01*
X105314404Y-58300284D01*
X105311326Y-58305175D01*
X105239898Y-58448032D01*
X105229388Y-58475496D01*
X105229006Y-58480871D01*
X105226944Y-58485850D01*
X105224062Y-58515114D01*
X103717999Y-58515114D01*
X103735465Y-58472947D01*
X103735464Y-58414421D01*
X103725512Y-58390394D01*
X103713068Y-58360349D01*
X103694413Y-58337619D01*
X103622985Y-58266191D01*
X103600254Y-58247536D01*
X103563362Y-58232255D01*
X103546183Y-58225139D01*
X103487655Y-58225139D01*
X103470476Y-58232255D01*
X103456382Y-58238093D01*
X103433584Y-58247536D01*
X103410854Y-58266190D01*
X103339425Y-58337618D01*
X103320770Y-58360349D01*
X103320769Y-58360350D01*
X103314037Y-58376603D01*
X103299427Y-58411876D01*
X103298372Y-58414422D01*
X102952633Y-58414422D01*
X102952633Y-57800828D01*
X102949751Y-57771564D01*
X102927353Y-57717492D01*
X102885969Y-57676108D01*
X102831897Y-57653710D01*
X102802633Y-57650828D01*
X102445490Y-57650828D01*
X102430678Y-57652286D01*
X102426729Y-57652006D01*
X102421534Y-57653187D01*
X102416226Y-57653710D01*
X102412564Y-57655226D01*
X102398055Y-57658526D01*
X102183770Y-57729955D01*
X102156919Y-57741943D01*
X102152849Y-57745472D01*
X102147868Y-57747536D01*
X102125138Y-57766191D01*
X101982281Y-57909048D01*
X101972841Y-57920549D01*
X101969848Y-57923146D01*
X101967007Y-57927659D01*
X101963626Y-57931779D01*
X101962110Y-57935438D01*
X101954183Y-57948032D01*
X101882754Y-58090889D01*
X101881934Y-58093029D01*
X101881290Y-58093900D01*
X101876903Y-58106177D01*
X101872245Y-58118352D01*
X101872168Y-58119432D01*
X101871397Y-58121591D01*
X101799969Y-58407305D01*
X101799219Y-58412376D01*
X101798372Y-58414421D01*
X101797286Y-58425443D01*
X101795667Y-58436394D01*
X101795992Y-58438581D01*
X101795490Y-58443685D01*
X101628823Y-58443685D01*
X101628823Y-57484161D01*
X118833584Y-57484161D01*
X118833584Y-60114613D01*
G37*
D13*
X140000000Y-95500000D03*
X119000000Y-77000000D03*
X121000000Y-57500000D03*
X133000000Y-89000000D03*
D14*
X143480000Y-53900000D03*
D15*
X140940000Y-53900000D03*
X138400000Y-53900000D03*
D16*
X138497500Y-61275000D03*
D17*
X138497500Y-90900000D03*
D18*
X128500000Y-51500000D03*
X121000000Y-53000000D03*
X113500000Y-51500000D03*
X123500000Y-51500000D03*
X116000000Y-53000000D03*
X126000000Y-53000000D03*
X118500000Y-51500000D03*
X146500000Y-89000000D03*
X148000000Y-67500000D03*
X133500000Y-91000000D03*
X143500000Y-89000000D03*
X132000000Y-92000000D03*
X145000000Y-89000000D03*
X143500000Y-90500000D03*
X132000000Y-91000000D03*
X119000000Y-72500000D03*
X145000000Y-90500000D03*
X119000000Y-73500000D03*
X146500000Y-90500000D03*
X128500000Y-67000000D03*
X133500000Y-92000000D03*
X131500000Y-61500000D03*
X121270000Y-60270000D03*
X119800000Y-81700000D03*
X115000000Y-86500000D03*
X116000000Y-84000000D03*
X119900000Y-83100000D03*
X116500000Y-85500000D03*
X120500000Y-86000000D03*
X113000000Y-74000000D03*
X131500000Y-83000000D03*
X126500000Y-88500000D03*
X114000000Y-72000000D03*
X113500000Y-64500000D03*
X130500000Y-80000000D03*
X115000000Y-90500000D03*
X132000000Y-79500000D03*
X131500000Y-94000000D03*
X112500000Y-94500000D03*
X119000000Y-56000000D03*
X132500000Y-59000000D03*
X120000000Y-68500000D03*
D19*
X122500000Y-61500000D02*
X131500000Y-61500000D01*
X121270000Y-60270000D02*
X122500000Y-61500000D01*
X116000000Y-82000000D02*
X115000000Y-83000000D01*
X119500000Y-82000000D02*
X116000000Y-82000000D01*
X115000000Y-83000000D02*
X115000000Y-86500000D01*
X119800000Y-81700000D02*
X119500000Y-82000000D01*
X116900000Y-83100000D02*
X116000000Y-84000000D01*
X119900000Y-83100000D02*
X116900000Y-83100000D01*
X116500000Y-85500000D02*
X117000000Y-86000000D01*
X117000000Y-86000000D02*
X120500000Y-86000000D01*
X115000000Y-89500000D02*
X127500000Y-89500000D01*
X113000000Y-74000000D02*
X113000000Y-87500000D01*
X113000000Y-87500000D02*
X115000000Y-89500000D01*
X127500000Y-89500000D02*
X131500000Y-85500000D01*
X131500000Y-85500000D02*
X131500000Y-83000000D01*
X115500000Y-88500000D02*
X114000000Y-87000000D01*
X114000000Y-87000000D02*
X114000000Y-72000000D01*
X126500000Y-88500000D02*
X115500000Y-88500000D01*
X118500000Y-80500000D02*
X130000000Y-80500000D01*
X116500000Y-71000000D02*
X116500000Y-78500000D01*
X130000000Y-80500000D02*
X130500000Y-80000000D01*
X113500000Y-64500000D02*
X113500000Y-68000000D01*
X113500000Y-68000000D02*
X116500000Y-71000000D01*
X116500000Y-78500000D02*
X118500000Y-80500000D01*
X132500000Y-86000000D02*
X128000000Y-90500000D01*
X132500000Y-80000000D02*
X132500000Y-86000000D01*
X132000000Y-79500000D02*
X132500000Y-80000000D01*
X128000000Y-90500000D02*
X115000000Y-90500000D01*
X113000000Y-94000000D02*
X112500000Y-94500000D01*
X131500000Y-94000000D02*
X113000000Y-94000000D01*
X127000000Y-56000000D02*
X130000000Y-59000000D01*
X119000000Y-56000000D02*
X127000000Y-56000000D01*
X130000000Y-59000000D02*
X132500000Y-59000000D01*
X120000000Y-68500000D02*
X120000000Y-76000000D01*
X120000000Y-76000000D02*
X119000000Y-77000000D01*
G04 #@! TA.AperFunction,Conductor*
G36*
X120798279Y-60919006D02*
G01*
X120898899Y-60982230D01*
X120903465Y-60985241D01*
X120906740Y-60987505D01*
X120906748Y-60987512D01*
X120906755Y-60987516D01*
X120914633Y-60992172D01*
X120917508Y-60993924D01*
X120922349Y-60996965D01*
X120926516Y-60999192D01*
X121278058Y-61206923D01*
X121302655Y-61225996D01*
X122083797Y-62007138D01*
X122083805Y-62007144D01*
X122174046Y-62067441D01*
X122190734Y-62078591D01*
X122190735Y-62078591D01*
X122190736Y-62078592D01*
X122309556Y-62127809D01*
X122309560Y-62127809D01*
X122309561Y-62127810D01*
X122435692Y-62152900D01*
X122435695Y-62152900D01*
X127870500Y-62152900D01*
X127937539Y-62172585D01*
X127983294Y-62225389D01*
X127994500Y-62276900D01*
X127994500Y-62894500D01*
X127994500Y-63876000D01*
X127994501Y-63876009D01*
X128006052Y-63983450D01*
X128006054Y-63983462D01*
X128017260Y-64034972D01*
X128051383Y-64137497D01*
X128051386Y-64137503D01*
X128129171Y-64258537D01*
X128129179Y-64258548D01*
X128174923Y-64311340D01*
X128174926Y-64311343D01*
X128174930Y-64311347D01*
X128283664Y-64405567D01*
X128414541Y-64465338D01*
X128481580Y-64485023D01*
X128481584Y-64485024D01*
X128624000Y-64505500D01*
X128624003Y-64505500D01*
X149375500Y-64505500D01*
X149442539Y-64525185D01*
X149488294Y-64577989D01*
X149499500Y-64629500D01*
X149499500Y-93376000D01*
X149479815Y-93443039D01*
X149427011Y-93488794D01*
X149375500Y-93500000D01*
X132183440Y-93500000D01*
X132116401Y-93480315D01*
X132095759Y-93463681D01*
X132002262Y-93370184D01*
X131849523Y-93274211D01*
X131679254Y-93214631D01*
X131679249Y-93214630D01*
X131500004Y-93194435D01*
X131499996Y-93194435D01*
X131320746Y-93214631D01*
X131278579Y-93229385D01*
X131253854Y-93234986D01*
X131253855Y-93234990D01*
X131253780Y-93235003D01*
X131251126Y-93235605D01*
X131249510Y-93235781D01*
X131249497Y-93235784D01*
X130831796Y-93343193D01*
X130800915Y-93347100D01*
X112935693Y-93347100D01*
X112819646Y-93370184D01*
X112809556Y-93372191D01*
X112809555Y-93372191D01*
X112690737Y-93421407D01*
X112647467Y-93450318D01*
X112627470Y-93463681D01*
X112604389Y-93479103D01*
X112537712Y-93499980D01*
X112535499Y-93500000D01*
X100624500Y-93500000D01*
X100557461Y-93480315D01*
X100511706Y-93427511D01*
X100500500Y-93376000D01*
X100500500Y-92697844D01*
X136245000Y-92697844D01*
X136251401Y-92757372D01*
X136251403Y-92757379D01*
X136301645Y-92892086D01*
X136301649Y-92892093D01*
X136387809Y-93007187D01*
X136387812Y-93007190D01*
X136502906Y-93093350D01*
X136502913Y-93093354D01*
X136637620Y-93143596D01*
X136637627Y-93143598D01*
X136697155Y-93149999D01*
X136697172Y-93150000D01*
X138247500Y-93150000D01*
X138747500Y-93150000D01*
X140297828Y-93150000D01*
X140297844Y-93149999D01*
X140357372Y-93143598D01*
X140357379Y-93143596D01*
X140492086Y-93093354D01*
X140492093Y-93093350D01*
X140607187Y-93007190D01*
X140607190Y-93007187D01*
X140693350Y-92892093D01*
X140693354Y-92892086D01*
X140743596Y-92757379D01*
X140743598Y-92757372D01*
X140749999Y-92697844D01*
X140750000Y-92697827D01*
X140750000Y-91150000D01*
X138747500Y-91150000D01*
X138747500Y-93150000D01*
X138247500Y-93150000D01*
X138247500Y-91150000D01*
X136245000Y-91150000D01*
X136245000Y-92697844D01*
X100500500Y-92697844D01*
X100500500Y-87346853D01*
X101235020Y-87346853D01*
X105296791Y-87346853D01*
X105296791Y-73999996D01*
X112194435Y-73999996D01*
X112194435Y-74000003D01*
X112214631Y-74179253D01*
X112214632Y-74179257D01*
X112229383Y-74221416D01*
X112234985Y-74246142D01*
X112234989Y-74246142D01*
X112235004Y-74246227D01*
X112235604Y-74248873D01*
X112235780Y-74250483D01*
X112235783Y-74250499D01*
X112317433Y-74568034D01*
X112317477Y-74568201D01*
X112343193Y-74668204D01*
X112347100Y-74699086D01*
X112347100Y-87564307D01*
X112359732Y-87627809D01*
X112359732Y-87627810D01*
X112372189Y-87690436D01*
X112372191Y-87690444D01*
X112420140Y-87806204D01*
X112421408Y-87809264D01*
X112492859Y-87916200D01*
X112492862Y-87916204D01*
X112492863Y-87916205D01*
X114384608Y-89807949D01*
X114418093Y-89869272D01*
X114413109Y-89938964D01*
X114384613Y-89983307D01*
X114370185Y-89997735D01*
X114274211Y-90150476D01*
X114214631Y-90320745D01*
X114214630Y-90320750D01*
X114194435Y-90499996D01*
X114194435Y-90500003D01*
X114214630Y-90679249D01*
X114214631Y-90679254D01*
X114274211Y-90849523D01*
X114370184Y-91002262D01*
X114497738Y-91129816D01*
X114650478Y-91225789D01*
X114820745Y-91285368D01*
X114820750Y-91285369D01*
X114999996Y-91305565D01*
X115000000Y-91305565D01*
X115000004Y-91305565D01*
X115179248Y-91285369D01*
X115179248Y-91285368D01*
X115179255Y-91285368D01*
X115221425Y-91270611D01*
X115246133Y-91265017D01*
X115246133Y-91265012D01*
X115246256Y-91264989D01*
X115248908Y-91264389D01*
X115250501Y-91264215D01*
X115668201Y-91156806D01*
X115699082Y-91152900D01*
X128064307Y-91152900D01*
X128180359Y-91129815D01*
X128190444Y-91127809D01*
X128309264Y-91078592D01*
X128315104Y-91074689D01*
X128326861Y-91066835D01*
X128386285Y-91027128D01*
X128416200Y-91007141D01*
X131221205Y-88202135D01*
X131749500Y-88202135D01*
X131749500Y-89797870D01*
X131749501Y-89797876D01*
X131755908Y-89857483D01*
X131806202Y-89992328D01*
X131806206Y-89992335D01*
X131892452Y-90107544D01*
X131892455Y-90107547D01*
X132007664Y-90193793D01*
X132007671Y-90193797D01*
X132142517Y-90244091D01*
X132142516Y-90244091D01*
X132149444Y-90244835D01*
X132202127Y-90250500D01*
X133797872Y-90250499D01*
X133857483Y-90244091D01*
X133992331Y-90193796D01*
X134107546Y-90107546D01*
X134193796Y-89992331D01*
X134244091Y-89857483D01*
X134250500Y-89797873D01*
X134250500Y-89102155D01*
X136245000Y-89102155D01*
X136245000Y-90650000D01*
X138247500Y-90650000D01*
X138747500Y-90650000D01*
X140750000Y-90650000D01*
X140750000Y-89102172D01*
X140749999Y-89102155D01*
X140743598Y-89042627D01*
X140743596Y-89042620D01*
X140693354Y-88907913D01*
X140693350Y-88907906D01*
X140607190Y-88792812D01*
X140607187Y-88792809D01*
X140492093Y-88706649D01*
X140492086Y-88706645D01*
X140357379Y-88656403D01*
X140357372Y-88656401D01*
X140297844Y-88650000D01*
X138747500Y-88650000D01*
X138747500Y-90650000D01*
X138247500Y-90650000D01*
X138247500Y-88650000D01*
X136697155Y-88650000D01*
X136637627Y-88656401D01*
X136637620Y-88656403D01*
X136502913Y-88706645D01*
X136502906Y-88706649D01*
X136387812Y-88792809D01*
X136387809Y-88792812D01*
X136301649Y-88907906D01*
X136301645Y-88907913D01*
X136251403Y-89042620D01*
X136251401Y-89042627D01*
X136245000Y-89102155D01*
X134250500Y-89102155D01*
X134250499Y-88202128D01*
X134244091Y-88142517D01*
X134193796Y-88007669D01*
X134193795Y-88007668D01*
X134193793Y-88007664D01*
X134107547Y-87892455D01*
X134107544Y-87892452D01*
X133992335Y-87806206D01*
X133992328Y-87806202D01*
X133857482Y-87755908D01*
X133857483Y-87755908D01*
X133797883Y-87749501D01*
X133797881Y-87749500D01*
X133797873Y-87749500D01*
X133797864Y-87749500D01*
X132202129Y-87749500D01*
X132202123Y-87749501D01*
X132142516Y-87755908D01*
X132007671Y-87806202D01*
X132007664Y-87806206D01*
X131892455Y-87892452D01*
X131892452Y-87892455D01*
X131806206Y-88007664D01*
X131806202Y-88007671D01*
X131755908Y-88142517D01*
X131749501Y-88202116D01*
X131749501Y-88202123D01*
X131749500Y-88202135D01*
X131221205Y-88202135D01*
X133007140Y-86416200D01*
X133078592Y-86309264D01*
X133127809Y-86190444D01*
X133130035Y-86179255D01*
X133130037Y-86179249D01*
X133152900Y-86064307D01*
X133152900Y-79935692D01*
X133127810Y-79809561D01*
X133127809Y-79809560D01*
X133127809Y-79809556D01*
X133078592Y-79690736D01*
X133055929Y-79656818D01*
X133055929Y-79656817D01*
X133007144Y-79583805D01*
X133007138Y-79583797D01*
X132955997Y-79532657D01*
X132936922Y-79508058D01*
X132729193Y-79156516D01*
X132726965Y-79152349D01*
X132723923Y-79147506D01*
X132722173Y-79144635D01*
X132717499Y-79136725D01*
X132708256Y-79121692D01*
X132708252Y-79121685D01*
X132708244Y-79121676D01*
X132706883Y-79119814D01*
X132701984Y-79112594D01*
X132629815Y-78997737D01*
X132502262Y-78870184D01*
X132349523Y-78774211D01*
X132179254Y-78714631D01*
X132179249Y-78714630D01*
X132000004Y-78694435D01*
X131999996Y-78694435D01*
X131820750Y-78714630D01*
X131820745Y-78714631D01*
X131650476Y-78774211D01*
X131497737Y-78870184D01*
X131370184Y-78997737D01*
X131274211Y-79150476D01*
X131212332Y-79327318D01*
X131209648Y-79326378D01*
X131181738Y-79376200D01*
X131120055Y-79409018D01*
X131050422Y-79403278D01*
X131007332Y-79375254D01*
X131002262Y-79370184D01*
X130849523Y-79274211D01*
X130679254Y-79214631D01*
X130679249Y-79214630D01*
X130500004Y-79194435D01*
X130499996Y-79194435D01*
X130320750Y-79214630D01*
X130320745Y-79214631D01*
X130150476Y-79274211D01*
X129997737Y-79370184D01*
X129870182Y-79497739D01*
X129870181Y-79497741D01*
X129787763Y-79628907D01*
X129784761Y-79633459D01*
X129782490Y-79636742D01*
X129777803Y-79644673D01*
X129776067Y-79647521D01*
X129773037Y-79652345D01*
X129770814Y-79656500D01*
X129694185Y-79786182D01*
X129643134Y-79833884D01*
X129587430Y-79847100D01*
X118821802Y-79847100D01*
X118754763Y-79827415D01*
X118734121Y-79810781D01*
X117189219Y-78265878D01*
X117155734Y-78204555D01*
X117152900Y-78178197D01*
X117152900Y-76202131D01*
X117749500Y-76202131D01*
X117749500Y-77797870D01*
X117749501Y-77797876D01*
X117755908Y-77857483D01*
X117806202Y-77992328D01*
X117806206Y-77992335D01*
X117892452Y-78107544D01*
X117892455Y-78107547D01*
X118007664Y-78193793D01*
X118007671Y-78193797D01*
X118142517Y-78244091D01*
X118142516Y-78244091D01*
X118149444Y-78244835D01*
X118202127Y-78250500D01*
X119797872Y-78250499D01*
X119857483Y-78244091D01*
X119992331Y-78193796D01*
X120107546Y-78107546D01*
X120193796Y-77992331D01*
X120244091Y-77857483D01*
X120250500Y-77797873D01*
X120250499Y-76724201D01*
X120270183Y-76657163D01*
X120286813Y-76636525D01*
X120507141Y-76416199D01*
X120578593Y-76309263D01*
X120622969Y-76202128D01*
X120622971Y-76202124D01*
X120627807Y-76190450D01*
X120627810Y-76190440D01*
X120652900Y-76064307D01*
X120652900Y-69199081D01*
X120656807Y-69168200D01*
X120682564Y-69068034D01*
X120764215Y-68750501D01*
X120768323Y-68733282D01*
X120768323Y-68733279D01*
X120769478Y-68728440D01*
X120769682Y-68728488D01*
X120773554Y-68713014D01*
X120785368Y-68679255D01*
X120805565Y-68500000D01*
X120796123Y-68416200D01*
X120785369Y-68320750D01*
X120785368Y-68320745D01*
X120781350Y-68309262D01*
X120725789Y-68150478D01*
X120629816Y-67997738D01*
X120502262Y-67870184D01*
X120349523Y-67774211D01*
X120179254Y-67714631D01*
X120179249Y-67714630D01*
X120000004Y-67694435D01*
X119999996Y-67694435D01*
X119820750Y-67714630D01*
X119820745Y-67714631D01*
X119650476Y-67774211D01*
X119497737Y-67870184D01*
X119370184Y-67997737D01*
X119274211Y-68150476D01*
X119214631Y-68320745D01*
X119214630Y-68320750D01*
X119194435Y-68499996D01*
X119194435Y-68500000D01*
X119214631Y-68679253D01*
X119214632Y-68679257D01*
X119229383Y-68721416D01*
X119234985Y-68746142D01*
X119234989Y-68746142D01*
X119235004Y-68746227D01*
X119235604Y-68748873D01*
X119235780Y-68750483D01*
X119235783Y-68750499D01*
X119317433Y-69068034D01*
X119317477Y-69068201D01*
X119343193Y-69168204D01*
X119347100Y-69199086D01*
X119347100Y-75625500D01*
X119327415Y-75692539D01*
X119274611Y-75738294D01*
X119223100Y-75749500D01*
X118202129Y-75749500D01*
X118202123Y-75749501D01*
X118142516Y-75755908D01*
X118007671Y-75806202D01*
X118007664Y-75806206D01*
X117892455Y-75892452D01*
X117892452Y-75892455D01*
X117806206Y-76007664D01*
X117806202Y-76007671D01*
X117755908Y-76142517D01*
X117749501Y-76202116D01*
X117749500Y-76202131D01*
X117152900Y-76202131D01*
X117152900Y-70935692D01*
X117127810Y-70809561D01*
X117127809Y-70809560D01*
X117127809Y-70809556D01*
X117078592Y-70690736D01*
X117007141Y-70583801D01*
X117007139Y-70583798D01*
X114189219Y-67765878D01*
X114155734Y-67704555D01*
X114152900Y-67678197D01*
X114152900Y-65199081D01*
X114156807Y-65168200D01*
X114200058Y-65000000D01*
X114264215Y-64750501D01*
X114268323Y-64733282D01*
X114268323Y-64733279D01*
X114269478Y-64728440D01*
X114269682Y-64728488D01*
X114273554Y-64713014D01*
X114285368Y-64679255D01*
X114305565Y-64500000D01*
X114304477Y-64490347D01*
X114285369Y-64320750D01*
X114285368Y-64320745D01*
X114263604Y-64258548D01*
X114225789Y-64150478D01*
X114217632Y-64137497D01*
X114186582Y-64088080D01*
X114129816Y-63997738D01*
X114002262Y-63870184D01*
X113849523Y-63774211D01*
X113679254Y-63714631D01*
X113679249Y-63714630D01*
X113500004Y-63694435D01*
X113499996Y-63694435D01*
X113320750Y-63714630D01*
X113320745Y-63714631D01*
X113150476Y-63774211D01*
X112997737Y-63870184D01*
X112870184Y-63997737D01*
X112774211Y-64150476D01*
X112714631Y-64320745D01*
X112714630Y-64320750D01*
X112694435Y-64499996D01*
X112694435Y-64500000D01*
X112714631Y-64679253D01*
X112714632Y-64679257D01*
X112729383Y-64721416D01*
X112734985Y-64746142D01*
X112734989Y-64746142D01*
X112735004Y-64746227D01*
X112735604Y-64748873D01*
X112735780Y-64750483D01*
X112735783Y-64750499D01*
X112817433Y-65068034D01*
X112817477Y-65068201D01*
X112843193Y-65168204D01*
X112847100Y-65199086D01*
X112847100Y-68064305D01*
X112847100Y-68064307D01*
X112847099Y-68064307D01*
X112872189Y-68190438D01*
X112872191Y-68190444D01*
X112921408Y-68309264D01*
X112929083Y-68320750D01*
X112992862Y-68416204D01*
X112992863Y-68416205D01*
X115810781Y-71234121D01*
X115844266Y-71295444D01*
X115847100Y-71321802D01*
X115847100Y-78564305D01*
X115847100Y-78564307D01*
X115847099Y-78564307D01*
X115872189Y-78690438D01*
X115872191Y-78690444D01*
X115921407Y-78809262D01*
X115992862Y-78916204D01*
X115992863Y-78916205D01*
X118083796Y-81007137D01*
X118083799Y-81007140D01*
X118181154Y-81072190D01*
X118190736Y-81078592D01*
X118263034Y-81108539D01*
X118317437Y-81152380D01*
X118339502Y-81218674D01*
X118322223Y-81286373D01*
X118271086Y-81333984D01*
X118215581Y-81347100D01*
X115935693Y-81347100D01*
X115809561Y-81372189D01*
X115809555Y-81372191D01*
X115764785Y-81390736D01*
X115764784Y-81390736D01*
X115690744Y-81421403D01*
X115690733Y-81421409D01*
X115583798Y-81492860D01*
X115583797Y-81492861D01*
X114864581Y-82212078D01*
X114803258Y-82245563D01*
X114733566Y-82240579D01*
X114677633Y-82198707D01*
X114653216Y-82133243D01*
X114652900Y-82124397D01*
X114652900Y-72699081D01*
X114656807Y-72668200D01*
X114682564Y-72568034D01*
X114764215Y-72250501D01*
X114768323Y-72233282D01*
X114768323Y-72233279D01*
X114769478Y-72228440D01*
X114769682Y-72228488D01*
X114773554Y-72213014D01*
X114785368Y-72179255D01*
X114805565Y-72000000D01*
X114785368Y-71820745D01*
X114725789Y-71650478D01*
X114629816Y-71497738D01*
X114502262Y-71370184D01*
X114425263Y-71321802D01*
X114349523Y-71274211D01*
X114179254Y-71214631D01*
X114179249Y-71214630D01*
X114000004Y-71194435D01*
X113999996Y-71194435D01*
X113820750Y-71214630D01*
X113820745Y-71214631D01*
X113650476Y-71274211D01*
X113497737Y-71370184D01*
X113370184Y-71497737D01*
X113274211Y-71650476D01*
X113214631Y-71820745D01*
X113214630Y-71820750D01*
X113194435Y-71999996D01*
X113194435Y-72000003D01*
X113214631Y-72179253D01*
X113214632Y-72179257D01*
X113229383Y-72221416D01*
X113234985Y-72246142D01*
X113234989Y-72246142D01*
X113235004Y-72246227D01*
X113235604Y-72248873D01*
X113235780Y-72250483D01*
X113235783Y-72250499D01*
X113317433Y-72568034D01*
X113317477Y-72568201D01*
X113343193Y-72668204D01*
X113347100Y-72699086D01*
X113347100Y-73098601D01*
X113327415Y-73165640D01*
X113274611Y-73211395D01*
X113205453Y-73221339D01*
X113182152Y-73215645D01*
X113179254Y-73214631D01*
X113000004Y-73194435D01*
X112999996Y-73194435D01*
X112820750Y-73214630D01*
X112820745Y-73214631D01*
X112650476Y-73274211D01*
X112497737Y-73370184D01*
X112370184Y-73497737D01*
X112274211Y-73650476D01*
X112214631Y-73820745D01*
X112214630Y-73820750D01*
X112194435Y-73999996D01*
X105296791Y-73999996D01*
X105296791Y-73517839D01*
X101235020Y-73517839D01*
X101235020Y-87346853D01*
X100500500Y-87346853D01*
X100500500Y-73500000D01*
X101500000Y-73500000D01*
X109500000Y-73500000D01*
X109500000Y-69000000D01*
X101500000Y-69000000D01*
X101500000Y-73500000D01*
X100500500Y-73500000D01*
X100500500Y-64999999D01*
X103000000Y-64999999D01*
X103000000Y-65000000D01*
X103000000Y-68000000D01*
X103500000Y-68500000D01*
X109000000Y-68500000D01*
X109500000Y-68000000D01*
X109500000Y-65000000D01*
X109000000Y-64500000D01*
X106500000Y-64500000D01*
X103500000Y-64500000D01*
X103499999Y-64500000D01*
X103000000Y-64999999D01*
X100500500Y-64999999D01*
X100500500Y-61024000D01*
X100520185Y-60956961D01*
X100572989Y-60911206D01*
X100624500Y-60900000D01*
X120732307Y-60900000D01*
X120798279Y-60919006D01*
G37*
G04 #@! TD.AperFunction*
G04 #@! TA.AperFunction,Conductor*
G36*
X109500000Y-73500000D02*
G01*
X101500000Y-73500000D01*
X101500000Y-72600000D01*
X102298000Y-72600000D01*
X102700000Y-72600000D01*
X103098000Y-72600000D01*
X103500000Y-72600000D01*
X103898000Y-72600000D01*
X104300000Y-72600000D01*
X104698000Y-72600000D01*
X105100000Y-72600000D01*
X105498000Y-72600000D01*
X105900000Y-72600000D01*
X106298000Y-72600000D01*
X106700000Y-72600000D01*
X107098000Y-72600000D01*
X107500000Y-72600000D01*
X107898000Y-72600000D01*
X108300000Y-72600000D01*
X108698000Y-72600000D01*
X108976000Y-72600000D01*
X108976000Y-72198000D01*
X108698000Y-72198000D01*
X108698000Y-72600000D01*
X108300000Y-72600000D01*
X108300000Y-72198000D01*
X107898000Y-72198000D01*
X107898000Y-72600000D01*
X107500000Y-72600000D01*
X107500000Y-72198000D01*
X107098000Y-72198000D01*
X107098000Y-72600000D01*
X106700000Y-72600000D01*
X106700000Y-72198000D01*
X106298000Y-72198000D01*
X106298000Y-72600000D01*
X105900000Y-72600000D01*
X105900000Y-72198000D01*
X105498000Y-72198000D01*
X105498000Y-72600000D01*
X105100000Y-72600000D01*
X105100000Y-72198000D01*
X104698000Y-72198000D01*
X104698000Y-72600000D01*
X104300000Y-72600000D01*
X104300000Y-72198000D01*
X103898000Y-72198000D01*
X103898000Y-72600000D01*
X103500000Y-72600000D01*
X103500000Y-72198000D01*
X103098000Y-72198000D01*
X103098000Y-72600000D01*
X102700000Y-72600000D01*
X102700000Y-72198000D01*
X102298000Y-72198000D01*
X102298000Y-72600000D01*
X101500000Y-72600000D01*
X101500000Y-71800000D01*
X102298000Y-71800000D01*
X102700000Y-71800000D01*
X103098000Y-71800000D01*
X103500000Y-71800000D01*
X103898000Y-71800000D01*
X104300000Y-71800000D01*
X104698000Y-71800000D01*
X105100000Y-71800000D01*
X105498000Y-71800000D01*
X105900000Y-71800000D01*
X106298000Y-71800000D01*
X106700000Y-71800000D01*
X107098000Y-71800000D01*
X107500000Y-71800000D01*
X107898000Y-71800000D01*
X108300000Y-71800000D01*
X108698000Y-71800000D01*
X108976000Y-71800000D01*
X108976000Y-71398000D01*
X108698000Y-71398000D01*
X108698000Y-71800000D01*
X108300000Y-71800000D01*
X108300000Y-71398000D01*
X107898000Y-71398000D01*
X107898000Y-71800000D01*
X107500000Y-71800000D01*
X107500000Y-71398000D01*
X107098000Y-71398000D01*
X107098000Y-71800000D01*
X106700000Y-71800000D01*
X106700000Y-71398000D01*
X106298000Y-71398000D01*
X106298000Y-71800000D01*
X105900000Y-71800000D01*
X105900000Y-71398000D01*
X105498000Y-71398000D01*
X105498000Y-71800000D01*
X105100000Y-71800000D01*
X105100000Y-71398000D01*
X104698000Y-71398000D01*
X104698000Y-71800000D01*
X104300000Y-71800000D01*
X104300000Y-71398000D01*
X103898000Y-71398000D01*
X103898000Y-71800000D01*
X103500000Y-71800000D01*
X103500000Y-71398000D01*
X103098000Y-71398000D01*
X103098000Y-71800000D01*
X102700000Y-71800000D01*
X102700000Y-71398000D01*
X102298000Y-71398000D01*
X102298000Y-71800000D01*
X101500000Y-71800000D01*
X101500000Y-71000000D01*
X102298000Y-71000000D01*
X102700000Y-71000000D01*
X103098000Y-71000000D01*
X103500000Y-71000000D01*
X103898000Y-71000000D01*
X104300000Y-71000000D01*
X104698000Y-71000000D01*
X105100000Y-71000000D01*
X105498000Y-71000000D01*
X105900000Y-71000000D01*
X106298000Y-71000000D01*
X106700000Y-71000000D01*
X107098000Y-71000000D01*
X107500000Y-71000000D01*
X107898000Y-71000000D01*
X108300000Y-71000000D01*
X108698000Y-71000000D01*
X108976000Y-71000000D01*
X108976000Y-70598000D01*
X108698000Y-70598000D01*
X108698000Y-71000000D01*
X108300000Y-71000000D01*
X108300000Y-70598000D01*
X107898000Y-70598000D01*
X107898000Y-71000000D01*
X107500000Y-71000000D01*
X107500000Y-70598000D01*
X107098000Y-70598000D01*
X107098000Y-71000000D01*
X106700000Y-71000000D01*
X106700000Y-70598000D01*
X106298000Y-70598000D01*
X106298000Y-71000000D01*
X105900000Y-71000000D01*
X105900000Y-70598000D01*
X105498000Y-70598000D01*
X105498000Y-71000000D01*
X105100000Y-71000000D01*
X105100000Y-70598000D01*
X104698000Y-70598000D01*
X104698000Y-71000000D01*
X104300000Y-71000000D01*
X104300000Y-70598000D01*
X103898000Y-70598000D01*
X103898000Y-71000000D01*
X103500000Y-71000000D01*
X103500000Y-70598000D01*
X103098000Y-70598000D01*
X103098000Y-71000000D01*
X102700000Y-71000000D01*
X102700000Y-70598000D01*
X102298000Y-70598000D01*
X102298000Y-71000000D01*
X101500000Y-71000000D01*
X101500000Y-70200000D01*
X102298000Y-70200000D01*
X102700000Y-70200000D01*
X103098000Y-70200000D01*
X103500000Y-70200000D01*
X103898000Y-70200000D01*
X104300000Y-70200000D01*
X104698000Y-70200000D01*
X105100000Y-70200000D01*
X105498000Y-70200000D01*
X105900000Y-70200000D01*
X106298000Y-70200000D01*
X106700000Y-70200000D01*
X107098000Y-70200000D01*
X107500000Y-70200000D01*
X107898000Y-70200000D01*
X108300000Y-70200000D01*
X108698000Y-70200000D01*
X108976000Y-70200000D01*
X108976000Y-69798000D01*
X108698000Y-69798000D01*
X108698000Y-70200000D01*
X108300000Y-70200000D01*
X108300000Y-69798000D01*
X107898000Y-69798000D01*
X107898000Y-70200000D01*
X107500000Y-70200000D01*
X107500000Y-69798000D01*
X107098000Y-69798000D01*
X107098000Y-70200000D01*
X106700000Y-70200000D01*
X106700000Y-69798000D01*
X106298000Y-69798000D01*
X106298000Y-70200000D01*
X105900000Y-70200000D01*
X105900000Y-69798000D01*
X105498000Y-69798000D01*
X105498000Y-70200000D01*
X105100000Y-70200000D01*
X105100000Y-69798000D01*
X104698000Y-69798000D01*
X104698000Y-70200000D01*
X104300000Y-70200000D01*
X104300000Y-69798000D01*
X103898000Y-69798000D01*
X103898000Y-70200000D01*
X103500000Y-70200000D01*
X103500000Y-69798000D01*
X103098000Y-69798000D01*
X103098000Y-70200000D01*
X102700000Y-70200000D01*
X102700000Y-69798000D01*
X102298000Y-69798000D01*
X102298000Y-70200000D01*
X101500000Y-70200000D01*
X101500000Y-69000000D01*
X109500000Y-69000000D01*
X109500000Y-73500000D01*
G37*
G04 #@! TD.AperFunction*
G04 #@! TA.AperFunction,Conductor*
G36*
X145002702Y-50500617D02*
G01*
X145386771Y-50517386D01*
X145397506Y-50518326D01*
X145775971Y-50568152D01*
X145786597Y-50570025D01*
X146159284Y-50652648D01*
X146169710Y-50655442D01*
X146533765Y-50770227D01*
X146543911Y-50773920D01*
X146896578Y-50920000D01*
X146906369Y-50924566D01*
X147244942Y-51100816D01*
X147254310Y-51106224D01*
X147576244Y-51311318D01*
X147585105Y-51317523D01*
X147887930Y-51549889D01*
X147896217Y-51556843D01*
X148177635Y-51814715D01*
X148185284Y-51822364D01*
X148443156Y-52103782D01*
X148450110Y-52112069D01*
X148682476Y-52414894D01*
X148688681Y-52423755D01*
X148893775Y-52745689D01*
X148899183Y-52755057D01*
X149075430Y-53093623D01*
X149080002Y-53103427D01*
X149226075Y-53456078D01*
X149229775Y-53466244D01*
X149344554Y-53830278D01*
X149347354Y-53840727D01*
X149429971Y-54213389D01*
X149431849Y-54224042D01*
X149481671Y-54602473D01*
X149482614Y-54613249D01*
X149499382Y-54997297D01*
X149499500Y-55002706D01*
X149499500Y-63876000D01*
X149479815Y-63943039D01*
X149427011Y-63988794D01*
X149375500Y-64000000D01*
X128624000Y-64000000D01*
X128556961Y-63980315D01*
X128511206Y-63927511D01*
X128500000Y-63876000D01*
X128500000Y-62947844D01*
X136245000Y-62947844D01*
X136251401Y-63007372D01*
X136251403Y-63007379D01*
X136301645Y-63142086D01*
X136301649Y-63142093D01*
X136387809Y-63257187D01*
X136387812Y-63257190D01*
X136502906Y-63343350D01*
X136502913Y-63343354D01*
X136637620Y-63393596D01*
X136637627Y-63393598D01*
X136697155Y-63399999D01*
X136697172Y-63400000D01*
X138247500Y-63400000D01*
X138747500Y-63400000D01*
X140297828Y-63400000D01*
X140297844Y-63399999D01*
X140357372Y-63393598D01*
X140357379Y-63393596D01*
X140492086Y-63343354D01*
X140492093Y-63343350D01*
X140607187Y-63257190D01*
X140607190Y-63257187D01*
X140693350Y-63142093D01*
X140693354Y-63142086D01*
X140743596Y-63007379D01*
X140743598Y-63007372D01*
X140749999Y-62947844D01*
X140750000Y-62947827D01*
X140750000Y-61525000D01*
X138747500Y-61525000D01*
X138747500Y-63400000D01*
X138247500Y-63400000D01*
X138247500Y-61525000D01*
X136245000Y-61525000D01*
X136245000Y-62947844D01*
X128500000Y-62947844D01*
X128500000Y-62276900D01*
X128519685Y-62209861D01*
X128572489Y-62164106D01*
X128624000Y-62152900D01*
X130800918Y-62152900D01*
X130831798Y-62156806D01*
X131249498Y-62264215D01*
X131266717Y-62268323D01*
X131266719Y-62268323D01*
X131271559Y-62269478D01*
X131271510Y-62269682D01*
X131286990Y-62273556D01*
X131320745Y-62285368D01*
X131320752Y-62285369D01*
X131499996Y-62305565D01*
X131500000Y-62305565D01*
X131500004Y-62305565D01*
X131679249Y-62285369D01*
X131679252Y-62285368D01*
X131679255Y-62285368D01*
X131849522Y-62225789D01*
X132002262Y-62129816D01*
X132129816Y-62002262D01*
X132225789Y-61849522D01*
X132285368Y-61679255D01*
X132285369Y-61679249D01*
X132305565Y-61500003D01*
X132305565Y-61499996D01*
X132285369Y-61320750D01*
X132285368Y-61320745D01*
X132225788Y-61150476D01*
X132129815Y-60997737D01*
X132002262Y-60870184D01*
X131849523Y-60774211D01*
X131679254Y-60714631D01*
X131679249Y-60714630D01*
X131500004Y-60694435D01*
X131499996Y-60694435D01*
X131320746Y-60714631D01*
X131278579Y-60729385D01*
X131253854Y-60734986D01*
X131253855Y-60734990D01*
X131253780Y-60735003D01*
X131251126Y-60735605D01*
X131249510Y-60735781D01*
X131249497Y-60735784D01*
X130831796Y-60843193D01*
X130800915Y-60847100D01*
X128624000Y-60847100D01*
X128556961Y-60827415D01*
X128511206Y-60774611D01*
X128500000Y-60723100D01*
X128500000Y-58722702D01*
X128519685Y-58655663D01*
X128572489Y-58609908D01*
X128641647Y-58599964D01*
X128705203Y-58628989D01*
X128711681Y-58635021D01*
X129583795Y-59507136D01*
X129583798Y-59507139D01*
X129583801Y-59507141D01*
X129690736Y-59578592D01*
X129809556Y-59627809D01*
X129809560Y-59627809D01*
X129809561Y-59627810D01*
X129935692Y-59652900D01*
X129935695Y-59652900D01*
X131800918Y-59652900D01*
X131831798Y-59656806D01*
X132249498Y-59764215D01*
X132266717Y-59768323D01*
X132266719Y-59768323D01*
X132271559Y-59769478D01*
X132271510Y-59769682D01*
X132286990Y-59773556D01*
X132320745Y-59785368D01*
X132320752Y-59785369D01*
X132499996Y-59805565D01*
X132500000Y-59805565D01*
X132500004Y-59805565D01*
X132679249Y-59785369D01*
X132679252Y-59785368D01*
X132679255Y-59785368D01*
X132849522Y-59725789D01*
X133002262Y-59629816D01*
X133029923Y-59602155D01*
X136245000Y-59602155D01*
X136245000Y-61025000D01*
X138247500Y-61025000D01*
X138747500Y-61025000D01*
X140750000Y-61025000D01*
X140750000Y-59602172D01*
X140749999Y-59602155D01*
X140743598Y-59542627D01*
X140743596Y-59542620D01*
X140693354Y-59407913D01*
X140693350Y-59407906D01*
X140607190Y-59292812D01*
X140607187Y-59292809D01*
X140492093Y-59206649D01*
X140492086Y-59206645D01*
X140357379Y-59156403D01*
X140357372Y-59156401D01*
X140297844Y-59150000D01*
X138747500Y-59150000D01*
X138747500Y-61025000D01*
X138247500Y-61025000D01*
X138247500Y-59150000D01*
X136697155Y-59150000D01*
X136637627Y-59156401D01*
X136637620Y-59156403D01*
X136502913Y-59206645D01*
X136502906Y-59206649D01*
X136387812Y-59292809D01*
X136387809Y-59292812D01*
X136301649Y-59407906D01*
X136301645Y-59407913D01*
X136251403Y-59542620D01*
X136251401Y-59542627D01*
X136245000Y-59602155D01*
X133029923Y-59602155D01*
X133129816Y-59502262D01*
X133225789Y-59349522D01*
X133285368Y-59179255D01*
X133287943Y-59156401D01*
X133305565Y-59000003D01*
X133305565Y-58999996D01*
X133285369Y-58820750D01*
X133285368Y-58820745D01*
X133260788Y-58750499D01*
X133225789Y-58650478D01*
X133129816Y-58497738D01*
X133002262Y-58370184D01*
X132849523Y-58274211D01*
X132679254Y-58214631D01*
X132679249Y-58214630D01*
X132500004Y-58194435D01*
X132499996Y-58194435D01*
X132320746Y-58214631D01*
X132278579Y-58229385D01*
X132253854Y-58234986D01*
X132253855Y-58234990D01*
X132253780Y-58235003D01*
X132251126Y-58235605D01*
X132249510Y-58235781D01*
X132249497Y-58235784D01*
X131831796Y-58343193D01*
X131800915Y-58347100D01*
X130321802Y-58347100D01*
X130254763Y-58327415D01*
X130234121Y-58310781D01*
X128536319Y-56612978D01*
X128502834Y-56551655D01*
X128500000Y-56525297D01*
X128500000Y-54500000D01*
X112124000Y-54500000D01*
X112056961Y-54480315D01*
X112011206Y-54427511D01*
X112000000Y-54376000D01*
X112000000Y-53649999D01*
X137069364Y-53649999D01*
X137069364Y-53650000D01*
X137966988Y-53650000D01*
X137934075Y-53707007D01*
X137900000Y-53834174D01*
X137900000Y-53965826D01*
X137934075Y-54092993D01*
X137966988Y-54150000D01*
X137069364Y-54150000D01*
X137126567Y-54363486D01*
X137126570Y-54363492D01*
X137226399Y-54577578D01*
X137361894Y-54771082D01*
X137528917Y-54938105D01*
X137722421Y-55073600D01*
X137936507Y-55173429D01*
X137936516Y-55173433D01*
X138150000Y-55230634D01*
X138150000Y-54333012D01*
X138207007Y-54365925D01*
X138334174Y-54400000D01*
X138465826Y-54400000D01*
X138592993Y-54365925D01*
X138650000Y-54333012D01*
X138650000Y-55230633D01*
X138863483Y-55173433D01*
X138863492Y-55173429D01*
X139077578Y-55073600D01*
X139271082Y-54938105D01*
X139438105Y-54771082D01*
X139568119Y-54585405D01*
X139622696Y-54541781D01*
X139692195Y-54534588D01*
X139754549Y-54566110D01*
X139771269Y-54585405D01*
X139901505Y-54771401D01*
X140068599Y-54938495D01*
X140152577Y-54997297D01*
X140262165Y-55074032D01*
X140262167Y-55074033D01*
X140262170Y-55074035D01*
X140476337Y-55173903D01*
X140704592Y-55235063D01*
X140881034Y-55250500D01*
X140939999Y-55255659D01*
X140940000Y-55255659D01*
X140940001Y-55255659D01*
X140998966Y-55250500D01*
X141175408Y-55235063D01*
X141403663Y-55173903D01*
X141617830Y-55074035D01*
X141811401Y-54938495D01*
X141933329Y-54816566D01*
X141994648Y-54783084D01*
X142064340Y-54788068D01*
X142120274Y-54829939D01*
X142137189Y-54860917D01*
X142186202Y-54992328D01*
X142186206Y-54992335D01*
X142272452Y-55107544D01*
X142272455Y-55107547D01*
X142387664Y-55193793D01*
X142387671Y-55193797D01*
X142522517Y-55244091D01*
X142522516Y-55244091D01*
X142529444Y-55244835D01*
X142582127Y-55250500D01*
X144377872Y-55250499D01*
X144437483Y-55244091D01*
X144572331Y-55193796D01*
X144687546Y-55107546D01*
X144773796Y-54992331D01*
X144824091Y-54857483D01*
X144830500Y-54797873D01*
X144830499Y-53002128D01*
X144824091Y-52942517D01*
X144822810Y-52939083D01*
X144773797Y-52807671D01*
X144773793Y-52807664D01*
X144687547Y-52692455D01*
X144687544Y-52692452D01*
X144572335Y-52606206D01*
X144572328Y-52606202D01*
X144437482Y-52555908D01*
X144437483Y-52555908D01*
X144377883Y-52549501D01*
X144377881Y-52549500D01*
X144377873Y-52549500D01*
X144377864Y-52549500D01*
X142582129Y-52549500D01*
X142582123Y-52549501D01*
X142522516Y-52555908D01*
X142387671Y-52606202D01*
X142387664Y-52606206D01*
X142272455Y-52692452D01*
X142272452Y-52692455D01*
X142186206Y-52807664D01*
X142186203Y-52807669D01*
X142137189Y-52939083D01*
X142095317Y-52995016D01*
X142029853Y-53019433D01*
X141961580Y-53004581D01*
X141933326Y-52983430D01*
X141811402Y-52861506D01*
X141811395Y-52861501D01*
X141617834Y-52725967D01*
X141617830Y-52725965D01*
X141617828Y-52725964D01*
X141403663Y-52626097D01*
X141403659Y-52626096D01*
X141403655Y-52626094D01*
X141175413Y-52564938D01*
X141175403Y-52564936D01*
X140940001Y-52544341D01*
X140939999Y-52544341D01*
X140704596Y-52564936D01*
X140704586Y-52564938D01*
X140476344Y-52626094D01*
X140476335Y-52626098D01*
X140262171Y-52725964D01*
X140262169Y-52725965D01*
X140068597Y-52861505D01*
X139901508Y-53028594D01*
X139771269Y-53214595D01*
X139716692Y-53258219D01*
X139647193Y-53265412D01*
X139584839Y-53233890D01*
X139568119Y-53214594D01*
X139438113Y-53028926D01*
X139438108Y-53028920D01*
X139271082Y-52861894D01*
X139077578Y-52726399D01*
X138863492Y-52626570D01*
X138863486Y-52626567D01*
X138650000Y-52569364D01*
X138650000Y-53466988D01*
X138592993Y-53434075D01*
X138465826Y-53400000D01*
X138334174Y-53400000D01*
X138207007Y-53434075D01*
X138150000Y-53466988D01*
X138150000Y-52569364D01*
X138149999Y-52569364D01*
X137936513Y-52626567D01*
X137936507Y-52626570D01*
X137722422Y-52726399D01*
X137722420Y-52726400D01*
X137528926Y-52861886D01*
X137528920Y-52861891D01*
X137361891Y-53028920D01*
X137361886Y-53028926D01*
X137226400Y-53222420D01*
X137226399Y-53222422D01*
X137126570Y-53436507D01*
X137126567Y-53436513D01*
X137069364Y-53649999D01*
X112000000Y-53649999D01*
X112000000Y-50624500D01*
X112019685Y-50557461D01*
X112072489Y-50511706D01*
X112124000Y-50500500D01*
X144934108Y-50500500D01*
X144997294Y-50500500D01*
X145002702Y-50500617D01*
G37*
G04 #@! TD.AperFunction*
G04 #@! TA.AperFunction,Conductor*
G36*
X131384254Y-61226615D02*
G01*
X131389098Y-61232177D01*
X131499115Y-61495489D01*
X131499142Y-61504444D01*
X131499115Y-61504511D01*
X131389098Y-61767822D01*
X131382746Y-61774134D01*
X131375388Y-61774642D01*
X130908786Y-61654659D01*
X130901627Y-61649280D01*
X130900000Y-61643328D01*
X130900000Y-61356671D01*
X130903427Y-61348398D01*
X130908783Y-61345341D01*
X131375389Y-61225357D01*
X131384254Y-61226615D01*
G37*
G04 #@! TD.AperFunction*
G04 #@! TA.AperFunction,Conductor*
G36*
X121546752Y-60159067D02*
G01*
X121552314Y-60163911D01*
X121797411Y-60578690D01*
X121798669Y-60587556D01*
X121795611Y-60592915D01*
X121592915Y-60795611D01*
X121584642Y-60799038D01*
X121578690Y-60797411D01*
X121163911Y-60552314D01*
X121158532Y-60545155D01*
X121159039Y-60537800D01*
X121267436Y-60273814D01*
X121273746Y-60267464D01*
X121537799Y-60159040D01*
X121546752Y-60159067D01*
G37*
G04 #@! TD.AperFunction*
G04 #@! TA.AperFunction,Conductor*
G36*
X115151601Y-85903427D02*
G01*
X115154659Y-85908786D01*
X115274642Y-86375388D01*
X115273384Y-86384254D01*
X115267822Y-86389098D01*
X115004511Y-86499115D01*
X114995556Y-86499142D01*
X114995489Y-86499115D01*
X114732177Y-86389098D01*
X114725865Y-86382746D01*
X114725357Y-86375390D01*
X114845341Y-85908786D01*
X114850720Y-85901627D01*
X114856672Y-85900000D01*
X115143328Y-85900000D01*
X115151601Y-85903427D01*
G37*
G04 #@! TD.AperFunction*
G04 #@! TA.AperFunction,Conductor*
G36*
X119596176Y-81496325D02*
G01*
X119597514Y-81497469D01*
X119799328Y-81698336D01*
X119801897Y-81702185D01*
X119909886Y-81965186D01*
X119909859Y-81974141D01*
X119903507Y-81980453D01*
X119902391Y-81980847D01*
X119339292Y-82147940D01*
X119330386Y-82147008D01*
X119324747Y-82140051D01*
X119324264Y-82136723D01*
X119324264Y-81851427D01*
X119326526Y-81844512D01*
X119579823Y-81498845D01*
X119587477Y-81494199D01*
X119596176Y-81496325D01*
G37*
G04 #@! TD.AperFunction*
G04 #@! TA.AperFunction,Conductor*
G36*
X116322915Y-83474388D02*
G01*
X116525611Y-83677084D01*
X116529038Y-83685357D01*
X116527411Y-83691309D01*
X116282314Y-84106088D01*
X116275155Y-84111467D01*
X116267797Y-84110959D01*
X116208772Y-84086722D01*
X116003815Y-84002563D01*
X115997463Y-83996251D01*
X115997436Y-83996184D01*
X115975200Y-83942033D01*
X115889040Y-83732200D01*
X115889067Y-83723247D01*
X115893909Y-83717686D01*
X116308690Y-83472587D01*
X116317556Y-83471330D01*
X116322915Y-83474388D01*
G37*
G04 #@! TD.AperFunction*
G04 #@! TA.AperFunction,Conductor*
G36*
X119784254Y-82826615D02*
G01*
X119789098Y-82832177D01*
X119899115Y-83095489D01*
X119899142Y-83104444D01*
X119899115Y-83104511D01*
X119789098Y-83367822D01*
X119782746Y-83374134D01*
X119775388Y-83374642D01*
X119308786Y-83254659D01*
X119301627Y-83249280D01*
X119300000Y-83243328D01*
X119300000Y-82956671D01*
X119303427Y-82948398D01*
X119308783Y-82945341D01*
X119775389Y-82825357D01*
X119784254Y-82826615D01*
G37*
G04 #@! TD.AperFunction*
G04 #@! TA.AperFunction,Conductor*
G36*
X116776752Y-85389067D02*
G01*
X116782314Y-85393911D01*
X117027411Y-85808690D01*
X117028669Y-85817556D01*
X117025611Y-85822915D01*
X116822915Y-86025611D01*
X116814642Y-86029038D01*
X116808690Y-86027411D01*
X116393911Y-85782314D01*
X116388532Y-85775155D01*
X116389039Y-85767800D01*
X116497436Y-85503814D01*
X116503746Y-85497464D01*
X116767799Y-85389040D01*
X116776752Y-85389067D01*
G37*
G04 #@! TD.AperFunction*
G04 #@! TA.AperFunction,Conductor*
G36*
X120384254Y-85726615D02*
G01*
X120389098Y-85732177D01*
X120499115Y-85995489D01*
X120499142Y-86004444D01*
X120499115Y-86004511D01*
X120389098Y-86267822D01*
X120382746Y-86274134D01*
X120375388Y-86274642D01*
X119908786Y-86154659D01*
X119901627Y-86149280D01*
X119900000Y-86143328D01*
X119900000Y-85856671D01*
X119903427Y-85848398D01*
X119908783Y-85845341D01*
X120375389Y-85725357D01*
X120384254Y-85726615D01*
G37*
G04 #@! TD.AperFunction*
G04 #@! TA.AperFunction,Conductor*
G36*
X113267823Y-74110902D02*
G01*
X113274134Y-74117253D01*
X113274642Y-74124611D01*
X113154659Y-74591214D01*
X113149280Y-74598373D01*
X113143328Y-74600000D01*
X112856672Y-74600000D01*
X112848399Y-74596573D01*
X112845341Y-74591214D01*
X112807154Y-74442712D01*
X112725357Y-74124609D01*
X112726615Y-74115745D01*
X112732174Y-74110903D01*
X112995490Y-74000883D01*
X113004444Y-74000857D01*
X113267823Y-74110902D01*
G37*
G04 #@! TD.AperFunction*
G04 #@! TA.AperFunction,Conductor*
G36*
X131767823Y-83110902D02*
G01*
X131774134Y-83117253D01*
X131774642Y-83124611D01*
X131654659Y-83591214D01*
X131649280Y-83598373D01*
X131643328Y-83600000D01*
X131356672Y-83600000D01*
X131348399Y-83596573D01*
X131345341Y-83591214D01*
X131307154Y-83442712D01*
X131225357Y-83124609D01*
X131226615Y-83115745D01*
X131232174Y-83110903D01*
X131495490Y-83000883D01*
X131504444Y-83000857D01*
X131767823Y-83110902D01*
G37*
G04 #@! TD.AperFunction*
G04 #@! TA.AperFunction,Conductor*
G36*
X114267823Y-72110902D02*
G01*
X114274134Y-72117253D01*
X114274642Y-72124611D01*
X114154659Y-72591214D01*
X114149280Y-72598373D01*
X114143328Y-72600000D01*
X113856672Y-72600000D01*
X113848399Y-72596573D01*
X113845341Y-72591214D01*
X113807154Y-72442712D01*
X113725357Y-72124609D01*
X113726615Y-72115745D01*
X113732174Y-72110903D01*
X113995490Y-72000883D01*
X114004444Y-72000857D01*
X114267823Y-72110902D01*
G37*
G04 #@! TD.AperFunction*
G04 #@! TA.AperFunction,Conductor*
G36*
X126384254Y-88226615D02*
G01*
X126389098Y-88232177D01*
X126499115Y-88495489D01*
X126499142Y-88504444D01*
X126499115Y-88504511D01*
X126389098Y-88767822D01*
X126382746Y-88774134D01*
X126375388Y-88774642D01*
X125908786Y-88654659D01*
X125901627Y-88649280D01*
X125900000Y-88643328D01*
X125900000Y-88356671D01*
X125903427Y-88348398D01*
X125908783Y-88345341D01*
X126375389Y-88225357D01*
X126384254Y-88226615D01*
G37*
G04 #@! TD.AperFunction*
G04 #@! TA.AperFunction,Conductor*
G36*
X130232199Y-79889039D02*
G01*
X130442033Y-79975200D01*
X130496184Y-79997436D01*
X130502536Y-80003748D01*
X130502563Y-80003815D01*
X130610959Y-80267797D01*
X130610932Y-80276752D01*
X130606088Y-80282314D01*
X130191309Y-80527411D01*
X130182443Y-80528669D01*
X130177084Y-80525611D01*
X129974388Y-80322915D01*
X129970961Y-80314642D01*
X129972588Y-80308690D01*
X129991217Y-80277164D01*
X130217686Y-79893910D01*
X130224844Y-79888532D01*
X130232199Y-79889039D01*
G37*
G04 #@! TD.AperFunction*
G04 #@! TA.AperFunction,Conductor*
G36*
X113767823Y-64610902D02*
G01*
X113774134Y-64617253D01*
X113774642Y-64624611D01*
X113654659Y-65091214D01*
X113649280Y-65098373D01*
X113643328Y-65100000D01*
X113356672Y-65100000D01*
X113348399Y-65096573D01*
X113345341Y-65091214D01*
X113307154Y-64942712D01*
X113225357Y-64624609D01*
X113226615Y-64615745D01*
X113232174Y-64610903D01*
X113495490Y-64500883D01*
X113504444Y-64500857D01*
X113767823Y-64610902D01*
G37*
G04 #@! TD.AperFunction*
G04 #@! TA.AperFunction,Conductor*
G36*
X132276752Y-79389067D02*
G01*
X132282314Y-79393911D01*
X132527411Y-79808690D01*
X132528669Y-79817556D01*
X132525611Y-79822915D01*
X132322915Y-80025611D01*
X132314642Y-80029038D01*
X132308690Y-80027411D01*
X131893911Y-79782314D01*
X131888532Y-79775155D01*
X131889039Y-79767800D01*
X131997436Y-79503814D01*
X132003746Y-79497464D01*
X132267799Y-79389040D01*
X132276752Y-79389067D01*
G37*
G04 #@! TD.AperFunction*
G04 #@! TA.AperFunction,Conductor*
G36*
X115591215Y-90345341D02*
G01*
X115598373Y-90350719D01*
X115600000Y-90356671D01*
X115600000Y-90643328D01*
X115596573Y-90651601D01*
X115591214Y-90654659D01*
X115124611Y-90774642D01*
X115115745Y-90773384D01*
X115110902Y-90767823D01*
X115000883Y-90504509D01*
X115000857Y-90495556D01*
X115000862Y-90495542D01*
X115110902Y-90232175D01*
X115117253Y-90225865D01*
X115124609Y-90225357D01*
X115591215Y-90345341D01*
G37*
G04 #@! TD.AperFunction*
G04 #@! TA.AperFunction,Conductor*
G36*
X112822915Y-93974388D02*
G01*
X113025611Y-94177084D01*
X113029038Y-94185357D01*
X113027411Y-94191309D01*
X112782314Y-94606088D01*
X112775155Y-94611467D01*
X112767797Y-94610959D01*
X112708772Y-94586722D01*
X112503815Y-94502563D01*
X112497463Y-94496251D01*
X112497436Y-94496184D01*
X112475200Y-94442033D01*
X112389040Y-94232200D01*
X112389067Y-94223247D01*
X112393909Y-94217686D01*
X112808690Y-93972587D01*
X112817556Y-93971330D01*
X112822915Y-93974388D01*
G37*
G04 #@! TD.AperFunction*
G04 #@! TA.AperFunction,Conductor*
G36*
X131384254Y-93726615D02*
G01*
X131389098Y-93732177D01*
X131499115Y-93995489D01*
X131499142Y-94004444D01*
X131499115Y-94004511D01*
X131389098Y-94267822D01*
X131382746Y-94274134D01*
X131375388Y-94274642D01*
X130908786Y-94154659D01*
X130901627Y-94149280D01*
X130900000Y-94143328D01*
X130900000Y-93856671D01*
X130903427Y-93848398D01*
X130908783Y-93845341D01*
X131375389Y-93725357D01*
X131384254Y-93726615D01*
G37*
G04 #@! TD.AperFunction*
G04 #@! TA.AperFunction,Conductor*
G36*
X119591215Y-55845341D02*
G01*
X119598373Y-55850719D01*
X119600000Y-55856671D01*
X119600000Y-56143328D01*
X119596573Y-56151601D01*
X119591214Y-56154659D01*
X119124611Y-56274642D01*
X119115745Y-56273384D01*
X119110902Y-56267823D01*
X119000883Y-56004509D01*
X119000857Y-55995556D01*
X119000862Y-55995542D01*
X119110902Y-55732175D01*
X119117253Y-55725865D01*
X119124609Y-55725357D01*
X119591215Y-55845341D01*
G37*
G04 #@! TD.AperFunction*
G04 #@! TA.AperFunction,Conductor*
G36*
X132384254Y-58726615D02*
G01*
X132389098Y-58732177D01*
X132499115Y-58995489D01*
X132499142Y-59004444D01*
X132499115Y-59004511D01*
X132389098Y-59267822D01*
X132382746Y-59274134D01*
X132375388Y-59274642D01*
X131908786Y-59154659D01*
X131901627Y-59149280D01*
X131900000Y-59143328D01*
X131900000Y-58856671D01*
X131903427Y-58848398D01*
X131908783Y-58845341D01*
X132375389Y-58725357D01*
X132384254Y-58726615D01*
G37*
G04 #@! TD.AperFunction*
G04 #@! TA.AperFunction,Conductor*
G36*
X120267823Y-68610902D02*
G01*
X120274134Y-68617253D01*
X120274642Y-68624611D01*
X120154659Y-69091214D01*
X120149280Y-69098373D01*
X120143328Y-69100000D01*
X119856672Y-69100000D01*
X119848399Y-69096573D01*
X119845341Y-69091214D01*
X119807154Y-68942712D01*
X119725357Y-68624609D01*
X119726615Y-68615745D01*
X119732174Y-68610903D01*
X119995490Y-68500883D01*
X120004444Y-68500857D01*
X120267823Y-68610902D01*
G37*
G04 #@! TD.AperFunction*
M02*
