M48
; DRILL file {KiCad 8.0.4} date 2025-01-10T10:23:55-0500
; FORMAT={-:-/ absolute / metric / decimal}
; #@! TF.CreationDate,2025-01-10T10:23:55-05:00
; #@! TF.GenerationSoftware,Kicad,Pcbnew,8.0.4
; #@! TF.FileFunction,Plated,1,2,PTH
FMAT,2
METRIC
; #@! TA.AperFunction,Plated,PTH,ViaDrill
T1C0.300
; #@! TA.AperFunction,Plated,PTH,ComponentDrill
T2C0.700
; #@! TA.AperFunction,Plated,PTH,ComponentDrill
T3C1.000
%
G90
G05
T1
X112.5Y-94.5
X113.0Y-74.0
X113.5Y-51.5
X113.5Y-64.5
X114.0Y-72.0
X115.0Y-86.5
X115.0Y-90.5
X116.0Y-53.0
X116.0Y-84.0
X116.5Y-85.5
X118.5Y-51.5
X119.0Y-56.0
X119.0Y-72.5
X119.0Y-73.5
X119.8Y-81.7
X119.9Y-83.1
X120.0Y-68.5
X120.5Y-86.0
X121.0Y-53.0
X121.27Y-60.27
X123.5Y-51.5
X126.0Y-53.0
X126.5Y-88.5
X128.5Y-51.5
X128.5Y-67.0
X130.5Y-80.0
X131.5Y-61.5
X131.5Y-83.0
X131.5Y-94.0
X132.0Y-79.5
X132.0Y-91.0
X132.0Y-92.0
X132.5Y-59.0
X133.5Y-91.0
X133.5Y-92.0
X143.5Y-89.0
X143.5Y-90.5
X145.0Y-89.0
X145.0Y-90.5
X146.5Y-89.0
X146.5Y-90.5
X148.0Y-67.5
T2
X119.0Y-77.0
X121.0Y-57.5
X133.0Y-89.0
X140.0Y-95.5
T3
X138.4Y-53.9
X140.94Y-53.9
X143.48Y-53.9
M30
