G04 #@! TF.GenerationSoftware,KiCad,Pcbnew,8.0.4*
G04 #@! TF.CreationDate,2025-01-10T10:23:46-05:00*
G04 #@! TF.ProjectId,555 Blink-a-tron SMD,35353520-426c-4696-9e6b-2d612d74726f,rev?*
G04 #@! TF.SameCoordinates,Original*
G04 #@! TF.FileFunction,Legend,Bot*
G04 #@! TF.FilePolarity,Positive*
%FSLAX46Y46*%
G04 Gerber Fmt 4.6, Leading zero omitted, Abs format (unit mm)*
G04 Created by KiCad (PCBNEW 8.0.4) date 2025-01-10 10:23:46*
%MOMM*%
%LPD*%
G01*
G04 APERTURE LIST*
%ADD10C,0.250000*%
%ADD11C,0.289751*%
%ADD12C,0.100000*%
%ADD13C,0.024999*%
%ADD14C,0.300000*%
%ADD15C,0.200000*%
%ADD16C,0.500000*%
%ADD17C,0.150000*%
%ADD18C,0.120000*%
%ADD19R,1.500000X1.500000*%
%ADD20C,3.200000*%
%ADD21R,1.700000X1.700000*%
%ADD22O,1.700000X1.700000*%
%ADD23R,3.505000X3.250000*%
%ADD24R,3.505000X3.500000*%
G04 APERTURE END LIST*
D10*
G36*
X147940267Y-57614619D02*
G01*
X140109337Y-57614619D01*
X140109337Y-56364619D01*
X140234337Y-56364619D01*
X140234337Y-57364619D01*
X140234954Y-57370889D01*
X140234642Y-57373349D01*
X140235510Y-57376533D01*
X140236739Y-57389005D01*
X140243100Y-57404362D01*
X140247475Y-57420404D01*
X140252354Y-57426704D01*
X140255403Y-57434065D01*
X140267158Y-57445820D01*
X140277338Y-57458965D01*
X140284256Y-57462918D01*
X140289891Y-57468553D01*
X140305249Y-57474914D01*
X140319684Y-57483163D01*
X140327590Y-57484168D01*
X140334951Y-57487217D01*
X140351572Y-57487217D01*
X140368067Y-57489314D01*
X140375756Y-57487217D01*
X140383723Y-57487217D01*
X140399080Y-57480855D01*
X140415122Y-57476481D01*
X140421422Y-57471601D01*
X140428783Y-57468553D01*
X140440538Y-57456797D01*
X140453683Y-57446618D01*
X140460936Y-57436399D01*
X140463271Y-57434065D01*
X140464220Y-57431773D01*
X140467867Y-57426636D01*
X140805765Y-56835314D01*
X140805765Y-57364619D01*
X140808167Y-57389005D01*
X140826831Y-57434065D01*
X140861319Y-57468553D01*
X140906379Y-57487217D01*
X140955151Y-57487217D01*
X141000211Y-57468553D01*
X141034699Y-57434065D01*
X141053363Y-57389005D01*
X141055765Y-57364619D01*
X141055765Y-56364619D01*
X141281955Y-56364619D01*
X141281955Y-57364619D01*
X141284357Y-57389005D01*
X141303021Y-57434065D01*
X141337509Y-57468553D01*
X141382569Y-57487217D01*
X141431341Y-57487217D01*
X141476401Y-57468553D01*
X141510889Y-57434065D01*
X141529553Y-57389005D01*
X141531955Y-57364619D01*
X141531955Y-56380253D01*
X142378176Y-56380253D01*
X142383609Y-56404147D01*
X142716941Y-57404147D01*
X142726932Y-57426522D01*
X142732782Y-57433268D01*
X142736778Y-57441259D01*
X142748618Y-57451527D01*
X142758887Y-57463368D01*
X142766878Y-57467363D01*
X142773624Y-57473214D01*
X142788489Y-57478169D01*
X142802511Y-57485180D01*
X142811421Y-57485813D01*
X142819893Y-57488637D01*
X142835526Y-57487526D01*
X142851161Y-57488637D01*
X142859632Y-57485813D01*
X142868542Y-57485180D01*
X142882562Y-57478169D01*
X142897430Y-57473214D01*
X142904175Y-57467363D01*
X142912167Y-57463368D01*
X142922438Y-57451524D01*
X142934276Y-57441258D01*
X142938270Y-57433269D01*
X142944122Y-57426522D01*
X142954112Y-57404147D01*
X143110145Y-56936047D01*
X143329575Y-56936047D01*
X143329575Y-57174142D01*
X143331977Y-57198528D01*
X143333695Y-57202676D01*
X143334014Y-57207158D01*
X143342772Y-57230044D01*
X143390390Y-57325281D01*
X143396997Y-57335777D01*
X143398260Y-57338825D01*
X143401077Y-57342258D01*
X143403445Y-57346019D01*
X143405939Y-57348182D01*
X143413805Y-57357767D01*
X143461424Y-57405387D01*
X143471012Y-57413256D01*
X143473174Y-57415749D01*
X143476928Y-57418112D01*
X143480365Y-57420933D01*
X143483418Y-57422197D01*
X143493911Y-57428803D01*
X143589149Y-57476422D01*
X143612035Y-57485180D01*
X143616515Y-57485498D01*
X143620665Y-57487217D01*
X143645051Y-57489619D01*
X143883146Y-57489619D01*
X143907532Y-57487217D01*
X143911680Y-57485498D01*
X143916162Y-57485180D01*
X143939048Y-57476422D01*
X144034285Y-57428804D01*
X144044781Y-57422196D01*
X144047831Y-57420933D01*
X144051264Y-57418114D01*
X144055023Y-57415749D01*
X144057185Y-57413255D01*
X144066773Y-57405387D01*
X144114392Y-57357768D01*
X144129937Y-57338825D01*
X144148601Y-57293766D01*
X144148601Y-57244992D01*
X144129936Y-57199933D01*
X144095448Y-57165446D01*
X144050388Y-57146782D01*
X144001615Y-57146782D01*
X143956555Y-57165447D01*
X143937614Y-57180993D01*
X143904339Y-57214268D01*
X143853638Y-57239619D01*
X143674560Y-57239619D01*
X143623858Y-57214268D01*
X143604926Y-57195336D01*
X143579575Y-57144634D01*
X143579575Y-56965555D01*
X143604925Y-56914853D01*
X143623858Y-56895921D01*
X143674560Y-56870571D01*
X143853638Y-56870571D01*
X143904339Y-56895921D01*
X143937614Y-56929197D01*
X143956556Y-56944742D01*
X143962370Y-56947150D01*
X143967243Y-56951137D01*
X143984735Y-56956414D01*
X144001616Y-56963407D01*
X144007911Y-56963407D01*
X144013937Y-56965225D01*
X144032117Y-56963407D01*
X144050389Y-56963407D01*
X144056203Y-56960998D01*
X144062467Y-56960372D01*
X144064502Y-56959280D01*
X144331977Y-56959280D01*
X144331977Y-57008052D01*
X144350641Y-57053112D01*
X144385129Y-57087600D01*
X144430189Y-57106264D01*
X144454575Y-57108666D01*
X145216479Y-57108666D01*
X145240865Y-57106264D01*
X145285925Y-57087600D01*
X145320413Y-57053112D01*
X145339077Y-57008052D01*
X145339077Y-56959280D01*
X145329454Y-56936047D01*
X145520051Y-56936047D01*
X145520051Y-57174142D01*
X145522453Y-57198528D01*
X145524171Y-57202676D01*
X145524490Y-57207158D01*
X145533248Y-57230044D01*
X145580866Y-57325281D01*
X145587473Y-57335777D01*
X145588736Y-57338825D01*
X145591553Y-57342258D01*
X145593921Y-57346019D01*
X145596415Y-57348182D01*
X145604281Y-57357767D01*
X145651900Y-57405387D01*
X145661488Y-57413256D01*
X145663650Y-57415749D01*
X145667404Y-57418112D01*
X145670841Y-57420933D01*
X145673894Y-57422197D01*
X145684387Y-57428803D01*
X145779625Y-57476422D01*
X145802511Y-57485180D01*
X145806991Y-57485498D01*
X145811141Y-57487217D01*
X145835527Y-57489619D01*
X146121241Y-57489619D01*
X146145627Y-57487217D01*
X146149775Y-57485498D01*
X146154257Y-57485180D01*
X146177143Y-57476422D01*
X146272380Y-57428804D01*
X146282876Y-57422196D01*
X146285926Y-57420933D01*
X146289359Y-57418114D01*
X146293118Y-57415749D01*
X146295280Y-57413255D01*
X146304868Y-57405387D01*
X146352487Y-57357768D01*
X146368032Y-57338825D01*
X146386696Y-57293766D01*
X146386696Y-57292613D01*
X146474833Y-57292613D01*
X146474833Y-57292614D01*
X146474833Y-57292615D01*
X146474833Y-57341388D01*
X146493498Y-57386447D01*
X146493502Y-57386451D01*
X146509043Y-57405388D01*
X146556661Y-57453007D01*
X146575603Y-57468552D01*
X146575604Y-57468553D01*
X146601999Y-57479485D01*
X146620663Y-57487217D01*
X146620664Y-57487217D01*
X146669436Y-57487217D01*
X146669437Y-57487217D01*
X146682634Y-57481750D01*
X146714496Y-57468553D01*
X146714501Y-57468547D01*
X146733438Y-57453007D01*
X146781057Y-57405389D01*
X146796602Y-57386447D01*
X146812120Y-57348984D01*
X146815267Y-57341388D01*
X146815267Y-57292614D01*
X146796603Y-57247555D01*
X146781058Y-57228612D01*
X146733439Y-57180993D01*
X146714497Y-57165447D01*
X146714496Y-57165446D01*
X146695832Y-57157715D01*
X146669438Y-57146782D01*
X146669436Y-57146782D01*
X146669435Y-57146782D01*
X146620662Y-57146782D01*
X146575602Y-57165447D01*
X146556661Y-57180993D01*
X146509042Y-57228613D01*
X146493497Y-57247555D01*
X146491318Y-57252816D01*
X146474833Y-57292613D01*
X146386696Y-57292613D01*
X146386696Y-57244992D01*
X146368031Y-57199933D01*
X146333543Y-57165446D01*
X146288483Y-57146782D01*
X146239710Y-57146782D01*
X146194650Y-57165447D01*
X146175709Y-57180993D01*
X146142434Y-57214268D01*
X146091733Y-57239619D01*
X145865036Y-57239619D01*
X145814334Y-57214268D01*
X145795402Y-57195336D01*
X145770051Y-57144634D01*
X145770051Y-56965555D01*
X145784804Y-56936047D01*
X146948622Y-56936047D01*
X146948622Y-57174142D01*
X146951024Y-57198528D01*
X146952742Y-57202676D01*
X146953061Y-57207158D01*
X146961819Y-57230044D01*
X147009437Y-57325281D01*
X147016044Y-57335777D01*
X147017307Y-57338825D01*
X147020124Y-57342258D01*
X147022492Y-57346019D01*
X147024986Y-57348182D01*
X147032852Y-57357767D01*
X147080471Y-57405387D01*
X147090059Y-57413256D01*
X147092221Y-57415749D01*
X147095975Y-57418112D01*
X147099412Y-57420933D01*
X147102465Y-57422197D01*
X147112958Y-57428803D01*
X147208196Y-57476422D01*
X147231082Y-57485180D01*
X147235562Y-57485498D01*
X147239712Y-57487217D01*
X147264098Y-57489619D01*
X147549812Y-57489619D01*
X147574198Y-57487217D01*
X147578346Y-57485498D01*
X147582828Y-57485180D01*
X147605714Y-57476422D01*
X147700951Y-57428804D01*
X147711447Y-57422196D01*
X147714497Y-57420933D01*
X147717930Y-57418114D01*
X147721689Y-57415749D01*
X147723851Y-57413255D01*
X147733439Y-57405387D01*
X147781058Y-57357768D01*
X147796603Y-57338825D01*
X147815267Y-57293766D01*
X147815267Y-57244992D01*
X147796602Y-57199933D01*
X147762114Y-57165446D01*
X147717054Y-57146782D01*
X147668281Y-57146782D01*
X147623221Y-57165447D01*
X147604280Y-57180993D01*
X147571005Y-57214268D01*
X147520304Y-57239619D01*
X147293607Y-57239619D01*
X147242905Y-57214268D01*
X147223973Y-57195336D01*
X147198622Y-57144634D01*
X147198622Y-56965555D01*
X147223972Y-56914853D01*
X147242905Y-56895921D01*
X147293607Y-56870571D01*
X147406955Y-56870571D01*
X147419848Y-56869301D01*
X147423133Y-56869520D01*
X147425396Y-56868754D01*
X147431341Y-56868169D01*
X147450095Y-56860400D01*
X147469334Y-56853894D01*
X147472506Y-56851118D01*
X147476401Y-56849505D01*
X147490758Y-56835147D01*
X147506039Y-56821777D01*
X147507907Y-56817998D01*
X147510889Y-56815017D01*
X147518656Y-56796264D01*
X147527660Y-56778059D01*
X147527940Y-56773849D01*
X147529553Y-56769957D01*
X147529553Y-56749660D01*
X147530904Y-56729393D01*
X147529553Y-56725398D01*
X147529553Y-56721185D01*
X147521784Y-56702430D01*
X147515278Y-56683192D01*
X147511802Y-56678330D01*
X147510889Y-56676125D01*
X147508562Y-56673798D01*
X147501027Y-56663258D01*
X147349093Y-56489619D01*
X147692669Y-56489619D01*
X147717055Y-56487217D01*
X147762115Y-56468553D01*
X147796603Y-56434065D01*
X147815267Y-56389005D01*
X147815267Y-56340233D01*
X147796603Y-56295173D01*
X147762115Y-56260685D01*
X147717055Y-56242021D01*
X147692669Y-56239619D01*
X147073622Y-56239619D01*
X147060728Y-56240889D01*
X147057444Y-56240670D01*
X147055180Y-56241435D01*
X147049236Y-56242021D01*
X147030481Y-56249789D01*
X147011243Y-56256296D01*
X147008070Y-56259071D01*
X147004176Y-56260685D01*
X146989818Y-56275042D01*
X146974538Y-56288413D01*
X146972669Y-56292191D01*
X146969688Y-56295173D01*
X146961917Y-56313932D01*
X146952918Y-56332131D01*
X146952637Y-56336337D01*
X146951024Y-56340233D01*
X146951024Y-56360535D01*
X146949673Y-56380797D01*
X146951024Y-56384791D01*
X146951024Y-56389005D01*
X146958792Y-56407759D01*
X146965299Y-56426998D01*
X146968774Y-56431859D01*
X146969688Y-56434065D01*
X146972014Y-56436391D01*
X146979550Y-56446932D01*
X147162864Y-56656433D01*
X147112958Y-56681387D01*
X147102463Y-56687993D01*
X147099413Y-56689257D01*
X147095978Y-56692075D01*
X147092221Y-56694441D01*
X147090059Y-56696932D01*
X147080471Y-56704802D01*
X147032853Y-56752421D01*
X147024986Y-56762006D01*
X147022492Y-56764170D01*
X147020123Y-56767931D01*
X147017308Y-56771363D01*
X147016046Y-56774409D01*
X147009437Y-56784908D01*
X146961819Y-56880145D01*
X146953061Y-56903031D01*
X146952742Y-56907512D01*
X146951024Y-56911661D01*
X146948622Y-56936047D01*
X145784804Y-56936047D01*
X145795401Y-56914853D01*
X145814334Y-56895921D01*
X145865036Y-56870571D01*
X145978384Y-56870571D01*
X145991277Y-56869301D01*
X145994562Y-56869520D01*
X145996825Y-56868754D01*
X146002770Y-56868169D01*
X146021524Y-56860400D01*
X146040763Y-56853894D01*
X146043935Y-56851118D01*
X146047830Y-56849505D01*
X146062187Y-56835147D01*
X146077468Y-56821777D01*
X146079336Y-56817998D01*
X146082318Y-56815017D01*
X146090085Y-56796264D01*
X146099089Y-56778059D01*
X146099369Y-56773849D01*
X146100982Y-56769957D01*
X146100982Y-56749660D01*
X146102333Y-56729393D01*
X146100982Y-56725398D01*
X146100982Y-56721185D01*
X146093213Y-56702430D01*
X146086707Y-56683192D01*
X146083231Y-56678330D01*
X146082318Y-56676125D01*
X146079991Y-56673798D01*
X146072456Y-56663258D01*
X145920522Y-56489619D01*
X146264098Y-56489619D01*
X146288484Y-56487217D01*
X146333544Y-56468553D01*
X146368032Y-56434065D01*
X146386696Y-56389005D01*
X146386696Y-56340233D01*
X146368032Y-56295173D01*
X146333544Y-56260685D01*
X146288484Y-56242021D01*
X146264098Y-56239619D01*
X145645051Y-56239619D01*
X145632157Y-56240889D01*
X145628873Y-56240670D01*
X145626609Y-56241435D01*
X145620665Y-56242021D01*
X145601910Y-56249789D01*
X145582672Y-56256296D01*
X145579499Y-56259071D01*
X145575605Y-56260685D01*
X145561247Y-56275042D01*
X145545967Y-56288413D01*
X145544098Y-56292191D01*
X145541117Y-56295173D01*
X145533346Y-56313932D01*
X145524347Y-56332131D01*
X145524066Y-56336337D01*
X145522453Y-56340233D01*
X145522453Y-56360535D01*
X145521102Y-56380797D01*
X145522453Y-56384791D01*
X145522453Y-56389005D01*
X145530221Y-56407759D01*
X145536728Y-56426998D01*
X145540203Y-56431859D01*
X145541117Y-56434065D01*
X145543443Y-56436391D01*
X145550979Y-56446932D01*
X145734293Y-56656433D01*
X145684387Y-56681387D01*
X145673892Y-56687993D01*
X145670842Y-56689257D01*
X145667407Y-56692075D01*
X145663650Y-56694441D01*
X145661488Y-56696932D01*
X145651900Y-56704802D01*
X145604282Y-56752421D01*
X145596415Y-56762006D01*
X145593921Y-56764170D01*
X145591552Y-56767931D01*
X145588737Y-56771363D01*
X145587475Y-56774409D01*
X145580866Y-56784908D01*
X145533248Y-56880145D01*
X145524490Y-56903031D01*
X145524171Y-56907512D01*
X145522453Y-56911661D01*
X145520051Y-56936047D01*
X145329454Y-56936047D01*
X145320413Y-56914220D01*
X145285925Y-56879732D01*
X145240865Y-56861068D01*
X145216479Y-56858666D01*
X144454575Y-56858666D01*
X144430189Y-56861068D01*
X144385129Y-56879732D01*
X144350641Y-56914220D01*
X144331977Y-56959280D01*
X144064502Y-56959280D01*
X144078571Y-56951732D01*
X144095449Y-56944742D01*
X144099897Y-56940293D01*
X144105446Y-56937317D01*
X144117020Y-56923170D01*
X144129936Y-56910255D01*
X144132343Y-56904442D01*
X144136331Y-56899569D01*
X144141609Y-56882073D01*
X144148601Y-56865195D01*
X144148601Y-56858900D01*
X144150419Y-56852875D01*
X144150383Y-56828371D01*
X144102764Y-56352181D01*
X144100982Y-56343292D01*
X144100982Y-56340233D01*
X144099793Y-56337362D01*
X144097947Y-56328155D01*
X144089310Y-56312055D01*
X144082318Y-56295173D01*
X144077867Y-56290722D01*
X144074892Y-56285176D01*
X144060750Y-56273605D01*
X144047830Y-56260685D01*
X144042015Y-56258276D01*
X144037144Y-56254291D01*
X144019651Y-56249013D01*
X144002770Y-56242021D01*
X143993424Y-56241100D01*
X143990450Y-56240203D01*
X143987404Y-56240507D01*
X143978384Y-56239619D01*
X143502194Y-56239619D01*
X143477808Y-56242021D01*
X143432748Y-56260685D01*
X143398260Y-56295173D01*
X143379596Y-56340233D01*
X143379596Y-56389005D01*
X143398260Y-56434065D01*
X143432748Y-56468553D01*
X143477808Y-56487217D01*
X143502194Y-56489619D01*
X143865260Y-56489619D01*
X143878355Y-56620571D01*
X143645051Y-56620571D01*
X143620665Y-56622973D01*
X143616515Y-56624691D01*
X143612035Y-56625010D01*
X143589149Y-56633768D01*
X143493911Y-56681387D01*
X143483416Y-56687993D01*
X143480366Y-56689257D01*
X143476931Y-56692075D01*
X143473174Y-56694441D01*
X143471012Y-56696932D01*
X143461424Y-56704802D01*
X143413806Y-56752421D01*
X143405939Y-56762006D01*
X143403445Y-56764170D01*
X143401076Y-56767931D01*
X143398261Y-56771363D01*
X143396999Y-56774409D01*
X143390390Y-56784908D01*
X143342772Y-56880145D01*
X143334014Y-56903031D01*
X143333695Y-56907512D01*
X143331977Y-56911661D01*
X143329575Y-56936047D01*
X143110145Y-56936047D01*
X143287445Y-56404148D01*
X143292878Y-56380254D01*
X143289421Y-56331604D01*
X143267609Y-56287980D01*
X143230763Y-56256024D01*
X143184494Y-56240601D01*
X143135844Y-56244058D01*
X143092220Y-56265870D01*
X143060265Y-56302716D01*
X143050274Y-56325091D01*
X142835526Y-56969334D01*
X142620779Y-56325091D01*
X142610789Y-56302716D01*
X142578834Y-56265870D01*
X142535209Y-56244058D01*
X142486560Y-56240601D01*
X142440291Y-56256024D01*
X142403445Y-56287979D01*
X142381633Y-56331604D01*
X142378176Y-56380253D01*
X141531955Y-56380253D01*
X141531955Y-56364619D01*
X141529553Y-56340233D01*
X141510889Y-56295173D01*
X141476401Y-56260685D01*
X141431341Y-56242021D01*
X141382569Y-56242021D01*
X141337509Y-56260685D01*
X141303021Y-56295173D01*
X141284357Y-56340233D01*
X141281955Y-56364619D01*
X141055765Y-56364619D01*
X141055147Y-56358347D01*
X141055460Y-56355888D01*
X141054591Y-56352702D01*
X141053363Y-56340233D01*
X141047002Y-56324876D01*
X141042627Y-56308834D01*
X141037747Y-56302533D01*
X141034699Y-56295173D01*
X141022943Y-56283417D01*
X141012764Y-56270273D01*
X141005845Y-56266319D01*
X141000211Y-56260685D01*
X140984852Y-56254323D01*
X140970418Y-56246075D01*
X140962511Y-56245069D01*
X140955151Y-56242021D01*
X140938530Y-56242021D01*
X140922035Y-56239924D01*
X140914346Y-56242021D01*
X140906379Y-56242021D01*
X140891021Y-56248382D01*
X140874980Y-56252757D01*
X140868679Y-56257636D01*
X140861319Y-56260685D01*
X140849563Y-56272440D01*
X140836419Y-56282620D01*
X140829165Y-56292838D01*
X140826831Y-56295173D01*
X140825881Y-56297464D01*
X140822235Y-56302602D01*
X140484337Y-56893924D01*
X140484337Y-56364619D01*
X140481935Y-56340233D01*
X140463271Y-56295173D01*
X140428783Y-56260685D01*
X140383723Y-56242021D01*
X140334951Y-56242021D01*
X140289891Y-56260685D01*
X140255403Y-56295173D01*
X140236739Y-56340233D01*
X140234337Y-56364619D01*
X140109337Y-56364619D01*
X140109337Y-56114619D01*
X147940267Y-56114619D01*
X147940267Y-57614619D01*
G37*
D11*
X111965409Y-91097604D02*
X111992757Y-91167384D01*
X114636110Y-90709552D02*
X114848255Y-90533095D01*
X112105303Y-91348919D02*
X112152255Y-91399972D01*
X112254216Y-89669794D02*
X112185365Y-89797973D01*
X115452098Y-85691098D02*
X115217459Y-85995702D01*
X112185365Y-89797973D02*
X112124809Y-89922349D01*
X111914770Y-90681740D02*
X111912688Y-90773652D01*
X112608853Y-89122018D02*
X112416664Y-89402484D01*
X113570207Y-83495808D02*
X113721710Y-83361655D01*
X115217459Y-85995702D02*
X114965113Y-86307247D01*
X115499012Y-89950900D02*
X115941016Y-89532651D01*
X114019270Y-91166641D02*
X114221240Y-91027715D01*
X112447942Y-91581758D02*
X112517732Y-91603021D01*
X115664715Y-85395260D02*
X115452098Y-85691098D01*
X113872947Y-83234631D02*
X114023874Y-83115924D01*
X112259001Y-91487553D02*
X112318358Y-91523967D01*
X115432575Y-82629380D02*
X115503557Y-82645743D01*
X112416664Y-89402484D02*
X112254216Y-89669794D01*
X114699372Y-86623905D02*
X114144961Y-87265254D01*
D12*
X129600000Y-52500000D02*
X118000000Y-52500000D01*
D11*
X112124809Y-89922349D02*
X112072329Y-90042865D01*
X115641511Y-82692243D02*
X115707947Y-82722307D01*
X116176812Y-84454389D02*
X116128380Y-84578366D01*
X113588733Y-87905133D02*
X113065194Y-88528926D01*
X112025335Y-91232568D02*
X112062923Y-91293098D01*
X112062923Y-91293098D02*
X112105303Y-91348919D01*
X114174447Y-83006723D02*
X114324621Y-82908216D01*
X116054135Y-82995723D02*
X116100598Y-83056451D01*
X115950509Y-82887111D02*
X116004017Y-82939263D01*
X114221240Y-91027715D02*
X114426980Y-90874889D01*
X111938783Y-90485202D02*
X111923395Y-90585571D01*
X115141477Y-82610679D02*
X115214818Y-82608286D01*
X116217306Y-84334085D02*
X116176812Y-84454389D01*
X113821444Y-91290276D02*
X114019270Y-91166641D01*
X116006631Y-84837194D02*
X115850997Y-85110017D01*
X113418482Y-83635903D02*
X113570207Y-83495808D01*
X116244532Y-83341313D02*
X116268699Y-83422829D01*
X116293836Y-83995593D02*
X116275550Y-84104650D01*
D13*
X108000000Y-87764604D02*
X108003021Y-87764822D01*
X108006032Y-87765184D01*
X108009025Y-87765692D01*
X108011997Y-87766344D01*
X108014941Y-87767142D01*
X108017852Y-87768085D01*
X108020724Y-87769172D01*
X108023552Y-87770405D01*
X108026330Y-87771783D01*
X108029053Y-87773305D01*
X108031715Y-87774973D01*
X108034310Y-87776786D01*
X108036834Y-87778744D01*
X108039281Y-87780846D01*
X108041644Y-87783094D01*
X109259084Y-89000555D01*
X109261332Y-89002918D01*
X109263435Y-89005365D01*
X109265392Y-89007889D01*
X109267205Y-89010484D01*
X109268873Y-89013146D01*
X109270395Y-89015869D01*
X109271773Y-89018647D01*
X109273006Y-89021475D01*
X109274094Y-89024347D01*
X109275036Y-89027258D01*
X109275834Y-89030202D01*
X109276486Y-89033173D01*
X109276994Y-89036167D01*
X109277357Y-89039177D01*
X109277574Y-89042198D01*
X109277647Y-89045225D01*
X109277574Y-89048252D01*
X109277357Y-89051273D01*
X109276994Y-89054283D01*
X109276486Y-89057277D01*
X109275834Y-89060248D01*
X109275036Y-89063192D01*
X109274093Y-89066103D01*
X109273006Y-89068975D01*
X109271773Y-89071802D01*
X109270395Y-89074581D01*
X109268872Y-89077303D01*
X109267205Y-89079965D01*
X109265392Y-89082561D01*
X109263434Y-89085085D01*
X109261331Y-89087531D01*
X109259083Y-89089895D01*
X108910210Y-89438772D01*
X108907846Y-89441020D01*
X108905400Y-89443122D01*
X108902875Y-89445080D01*
X108900280Y-89446893D01*
X108897617Y-89448561D01*
X108894895Y-89450083D01*
X108892116Y-89451461D01*
X108889288Y-89452694D01*
X108886416Y-89453781D01*
X108883505Y-89454724D01*
X108880561Y-89455521D01*
X108877590Y-89456174D01*
X108874596Y-89456682D01*
X108871586Y-89457044D01*
X108868565Y-89457262D01*
X108865538Y-89457334D01*
X108862511Y-89457262D01*
X108859490Y-89457044D01*
X108856479Y-89456682D01*
X108853486Y-89456174D01*
X108850514Y-89455521D01*
X108847570Y-89454724D01*
X108844659Y-89453781D01*
X108841787Y-89452694D01*
X108838959Y-89451461D01*
X108836181Y-89450083D01*
X108833459Y-89448561D01*
X108830796Y-89446893D01*
X108828201Y-89445080D01*
X108825677Y-89443122D01*
X108823230Y-89441020D01*
X108820867Y-89438772D01*
X108653327Y-89271230D01*
X108513463Y-89411085D01*
X108507449Y-89406836D01*
X108501300Y-89402900D01*
X108495026Y-89399276D01*
X108488638Y-89395962D01*
X108482147Y-89392960D01*
X108475562Y-89390266D01*
X108468895Y-89387881D01*
X108462155Y-89385805D01*
X108455354Y-89384035D01*
X108448502Y-89382572D01*
X108441608Y-89381415D01*
X108434685Y-89380562D01*
X108427742Y-89380013D01*
X108420789Y-89379768D01*
X108413838Y-89379826D01*
X108406898Y-89380185D01*
X108399981Y-89380845D01*
X108393096Y-89381805D01*
X108386254Y-89383065D01*
X108379466Y-89384624D01*
X108372742Y-89386480D01*
X108366093Y-89388634D01*
X108359529Y-89391084D01*
X108353060Y-89393830D01*
X108346698Y-89396870D01*
X108340452Y-89400205D01*
X108334333Y-89403832D01*
X108328351Y-89407753D01*
X108322518Y-89411965D01*
X108316843Y-89416468D01*
X108311337Y-89421261D01*
X108306011Y-89426344D01*
X108300920Y-89431671D01*
X108296120Y-89437177D01*
X108291610Y-89442853D01*
X108287391Y-89448688D01*
X108283464Y-89454671D01*
X108279830Y-89460792D01*
X108276490Y-89467040D01*
X108273444Y-89473405D01*
X108270693Y-89479876D01*
X108268238Y-89486443D01*
X108266080Y-89493095D01*
X108264219Y-89499822D01*
X108262656Y-89506613D01*
X108261393Y-89513459D01*
X108259765Y-89527268D01*
X108259344Y-89541167D01*
X108259587Y-89548123D01*
X108260133Y-89555071D01*
X108260985Y-89561998D01*
X108262141Y-89568895D01*
X108263603Y-89575752D01*
X108265372Y-89582558D01*
X108267449Y-89589301D01*
X108269834Y-89595973D01*
X108272528Y-89602562D01*
X108275532Y-89609057D01*
X108278847Y-89615449D01*
X108282473Y-89621727D01*
X108286411Y-89627880D01*
X108290662Y-89633897D01*
X107854386Y-90070203D01*
X107848369Y-90065951D01*
X107842217Y-90062012D01*
X107835940Y-90058385D01*
X107829548Y-90055070D01*
X107823053Y-90052065D01*
X107816465Y-90049370D01*
X107809794Y-90046984D01*
X107803050Y-90044906D01*
X107796245Y-90043136D01*
X107789389Y-90041673D01*
X107782491Y-90040516D01*
X107775564Y-90039664D01*
X107768616Y-90039116D01*
X107761660Y-90038873D01*
X107754704Y-90038932D01*
X107747760Y-90039293D01*
X107740839Y-90039956D01*
X107733950Y-90040919D01*
X107727104Y-90042182D01*
X107720312Y-90043744D01*
X107713584Y-90045605D01*
X107706931Y-90047763D01*
X107700363Y-90050218D01*
X107693890Y-90052969D01*
X107687524Y-90056015D01*
X107681275Y-90059355D01*
X107675152Y-90062989D01*
X107669168Y-90066916D01*
X107663331Y-90071136D01*
X107657653Y-90075646D01*
X107652145Y-90080448D01*
X107646816Y-90085539D01*
X107641725Y-90090865D01*
X107636925Y-90096372D01*
X107632415Y-90102048D01*
X107628196Y-90107883D01*
X107624269Y-90113866D01*
X107620635Y-90119987D01*
X107617295Y-90126235D01*
X107614249Y-90132600D01*
X107611498Y-90139071D01*
X107609043Y-90145638D01*
X107606885Y-90152290D01*
X107605024Y-90159017D01*
X107603461Y-90165808D01*
X107602198Y-90172653D01*
X107600571Y-90186463D01*
X107600149Y-90200361D01*
X107600392Y-90207317D01*
X107600939Y-90214265D01*
X107601790Y-90221192D01*
X107602947Y-90228089D01*
X107604409Y-90234946D01*
X107606178Y-90241751D01*
X107608255Y-90248494D01*
X107610640Y-90255166D01*
X107613334Y-90261754D01*
X107616338Y-90268250D01*
X107619653Y-90274641D01*
X107623279Y-90280919D01*
X107627218Y-90287071D01*
X107631469Y-90293089D01*
X107195189Y-90729402D01*
X107189172Y-90725150D01*
X107183020Y-90721210D01*
X107176743Y-90717583D01*
X107170352Y-90714267D01*
X107163857Y-90711262D01*
X107157269Y-90708567D01*
X107150598Y-90706181D01*
X107143855Y-90704103D01*
X107137050Y-90702333D01*
X107130193Y-90700869D01*
X107123296Y-90699712D01*
X107116369Y-90698860D01*
X107109421Y-90698312D01*
X107102465Y-90698068D01*
X107095509Y-90698127D01*
X107088565Y-90698488D01*
X107081644Y-90699151D01*
X107074755Y-90700114D01*
X107067909Y-90701377D01*
X107061117Y-90702940D01*
X107054389Y-90704800D01*
X107047736Y-90706958D01*
X107041168Y-90709413D01*
X107034696Y-90712164D01*
X107028330Y-90715210D01*
X107022081Y-90718550D01*
X107015958Y-90722184D01*
X107009974Y-90726111D01*
X107004138Y-90730331D01*
X106998460Y-90734841D01*
X106992951Y-90739642D01*
X106987623Y-90744733D01*
X106982540Y-90750061D01*
X106977746Y-90755568D01*
X106973243Y-90761243D01*
X106969030Y-90767077D01*
X106965110Y-90773060D01*
X106961482Y-90779179D01*
X106958147Y-90785425D01*
X106955107Y-90791788D01*
X106952361Y-90798257D01*
X106949911Y-90804822D01*
X106947757Y-90811471D01*
X106945901Y-90818195D01*
X106944342Y-90824983D01*
X106943083Y-90831825D01*
X106941462Y-90845627D01*
X106941046Y-90859518D01*
X106941291Y-90866471D01*
X106941840Y-90873414D01*
X106942693Y-90880337D01*
X106943850Y-90887231D01*
X106945314Y-90894083D01*
X106947083Y-90900884D01*
X106949160Y-90907624D01*
X106951545Y-90914291D01*
X106954239Y-90920876D01*
X106957242Y-90927367D01*
X106960556Y-90933755D01*
X106964180Y-90940029D01*
X106968117Y-90946178D01*
X106972366Y-90952192D01*
X106383967Y-91540590D01*
X106079947Y-91236570D01*
X104418898Y-92897623D01*
X103860922Y-93181360D01*
X104144659Y-92623384D01*
X105805708Y-90962331D01*
X105792483Y-90949106D01*
X106373595Y-90949106D01*
X106373787Y-90957008D01*
X106374368Y-90964856D01*
X106375332Y-90972638D01*
X106376673Y-90980341D01*
X106378386Y-90987951D01*
X106380466Y-90995455D01*
X106382907Y-91002840D01*
X106385704Y-91010093D01*
X106388851Y-91017201D01*
X106392342Y-91024151D01*
X106396174Y-91030930D01*
X106400339Y-91037524D01*
X106404833Y-91043921D01*
X106409650Y-91050107D01*
X106414786Y-91056070D01*
X106420233Y-91061796D01*
X106425960Y-91067245D01*
X106431924Y-91072381D01*
X106438110Y-91077200D01*
X106444508Y-91081695D01*
X106451102Y-91085862D01*
X106457881Y-91089694D01*
X106464831Y-91093187D01*
X106471940Y-91096335D01*
X106479193Y-91099133D01*
X106486578Y-91101574D01*
X106494082Y-91103655D01*
X106501692Y-91105369D01*
X106509395Y-91106711D01*
X106517177Y-91107675D01*
X106525026Y-91108256D01*
X106532929Y-91108450D01*
X106540832Y-91108251D01*
X106548681Y-91107664D01*
X106556463Y-91106694D01*
X106564165Y-91105347D01*
X106571775Y-91103627D01*
X106579278Y-91101542D01*
X106586662Y-91099094D01*
X106593914Y-91096292D01*
X106601021Y-91093139D01*
X106607969Y-91089641D01*
X106614747Y-91085803D01*
X106621339Y-91081631D01*
X106627735Y-91077131D01*
X106633920Y-91072307D01*
X106639881Y-91067166D01*
X106645605Y-91061712D01*
X106651254Y-91055768D01*
X106656538Y-91049612D01*
X106661458Y-91043258D01*
X106666014Y-91036721D01*
X106670204Y-91030013D01*
X106674031Y-91023150D01*
X106677493Y-91016146D01*
X106680591Y-91009014D01*
X106683324Y-91001769D01*
X106685693Y-90994425D01*
X106687697Y-90986996D01*
X106689337Y-90979496D01*
X106690612Y-90971940D01*
X106691523Y-90964342D01*
X106692070Y-90956715D01*
X106692252Y-90949074D01*
X106692070Y-90941433D01*
X106691523Y-90933806D01*
X106690612Y-90926208D01*
X106689337Y-90918652D01*
X106687697Y-90911152D01*
X106685692Y-90903723D01*
X106683324Y-90896380D01*
X106680591Y-90889135D01*
X106677493Y-90882003D01*
X106674031Y-90874999D01*
X106670205Y-90868136D01*
X106666014Y-90861429D01*
X106661459Y-90854891D01*
X106656539Y-90848538D01*
X106651256Y-90842382D01*
X106645607Y-90836439D01*
X106645605Y-90836436D01*
X106645603Y-90836433D01*
X106645601Y-90836430D01*
X106645600Y-90836429D01*
X106645599Y-90836428D01*
X106645598Y-90836427D01*
X106645597Y-90836425D01*
X106645595Y-90836424D01*
X106645594Y-90836423D01*
X106645593Y-90836422D01*
X106645592Y-90836421D01*
X106645591Y-90836420D01*
X106645590Y-90836420D01*
X106639646Y-90830772D01*
X106633490Y-90825489D01*
X106627136Y-90820571D01*
X106620597Y-90816016D01*
X106613890Y-90811827D01*
X106607026Y-90808001D01*
X106600021Y-90804541D01*
X106592889Y-90801444D01*
X106585644Y-90798712D01*
X106578300Y-90796344D01*
X106570871Y-90794341D01*
X106563371Y-90792702D01*
X106555815Y-90791428D01*
X106548216Y-90790517D01*
X106540590Y-90789972D01*
X106532949Y-90789790D01*
X106525308Y-90789973D01*
X106517682Y-90790521D01*
X106510084Y-90791432D01*
X106502528Y-90792708D01*
X106495030Y-90794349D01*
X106487602Y-90796354D01*
X106480259Y-90798723D01*
X106473015Y-90801456D01*
X106465884Y-90804554D01*
X106458881Y-90808016D01*
X106452020Y-90811842D01*
X106445314Y-90816033D01*
X106438779Y-90820588D01*
X106432427Y-90825507D01*
X106426273Y-90830791D01*
X106420332Y-90836439D01*
X106414879Y-90842161D01*
X106409738Y-90848121D01*
X106404915Y-90854304D01*
X106400415Y-90860698D01*
X106396243Y-90867290D01*
X106392406Y-90874066D01*
X106388908Y-90881014D01*
X106385755Y-90888120D01*
X106382952Y-90895372D01*
X106380504Y-90902756D01*
X106378418Y-90910259D01*
X106376699Y-90917869D01*
X106375351Y-90925571D01*
X106374381Y-90933353D01*
X106373794Y-90941203D01*
X106373595Y-90949106D01*
X105792483Y-90949106D01*
X105501599Y-90658224D01*
X105635170Y-90524656D01*
X105949080Y-90524656D01*
X105949276Y-90532563D01*
X105949861Y-90540416D01*
X105950829Y-90548202D01*
X105952175Y-90555908D01*
X105953893Y-90563520D01*
X105955978Y-90571027D01*
X105958425Y-90578415D01*
X105961228Y-90585670D01*
X105964381Y-90592779D01*
X105967880Y-90599731D01*
X105971718Y-90606510D01*
X105975890Y-90613105D01*
X105980392Y-90619502D01*
X105985216Y-90625689D01*
X105990359Y-90631651D01*
X105995814Y-90637376D01*
X106001541Y-90642826D01*
X106007504Y-90647963D01*
X106013691Y-90652782D01*
X106020088Y-90657278D01*
X106026683Y-90661445D01*
X106033462Y-90665278D01*
X106040412Y-90668771D01*
X106047520Y-90671919D01*
X106054773Y-90674717D01*
X106062159Y-90677159D01*
X106069663Y-90679239D01*
X106077273Y-90680953D01*
X106084975Y-90682295D01*
X106092758Y-90683259D01*
X106100607Y-90683841D01*
X106108509Y-90684034D01*
X106116412Y-90683835D01*
X106124261Y-90683247D01*
X106132043Y-90682277D01*
X106139746Y-90680929D01*
X106147355Y-90679209D01*
X106154858Y-90677123D01*
X106162243Y-90674676D01*
X106169495Y-90671873D01*
X106176601Y-90668719D01*
X106183550Y-90665221D01*
X106190327Y-90661384D01*
X106196920Y-90657212D01*
X106203315Y-90652712D01*
X106209500Y-90647888D01*
X106215461Y-90642746D01*
X106221186Y-90637293D01*
X106226835Y-90631349D01*
X106232119Y-90625194D01*
X106237039Y-90618840D01*
X106241594Y-90612302D01*
X106245785Y-90605595D01*
X106249612Y-90598732D01*
X106253074Y-90591728D01*
X106256171Y-90584596D01*
X106258905Y-90577351D01*
X106261273Y-90570007D01*
X106263278Y-90562578D01*
X106264918Y-90555078D01*
X106266193Y-90547522D01*
X106267104Y-90539924D01*
X106267651Y-90532297D01*
X106267833Y-90524655D01*
X106267651Y-90517014D01*
X106267104Y-90509387D01*
X106266193Y-90501789D01*
X106264917Y-90494232D01*
X106263277Y-90486733D01*
X106261273Y-90479304D01*
X106258904Y-90471959D01*
X106256171Y-90464714D01*
X106253073Y-90457582D01*
X106249611Y-90450578D01*
X106245785Y-90443715D01*
X106241594Y-90437007D01*
X106237038Y-90430469D01*
X106232119Y-90424115D01*
X106226835Y-90417959D01*
X106221186Y-90412016D01*
X106221185Y-90412014D01*
X106221184Y-90412013D01*
X106221183Y-90412012D01*
X106221182Y-90412010D01*
X106221181Y-90412009D01*
X106221179Y-90412008D01*
X106221177Y-90412006D01*
X106221172Y-90412002D01*
X106221170Y-90411999D01*
X106221168Y-90411998D01*
X106221167Y-90411997D01*
X106216299Y-90407360D01*
X106490983Y-90407360D01*
X106491165Y-90415002D01*
X106491713Y-90422629D01*
X106492624Y-90430228D01*
X106493900Y-90437785D01*
X106495541Y-90445286D01*
X106497546Y-90452715D01*
X106499916Y-90460060D01*
X106502650Y-90467306D01*
X106505749Y-90474439D01*
X106509212Y-90481444D01*
X106513039Y-90488308D01*
X106517232Y-90495017D01*
X106521788Y-90501556D01*
X106526710Y-90507911D01*
X106531995Y-90514068D01*
X106537646Y-90520013D01*
X106543590Y-90525661D01*
X106549746Y-90530944D01*
X106556101Y-90535863D01*
X106562639Y-90540417D01*
X106569347Y-90544606D01*
X106576210Y-90548432D01*
X106583215Y-90551893D01*
X106590347Y-90554989D01*
X106597593Y-90557721D01*
X106604937Y-90560089D01*
X106612366Y-90562092D01*
X106619865Y-90563731D01*
X106627421Y-90565006D01*
X106635020Y-90565916D01*
X106642646Y-90566462D01*
X106650287Y-90566643D01*
X106657928Y-90566460D01*
X106665554Y-90565913D01*
X106673152Y-90565001D01*
X106680707Y-90563725D01*
X106688206Y-90562084D01*
X106695634Y-90560080D01*
X106702977Y-90557711D01*
X106710220Y-90554977D01*
X106717351Y-90551879D01*
X106724353Y-90548417D01*
X106731215Y-90544591D01*
X106737920Y-90540400D01*
X106744456Y-90535845D01*
X106750807Y-90530926D01*
X106756961Y-90525642D01*
X106762902Y-90519994D01*
X106768355Y-90514272D01*
X106773496Y-90508312D01*
X106778320Y-90502129D01*
X106782820Y-90495735D01*
X106786992Y-90489143D01*
X106790830Y-90482367D01*
X106794328Y-90475420D01*
X106797481Y-90468313D01*
X106800284Y-90461062D01*
X106802732Y-90453678D01*
X106804818Y-90446175D01*
X106806538Y-90438566D01*
X106807885Y-90430864D01*
X106808856Y-90423082D01*
X106809444Y-90415234D01*
X106809643Y-90407331D01*
X106809450Y-90399428D01*
X106808869Y-90391579D01*
X106807905Y-90383797D01*
X106806563Y-90376094D01*
X106804850Y-90368484D01*
X106802769Y-90360979D01*
X106800328Y-90353593D01*
X106797531Y-90346340D01*
X106794383Y-90339231D01*
X106790890Y-90332281D01*
X106787058Y-90325501D01*
X106782892Y-90318906D01*
X106778397Y-90312508D01*
X106773579Y-90306321D01*
X106768443Y-90300357D01*
X106762994Y-90294630D01*
X106762995Y-90294630D01*
X106762995Y-90294631D01*
X106762996Y-90294631D01*
X106762997Y-90294632D01*
X106762998Y-90294633D01*
X106762999Y-90294633D01*
X106758106Y-90289978D01*
X107032790Y-90289978D01*
X107032973Y-90297619D01*
X107033520Y-90305247D01*
X107034431Y-90312846D01*
X107035707Y-90320403D01*
X107037348Y-90327903D01*
X107039353Y-90335333D01*
X107041722Y-90342678D01*
X107044456Y-90349924D01*
X107047555Y-90357057D01*
X107051018Y-90364062D01*
X107054845Y-90370926D01*
X107059037Y-90377635D01*
X107063594Y-90384174D01*
X107068515Y-90390529D01*
X107073800Y-90396686D01*
X107079450Y-90402631D01*
X107085394Y-90408279D01*
X107091550Y-90413562D01*
X107097905Y-90418480D01*
X107104443Y-90423035D01*
X107111151Y-90427224D01*
X107118014Y-90431049D01*
X107125019Y-90434510D01*
X107132151Y-90437607D01*
X107139397Y-90440338D01*
X107146741Y-90442706D01*
X107154170Y-90444709D01*
X107161669Y-90446348D01*
X107169226Y-90447622D01*
X107176824Y-90448532D01*
X107184451Y-90449078D01*
X107192092Y-90449259D01*
X107199732Y-90449076D01*
X107207359Y-90448528D01*
X107214957Y-90447616D01*
X107222512Y-90446340D01*
X107230011Y-90444700D01*
X107237439Y-90442695D01*
X107244782Y-90440325D01*
X107252025Y-90437592D01*
X107259156Y-90434494D01*
X107266159Y-90431032D01*
X107273020Y-90427205D01*
X107279725Y-90423015D01*
X107286261Y-90418459D01*
X107292613Y-90413540D01*
X107298766Y-90408256D01*
X107304707Y-90402609D01*
X107310355Y-90396666D01*
X107315640Y-90390510D01*
X107320559Y-90384157D01*
X107325114Y-90377619D01*
X107329305Y-90370912D01*
X107333132Y-90364050D01*
X107336594Y-90357045D01*
X107339691Y-90349914D01*
X107342424Y-90342669D01*
X107344793Y-90335325D01*
X107346798Y-90327896D01*
X107348437Y-90320396D01*
X107349713Y-90312840D01*
X107350624Y-90305241D01*
X107351171Y-90297615D01*
X107351353Y-90289973D01*
X107351171Y-90282332D01*
X107350624Y-90274705D01*
X107349713Y-90267107D01*
X107348438Y-90259550D01*
X107346798Y-90252051D01*
X107344794Y-90244622D01*
X107342425Y-90237278D01*
X107339692Y-90230033D01*
X107336594Y-90222901D01*
X107333132Y-90215896D01*
X107329306Y-90209033D01*
X107325116Y-90202326D01*
X107320560Y-90195788D01*
X107315641Y-90189434D01*
X107310357Y-90183279D01*
X107304709Y-90177335D01*
X107304708Y-90177335D01*
X107304707Y-90177334D01*
X107304705Y-90177332D01*
X107304701Y-90177328D01*
X107304698Y-90177326D01*
X107304696Y-90177324D01*
X107304695Y-90177323D01*
X107304694Y-90177322D01*
X107304693Y-90177321D01*
X107304692Y-90177320D01*
X107298747Y-90171672D01*
X107292591Y-90166389D01*
X107286237Y-90161470D01*
X107279699Y-90156916D01*
X107272991Y-90152726D01*
X107266127Y-90148900D01*
X107259122Y-90145439D01*
X107251990Y-90142342D01*
X107244745Y-90139610D01*
X107237401Y-90137242D01*
X107229972Y-90135239D01*
X107222472Y-90133600D01*
X107214916Y-90132325D01*
X107207318Y-90131415D01*
X107199691Y-90130869D01*
X107192050Y-90130687D01*
X107184409Y-90130870D01*
X107176783Y-90131418D01*
X107169185Y-90132329D01*
X107161630Y-90133605D01*
X107154131Y-90135246D01*
X107146703Y-90137250D01*
X107139360Y-90139619D01*
X107132116Y-90142353D01*
X107124986Y-90145450D01*
X107117983Y-90148913D01*
X107111121Y-90152739D01*
X107104416Y-90156930D01*
X107097880Y-90161485D01*
X107091528Y-90166404D01*
X107085375Y-90171688D01*
X107079434Y-90177335D01*
X107073785Y-90183279D01*
X107068501Y-90189435D01*
X107063581Y-90195789D01*
X107059026Y-90202327D01*
X107054835Y-90209034D01*
X107051009Y-90215898D01*
X107047547Y-90222902D01*
X107044450Y-90230034D01*
X107041716Y-90237280D01*
X107039348Y-90244624D01*
X107037344Y-90252053D01*
X107035704Y-90259553D01*
X107034429Y-90267110D01*
X107033518Y-90274709D01*
X107032972Y-90282336D01*
X107032790Y-90289978D01*
X106758106Y-90289978D01*
X106757273Y-90289185D01*
X106751310Y-90284048D01*
X106745123Y-90279230D01*
X106738725Y-90274734D01*
X106732131Y-90270568D01*
X106725352Y-90266735D01*
X106718402Y-90263242D01*
X106711293Y-90260094D01*
X106704040Y-90257297D01*
X106696654Y-90254855D01*
X106689150Y-90252774D01*
X106681540Y-90251061D01*
X106673837Y-90249719D01*
X106666054Y-90248754D01*
X106658204Y-90248173D01*
X106650301Y-90247980D01*
X106642399Y-90248179D01*
X106634550Y-90248766D01*
X106626768Y-90249735D01*
X106619066Y-90251083D01*
X106611457Y-90252802D01*
X106603954Y-90254888D01*
X106596570Y-90257335D01*
X106589318Y-90260138D01*
X106582211Y-90263292D01*
X106575262Y-90266790D01*
X106568485Y-90270628D01*
X106561892Y-90274800D01*
X106555497Y-90279301D01*
X106549312Y-90284125D01*
X106543351Y-90289267D01*
X106537627Y-90294721D01*
X106531978Y-90300665D01*
X106526694Y-90306820D01*
X106521774Y-90313174D01*
X106517219Y-90319711D01*
X106513028Y-90326419D01*
X106509202Y-90333282D01*
X106505740Y-90340286D01*
X106502642Y-90347418D01*
X106499909Y-90354663D01*
X106497541Y-90362007D01*
X106495536Y-90369436D01*
X106493897Y-90376936D01*
X106492622Y-90384493D01*
X106491711Y-90392091D01*
X106491165Y-90399719D01*
X106490983Y-90407360D01*
X106216299Y-90407360D01*
X106215443Y-90406545D01*
X106209483Y-90401405D01*
X106203298Y-90396583D01*
X106196904Y-90392084D01*
X106190312Y-90387914D01*
X106183535Y-90384078D01*
X106176587Y-90380581D01*
X106169481Y-90377429D01*
X106162229Y-90374627D01*
X106154845Y-90372181D01*
X106147342Y-90370096D01*
X106139733Y-90368378D01*
X106132031Y-90367031D01*
X106124248Y-90366062D01*
X106116399Y-90365476D01*
X106108496Y-90365278D01*
X106100593Y-90365472D01*
X106092744Y-90366054D01*
X106084962Y-90367019D01*
X106077260Y-90368361D01*
X106069650Y-90370076D01*
X106062146Y-90372156D01*
X106054761Y-90374598D01*
X106047509Y-90377396D01*
X106040402Y-90380543D01*
X106033453Y-90384036D01*
X106026675Y-90387867D01*
X106020082Y-90392033D01*
X106013687Y-90396527D01*
X106007502Y-90401344D01*
X106001541Y-90406478D01*
X105995817Y-90411924D01*
X105990361Y-90417650D01*
X105985218Y-90423614D01*
X105980393Y-90429801D01*
X105975891Y-90436199D01*
X105971718Y-90442795D01*
X105967880Y-90449575D01*
X105964381Y-90456527D01*
X105961228Y-90463638D01*
X105958425Y-90470894D01*
X105955978Y-90478282D01*
X105953893Y-90485790D01*
X105952175Y-90493403D01*
X105950829Y-90501110D01*
X105949861Y-90508896D01*
X105949276Y-90516749D01*
X105949080Y-90524656D01*
X105635170Y-90524656D01*
X106088820Y-90071020D01*
X106094773Y-90076570D01*
X106100933Y-90081759D01*
X106107285Y-90086587D01*
X106113815Y-90091055D01*
X106120511Y-90095162D01*
X106127357Y-90098909D01*
X106134341Y-90102296D01*
X106141447Y-90105322D01*
X106148663Y-90107987D01*
X106155974Y-90110293D01*
X106163367Y-90112238D01*
X106170828Y-90113824D01*
X106178342Y-90115049D01*
X106185896Y-90115914D01*
X106193477Y-90116419D01*
X106201069Y-90116565D01*
X106208660Y-90116351D01*
X106216235Y-90115777D01*
X106223781Y-90114843D01*
X106231284Y-90113550D01*
X106238730Y-90111897D01*
X106246104Y-90109885D01*
X106253394Y-90107513D01*
X106260585Y-90104782D01*
X106267664Y-90101692D01*
X106274616Y-90098242D01*
X106281427Y-90094433D01*
X106288085Y-90090266D01*
X106294574Y-90085739D01*
X106300881Y-90080853D01*
X106306993Y-90075609D01*
X106312895Y-90070005D01*
X106318515Y-90064104D01*
X106323775Y-90057993D01*
X106328676Y-90051685D01*
X106333217Y-90045195D01*
X106337398Y-90038535D01*
X106341220Y-90031721D01*
X106344682Y-90024766D01*
X106347784Y-90017683D01*
X106350526Y-90010487D01*
X106352908Y-90003192D01*
X106354930Y-89995812D01*
X106356592Y-89988360D01*
X106357894Y-89980851D01*
X106358835Y-89973298D01*
X106359416Y-89965715D01*
X106359637Y-89958116D01*
X106359497Y-89950516D01*
X106358997Y-89942927D01*
X106358135Y-89935364D01*
X106356913Y-89927842D01*
X106355331Y-89920372D01*
X106353387Y-89912971D01*
X106351082Y-89905651D01*
X106348417Y-89898426D01*
X106345390Y-89891311D01*
X106342002Y-89884319D01*
X106338253Y-89877464D01*
X106334142Y-89870761D01*
X106330564Y-89865530D01*
X106608273Y-89865530D01*
X106608472Y-89873432D01*
X106609059Y-89881281D01*
X106610030Y-89889062D01*
X106611378Y-89896764D01*
X106613098Y-89904373D01*
X106615184Y-89911876D01*
X106617632Y-89919260D01*
X106620436Y-89926511D01*
X106623591Y-89933618D01*
X106627090Y-89940567D01*
X106630929Y-89947345D01*
X106635103Y-89953939D01*
X106639605Y-89960335D01*
X106644431Y-89966522D01*
X106649575Y-89972485D01*
X106655031Y-89978212D01*
X106660976Y-89983859D01*
X106667132Y-89989143D01*
X106673486Y-89994061D01*
X106680024Y-89998615D01*
X106686732Y-90002805D01*
X106693595Y-90006630D01*
X106700600Y-90010091D01*
X106707732Y-90013188D01*
X106714978Y-90015920D01*
X106722322Y-90018288D01*
X106729751Y-90020291D01*
X106737250Y-90021930D01*
X106744806Y-90023204D01*
X106752405Y-90024114D01*
X106760032Y-90024660D01*
X106767672Y-90024841D01*
X106775313Y-90024658D01*
X106782939Y-90024111D01*
X106790537Y-90023199D01*
X106798093Y-90021923D01*
X106805591Y-90020283D01*
X106813019Y-90018278D01*
X106820362Y-90015909D01*
X106827606Y-90013176D01*
X106834736Y-90010078D01*
X106841739Y-90006616D01*
X106848600Y-90002789D01*
X106855306Y-89998599D01*
X106861842Y-89994044D01*
X106868193Y-89989124D01*
X106874346Y-89983841D01*
X106880287Y-89978193D01*
X106885936Y-89972249D01*
X106891220Y-89966093D01*
X106896140Y-89959739D01*
X106900695Y-89953202D01*
X106904886Y-89946494D01*
X106908712Y-89939631D01*
X106912174Y-89932626D01*
X106915272Y-89925494D01*
X106918005Y-89918249D01*
X106920374Y-89910905D01*
X106922378Y-89903476D01*
X106924018Y-89895976D01*
X106925293Y-89888420D01*
X106926204Y-89880821D01*
X106926751Y-89873194D01*
X106926933Y-89865553D01*
X106926751Y-89857912D01*
X106926204Y-89850285D01*
X106925293Y-89842686D01*
X106924018Y-89835130D01*
X106922378Y-89827630D01*
X106920374Y-89820202D01*
X106918005Y-89812858D01*
X106915272Y-89805613D01*
X106912175Y-89798481D01*
X106908713Y-89791476D01*
X106904886Y-89784614D01*
X106900695Y-89777906D01*
X106896140Y-89771369D01*
X106891221Y-89765015D01*
X106885937Y-89758859D01*
X106880288Y-89752916D01*
X106880269Y-89752897D01*
X106875303Y-89748167D01*
X107150176Y-89748167D01*
X107150359Y-89755809D01*
X107150906Y-89763436D01*
X107151818Y-89771036D01*
X107153094Y-89778593D01*
X107154735Y-89786093D01*
X107156740Y-89793523D01*
X107159109Y-89800868D01*
X107161844Y-89808114D01*
X107164942Y-89815247D01*
X107168406Y-89822253D01*
X107172233Y-89829117D01*
X107176426Y-89835826D01*
X107180982Y-89842365D01*
X107185904Y-89848720D01*
X107191189Y-89854877D01*
X107196840Y-89860822D01*
X107202784Y-89866470D01*
X107208940Y-89871753D01*
X107215294Y-89876671D01*
X107221833Y-89881226D01*
X107228540Y-89885415D01*
X107235404Y-89889241D01*
X107242409Y-89892702D01*
X107249541Y-89895798D01*
X107256786Y-89898530D01*
X107264130Y-89900898D01*
X107271559Y-89902901D01*
X107279059Y-89904540D01*
X107286615Y-89905815D01*
X107294213Y-89906725D01*
X107301840Y-89907270D01*
X107309480Y-89907452D01*
X107317121Y-89907269D01*
X107324747Y-89906721D01*
X107332345Y-89905810D01*
X107339900Y-89904534D01*
X107347399Y-89902893D01*
X107354827Y-89900889D01*
X107362170Y-89898519D01*
X107369413Y-89895786D01*
X107376544Y-89892688D01*
X107383547Y-89889226D01*
X107390408Y-89885400D01*
X107397113Y-89881209D01*
X107403649Y-89876654D01*
X107410000Y-89871735D01*
X107416154Y-89866451D01*
X107422095Y-89860803D01*
X107427743Y-89854860D01*
X107433028Y-89848704D01*
X107437947Y-89842351D01*
X107442503Y-89835813D01*
X107446694Y-89829106D01*
X107450520Y-89822243D01*
X107453982Y-89815238D01*
X107457080Y-89808107D01*
X107459813Y-89800862D01*
X107462182Y-89793518D01*
X107464186Y-89786089D01*
X107465826Y-89778589D01*
X107467101Y-89771033D01*
X107468012Y-89763434D01*
X107468559Y-89755807D01*
X107468741Y-89748166D01*
X107468559Y-89740525D01*
X107468012Y-89732898D01*
X107467101Y-89725299D01*
X107465826Y-89717743D01*
X107464186Y-89710243D01*
X107462181Y-89702814D01*
X107459813Y-89695470D01*
X107457079Y-89688225D01*
X107453982Y-89681093D01*
X107450520Y-89674089D01*
X107446694Y-89667225D01*
X107442503Y-89660518D01*
X107437948Y-89653980D01*
X107433028Y-89647626D01*
X107427744Y-89641470D01*
X107422096Y-89635526D01*
X107422076Y-89635507D01*
X107417103Y-89630782D01*
X107691985Y-89630782D01*
X107692168Y-89638424D01*
X107692715Y-89646051D01*
X107693627Y-89653650D01*
X107694903Y-89661207D01*
X107696543Y-89668707D01*
X107698549Y-89676137D01*
X107700918Y-89683481D01*
X107703652Y-89690727D01*
X107706751Y-89697860D01*
X107710214Y-89704865D01*
X107714041Y-89711729D01*
X107718233Y-89718437D01*
X107722790Y-89724976D01*
X107727711Y-89731331D01*
X107732997Y-89737488D01*
X107738647Y-89743433D01*
X107744591Y-89749080D01*
X107750747Y-89754363D01*
X107757102Y-89759282D01*
X107763640Y-89763836D01*
X107770348Y-89768026D01*
X107777211Y-89771851D01*
X107784216Y-89775312D01*
X107791348Y-89778408D01*
X107798593Y-89781140D01*
X107805937Y-89783508D01*
X107813366Y-89785511D01*
X107820866Y-89787150D01*
X107828422Y-89788425D01*
X107836020Y-89789335D01*
X107843647Y-89789881D01*
X107851288Y-89790062D01*
X107858928Y-89789879D01*
X107866555Y-89789332D01*
X107874153Y-89788420D01*
X107881708Y-89787144D01*
X107889207Y-89785504D01*
X107896635Y-89783499D01*
X107903978Y-89781130D01*
X107911221Y-89778396D01*
X107918352Y-89775299D01*
X107925355Y-89771837D01*
X107932216Y-89768010D01*
X107938922Y-89763819D01*
X107945457Y-89759264D01*
X107951809Y-89754345D01*
X107957963Y-89749061D01*
X107963904Y-89743414D01*
X107969552Y-89737470D01*
X107974836Y-89731315D01*
X107979756Y-89724961D01*
X107984311Y-89718423D01*
X107988502Y-89711716D01*
X107992329Y-89704853D01*
X107995791Y-89697849D01*
X107998888Y-89690717D01*
X108001621Y-89683472D01*
X108003990Y-89676128D01*
X108005994Y-89668699D01*
X108007634Y-89661200D01*
X108008910Y-89653644D01*
X108009821Y-89646045D01*
X108010367Y-89638418D01*
X108010549Y-89630777D01*
X108010367Y-89623136D01*
X108009821Y-89615509D01*
X108008909Y-89607910D01*
X108007634Y-89600354D01*
X108005994Y-89592855D01*
X108003990Y-89585426D01*
X108001621Y-89578082D01*
X107998888Y-89570837D01*
X107995790Y-89563705D01*
X107992328Y-89556701D01*
X107988502Y-89549838D01*
X107984311Y-89543131D01*
X107979756Y-89536593D01*
X107974836Y-89530239D01*
X107969552Y-89524084D01*
X107963904Y-89518140D01*
X107963903Y-89518140D01*
X107963902Y-89518139D01*
X107963900Y-89518137D01*
X107963895Y-89518133D01*
X107963893Y-89518131D01*
X107963891Y-89518129D01*
X107963890Y-89518128D01*
X107963889Y-89518127D01*
X107963888Y-89518126D01*
X107963887Y-89518125D01*
X107957942Y-89512477D01*
X107951786Y-89507194D01*
X107945432Y-89502275D01*
X107938894Y-89497721D01*
X107932186Y-89493531D01*
X107925322Y-89489705D01*
X107918317Y-89486244D01*
X107911185Y-89483147D01*
X107903940Y-89480415D01*
X107896596Y-89478047D01*
X107889167Y-89476044D01*
X107881667Y-89474405D01*
X107874111Y-89473130D01*
X107866513Y-89472220D01*
X107858886Y-89471674D01*
X107851245Y-89471492D01*
X107843605Y-89471675D01*
X107835978Y-89472223D01*
X107828380Y-89473134D01*
X107820825Y-89474410D01*
X107813326Y-89476051D01*
X107805898Y-89478055D01*
X107798556Y-89480424D01*
X107791312Y-89483158D01*
X107784182Y-89486256D01*
X107777179Y-89489718D01*
X107770317Y-89493544D01*
X107763612Y-89497735D01*
X107757076Y-89502290D01*
X107750725Y-89507209D01*
X107744572Y-89512493D01*
X107738631Y-89518140D01*
X107732982Y-89524084D01*
X107727698Y-89530240D01*
X107722778Y-89536594D01*
X107718222Y-89543132D01*
X107714031Y-89549840D01*
X107710205Y-89556703D01*
X107706743Y-89563707D01*
X107703645Y-89570839D01*
X107700912Y-89578085D01*
X107698544Y-89585429D01*
X107696539Y-89592858D01*
X107694900Y-89600358D01*
X107693624Y-89607915D01*
X107692714Y-89615514D01*
X107692167Y-89623141D01*
X107691985Y-89630782D01*
X107417103Y-89630782D01*
X107416132Y-89629860D01*
X107409976Y-89624577D01*
X107403622Y-89619658D01*
X107397084Y-89615104D01*
X107390376Y-89610914D01*
X107383512Y-89607089D01*
X107376507Y-89603628D01*
X107369375Y-89600532D01*
X107362130Y-89597799D01*
X107354786Y-89595432D01*
X107347357Y-89593428D01*
X107339857Y-89591790D01*
X107332301Y-89590515D01*
X107324702Y-89589605D01*
X107317076Y-89589059D01*
X107309435Y-89588878D01*
X107301794Y-89589061D01*
X107294168Y-89589608D01*
X107286570Y-89590520D01*
X107279014Y-89591796D01*
X107271516Y-89593436D01*
X107264088Y-89595441D01*
X107256745Y-89597810D01*
X107249501Y-89600544D01*
X107242371Y-89603641D01*
X107235368Y-89607103D01*
X107228506Y-89610930D01*
X107221801Y-89615120D01*
X107215265Y-89619675D01*
X107208913Y-89624595D01*
X107202760Y-89629878D01*
X107196819Y-89635526D01*
X107191170Y-89641470D01*
X107185886Y-89647625D01*
X107180966Y-89653979D01*
X107176411Y-89660517D01*
X107172220Y-89667224D01*
X107168394Y-89674087D01*
X107164932Y-89681092D01*
X107161835Y-89688224D01*
X107159102Y-89695469D01*
X107156733Y-89702813D01*
X107154729Y-89710242D01*
X107153089Y-89717742D01*
X107151814Y-89725299D01*
X107150904Y-89732898D01*
X107150358Y-89740526D01*
X107150176Y-89748167D01*
X106875303Y-89748167D01*
X106874545Y-89747445D01*
X106868585Y-89742306D01*
X106862400Y-89737484D01*
X106856006Y-89732985D01*
X106849413Y-89728815D01*
X106842637Y-89724978D01*
X106835689Y-89721482D01*
X106828582Y-89718330D01*
X106821331Y-89715528D01*
X106813947Y-89713082D01*
X106806444Y-89710997D01*
X106798835Y-89709278D01*
X106791133Y-89707932D01*
X106783350Y-89706963D01*
X106775501Y-89706376D01*
X106767598Y-89706178D01*
X106759696Y-89706372D01*
X106751847Y-89706954D01*
X106744064Y-89707919D01*
X106736362Y-89709261D01*
X106728752Y-89710975D01*
X106721248Y-89713056D01*
X106713863Y-89715497D01*
X106706611Y-89718295D01*
X106699504Y-89721442D01*
X106692555Y-89724935D01*
X106685777Y-89728766D01*
X106679184Y-89732932D01*
X106672789Y-89737426D01*
X106666605Y-89742243D01*
X106660644Y-89747378D01*
X106654921Y-89752824D01*
X106649472Y-89758551D01*
X106644336Y-89764515D01*
X106639518Y-89770702D01*
X106635023Y-89777099D01*
X106630857Y-89783694D01*
X106627025Y-89790474D01*
X106623532Y-89797425D01*
X106620384Y-89804534D01*
X106617587Y-89811788D01*
X106615146Y-89819174D01*
X106613066Y-89826679D01*
X106611352Y-89834290D01*
X106610011Y-89841993D01*
X106609047Y-89849776D01*
X106608466Y-89857626D01*
X106608273Y-89865530D01*
X106330564Y-89865530D01*
X106329670Y-89864222D01*
X106324837Y-89857862D01*
X106319642Y-89851695D01*
X106314085Y-89845735D01*
X106748018Y-89411825D01*
X106753971Y-89417374D01*
X106760131Y-89422563D01*
X106766484Y-89427391D01*
X106773015Y-89431859D01*
X106779710Y-89435966D01*
X106786557Y-89439712D01*
X106793541Y-89443098D01*
X106800647Y-89446124D01*
X106807863Y-89448790D01*
X106815175Y-89451095D01*
X106822567Y-89453040D01*
X106830028Y-89454625D01*
X106837542Y-89455850D01*
X106845097Y-89456715D01*
X106852677Y-89457220D01*
X106860269Y-89457366D01*
X106867860Y-89457151D01*
X106875435Y-89456577D01*
X106882981Y-89455644D01*
X106890484Y-89454350D01*
X106897929Y-89452698D01*
X106905304Y-89450685D01*
X106912593Y-89448314D01*
X106919784Y-89445583D01*
X106926862Y-89442493D01*
X106933814Y-89439044D01*
X106940625Y-89435236D01*
X106947283Y-89431068D01*
X106953772Y-89426542D01*
X106960079Y-89421657D01*
X106966190Y-89416413D01*
X106972092Y-89410810D01*
X106977703Y-89404908D01*
X106982956Y-89398796D01*
X106987849Y-89392487D01*
X106992383Y-89385997D01*
X106996557Y-89379338D01*
X107000372Y-89372524D01*
X107003828Y-89365570D01*
X107006924Y-89358489D01*
X107009660Y-89351295D01*
X107012037Y-89344003D01*
X107014054Y-89336625D01*
X107015711Y-89329176D01*
X107017008Y-89321669D01*
X107017945Y-89314120D01*
X107018523Y-89306540D01*
X107018740Y-89298946D01*
X107018597Y-89291349D01*
X107018094Y-89283764D01*
X107017230Y-89276206D01*
X107016007Y-89268687D01*
X107014422Y-89261223D01*
X107012478Y-89253825D01*
X107010172Y-89246510D01*
X107007506Y-89239290D01*
X107004480Y-89232179D01*
X107001093Y-89225192D01*
X106997344Y-89218341D01*
X106993235Y-89211642D01*
X106989602Y-89206331D01*
X107267470Y-89206331D01*
X107267668Y-89214234D01*
X107268255Y-89222083D01*
X107269226Y-89229865D01*
X107270573Y-89237567D01*
X107272293Y-89245177D01*
X107274380Y-89252680D01*
X107276828Y-89260064D01*
X107279632Y-89267316D01*
X107282786Y-89274422D01*
X107286286Y-89281371D01*
X107290125Y-89288149D01*
X107294298Y-89294742D01*
X107298801Y-89301138D01*
X107303627Y-89307324D01*
X107308771Y-89313287D01*
X107314227Y-89319013D01*
X107320172Y-89324661D01*
X107326328Y-89329944D01*
X107332682Y-89334863D01*
X107339220Y-89339418D01*
X107345928Y-89343608D01*
X107352792Y-89347433D01*
X107359796Y-89350894D01*
X107366929Y-89353991D01*
X107374174Y-89356723D01*
X107381518Y-89359091D01*
X107388947Y-89361095D01*
X107396446Y-89362734D01*
X107404003Y-89364008D01*
X107411601Y-89364918D01*
X107419228Y-89365464D01*
X107426868Y-89365646D01*
X107434509Y-89365463D01*
X107442135Y-89364915D01*
X107449733Y-89364003D01*
X107457289Y-89362727D01*
X107464787Y-89361087D01*
X107472215Y-89359082D01*
X107479558Y-89356713D01*
X107486802Y-89353979D01*
X107493932Y-89350881D01*
X107500935Y-89347419D01*
X107507797Y-89343592D01*
X107514502Y-89339401D01*
X107521038Y-89334846D01*
X107527390Y-89329926D01*
X107533543Y-89324642D01*
X107539484Y-89318994D01*
X107545133Y-89313051D01*
X107550417Y-89306895D01*
X107555337Y-89300542D01*
X107559892Y-89294004D01*
X107564083Y-89287297D01*
X107567909Y-89280434D01*
X107571371Y-89273429D01*
X107574469Y-89266298D01*
X107577202Y-89259053D01*
X107579571Y-89251709D01*
X107581575Y-89244280D01*
X107583215Y-89236780D01*
X107584490Y-89229224D01*
X107585401Y-89221626D01*
X107585948Y-89213999D01*
X107586130Y-89206358D01*
X107585948Y-89198717D01*
X107585401Y-89191090D01*
X107584490Y-89183491D01*
X107583214Y-89175935D01*
X107581574Y-89168435D01*
X107579570Y-89161007D01*
X107577201Y-89153663D01*
X107574468Y-89146418D01*
X107571370Y-89139286D01*
X107567908Y-89132281D01*
X107564082Y-89125419D01*
X107559891Y-89118711D01*
X107555336Y-89112174D01*
X107550416Y-89105820D01*
X107545132Y-89099664D01*
X107539483Y-89093721D01*
X107539464Y-89093702D01*
X107534522Y-89088995D01*
X107809277Y-89088995D01*
X107809469Y-89096898D01*
X107810050Y-89104748D01*
X107811014Y-89112530D01*
X107812355Y-89120234D01*
X107814069Y-89127844D01*
X107816149Y-89135348D01*
X107818590Y-89142734D01*
X107821387Y-89149987D01*
X107824534Y-89157095D01*
X107828026Y-89164045D01*
X107831858Y-89170824D01*
X107836024Y-89177418D01*
X107840518Y-89183816D01*
X107845335Y-89190002D01*
X107850471Y-89195966D01*
X107855918Y-89201692D01*
X107861645Y-89207142D01*
X107867608Y-89212279D01*
X107873795Y-89217098D01*
X107880192Y-89221594D01*
X107886787Y-89225761D01*
X107893566Y-89229593D01*
X107900516Y-89233086D01*
X107907624Y-89236234D01*
X107914877Y-89239032D01*
X107922263Y-89241474D01*
X107929767Y-89243554D01*
X107937377Y-89245267D01*
X107945080Y-89246609D01*
X107952863Y-89247573D01*
X107960712Y-89248154D01*
X107968615Y-89248346D01*
X107976517Y-89248147D01*
X107984366Y-89247560D01*
X107992148Y-89246590D01*
X107999850Y-89245243D01*
X108007460Y-89243524D01*
X108014963Y-89241438D01*
X108022347Y-89238991D01*
X108029599Y-89236188D01*
X108036706Y-89233034D01*
X108043655Y-89229536D01*
X108050432Y-89225698D01*
X108057025Y-89221526D01*
X108063420Y-89217025D01*
X108069605Y-89212201D01*
X108075567Y-89207059D01*
X108081291Y-89201605D01*
X108086940Y-89195661D01*
X108092224Y-89189506D01*
X108097144Y-89183153D01*
X108101699Y-89176615D01*
X108105890Y-89169908D01*
X108109716Y-89163046D01*
X108113178Y-89156041D01*
X108116276Y-89148910D01*
X108119009Y-89141665D01*
X108121378Y-89134321D01*
X108123382Y-89126892D01*
X108125022Y-89119392D01*
X108126297Y-89111836D01*
X108127208Y-89104237D01*
X108127755Y-89096611D01*
X108127937Y-89088969D01*
X108127755Y-89081328D01*
X108127208Y-89073701D01*
X108126297Y-89066103D01*
X108125022Y-89058546D01*
X108123382Y-89051047D01*
X108121377Y-89043618D01*
X108119008Y-89036274D01*
X108116275Y-89029029D01*
X108113178Y-89021897D01*
X108109716Y-89014892D01*
X108105889Y-89008029D01*
X108101698Y-89001322D01*
X108097143Y-88994784D01*
X108092223Y-88988430D01*
X108086939Y-88982275D01*
X108081291Y-88976331D01*
X108081271Y-88976312D01*
X108075327Y-88970665D01*
X108069171Y-88965382D01*
X108062817Y-88960463D01*
X108056279Y-88955909D01*
X108049571Y-88951719D01*
X108042708Y-88947894D01*
X108035703Y-88944433D01*
X108028571Y-88941337D01*
X108021326Y-88938605D01*
X108013982Y-88936237D01*
X108006553Y-88934234D01*
X107999053Y-88932595D01*
X107991497Y-88931320D01*
X107983898Y-88930410D01*
X107976272Y-88929864D01*
X107968631Y-88929683D01*
X107960990Y-88929866D01*
X107953364Y-88930413D01*
X107945766Y-88931325D01*
X107938210Y-88932601D01*
X107930712Y-88934241D01*
X107923284Y-88936246D01*
X107915941Y-88938615D01*
X107908697Y-88941349D01*
X107901567Y-88944446D01*
X107894564Y-88947908D01*
X107887702Y-88951735D01*
X107880997Y-88955926D01*
X107874461Y-88960481D01*
X107868110Y-88965400D01*
X107861956Y-88970683D01*
X107856015Y-88976331D01*
X107850562Y-88982055D01*
X107845421Y-88988015D01*
X107840598Y-88994198D01*
X107836097Y-89000593D01*
X107831926Y-89007185D01*
X107828088Y-89013961D01*
X107824590Y-89020909D01*
X107821437Y-89028015D01*
X107818634Y-89035267D01*
X107816186Y-89042650D01*
X107814100Y-89050153D01*
X107812381Y-89057762D01*
X107811033Y-89065463D01*
X107810063Y-89073245D01*
X107809476Y-89081093D01*
X107809277Y-89088995D01*
X107534522Y-89088995D01*
X107533740Y-89088250D01*
X107527780Y-89083111D01*
X107521595Y-89078289D01*
X107515201Y-89073790D01*
X107508608Y-89069620D01*
X107501832Y-89065783D01*
X107494884Y-89062286D01*
X107487777Y-89059134D01*
X107480526Y-89056332D01*
X107473142Y-89053886D01*
X107465639Y-89051801D01*
X107458031Y-89050082D01*
X107450329Y-89048735D01*
X107442547Y-89047765D01*
X107434698Y-89047178D01*
X107426795Y-89046980D01*
X107418892Y-89047174D01*
X107411043Y-89047757D01*
X107403260Y-89048722D01*
X107395558Y-89050064D01*
X107387948Y-89051779D01*
X107380444Y-89053860D01*
X107373059Y-89056302D01*
X107365807Y-89059099D01*
X107358700Y-89062246D01*
X107351751Y-89065738D01*
X107344973Y-89069570D01*
X107338381Y-89073735D01*
X107331985Y-89078229D01*
X107325801Y-89083045D01*
X107319840Y-89088179D01*
X107314117Y-89093626D01*
X107308668Y-89099353D01*
X107303532Y-89105317D01*
X107298714Y-89111505D01*
X107294219Y-89117903D01*
X107290053Y-89124498D01*
X107286221Y-89131278D01*
X107282728Y-89138229D01*
X107279581Y-89145338D01*
X107276784Y-89152592D01*
X107274343Y-89159978D01*
X107272263Y-89167482D01*
X107270549Y-89175093D01*
X107269208Y-89182796D01*
X107268244Y-89190579D01*
X107267663Y-89198428D01*
X107267470Y-89206331D01*
X106989602Y-89206331D01*
X106988765Y-89205107D01*
X106983934Y-89198751D01*
X106978742Y-89192588D01*
X106973189Y-89186632D01*
X107407125Y-88752721D01*
X107413082Y-88758274D01*
X107419245Y-88763466D01*
X107425601Y-88768297D01*
X107432136Y-88772766D01*
X107438836Y-88776875D01*
X107445687Y-88780622D01*
X107452674Y-88784009D01*
X107459785Y-88787035D01*
X107467005Y-88789700D01*
X107474321Y-88792005D01*
X107481718Y-88793949D01*
X107489183Y-88795532D01*
X107496701Y-88796755D01*
X107504260Y-88797618D01*
X107511844Y-88798121D01*
X107519440Y-88798263D01*
X107527035Y-88798045D01*
X107534614Y-88797468D01*
X107542163Y-88796530D01*
X107549669Y-88795232D01*
X107557117Y-88793574D01*
X107564494Y-88791557D01*
X107571786Y-88789180D01*
X107578979Y-88786443D01*
X107586059Y-88783347D01*
X107593012Y-88779891D01*
X107599824Y-88776076D01*
X107606482Y-88771902D01*
X107612971Y-88767368D01*
X107619278Y-88762475D01*
X107625388Y-88757223D01*
X107631289Y-88751611D01*
X107636900Y-88745709D01*
X107642153Y-88739597D01*
X107647046Y-88733289D01*
X107651580Y-88726798D01*
X107655755Y-88720139D01*
X107659570Y-88713325D01*
X107663026Y-88706371D01*
X107666122Y-88699290D01*
X107668858Y-88692096D01*
X107671235Y-88684804D01*
X107673252Y-88677426D01*
X107674910Y-88669977D01*
X107676207Y-88662471D01*
X107677144Y-88654921D01*
X107677722Y-88647342D01*
X107677939Y-88639747D01*
X107677796Y-88632150D01*
X107677293Y-88624566D01*
X107676430Y-88617007D01*
X107675206Y-88609489D01*
X107673622Y-88602024D01*
X107671677Y-88594627D01*
X107669372Y-88587311D01*
X107666706Y-88580091D01*
X107663679Y-88572980D01*
X107660291Y-88565993D01*
X107656543Y-88559142D01*
X107652434Y-88552443D01*
X107647964Y-88545908D01*
X107643132Y-88539553D01*
X107637940Y-88533390D01*
X107632386Y-88527433D01*
X107770969Y-88388849D01*
X107603429Y-88221311D01*
X107601181Y-88218948D01*
X107599079Y-88216501D01*
X107597121Y-88213977D01*
X107595308Y-88211381D01*
X107593640Y-88208719D01*
X107592118Y-88205996D01*
X107590740Y-88203218D01*
X107589507Y-88200390D01*
X107588419Y-88197518D01*
X107587477Y-88194607D01*
X107586679Y-88191663D01*
X107586026Y-88188692D01*
X107585519Y-88185698D01*
X107585156Y-88182688D01*
X107584938Y-88179666D01*
X107584866Y-88176639D01*
X107584938Y-88173612D01*
X107585156Y-88170591D01*
X107585518Y-88167581D01*
X107586026Y-88164587D01*
X107586678Y-88161615D01*
X107587476Y-88158671D01*
X107588418Y-88155760D01*
X107589506Y-88152888D01*
X107590738Y-88150060D01*
X107592116Y-88147282D01*
X107593639Y-88144559D01*
X107595306Y-88141897D01*
X107597119Y-88139301D01*
X107599077Y-88136777D01*
X107601179Y-88134331D01*
X107603427Y-88131967D01*
X107952302Y-87783094D01*
X107954666Y-87780846D01*
X107957112Y-87778744D01*
X107959636Y-87776786D01*
X107962232Y-87774973D01*
X107964894Y-87773305D01*
X107967617Y-87771783D01*
X107970395Y-87770405D01*
X107973223Y-87769172D01*
X107976095Y-87768085D01*
X107979006Y-87767142D01*
X107981950Y-87766344D01*
X107984921Y-87765692D01*
X107987915Y-87765184D01*
X107990925Y-87764822D01*
X107993946Y-87764604D01*
X107996973Y-87764532D01*
X108000000Y-87764604D01*
G36*
X108000000Y-87764604D02*
G01*
X108003021Y-87764822D01*
X108006032Y-87765184D01*
X108009025Y-87765692D01*
X108011997Y-87766344D01*
X108014941Y-87767142D01*
X108017852Y-87768085D01*
X108020724Y-87769172D01*
X108023552Y-87770405D01*
X108026330Y-87771783D01*
X108029053Y-87773305D01*
X108031715Y-87774973D01*
X108034310Y-87776786D01*
X108036834Y-87778744D01*
X108039281Y-87780846D01*
X108041644Y-87783094D01*
X109259084Y-89000555D01*
X109261332Y-89002918D01*
X109263435Y-89005365D01*
X109265392Y-89007889D01*
X109267205Y-89010484D01*
X109268873Y-89013146D01*
X109270395Y-89015869D01*
X109271773Y-89018647D01*
X109273006Y-89021475D01*
X109274094Y-89024347D01*
X109275036Y-89027258D01*
X109275834Y-89030202D01*
X109276486Y-89033173D01*
X109276994Y-89036167D01*
X109277357Y-89039177D01*
X109277574Y-89042198D01*
X109277647Y-89045225D01*
X109277574Y-89048252D01*
X109277357Y-89051273D01*
X109276994Y-89054283D01*
X109276486Y-89057277D01*
X109275834Y-89060248D01*
X109275036Y-89063192D01*
X109274093Y-89066103D01*
X109273006Y-89068975D01*
X109271773Y-89071802D01*
X109270395Y-89074581D01*
X109268872Y-89077303D01*
X109267205Y-89079965D01*
X109265392Y-89082561D01*
X109263434Y-89085085D01*
X109261331Y-89087531D01*
X109259083Y-89089895D01*
X108910210Y-89438772D01*
X108907846Y-89441020D01*
X108905400Y-89443122D01*
X108902875Y-89445080D01*
X108900280Y-89446893D01*
X108897617Y-89448561D01*
X108894895Y-89450083D01*
X108892116Y-89451461D01*
X108889288Y-89452694D01*
X108886416Y-89453781D01*
X108883505Y-89454724D01*
X108880561Y-89455521D01*
X108877590Y-89456174D01*
X108874596Y-89456682D01*
X108871586Y-89457044D01*
X108868565Y-89457262D01*
X108865538Y-89457334D01*
X108862511Y-89457262D01*
X108859490Y-89457044D01*
X108856479Y-89456682D01*
X108853486Y-89456174D01*
X108850514Y-89455521D01*
X108847570Y-89454724D01*
X108844659Y-89453781D01*
X108841787Y-89452694D01*
X108838959Y-89451461D01*
X108836181Y-89450083D01*
X108833459Y-89448561D01*
X108830796Y-89446893D01*
X108828201Y-89445080D01*
X108825677Y-89443122D01*
X108823230Y-89441020D01*
X108820867Y-89438772D01*
X108653327Y-89271230D01*
X108513463Y-89411085D01*
X108507449Y-89406836D01*
X108501300Y-89402900D01*
X108495026Y-89399276D01*
X108488638Y-89395962D01*
X108482147Y-89392960D01*
X108475562Y-89390266D01*
X108468895Y-89387881D01*
X108462155Y-89385805D01*
X108455354Y-89384035D01*
X108448502Y-89382572D01*
X108441608Y-89381415D01*
X108434685Y-89380562D01*
X108427742Y-89380013D01*
X108420789Y-89379768D01*
X108413838Y-89379826D01*
X108406898Y-89380185D01*
X108399981Y-89380845D01*
X108393096Y-89381805D01*
X108386254Y-89383065D01*
X108379466Y-89384624D01*
X108372742Y-89386480D01*
X108366093Y-89388634D01*
X108359529Y-89391084D01*
X108353060Y-89393830D01*
X108346698Y-89396870D01*
X108340452Y-89400205D01*
X108334333Y-89403832D01*
X108328351Y-89407753D01*
X108322518Y-89411965D01*
X108316843Y-89416468D01*
X108311337Y-89421261D01*
X108306011Y-89426344D01*
X108300920Y-89431671D01*
X108296120Y-89437177D01*
X108291610Y-89442853D01*
X108287391Y-89448688D01*
X108283464Y-89454671D01*
X108279830Y-89460792D01*
X108276490Y-89467040D01*
X108273444Y-89473405D01*
X108270693Y-89479876D01*
X108268238Y-89486443D01*
X108266080Y-89493095D01*
X108264219Y-89499822D01*
X108262656Y-89506613D01*
X108261393Y-89513459D01*
X108259765Y-89527268D01*
X108259344Y-89541167D01*
X108259587Y-89548123D01*
X108260133Y-89555071D01*
X108260985Y-89561998D01*
X108262141Y-89568895D01*
X108263603Y-89575752D01*
X108265372Y-89582558D01*
X108267449Y-89589301D01*
X108269834Y-89595973D01*
X108272528Y-89602562D01*
X108275532Y-89609057D01*
X108278847Y-89615449D01*
X108282473Y-89621727D01*
X108286411Y-89627880D01*
X108290662Y-89633897D01*
X107854386Y-90070203D01*
X107848369Y-90065951D01*
X107842217Y-90062012D01*
X107835940Y-90058385D01*
X107829548Y-90055070D01*
X107823053Y-90052065D01*
X107816465Y-90049370D01*
X107809794Y-90046984D01*
X107803050Y-90044906D01*
X107796245Y-90043136D01*
X107789389Y-90041673D01*
X107782491Y-90040516D01*
X107775564Y-90039664D01*
X107768616Y-90039116D01*
X107761660Y-90038873D01*
X107754704Y-90038932D01*
X107747760Y-90039293D01*
X107740839Y-90039956D01*
X107733950Y-90040919D01*
X107727104Y-90042182D01*
X107720312Y-90043744D01*
X107713584Y-90045605D01*
X107706931Y-90047763D01*
X107700363Y-90050218D01*
X107693890Y-90052969D01*
X107687524Y-90056015D01*
X107681275Y-90059355D01*
X107675152Y-90062989D01*
X107669168Y-90066916D01*
X107663331Y-90071136D01*
X107657653Y-90075646D01*
X107652145Y-90080448D01*
X107646816Y-90085539D01*
X107641725Y-90090865D01*
X107636925Y-90096372D01*
X107632415Y-90102048D01*
X107628196Y-90107883D01*
X107624269Y-90113866D01*
X107620635Y-90119987D01*
X107617295Y-90126235D01*
X107614249Y-90132600D01*
X107611498Y-90139071D01*
X107609043Y-90145638D01*
X107606885Y-90152290D01*
X107605024Y-90159017D01*
X107603461Y-90165808D01*
X107602198Y-90172653D01*
X107600571Y-90186463D01*
X107600149Y-90200361D01*
X107600392Y-90207317D01*
X107600939Y-90214265D01*
X107601790Y-90221192D01*
X107602947Y-90228089D01*
X107604409Y-90234946D01*
X107606178Y-90241751D01*
X107608255Y-90248494D01*
X107610640Y-90255166D01*
X107613334Y-90261754D01*
X107616338Y-90268250D01*
X107619653Y-90274641D01*
X107623279Y-90280919D01*
X107627218Y-90287071D01*
X107631469Y-90293089D01*
X107195189Y-90729402D01*
X107189172Y-90725150D01*
X107183020Y-90721210D01*
X107176743Y-90717583D01*
X107170352Y-90714267D01*
X107163857Y-90711262D01*
X107157269Y-90708567D01*
X107150598Y-90706181D01*
X107143855Y-90704103D01*
X107137050Y-90702333D01*
X107130193Y-90700869D01*
X107123296Y-90699712D01*
X107116369Y-90698860D01*
X107109421Y-90698312D01*
X107102465Y-90698068D01*
X107095509Y-90698127D01*
X107088565Y-90698488D01*
X107081644Y-90699151D01*
X107074755Y-90700114D01*
X107067909Y-90701377D01*
X107061117Y-90702940D01*
X107054389Y-90704800D01*
X107047736Y-90706958D01*
X107041168Y-90709413D01*
X107034696Y-90712164D01*
X107028330Y-90715210D01*
X107022081Y-90718550D01*
X107015958Y-90722184D01*
X107009974Y-90726111D01*
X107004138Y-90730331D01*
X106998460Y-90734841D01*
X106992951Y-90739642D01*
X106987623Y-90744733D01*
X106982540Y-90750061D01*
X106977746Y-90755568D01*
X106973243Y-90761243D01*
X106969030Y-90767077D01*
X106965110Y-90773060D01*
X106961482Y-90779179D01*
X106958147Y-90785425D01*
X106955107Y-90791788D01*
X106952361Y-90798257D01*
X106949911Y-90804822D01*
X106947757Y-90811471D01*
X106945901Y-90818195D01*
X106944342Y-90824983D01*
X106943083Y-90831825D01*
X106941462Y-90845627D01*
X106941046Y-90859518D01*
X106941291Y-90866471D01*
X106941840Y-90873414D01*
X106942693Y-90880337D01*
X106943850Y-90887231D01*
X106945314Y-90894083D01*
X106947083Y-90900884D01*
X106949160Y-90907624D01*
X106951545Y-90914291D01*
X106954239Y-90920876D01*
X106957242Y-90927367D01*
X106960556Y-90933755D01*
X106964180Y-90940029D01*
X106968117Y-90946178D01*
X106972366Y-90952192D01*
X106383967Y-91540590D01*
X106079947Y-91236570D01*
X104418898Y-92897623D01*
X103860922Y-93181360D01*
X104144659Y-92623384D01*
X105805708Y-90962331D01*
X105792483Y-90949106D01*
X106373595Y-90949106D01*
X106373787Y-90957008D01*
X106374368Y-90964856D01*
X106375332Y-90972638D01*
X106376673Y-90980341D01*
X106378386Y-90987951D01*
X106380466Y-90995455D01*
X106382907Y-91002840D01*
X106385704Y-91010093D01*
X106388851Y-91017201D01*
X106392342Y-91024151D01*
X106396174Y-91030930D01*
X106400339Y-91037524D01*
X106404833Y-91043921D01*
X106409650Y-91050107D01*
X106414786Y-91056070D01*
X106420233Y-91061796D01*
X106425960Y-91067245D01*
X106431924Y-91072381D01*
X106438110Y-91077200D01*
X106444508Y-91081695D01*
X106451102Y-91085862D01*
X106457881Y-91089694D01*
X106464831Y-91093187D01*
X106471940Y-91096335D01*
X106479193Y-91099133D01*
X106486578Y-91101574D01*
X106494082Y-91103655D01*
X106501692Y-91105369D01*
X106509395Y-91106711D01*
X106517177Y-91107675D01*
X106525026Y-91108256D01*
X106532929Y-91108450D01*
X106540832Y-91108251D01*
X106548681Y-91107664D01*
X106556463Y-91106694D01*
X106564165Y-91105347D01*
X106571775Y-91103627D01*
X106579278Y-91101542D01*
X106586662Y-91099094D01*
X106593914Y-91096292D01*
X106601021Y-91093139D01*
X106607969Y-91089641D01*
X106614747Y-91085803D01*
X106621339Y-91081631D01*
X106627735Y-91077131D01*
X106633920Y-91072307D01*
X106639881Y-91067166D01*
X106645605Y-91061712D01*
X106651254Y-91055768D01*
X106656538Y-91049612D01*
X106661458Y-91043258D01*
X106666014Y-91036721D01*
X106670204Y-91030013D01*
X106674031Y-91023150D01*
X106677493Y-91016146D01*
X106680591Y-91009014D01*
X106683324Y-91001769D01*
X106685693Y-90994425D01*
X106687697Y-90986996D01*
X106689337Y-90979496D01*
X106690612Y-90971940D01*
X106691523Y-90964342D01*
X106692070Y-90956715D01*
X106692252Y-90949074D01*
X106692070Y-90941433D01*
X106691523Y-90933806D01*
X106690612Y-90926208D01*
X106689337Y-90918652D01*
X106687697Y-90911152D01*
X106685692Y-90903723D01*
X106683324Y-90896380D01*
X106680591Y-90889135D01*
X106677493Y-90882003D01*
X106674031Y-90874999D01*
X106670205Y-90868136D01*
X106666014Y-90861429D01*
X106661459Y-90854891D01*
X106656539Y-90848538D01*
X106651256Y-90842382D01*
X106645607Y-90836439D01*
X106645605Y-90836436D01*
X106645603Y-90836433D01*
X106645601Y-90836430D01*
X106645600Y-90836429D01*
X106645599Y-90836428D01*
X106645598Y-90836427D01*
X106645597Y-90836425D01*
X106645595Y-90836424D01*
X106645594Y-90836423D01*
X106645593Y-90836422D01*
X106645592Y-90836421D01*
X106645591Y-90836420D01*
X106645590Y-90836420D01*
X106639646Y-90830772D01*
X106633490Y-90825489D01*
X106627136Y-90820571D01*
X106620597Y-90816016D01*
X106613890Y-90811827D01*
X106607026Y-90808001D01*
X106600021Y-90804541D01*
X106592889Y-90801444D01*
X106585644Y-90798712D01*
X106578300Y-90796344D01*
X106570871Y-90794341D01*
X106563371Y-90792702D01*
X106555815Y-90791428D01*
X106548216Y-90790517D01*
X106540590Y-90789972D01*
X106532949Y-90789790D01*
X106525308Y-90789973D01*
X106517682Y-90790521D01*
X106510084Y-90791432D01*
X106502528Y-90792708D01*
X106495030Y-90794349D01*
X106487602Y-90796354D01*
X106480259Y-90798723D01*
X106473015Y-90801456D01*
X106465884Y-90804554D01*
X106458881Y-90808016D01*
X106452020Y-90811842D01*
X106445314Y-90816033D01*
X106438779Y-90820588D01*
X106432427Y-90825507D01*
X106426273Y-90830791D01*
X106420332Y-90836439D01*
X106414879Y-90842161D01*
X106409738Y-90848121D01*
X106404915Y-90854304D01*
X106400415Y-90860698D01*
X106396243Y-90867290D01*
X106392406Y-90874066D01*
X106388908Y-90881014D01*
X106385755Y-90888120D01*
X106382952Y-90895372D01*
X106380504Y-90902756D01*
X106378418Y-90910259D01*
X106376699Y-90917869D01*
X106375351Y-90925571D01*
X106374381Y-90933353D01*
X106373794Y-90941203D01*
X106373595Y-90949106D01*
X105792483Y-90949106D01*
X105501599Y-90658224D01*
X105635170Y-90524656D01*
X105949080Y-90524656D01*
X105949276Y-90532563D01*
X105949861Y-90540416D01*
X105950829Y-90548202D01*
X105952175Y-90555908D01*
X105953893Y-90563520D01*
X105955978Y-90571027D01*
X105958425Y-90578415D01*
X105961228Y-90585670D01*
X105964381Y-90592779D01*
X105967880Y-90599731D01*
X105971718Y-90606510D01*
X105975890Y-90613105D01*
X105980392Y-90619502D01*
X105985216Y-90625689D01*
X105990359Y-90631651D01*
X105995814Y-90637376D01*
X106001541Y-90642826D01*
X106007504Y-90647963D01*
X106013691Y-90652782D01*
X106020088Y-90657278D01*
X106026683Y-90661445D01*
X106033462Y-90665278D01*
X106040412Y-90668771D01*
X106047520Y-90671919D01*
X106054773Y-90674717D01*
X106062159Y-90677159D01*
X106069663Y-90679239D01*
X106077273Y-90680953D01*
X106084975Y-90682295D01*
X106092758Y-90683259D01*
X106100607Y-90683841D01*
X106108509Y-90684034D01*
X106116412Y-90683835D01*
X106124261Y-90683247D01*
X106132043Y-90682277D01*
X106139746Y-90680929D01*
X106147355Y-90679209D01*
X106154858Y-90677123D01*
X106162243Y-90674676D01*
X106169495Y-90671873D01*
X106176601Y-90668719D01*
X106183550Y-90665221D01*
X106190327Y-90661384D01*
X106196920Y-90657212D01*
X106203315Y-90652712D01*
X106209500Y-90647888D01*
X106215461Y-90642746D01*
X106221186Y-90637293D01*
X106226835Y-90631349D01*
X106232119Y-90625194D01*
X106237039Y-90618840D01*
X106241594Y-90612302D01*
X106245785Y-90605595D01*
X106249612Y-90598732D01*
X106253074Y-90591728D01*
X106256171Y-90584596D01*
X106258905Y-90577351D01*
X106261273Y-90570007D01*
X106263278Y-90562578D01*
X106264918Y-90555078D01*
X106266193Y-90547522D01*
X106267104Y-90539924D01*
X106267651Y-90532297D01*
X106267833Y-90524655D01*
X106267651Y-90517014D01*
X106267104Y-90509387D01*
X106266193Y-90501789D01*
X106264917Y-90494232D01*
X106263277Y-90486733D01*
X106261273Y-90479304D01*
X106258904Y-90471959D01*
X106256171Y-90464714D01*
X106253073Y-90457582D01*
X106249611Y-90450578D01*
X106245785Y-90443715D01*
X106241594Y-90437007D01*
X106237038Y-90430469D01*
X106232119Y-90424115D01*
X106226835Y-90417959D01*
X106221186Y-90412016D01*
X106221185Y-90412014D01*
X106221184Y-90412013D01*
X106221183Y-90412012D01*
X106221182Y-90412010D01*
X106221181Y-90412009D01*
X106221179Y-90412008D01*
X106221177Y-90412006D01*
X106221172Y-90412002D01*
X106221170Y-90411999D01*
X106221168Y-90411998D01*
X106221167Y-90411997D01*
X106216299Y-90407360D01*
X106490983Y-90407360D01*
X106491165Y-90415002D01*
X106491713Y-90422629D01*
X106492624Y-90430228D01*
X106493900Y-90437785D01*
X106495541Y-90445286D01*
X106497546Y-90452715D01*
X106499916Y-90460060D01*
X106502650Y-90467306D01*
X106505749Y-90474439D01*
X106509212Y-90481444D01*
X106513039Y-90488308D01*
X106517232Y-90495017D01*
X106521788Y-90501556D01*
X106526710Y-90507911D01*
X106531995Y-90514068D01*
X106537646Y-90520013D01*
X106543590Y-90525661D01*
X106549746Y-90530944D01*
X106556101Y-90535863D01*
X106562639Y-90540417D01*
X106569347Y-90544606D01*
X106576210Y-90548432D01*
X106583215Y-90551893D01*
X106590347Y-90554989D01*
X106597593Y-90557721D01*
X106604937Y-90560089D01*
X106612366Y-90562092D01*
X106619865Y-90563731D01*
X106627421Y-90565006D01*
X106635020Y-90565916D01*
X106642646Y-90566462D01*
X106650287Y-90566643D01*
X106657928Y-90566460D01*
X106665554Y-90565913D01*
X106673152Y-90565001D01*
X106680707Y-90563725D01*
X106688206Y-90562084D01*
X106695634Y-90560080D01*
X106702977Y-90557711D01*
X106710220Y-90554977D01*
X106717351Y-90551879D01*
X106724353Y-90548417D01*
X106731215Y-90544591D01*
X106737920Y-90540400D01*
X106744456Y-90535845D01*
X106750807Y-90530926D01*
X106756961Y-90525642D01*
X106762902Y-90519994D01*
X106768355Y-90514272D01*
X106773496Y-90508312D01*
X106778320Y-90502129D01*
X106782820Y-90495735D01*
X106786992Y-90489143D01*
X106790830Y-90482367D01*
X106794328Y-90475420D01*
X106797481Y-90468313D01*
X106800284Y-90461062D01*
X106802732Y-90453678D01*
X106804818Y-90446175D01*
X106806538Y-90438566D01*
X106807885Y-90430864D01*
X106808856Y-90423082D01*
X106809444Y-90415234D01*
X106809643Y-90407331D01*
X106809450Y-90399428D01*
X106808869Y-90391579D01*
X106807905Y-90383797D01*
X106806563Y-90376094D01*
X106804850Y-90368484D01*
X106802769Y-90360979D01*
X106800328Y-90353593D01*
X106797531Y-90346340D01*
X106794383Y-90339231D01*
X106790890Y-90332281D01*
X106787058Y-90325501D01*
X106782892Y-90318906D01*
X106778397Y-90312508D01*
X106773579Y-90306321D01*
X106768443Y-90300357D01*
X106762994Y-90294630D01*
X106762995Y-90294630D01*
X106762995Y-90294631D01*
X106762996Y-90294631D01*
X106762997Y-90294632D01*
X106762998Y-90294633D01*
X106762999Y-90294633D01*
X106758106Y-90289978D01*
X107032790Y-90289978D01*
X107032973Y-90297619D01*
X107033520Y-90305247D01*
X107034431Y-90312846D01*
X107035707Y-90320403D01*
X107037348Y-90327903D01*
X107039353Y-90335333D01*
X107041722Y-90342678D01*
X107044456Y-90349924D01*
X107047555Y-90357057D01*
X107051018Y-90364062D01*
X107054845Y-90370926D01*
X107059037Y-90377635D01*
X107063594Y-90384174D01*
X107068515Y-90390529D01*
X107073800Y-90396686D01*
X107079450Y-90402631D01*
X107085394Y-90408279D01*
X107091550Y-90413562D01*
X107097905Y-90418480D01*
X107104443Y-90423035D01*
X107111151Y-90427224D01*
X107118014Y-90431049D01*
X107125019Y-90434510D01*
X107132151Y-90437607D01*
X107139397Y-90440338D01*
X107146741Y-90442706D01*
X107154170Y-90444709D01*
X107161669Y-90446348D01*
X107169226Y-90447622D01*
X107176824Y-90448532D01*
X107184451Y-90449078D01*
X107192092Y-90449259D01*
X107199732Y-90449076D01*
X107207359Y-90448528D01*
X107214957Y-90447616D01*
X107222512Y-90446340D01*
X107230011Y-90444700D01*
X107237439Y-90442695D01*
X107244782Y-90440325D01*
X107252025Y-90437592D01*
X107259156Y-90434494D01*
X107266159Y-90431032D01*
X107273020Y-90427205D01*
X107279725Y-90423015D01*
X107286261Y-90418459D01*
X107292613Y-90413540D01*
X107298766Y-90408256D01*
X107304707Y-90402609D01*
X107310355Y-90396666D01*
X107315640Y-90390510D01*
X107320559Y-90384157D01*
X107325114Y-90377619D01*
X107329305Y-90370912D01*
X107333132Y-90364050D01*
X107336594Y-90357045D01*
X107339691Y-90349914D01*
X107342424Y-90342669D01*
X107344793Y-90335325D01*
X107346798Y-90327896D01*
X107348437Y-90320396D01*
X107349713Y-90312840D01*
X107350624Y-90305241D01*
X107351171Y-90297615D01*
X107351353Y-90289973D01*
X107351171Y-90282332D01*
X107350624Y-90274705D01*
X107349713Y-90267107D01*
X107348438Y-90259550D01*
X107346798Y-90252051D01*
X107344794Y-90244622D01*
X107342425Y-90237278D01*
X107339692Y-90230033D01*
X107336594Y-90222901D01*
X107333132Y-90215896D01*
X107329306Y-90209033D01*
X107325116Y-90202326D01*
X107320560Y-90195788D01*
X107315641Y-90189434D01*
X107310357Y-90183279D01*
X107304709Y-90177335D01*
X107304708Y-90177335D01*
X107304707Y-90177334D01*
X107304705Y-90177332D01*
X107304701Y-90177328D01*
X107304698Y-90177326D01*
X107304696Y-90177324D01*
X107304695Y-90177323D01*
X107304694Y-90177322D01*
X107304693Y-90177321D01*
X107304692Y-90177320D01*
X107298747Y-90171672D01*
X107292591Y-90166389D01*
X107286237Y-90161470D01*
X107279699Y-90156916D01*
X107272991Y-90152726D01*
X107266127Y-90148900D01*
X107259122Y-90145439D01*
X107251990Y-90142342D01*
X107244745Y-90139610D01*
X107237401Y-90137242D01*
X107229972Y-90135239D01*
X107222472Y-90133600D01*
X107214916Y-90132325D01*
X107207318Y-90131415D01*
X107199691Y-90130869D01*
X107192050Y-90130687D01*
X107184409Y-90130870D01*
X107176783Y-90131418D01*
X107169185Y-90132329D01*
X107161630Y-90133605D01*
X107154131Y-90135246D01*
X107146703Y-90137250D01*
X107139360Y-90139619D01*
X107132116Y-90142353D01*
X107124986Y-90145450D01*
X107117983Y-90148913D01*
X107111121Y-90152739D01*
X107104416Y-90156930D01*
X107097880Y-90161485D01*
X107091528Y-90166404D01*
X107085375Y-90171688D01*
X107079434Y-90177335D01*
X107073785Y-90183279D01*
X107068501Y-90189435D01*
X107063581Y-90195789D01*
X107059026Y-90202327D01*
X107054835Y-90209034D01*
X107051009Y-90215898D01*
X107047547Y-90222902D01*
X107044450Y-90230034D01*
X107041716Y-90237280D01*
X107039348Y-90244624D01*
X107037344Y-90252053D01*
X107035704Y-90259553D01*
X107034429Y-90267110D01*
X107033518Y-90274709D01*
X107032972Y-90282336D01*
X107032790Y-90289978D01*
X106758106Y-90289978D01*
X106757273Y-90289185D01*
X106751310Y-90284048D01*
X106745123Y-90279230D01*
X106738725Y-90274734D01*
X106732131Y-90270568D01*
X106725352Y-90266735D01*
X106718402Y-90263242D01*
X106711293Y-90260094D01*
X106704040Y-90257297D01*
X106696654Y-90254855D01*
X106689150Y-90252774D01*
X106681540Y-90251061D01*
X106673837Y-90249719D01*
X106666054Y-90248754D01*
X106658204Y-90248173D01*
X106650301Y-90247980D01*
X106642399Y-90248179D01*
X106634550Y-90248766D01*
X106626768Y-90249735D01*
X106619066Y-90251083D01*
X106611457Y-90252802D01*
X106603954Y-90254888D01*
X106596570Y-90257335D01*
X106589318Y-90260138D01*
X106582211Y-90263292D01*
X106575262Y-90266790D01*
X106568485Y-90270628D01*
X106561892Y-90274800D01*
X106555497Y-90279301D01*
X106549312Y-90284125D01*
X106543351Y-90289267D01*
X106537627Y-90294721D01*
X106531978Y-90300665D01*
X106526694Y-90306820D01*
X106521774Y-90313174D01*
X106517219Y-90319711D01*
X106513028Y-90326419D01*
X106509202Y-90333282D01*
X106505740Y-90340286D01*
X106502642Y-90347418D01*
X106499909Y-90354663D01*
X106497541Y-90362007D01*
X106495536Y-90369436D01*
X106493897Y-90376936D01*
X106492622Y-90384493D01*
X106491711Y-90392091D01*
X106491165Y-90399719D01*
X106490983Y-90407360D01*
X106216299Y-90407360D01*
X106215443Y-90406545D01*
X106209483Y-90401405D01*
X106203298Y-90396583D01*
X106196904Y-90392084D01*
X106190312Y-90387914D01*
X106183535Y-90384078D01*
X106176587Y-90380581D01*
X106169481Y-90377429D01*
X106162229Y-90374627D01*
X106154845Y-90372181D01*
X106147342Y-90370096D01*
X106139733Y-90368378D01*
X106132031Y-90367031D01*
X106124248Y-90366062D01*
X106116399Y-90365476D01*
X106108496Y-90365278D01*
X106100593Y-90365472D01*
X106092744Y-90366054D01*
X106084962Y-90367019D01*
X106077260Y-90368361D01*
X106069650Y-90370076D01*
X106062146Y-90372156D01*
X106054761Y-90374598D01*
X106047509Y-90377396D01*
X106040402Y-90380543D01*
X106033453Y-90384036D01*
X106026675Y-90387867D01*
X106020082Y-90392033D01*
X106013687Y-90396527D01*
X106007502Y-90401344D01*
X106001541Y-90406478D01*
X105995817Y-90411924D01*
X105990361Y-90417650D01*
X105985218Y-90423614D01*
X105980393Y-90429801D01*
X105975891Y-90436199D01*
X105971718Y-90442795D01*
X105967880Y-90449575D01*
X105964381Y-90456527D01*
X105961228Y-90463638D01*
X105958425Y-90470894D01*
X105955978Y-90478282D01*
X105953893Y-90485790D01*
X105952175Y-90493403D01*
X105950829Y-90501110D01*
X105949861Y-90508896D01*
X105949276Y-90516749D01*
X105949080Y-90524656D01*
X105635170Y-90524656D01*
X106088820Y-90071020D01*
X106094773Y-90076570D01*
X106100933Y-90081759D01*
X106107285Y-90086587D01*
X106113815Y-90091055D01*
X106120511Y-90095162D01*
X106127357Y-90098909D01*
X106134341Y-90102296D01*
X106141447Y-90105322D01*
X106148663Y-90107987D01*
X106155974Y-90110293D01*
X106163367Y-90112238D01*
X106170828Y-90113824D01*
X106178342Y-90115049D01*
X106185896Y-90115914D01*
X106193477Y-90116419D01*
X106201069Y-90116565D01*
X106208660Y-90116351D01*
X106216235Y-90115777D01*
X106223781Y-90114843D01*
X106231284Y-90113550D01*
X106238730Y-90111897D01*
X106246104Y-90109885D01*
X106253394Y-90107513D01*
X106260585Y-90104782D01*
X106267664Y-90101692D01*
X106274616Y-90098242D01*
X106281427Y-90094433D01*
X106288085Y-90090266D01*
X106294574Y-90085739D01*
X106300881Y-90080853D01*
X106306993Y-90075609D01*
X106312895Y-90070005D01*
X106318515Y-90064104D01*
X106323775Y-90057993D01*
X106328676Y-90051685D01*
X106333217Y-90045195D01*
X106337398Y-90038535D01*
X106341220Y-90031721D01*
X106344682Y-90024766D01*
X106347784Y-90017683D01*
X106350526Y-90010487D01*
X106352908Y-90003192D01*
X106354930Y-89995812D01*
X106356592Y-89988360D01*
X106357894Y-89980851D01*
X106358835Y-89973298D01*
X106359416Y-89965715D01*
X106359637Y-89958116D01*
X106359497Y-89950516D01*
X106358997Y-89942927D01*
X106358135Y-89935364D01*
X106356913Y-89927842D01*
X106355331Y-89920372D01*
X106353387Y-89912971D01*
X106351082Y-89905651D01*
X106348417Y-89898426D01*
X106345390Y-89891311D01*
X106342002Y-89884319D01*
X106338253Y-89877464D01*
X106334142Y-89870761D01*
X106330564Y-89865530D01*
X106608273Y-89865530D01*
X106608472Y-89873432D01*
X106609059Y-89881281D01*
X106610030Y-89889062D01*
X106611378Y-89896764D01*
X106613098Y-89904373D01*
X106615184Y-89911876D01*
X106617632Y-89919260D01*
X106620436Y-89926511D01*
X106623591Y-89933618D01*
X106627090Y-89940567D01*
X106630929Y-89947345D01*
X106635103Y-89953939D01*
X106639605Y-89960335D01*
X106644431Y-89966522D01*
X106649575Y-89972485D01*
X106655031Y-89978212D01*
X106660976Y-89983859D01*
X106667132Y-89989143D01*
X106673486Y-89994061D01*
X106680024Y-89998615D01*
X106686732Y-90002805D01*
X106693595Y-90006630D01*
X106700600Y-90010091D01*
X106707732Y-90013188D01*
X106714978Y-90015920D01*
X106722322Y-90018288D01*
X106729751Y-90020291D01*
X106737250Y-90021930D01*
X106744806Y-90023204D01*
X106752405Y-90024114D01*
X106760032Y-90024660D01*
X106767672Y-90024841D01*
X106775313Y-90024658D01*
X106782939Y-90024111D01*
X106790537Y-90023199D01*
X106798093Y-90021923D01*
X106805591Y-90020283D01*
X106813019Y-90018278D01*
X106820362Y-90015909D01*
X106827606Y-90013176D01*
X106834736Y-90010078D01*
X106841739Y-90006616D01*
X106848600Y-90002789D01*
X106855306Y-89998599D01*
X106861842Y-89994044D01*
X106868193Y-89989124D01*
X106874346Y-89983841D01*
X106880287Y-89978193D01*
X106885936Y-89972249D01*
X106891220Y-89966093D01*
X106896140Y-89959739D01*
X106900695Y-89953202D01*
X106904886Y-89946494D01*
X106908712Y-89939631D01*
X106912174Y-89932626D01*
X106915272Y-89925494D01*
X106918005Y-89918249D01*
X106920374Y-89910905D01*
X106922378Y-89903476D01*
X106924018Y-89895976D01*
X106925293Y-89888420D01*
X106926204Y-89880821D01*
X106926751Y-89873194D01*
X106926933Y-89865553D01*
X106926751Y-89857912D01*
X106926204Y-89850285D01*
X106925293Y-89842686D01*
X106924018Y-89835130D01*
X106922378Y-89827630D01*
X106920374Y-89820202D01*
X106918005Y-89812858D01*
X106915272Y-89805613D01*
X106912175Y-89798481D01*
X106908713Y-89791476D01*
X106904886Y-89784614D01*
X106900695Y-89777906D01*
X106896140Y-89771369D01*
X106891221Y-89765015D01*
X106885937Y-89758859D01*
X106880288Y-89752916D01*
X106880269Y-89752897D01*
X106875303Y-89748167D01*
X107150176Y-89748167D01*
X107150359Y-89755809D01*
X107150906Y-89763436D01*
X107151818Y-89771036D01*
X107153094Y-89778593D01*
X107154735Y-89786093D01*
X107156740Y-89793523D01*
X107159109Y-89800868D01*
X107161844Y-89808114D01*
X107164942Y-89815247D01*
X107168406Y-89822253D01*
X107172233Y-89829117D01*
X107176426Y-89835826D01*
X107180982Y-89842365D01*
X107185904Y-89848720D01*
X107191189Y-89854877D01*
X107196840Y-89860822D01*
X107202784Y-89866470D01*
X107208940Y-89871753D01*
X107215294Y-89876671D01*
X107221833Y-89881226D01*
X107228540Y-89885415D01*
X107235404Y-89889241D01*
X107242409Y-89892702D01*
X107249541Y-89895798D01*
X107256786Y-89898530D01*
X107264130Y-89900898D01*
X107271559Y-89902901D01*
X107279059Y-89904540D01*
X107286615Y-89905815D01*
X107294213Y-89906725D01*
X107301840Y-89907270D01*
X107309480Y-89907452D01*
X107317121Y-89907269D01*
X107324747Y-89906721D01*
X107332345Y-89905810D01*
X107339900Y-89904534D01*
X107347399Y-89902893D01*
X107354827Y-89900889D01*
X107362170Y-89898519D01*
X107369413Y-89895786D01*
X107376544Y-89892688D01*
X107383547Y-89889226D01*
X107390408Y-89885400D01*
X107397113Y-89881209D01*
X107403649Y-89876654D01*
X107410000Y-89871735D01*
X107416154Y-89866451D01*
X107422095Y-89860803D01*
X107427743Y-89854860D01*
X107433028Y-89848704D01*
X107437947Y-89842351D01*
X107442503Y-89835813D01*
X107446694Y-89829106D01*
X107450520Y-89822243D01*
X107453982Y-89815238D01*
X107457080Y-89808107D01*
X107459813Y-89800862D01*
X107462182Y-89793518D01*
X107464186Y-89786089D01*
X107465826Y-89778589D01*
X107467101Y-89771033D01*
X107468012Y-89763434D01*
X107468559Y-89755807D01*
X107468741Y-89748166D01*
X107468559Y-89740525D01*
X107468012Y-89732898D01*
X107467101Y-89725299D01*
X107465826Y-89717743D01*
X107464186Y-89710243D01*
X107462181Y-89702814D01*
X107459813Y-89695470D01*
X107457079Y-89688225D01*
X107453982Y-89681093D01*
X107450520Y-89674089D01*
X107446694Y-89667225D01*
X107442503Y-89660518D01*
X107437948Y-89653980D01*
X107433028Y-89647626D01*
X107427744Y-89641470D01*
X107422096Y-89635526D01*
X107422076Y-89635507D01*
X107417103Y-89630782D01*
X107691985Y-89630782D01*
X107692168Y-89638424D01*
X107692715Y-89646051D01*
X107693627Y-89653650D01*
X107694903Y-89661207D01*
X107696543Y-89668707D01*
X107698549Y-89676137D01*
X107700918Y-89683481D01*
X107703652Y-89690727D01*
X107706751Y-89697860D01*
X107710214Y-89704865D01*
X107714041Y-89711729D01*
X107718233Y-89718437D01*
X107722790Y-89724976D01*
X107727711Y-89731331D01*
X107732997Y-89737488D01*
X107738647Y-89743433D01*
X107744591Y-89749080D01*
X107750747Y-89754363D01*
X107757102Y-89759282D01*
X107763640Y-89763836D01*
X107770348Y-89768026D01*
X107777211Y-89771851D01*
X107784216Y-89775312D01*
X107791348Y-89778408D01*
X107798593Y-89781140D01*
X107805937Y-89783508D01*
X107813366Y-89785511D01*
X107820866Y-89787150D01*
X107828422Y-89788425D01*
X107836020Y-89789335D01*
X107843647Y-89789881D01*
X107851288Y-89790062D01*
X107858928Y-89789879D01*
X107866555Y-89789332D01*
X107874153Y-89788420D01*
X107881708Y-89787144D01*
X107889207Y-89785504D01*
X107896635Y-89783499D01*
X107903978Y-89781130D01*
X107911221Y-89778396D01*
X107918352Y-89775299D01*
X107925355Y-89771837D01*
X107932216Y-89768010D01*
X107938922Y-89763819D01*
X107945457Y-89759264D01*
X107951809Y-89754345D01*
X107957963Y-89749061D01*
X107963904Y-89743414D01*
X107969552Y-89737470D01*
X107974836Y-89731315D01*
X107979756Y-89724961D01*
X107984311Y-89718423D01*
X107988502Y-89711716D01*
X107992329Y-89704853D01*
X107995791Y-89697849D01*
X107998888Y-89690717D01*
X108001621Y-89683472D01*
X108003990Y-89676128D01*
X108005994Y-89668699D01*
X108007634Y-89661200D01*
X108008910Y-89653644D01*
X108009821Y-89646045D01*
X108010367Y-89638418D01*
X108010549Y-89630777D01*
X108010367Y-89623136D01*
X108009821Y-89615509D01*
X108008909Y-89607910D01*
X108007634Y-89600354D01*
X108005994Y-89592855D01*
X108003990Y-89585426D01*
X108001621Y-89578082D01*
X107998888Y-89570837D01*
X107995790Y-89563705D01*
X107992328Y-89556701D01*
X107988502Y-89549838D01*
X107984311Y-89543131D01*
X107979756Y-89536593D01*
X107974836Y-89530239D01*
X107969552Y-89524084D01*
X107963904Y-89518140D01*
X107963903Y-89518140D01*
X107963902Y-89518139D01*
X107963900Y-89518137D01*
X107963895Y-89518133D01*
X107963893Y-89518131D01*
X107963891Y-89518129D01*
X107963890Y-89518128D01*
X107963889Y-89518127D01*
X107963888Y-89518126D01*
X107963887Y-89518125D01*
X107957942Y-89512477D01*
X107951786Y-89507194D01*
X107945432Y-89502275D01*
X107938894Y-89497721D01*
X107932186Y-89493531D01*
X107925322Y-89489705D01*
X107918317Y-89486244D01*
X107911185Y-89483147D01*
X107903940Y-89480415D01*
X107896596Y-89478047D01*
X107889167Y-89476044D01*
X107881667Y-89474405D01*
X107874111Y-89473130D01*
X107866513Y-89472220D01*
X107858886Y-89471674D01*
X107851245Y-89471492D01*
X107843605Y-89471675D01*
X107835978Y-89472223D01*
X107828380Y-89473134D01*
X107820825Y-89474410D01*
X107813326Y-89476051D01*
X107805898Y-89478055D01*
X107798556Y-89480424D01*
X107791312Y-89483158D01*
X107784182Y-89486256D01*
X107777179Y-89489718D01*
X107770317Y-89493544D01*
X107763612Y-89497735D01*
X107757076Y-89502290D01*
X107750725Y-89507209D01*
X107744572Y-89512493D01*
X107738631Y-89518140D01*
X107732982Y-89524084D01*
X107727698Y-89530240D01*
X107722778Y-89536594D01*
X107718222Y-89543132D01*
X107714031Y-89549840D01*
X107710205Y-89556703D01*
X107706743Y-89563707D01*
X107703645Y-89570839D01*
X107700912Y-89578085D01*
X107698544Y-89585429D01*
X107696539Y-89592858D01*
X107694900Y-89600358D01*
X107693624Y-89607915D01*
X107692714Y-89615514D01*
X107692167Y-89623141D01*
X107691985Y-89630782D01*
X107417103Y-89630782D01*
X107416132Y-89629860D01*
X107409976Y-89624577D01*
X107403622Y-89619658D01*
X107397084Y-89615104D01*
X107390376Y-89610914D01*
X107383512Y-89607089D01*
X107376507Y-89603628D01*
X107369375Y-89600532D01*
X107362130Y-89597799D01*
X107354786Y-89595432D01*
X107347357Y-89593428D01*
X107339857Y-89591790D01*
X107332301Y-89590515D01*
X107324702Y-89589605D01*
X107317076Y-89589059D01*
X107309435Y-89588878D01*
X107301794Y-89589061D01*
X107294168Y-89589608D01*
X107286570Y-89590520D01*
X107279014Y-89591796D01*
X107271516Y-89593436D01*
X107264088Y-89595441D01*
X107256745Y-89597810D01*
X107249501Y-89600544D01*
X107242371Y-89603641D01*
X107235368Y-89607103D01*
X107228506Y-89610930D01*
X107221801Y-89615120D01*
X107215265Y-89619675D01*
X107208913Y-89624595D01*
X107202760Y-89629878D01*
X107196819Y-89635526D01*
X107191170Y-89641470D01*
X107185886Y-89647625D01*
X107180966Y-89653979D01*
X107176411Y-89660517D01*
X107172220Y-89667224D01*
X107168394Y-89674087D01*
X107164932Y-89681092D01*
X107161835Y-89688224D01*
X107159102Y-89695469D01*
X107156733Y-89702813D01*
X107154729Y-89710242D01*
X107153089Y-89717742D01*
X107151814Y-89725299D01*
X107150904Y-89732898D01*
X107150358Y-89740526D01*
X107150176Y-89748167D01*
X106875303Y-89748167D01*
X106874545Y-89747445D01*
X106868585Y-89742306D01*
X106862400Y-89737484D01*
X106856006Y-89732985D01*
X106849413Y-89728815D01*
X106842637Y-89724978D01*
X106835689Y-89721482D01*
X106828582Y-89718330D01*
X106821331Y-89715528D01*
X106813947Y-89713082D01*
X106806444Y-89710997D01*
X106798835Y-89709278D01*
X106791133Y-89707932D01*
X106783350Y-89706963D01*
X106775501Y-89706376D01*
X106767598Y-89706178D01*
X106759696Y-89706372D01*
X106751847Y-89706954D01*
X106744064Y-89707919D01*
X106736362Y-89709261D01*
X106728752Y-89710975D01*
X106721248Y-89713056D01*
X106713863Y-89715497D01*
X106706611Y-89718295D01*
X106699504Y-89721442D01*
X106692555Y-89724935D01*
X106685777Y-89728766D01*
X106679184Y-89732932D01*
X106672789Y-89737426D01*
X106666605Y-89742243D01*
X106660644Y-89747378D01*
X106654921Y-89752824D01*
X106649472Y-89758551D01*
X106644336Y-89764515D01*
X106639518Y-89770702D01*
X106635023Y-89777099D01*
X106630857Y-89783694D01*
X106627025Y-89790474D01*
X106623532Y-89797425D01*
X106620384Y-89804534D01*
X106617587Y-89811788D01*
X106615146Y-89819174D01*
X106613066Y-89826679D01*
X106611352Y-89834290D01*
X106610011Y-89841993D01*
X106609047Y-89849776D01*
X106608466Y-89857626D01*
X106608273Y-89865530D01*
X106330564Y-89865530D01*
X106329670Y-89864222D01*
X106324837Y-89857862D01*
X106319642Y-89851695D01*
X106314085Y-89845735D01*
X106748018Y-89411825D01*
X106753971Y-89417374D01*
X106760131Y-89422563D01*
X106766484Y-89427391D01*
X106773015Y-89431859D01*
X106779710Y-89435966D01*
X106786557Y-89439712D01*
X106793541Y-89443098D01*
X106800647Y-89446124D01*
X106807863Y-89448790D01*
X106815175Y-89451095D01*
X106822567Y-89453040D01*
X106830028Y-89454625D01*
X106837542Y-89455850D01*
X106845097Y-89456715D01*
X106852677Y-89457220D01*
X106860269Y-89457366D01*
X106867860Y-89457151D01*
X106875435Y-89456577D01*
X106882981Y-89455644D01*
X106890484Y-89454350D01*
X106897929Y-89452698D01*
X106905304Y-89450685D01*
X106912593Y-89448314D01*
X106919784Y-89445583D01*
X106926862Y-89442493D01*
X106933814Y-89439044D01*
X106940625Y-89435236D01*
X106947283Y-89431068D01*
X106953772Y-89426542D01*
X106960079Y-89421657D01*
X106966190Y-89416413D01*
X106972092Y-89410810D01*
X106977703Y-89404908D01*
X106982956Y-89398796D01*
X106987849Y-89392487D01*
X106992383Y-89385997D01*
X106996557Y-89379338D01*
X107000372Y-89372524D01*
X107003828Y-89365570D01*
X107006924Y-89358489D01*
X107009660Y-89351295D01*
X107012037Y-89344003D01*
X107014054Y-89336625D01*
X107015711Y-89329176D01*
X107017008Y-89321669D01*
X107017945Y-89314120D01*
X107018523Y-89306540D01*
X107018740Y-89298946D01*
X107018597Y-89291349D01*
X107018094Y-89283764D01*
X107017230Y-89276206D01*
X107016007Y-89268687D01*
X107014422Y-89261223D01*
X107012478Y-89253825D01*
X107010172Y-89246510D01*
X107007506Y-89239290D01*
X107004480Y-89232179D01*
X107001093Y-89225192D01*
X106997344Y-89218341D01*
X106993235Y-89211642D01*
X106989602Y-89206331D01*
X107267470Y-89206331D01*
X107267668Y-89214234D01*
X107268255Y-89222083D01*
X107269226Y-89229865D01*
X107270573Y-89237567D01*
X107272293Y-89245177D01*
X107274380Y-89252680D01*
X107276828Y-89260064D01*
X107279632Y-89267316D01*
X107282786Y-89274422D01*
X107286286Y-89281371D01*
X107290125Y-89288149D01*
X107294298Y-89294742D01*
X107298801Y-89301138D01*
X107303627Y-89307324D01*
X107308771Y-89313287D01*
X107314227Y-89319013D01*
X107320172Y-89324661D01*
X107326328Y-89329944D01*
X107332682Y-89334863D01*
X107339220Y-89339418D01*
X107345928Y-89343608D01*
X107352792Y-89347433D01*
X107359796Y-89350894D01*
X107366929Y-89353991D01*
X107374174Y-89356723D01*
X107381518Y-89359091D01*
X107388947Y-89361095D01*
X107396446Y-89362734D01*
X107404003Y-89364008D01*
X107411601Y-89364918D01*
X107419228Y-89365464D01*
X107426868Y-89365646D01*
X107434509Y-89365463D01*
X107442135Y-89364915D01*
X107449733Y-89364003D01*
X107457289Y-89362727D01*
X107464787Y-89361087D01*
X107472215Y-89359082D01*
X107479558Y-89356713D01*
X107486802Y-89353979D01*
X107493932Y-89350881D01*
X107500935Y-89347419D01*
X107507797Y-89343592D01*
X107514502Y-89339401D01*
X107521038Y-89334846D01*
X107527390Y-89329926D01*
X107533543Y-89324642D01*
X107539484Y-89318994D01*
X107545133Y-89313051D01*
X107550417Y-89306895D01*
X107555337Y-89300542D01*
X107559892Y-89294004D01*
X107564083Y-89287297D01*
X107567909Y-89280434D01*
X107571371Y-89273429D01*
X107574469Y-89266298D01*
X107577202Y-89259053D01*
X107579571Y-89251709D01*
X107581575Y-89244280D01*
X107583215Y-89236780D01*
X107584490Y-89229224D01*
X107585401Y-89221626D01*
X107585948Y-89213999D01*
X107586130Y-89206358D01*
X107585948Y-89198717D01*
X107585401Y-89191090D01*
X107584490Y-89183491D01*
X107583214Y-89175935D01*
X107581574Y-89168435D01*
X107579570Y-89161007D01*
X107577201Y-89153663D01*
X107574468Y-89146418D01*
X107571370Y-89139286D01*
X107567908Y-89132281D01*
X107564082Y-89125419D01*
X107559891Y-89118711D01*
X107555336Y-89112174D01*
X107550416Y-89105820D01*
X107545132Y-89099664D01*
X107539483Y-89093721D01*
X107539464Y-89093702D01*
X107534522Y-89088995D01*
X107809277Y-89088995D01*
X107809469Y-89096898D01*
X107810050Y-89104748D01*
X107811014Y-89112530D01*
X107812355Y-89120234D01*
X107814069Y-89127844D01*
X107816149Y-89135348D01*
X107818590Y-89142734D01*
X107821387Y-89149987D01*
X107824534Y-89157095D01*
X107828026Y-89164045D01*
X107831858Y-89170824D01*
X107836024Y-89177418D01*
X107840518Y-89183816D01*
X107845335Y-89190002D01*
X107850471Y-89195966D01*
X107855918Y-89201692D01*
X107861645Y-89207142D01*
X107867608Y-89212279D01*
X107873795Y-89217098D01*
X107880192Y-89221594D01*
X107886787Y-89225761D01*
X107893566Y-89229593D01*
X107900516Y-89233086D01*
X107907624Y-89236234D01*
X107914877Y-89239032D01*
X107922263Y-89241474D01*
X107929767Y-89243554D01*
X107937377Y-89245267D01*
X107945080Y-89246609D01*
X107952863Y-89247573D01*
X107960712Y-89248154D01*
X107968615Y-89248346D01*
X107976517Y-89248147D01*
X107984366Y-89247560D01*
X107992148Y-89246590D01*
X107999850Y-89245243D01*
X108007460Y-89243524D01*
X108014963Y-89241438D01*
X108022347Y-89238991D01*
X108029599Y-89236188D01*
X108036706Y-89233034D01*
X108043655Y-89229536D01*
X108050432Y-89225698D01*
X108057025Y-89221526D01*
X108063420Y-89217025D01*
X108069605Y-89212201D01*
X108075567Y-89207059D01*
X108081291Y-89201605D01*
X108086940Y-89195661D01*
X108092224Y-89189506D01*
X108097144Y-89183153D01*
X108101699Y-89176615D01*
X108105890Y-89169908D01*
X108109716Y-89163046D01*
X108113178Y-89156041D01*
X108116276Y-89148910D01*
X108119009Y-89141665D01*
X108121378Y-89134321D01*
X108123382Y-89126892D01*
X108125022Y-89119392D01*
X108126297Y-89111836D01*
X108127208Y-89104237D01*
X108127755Y-89096611D01*
X108127937Y-89088969D01*
X108127755Y-89081328D01*
X108127208Y-89073701D01*
X108126297Y-89066103D01*
X108125022Y-89058546D01*
X108123382Y-89051047D01*
X108121377Y-89043618D01*
X108119008Y-89036274D01*
X108116275Y-89029029D01*
X108113178Y-89021897D01*
X108109716Y-89014892D01*
X108105889Y-89008029D01*
X108101698Y-89001322D01*
X108097143Y-88994784D01*
X108092223Y-88988430D01*
X108086939Y-88982275D01*
X108081291Y-88976331D01*
X108081271Y-88976312D01*
X108075327Y-88970665D01*
X108069171Y-88965382D01*
X108062817Y-88960463D01*
X108056279Y-88955909D01*
X108049571Y-88951719D01*
X108042708Y-88947894D01*
X108035703Y-88944433D01*
X108028571Y-88941337D01*
X108021326Y-88938605D01*
X108013982Y-88936237D01*
X108006553Y-88934234D01*
X107999053Y-88932595D01*
X107991497Y-88931320D01*
X107983898Y-88930410D01*
X107976272Y-88929864D01*
X107968631Y-88929683D01*
X107960990Y-88929866D01*
X107953364Y-88930413D01*
X107945766Y-88931325D01*
X107938210Y-88932601D01*
X107930712Y-88934241D01*
X107923284Y-88936246D01*
X107915941Y-88938615D01*
X107908697Y-88941349D01*
X107901567Y-88944446D01*
X107894564Y-88947908D01*
X107887702Y-88951735D01*
X107880997Y-88955926D01*
X107874461Y-88960481D01*
X107868110Y-88965400D01*
X107861956Y-88970683D01*
X107856015Y-88976331D01*
X107850562Y-88982055D01*
X107845421Y-88988015D01*
X107840598Y-88994198D01*
X107836097Y-89000593D01*
X107831926Y-89007185D01*
X107828088Y-89013961D01*
X107824590Y-89020909D01*
X107821437Y-89028015D01*
X107818634Y-89035267D01*
X107816186Y-89042650D01*
X107814100Y-89050153D01*
X107812381Y-89057762D01*
X107811033Y-89065463D01*
X107810063Y-89073245D01*
X107809476Y-89081093D01*
X107809277Y-89088995D01*
X107534522Y-89088995D01*
X107533740Y-89088250D01*
X107527780Y-89083111D01*
X107521595Y-89078289D01*
X107515201Y-89073790D01*
X107508608Y-89069620D01*
X107501832Y-89065783D01*
X107494884Y-89062286D01*
X107487777Y-89059134D01*
X107480526Y-89056332D01*
X107473142Y-89053886D01*
X107465639Y-89051801D01*
X107458031Y-89050082D01*
X107450329Y-89048735D01*
X107442547Y-89047765D01*
X107434698Y-89047178D01*
X107426795Y-89046980D01*
X107418892Y-89047174D01*
X107411043Y-89047757D01*
X107403260Y-89048722D01*
X107395558Y-89050064D01*
X107387948Y-89051779D01*
X107380444Y-89053860D01*
X107373059Y-89056302D01*
X107365807Y-89059099D01*
X107358700Y-89062246D01*
X107351751Y-89065738D01*
X107344973Y-89069570D01*
X107338381Y-89073735D01*
X107331985Y-89078229D01*
X107325801Y-89083045D01*
X107319840Y-89088179D01*
X107314117Y-89093626D01*
X107308668Y-89099353D01*
X107303532Y-89105317D01*
X107298714Y-89111505D01*
X107294219Y-89117903D01*
X107290053Y-89124498D01*
X107286221Y-89131278D01*
X107282728Y-89138229D01*
X107279581Y-89145338D01*
X107276784Y-89152592D01*
X107274343Y-89159978D01*
X107272263Y-89167482D01*
X107270549Y-89175093D01*
X107269208Y-89182796D01*
X107268244Y-89190579D01*
X107267663Y-89198428D01*
X107267470Y-89206331D01*
X106989602Y-89206331D01*
X106988765Y-89205107D01*
X106983934Y-89198751D01*
X106978742Y-89192588D01*
X106973189Y-89186632D01*
X107407125Y-88752721D01*
X107413082Y-88758274D01*
X107419245Y-88763466D01*
X107425601Y-88768297D01*
X107432136Y-88772766D01*
X107438836Y-88776875D01*
X107445687Y-88780622D01*
X107452674Y-88784009D01*
X107459785Y-88787035D01*
X107467005Y-88789700D01*
X107474321Y-88792005D01*
X107481718Y-88793949D01*
X107489183Y-88795532D01*
X107496701Y-88796755D01*
X107504260Y-88797618D01*
X107511844Y-88798121D01*
X107519440Y-88798263D01*
X107527035Y-88798045D01*
X107534614Y-88797468D01*
X107542163Y-88796530D01*
X107549669Y-88795232D01*
X107557117Y-88793574D01*
X107564494Y-88791557D01*
X107571786Y-88789180D01*
X107578979Y-88786443D01*
X107586059Y-88783347D01*
X107593012Y-88779891D01*
X107599824Y-88776076D01*
X107606482Y-88771902D01*
X107612971Y-88767368D01*
X107619278Y-88762475D01*
X107625388Y-88757223D01*
X107631289Y-88751611D01*
X107636900Y-88745709D01*
X107642153Y-88739597D01*
X107647046Y-88733289D01*
X107651580Y-88726798D01*
X107655755Y-88720139D01*
X107659570Y-88713325D01*
X107663026Y-88706371D01*
X107666122Y-88699290D01*
X107668858Y-88692096D01*
X107671235Y-88684804D01*
X107673252Y-88677426D01*
X107674910Y-88669977D01*
X107676207Y-88662471D01*
X107677144Y-88654921D01*
X107677722Y-88647342D01*
X107677939Y-88639747D01*
X107677796Y-88632150D01*
X107677293Y-88624566D01*
X107676430Y-88617007D01*
X107675206Y-88609489D01*
X107673622Y-88602024D01*
X107671677Y-88594627D01*
X107669372Y-88587311D01*
X107666706Y-88580091D01*
X107663679Y-88572980D01*
X107660291Y-88565993D01*
X107656543Y-88559142D01*
X107652434Y-88552443D01*
X107647964Y-88545908D01*
X107643132Y-88539553D01*
X107637940Y-88533390D01*
X107632386Y-88527433D01*
X107770969Y-88388849D01*
X107603429Y-88221311D01*
X107601181Y-88218948D01*
X107599079Y-88216501D01*
X107597121Y-88213977D01*
X107595308Y-88211381D01*
X107593640Y-88208719D01*
X107592118Y-88205996D01*
X107590740Y-88203218D01*
X107589507Y-88200390D01*
X107588419Y-88197518D01*
X107587477Y-88194607D01*
X107586679Y-88191663D01*
X107586026Y-88188692D01*
X107585519Y-88185698D01*
X107585156Y-88182688D01*
X107584938Y-88179666D01*
X107584866Y-88176639D01*
X107584938Y-88173612D01*
X107585156Y-88170591D01*
X107585518Y-88167581D01*
X107586026Y-88164587D01*
X107586678Y-88161615D01*
X107587476Y-88158671D01*
X107588418Y-88155760D01*
X107589506Y-88152888D01*
X107590738Y-88150060D01*
X107592116Y-88147282D01*
X107593639Y-88144559D01*
X107595306Y-88141897D01*
X107597119Y-88139301D01*
X107599077Y-88136777D01*
X107601179Y-88134331D01*
X107603427Y-88131967D01*
X107952302Y-87783094D01*
X107954666Y-87780846D01*
X107957112Y-87778744D01*
X107959636Y-87776786D01*
X107962232Y-87774973D01*
X107964894Y-87773305D01*
X107967617Y-87771783D01*
X107970395Y-87770405D01*
X107973223Y-87769172D01*
X107976095Y-87768085D01*
X107979006Y-87767142D01*
X107981950Y-87766344D01*
X107984921Y-87765692D01*
X107987915Y-87765184D01*
X107990925Y-87764822D01*
X107993946Y-87764604D01*
X107996973Y-87764532D01*
X108000000Y-87764604D01*
G37*
D11*
X116215371Y-83263879D02*
X116244532Y-83341313D01*
X115214818Y-82608286D02*
X115287938Y-82610614D01*
X114324621Y-82908216D02*
X114474353Y-82821591D01*
X114920448Y-82644891D02*
X114994287Y-82629130D01*
X112590562Y-91619121D02*
X112666213Y-91630001D01*
X115067965Y-82617677D02*
X115141477Y-82610679D01*
X116004017Y-82939263D02*
X116054135Y-82995723D01*
X116268699Y-83422829D02*
X116287605Y-83508392D01*
X114144961Y-87265254D02*
X113588733Y-87905133D01*
D12*
X109500000Y-94500000D02*
X138500000Y-94500000D01*
X138500000Y-99000000D01*
X109500000Y-99000000D01*
X109500000Y-94500000D01*
G36*
X109500000Y-94500000D02*
G01*
X138500000Y-94500000D01*
X138500000Y-99000000D01*
X109500000Y-99000000D01*
X109500000Y-94500000D01*
G37*
D11*
X115941016Y-89532651D02*
X116386036Y-89103281D01*
X111916929Y-90861251D02*
X111927276Y-90944481D01*
X112318358Y-91523967D02*
X112381411Y-91555387D01*
X116071742Y-84705980D02*
X116006631Y-84837194D01*
X112666213Y-91630001D02*
X112744467Y-91635604D01*
X113065194Y-88528926D02*
X112826467Y-88830223D01*
X111990718Y-90272093D02*
X111961151Y-90380691D01*
D13*
X112501938Y-84025929D02*
X112515290Y-84026890D01*
X112528592Y-84028492D01*
X112541822Y-84030735D01*
X112554954Y-84033619D01*
X112567964Y-84037144D01*
X112580827Y-84041309D01*
X112593520Y-84046116D01*
X112606017Y-84051563D01*
X112618294Y-84057652D01*
X112630327Y-84064381D01*
X112642091Y-84071751D01*
X112653563Y-84079762D01*
X112664717Y-84088414D01*
X112675529Y-84097707D01*
X112685974Y-84107641D01*
X112934541Y-84356210D01*
X112944475Y-84366656D01*
X112953768Y-84377468D01*
X112962420Y-84388622D01*
X112970431Y-84400093D01*
X112977802Y-84411857D01*
X112984531Y-84423890D01*
X112990620Y-84436167D01*
X112996067Y-84448664D01*
X113000874Y-84461356D01*
X113005040Y-84474220D01*
X113008565Y-84487229D01*
X113011449Y-84500361D01*
X113013692Y-84513591D01*
X113015294Y-84526894D01*
X113016255Y-84540245D01*
X113016575Y-84553621D01*
X113016255Y-84566998D01*
X113015293Y-84580349D01*
X113013691Y-84593652D01*
X113011448Y-84606882D01*
X113008564Y-84620014D01*
X113005039Y-84633024D01*
X113000873Y-84645887D01*
X112996066Y-84658580D01*
X112990618Y-84671077D01*
X112984530Y-84683354D01*
X112977800Y-84695387D01*
X112970430Y-84707152D01*
X112962419Y-84718623D01*
X112953767Y-84729777D01*
X112944474Y-84740589D01*
X112934540Y-84751035D01*
X112740420Y-84945154D01*
X112938106Y-85142839D01*
X112944849Y-85149930D01*
X112951156Y-85157270D01*
X112957028Y-85164843D01*
X112962465Y-85172632D01*
X112967466Y-85180620D01*
X112972032Y-85188791D01*
X112976162Y-85197129D01*
X112979857Y-85205615D01*
X112983116Y-85214235D01*
X112985940Y-85222971D01*
X112988329Y-85231807D01*
X112990283Y-85240725D01*
X112991802Y-85249710D01*
X112992885Y-85258745D01*
X112993534Y-85267814D01*
X112993747Y-85276899D01*
X112993525Y-85285983D01*
X112992868Y-85295052D01*
X112991776Y-85304086D01*
X112990250Y-85313072D01*
X112988288Y-85321990D01*
X112985891Y-85330826D01*
X112983060Y-85339561D01*
X112979794Y-85348181D01*
X112976093Y-85356668D01*
X112971957Y-85365004D01*
X112967387Y-85373175D01*
X112962382Y-85381163D01*
X112956942Y-85388952D01*
X112951068Y-85396524D01*
X112944759Y-85403864D01*
X112938015Y-85410955D01*
X109974011Y-88374960D01*
X110180649Y-88581602D01*
X110185707Y-88586920D01*
X110190438Y-88592424D01*
X110194843Y-88598102D01*
X110198921Y-88603941D01*
X110202674Y-88609930D01*
X110206100Y-88616055D01*
X110209200Y-88622304D01*
X110211973Y-88628665D01*
X110214420Y-88635126D01*
X110216541Y-88641673D01*
X110218336Y-88648295D01*
X110219804Y-88654979D01*
X110220947Y-88661712D01*
X110221762Y-88668483D01*
X110222252Y-88675279D01*
X110222415Y-88682087D01*
X110222252Y-88688895D01*
X110221762Y-88695691D01*
X110220947Y-88702462D01*
X110219805Y-88709196D01*
X110218336Y-88715880D01*
X110216542Y-88722502D01*
X110214421Y-88729049D01*
X110211974Y-88735510D01*
X110209200Y-88741871D01*
X110206100Y-88748120D01*
X110202674Y-88754246D01*
X110198922Y-88760234D01*
X110194843Y-88766074D01*
X110190438Y-88771752D01*
X110185707Y-88777257D01*
X110180649Y-88782575D01*
X109943501Y-89019720D01*
X109938183Y-89024778D01*
X109932678Y-89029509D01*
X109927000Y-89033914D01*
X109921160Y-89037993D01*
X109915172Y-89041746D01*
X109909047Y-89045172D01*
X109902797Y-89048272D01*
X109896436Y-89051045D01*
X109889975Y-89053492D01*
X109883428Y-89055613D01*
X109876806Y-89057408D01*
X109870122Y-89058876D01*
X109863388Y-89060018D01*
X109856617Y-89060834D01*
X109849822Y-89061323D01*
X109843013Y-89061486D01*
X109836205Y-89061323D01*
X109829409Y-89060834D01*
X109822638Y-89060018D01*
X109815905Y-89058876D01*
X109809221Y-89057407D01*
X109802599Y-89055612D01*
X109796052Y-89053491D01*
X109789591Y-89051044D01*
X109783230Y-89048271D01*
X109776981Y-89045171D01*
X109770856Y-89041745D01*
X109764867Y-89037992D01*
X109759027Y-89033913D01*
X109753349Y-89029509D01*
X109747845Y-89024777D01*
X109742527Y-89019720D01*
X108022554Y-87299749D01*
X108017496Y-87294431D01*
X108012764Y-87288926D01*
X108008358Y-87283247D01*
X108004278Y-87277405D01*
X108000523Y-87271415D01*
X107997095Y-87265287D01*
X107993992Y-87259035D01*
X107991216Y-87252671D01*
X107988765Y-87246207D01*
X107986641Y-87239656D01*
X107984842Y-87233030D01*
X107983370Y-87226342D01*
X107982224Y-87219604D01*
X107981404Y-87212829D01*
X107980910Y-87206029D01*
X107980743Y-87199217D01*
X107980902Y-87192404D01*
X107981387Y-87185604D01*
X107982198Y-87178829D01*
X107983336Y-87172091D01*
X107984801Y-87165403D01*
X107986591Y-87158777D01*
X107988709Y-87152226D01*
X107991153Y-87145762D01*
X107993923Y-87139398D01*
X107997020Y-87133146D01*
X108000444Y-87127018D01*
X108004194Y-87121028D01*
X108008271Y-87115186D01*
X108012675Y-87109507D01*
X108017406Y-87104002D01*
X108022463Y-87098684D01*
X108259611Y-86861536D01*
X108264930Y-86856478D01*
X108270435Y-86851747D01*
X108276114Y-86847343D01*
X108281956Y-86843266D01*
X108287946Y-86839516D01*
X108294074Y-86836092D01*
X108300326Y-86832995D01*
X108306690Y-86830224D01*
X108313154Y-86827781D01*
X108319705Y-86825663D01*
X108326331Y-86823872D01*
X108333019Y-86822408D01*
X108339757Y-86821270D01*
X108346532Y-86820459D01*
X108353332Y-86819974D01*
X108360144Y-86819815D01*
X108366957Y-86819982D01*
X108373757Y-86820476D01*
X108380532Y-86821296D01*
X108387269Y-86822442D01*
X108393957Y-86823915D01*
X108400583Y-86825713D01*
X108407134Y-86827838D01*
X108413598Y-86830288D01*
X108419962Y-86833065D01*
X108426214Y-86836168D01*
X108432341Y-86839596D01*
X108438332Y-86843351D01*
X108444173Y-86847431D01*
X108449852Y-86851837D01*
X108455357Y-86856569D01*
X108460676Y-86861627D01*
X108667222Y-87068174D01*
X111631227Y-84104170D01*
X111638318Y-84097426D01*
X111645659Y-84091118D01*
X111653233Y-84085245D01*
X111661023Y-84079806D01*
X111669013Y-84074803D01*
X111677187Y-84070235D01*
X111685527Y-84066102D01*
X111694016Y-84062404D01*
X111702639Y-84059141D01*
X111711379Y-84056314D01*
X111720218Y-84053921D01*
X111729140Y-84051963D01*
X111738130Y-84050440D01*
X111747169Y-84049353D01*
X111756241Y-84048700D01*
X111765330Y-84048483D01*
X111774420Y-84048700D01*
X111783492Y-84049353D01*
X111792531Y-84050440D01*
X111801521Y-84051963D01*
X111810443Y-84053921D01*
X111819283Y-84056314D01*
X111828022Y-84059141D01*
X111836645Y-84062404D01*
X111845135Y-84066102D01*
X111853475Y-84070235D01*
X111861649Y-84074803D01*
X111869639Y-84079806D01*
X111877430Y-84085245D01*
X111885004Y-84091118D01*
X111892345Y-84097426D01*
X111899436Y-84104170D01*
X112097030Y-84301763D01*
X112291150Y-84107645D01*
X112301596Y-84097711D01*
X112312408Y-84088418D01*
X112323562Y-84079766D01*
X112335033Y-84071755D01*
X112346797Y-84064384D01*
X112358830Y-84057655D01*
X112371107Y-84051566D01*
X112383604Y-84046119D01*
X112396296Y-84041312D01*
X112409160Y-84037146D01*
X112422169Y-84033621D01*
X112435301Y-84030737D01*
X112448531Y-84028493D01*
X112461834Y-84026891D01*
X112475186Y-84025929D01*
X112488562Y-84025609D01*
X112501938Y-84025929D01*
G36*
X112501938Y-84025929D02*
G01*
X112515290Y-84026890D01*
X112528592Y-84028492D01*
X112541822Y-84030735D01*
X112554954Y-84033619D01*
X112567964Y-84037144D01*
X112580827Y-84041309D01*
X112593520Y-84046116D01*
X112606017Y-84051563D01*
X112618294Y-84057652D01*
X112630327Y-84064381D01*
X112642091Y-84071751D01*
X112653563Y-84079762D01*
X112664717Y-84088414D01*
X112675529Y-84097707D01*
X112685974Y-84107641D01*
X112934541Y-84356210D01*
X112944475Y-84366656D01*
X112953768Y-84377468D01*
X112962420Y-84388622D01*
X112970431Y-84400093D01*
X112977802Y-84411857D01*
X112984531Y-84423890D01*
X112990620Y-84436167D01*
X112996067Y-84448664D01*
X113000874Y-84461356D01*
X113005040Y-84474220D01*
X113008565Y-84487229D01*
X113011449Y-84500361D01*
X113013692Y-84513591D01*
X113015294Y-84526894D01*
X113016255Y-84540245D01*
X113016575Y-84553621D01*
X113016255Y-84566998D01*
X113015293Y-84580349D01*
X113013691Y-84593652D01*
X113011448Y-84606882D01*
X113008564Y-84620014D01*
X113005039Y-84633024D01*
X113000873Y-84645887D01*
X112996066Y-84658580D01*
X112990618Y-84671077D01*
X112984530Y-84683354D01*
X112977800Y-84695387D01*
X112970430Y-84707152D01*
X112962419Y-84718623D01*
X112953767Y-84729777D01*
X112944474Y-84740589D01*
X112934540Y-84751035D01*
X112740420Y-84945154D01*
X112938106Y-85142839D01*
X112944849Y-85149930D01*
X112951156Y-85157270D01*
X112957028Y-85164843D01*
X112962465Y-85172632D01*
X112967466Y-85180620D01*
X112972032Y-85188791D01*
X112976162Y-85197129D01*
X112979857Y-85205615D01*
X112983116Y-85214235D01*
X112985940Y-85222971D01*
X112988329Y-85231807D01*
X112990283Y-85240725D01*
X112991802Y-85249710D01*
X112992885Y-85258745D01*
X112993534Y-85267814D01*
X112993747Y-85276899D01*
X112993525Y-85285983D01*
X112992868Y-85295052D01*
X112991776Y-85304086D01*
X112990250Y-85313072D01*
X112988288Y-85321990D01*
X112985891Y-85330826D01*
X112983060Y-85339561D01*
X112979794Y-85348181D01*
X112976093Y-85356668D01*
X112971957Y-85365004D01*
X112967387Y-85373175D01*
X112962382Y-85381163D01*
X112956942Y-85388952D01*
X112951068Y-85396524D01*
X112944759Y-85403864D01*
X112938015Y-85410955D01*
X109974011Y-88374960D01*
X110180649Y-88581602D01*
X110185707Y-88586920D01*
X110190438Y-88592424D01*
X110194843Y-88598102D01*
X110198921Y-88603941D01*
X110202674Y-88609930D01*
X110206100Y-88616055D01*
X110209200Y-88622304D01*
X110211973Y-88628665D01*
X110214420Y-88635126D01*
X110216541Y-88641673D01*
X110218336Y-88648295D01*
X110219804Y-88654979D01*
X110220947Y-88661712D01*
X110221762Y-88668483D01*
X110222252Y-88675279D01*
X110222415Y-88682087D01*
X110222252Y-88688895D01*
X110221762Y-88695691D01*
X110220947Y-88702462D01*
X110219805Y-88709196D01*
X110218336Y-88715880D01*
X110216542Y-88722502D01*
X110214421Y-88729049D01*
X110211974Y-88735510D01*
X110209200Y-88741871D01*
X110206100Y-88748120D01*
X110202674Y-88754246D01*
X110198922Y-88760234D01*
X110194843Y-88766074D01*
X110190438Y-88771752D01*
X110185707Y-88777257D01*
X110180649Y-88782575D01*
X109943501Y-89019720D01*
X109938183Y-89024778D01*
X109932678Y-89029509D01*
X109927000Y-89033914D01*
X109921160Y-89037993D01*
X109915172Y-89041746D01*
X109909047Y-89045172D01*
X109902797Y-89048272D01*
X109896436Y-89051045D01*
X109889975Y-89053492D01*
X109883428Y-89055613D01*
X109876806Y-89057408D01*
X109870122Y-89058876D01*
X109863388Y-89060018D01*
X109856617Y-89060834D01*
X109849822Y-89061323D01*
X109843013Y-89061486D01*
X109836205Y-89061323D01*
X109829409Y-89060834D01*
X109822638Y-89060018D01*
X109815905Y-89058876D01*
X109809221Y-89057407D01*
X109802599Y-89055612D01*
X109796052Y-89053491D01*
X109789591Y-89051044D01*
X109783230Y-89048271D01*
X109776981Y-89045171D01*
X109770856Y-89041745D01*
X109764867Y-89037992D01*
X109759027Y-89033913D01*
X109753349Y-89029509D01*
X109747845Y-89024777D01*
X109742527Y-89019720D01*
X108022554Y-87299749D01*
X108017496Y-87294431D01*
X108012764Y-87288926D01*
X108008358Y-87283247D01*
X108004278Y-87277405D01*
X108000523Y-87271415D01*
X107997095Y-87265287D01*
X107993992Y-87259035D01*
X107991216Y-87252671D01*
X107988765Y-87246207D01*
X107986641Y-87239656D01*
X107984842Y-87233030D01*
X107983370Y-87226342D01*
X107982224Y-87219604D01*
X107981404Y-87212829D01*
X107980910Y-87206029D01*
X107980743Y-87199217D01*
X107980902Y-87192404D01*
X107981387Y-87185604D01*
X107982198Y-87178829D01*
X107983336Y-87172091D01*
X107984801Y-87165403D01*
X107986591Y-87158777D01*
X107988709Y-87152226D01*
X107991153Y-87145762D01*
X107993923Y-87139398D01*
X107997020Y-87133146D01*
X108000444Y-87127018D01*
X108004194Y-87121028D01*
X108008271Y-87115186D01*
X108012675Y-87109507D01*
X108017406Y-87104002D01*
X108022463Y-87098684D01*
X108259611Y-86861536D01*
X108264930Y-86856478D01*
X108270435Y-86851747D01*
X108276114Y-86847343D01*
X108281956Y-86843266D01*
X108287946Y-86839516D01*
X108294074Y-86836092D01*
X108300326Y-86832995D01*
X108306690Y-86830224D01*
X108313154Y-86827781D01*
X108319705Y-86825663D01*
X108326331Y-86823872D01*
X108333019Y-86822408D01*
X108339757Y-86821270D01*
X108346532Y-86820459D01*
X108353332Y-86819974D01*
X108360144Y-86819815D01*
X108366957Y-86819982D01*
X108373757Y-86820476D01*
X108380532Y-86821296D01*
X108387269Y-86822442D01*
X108393957Y-86823915D01*
X108400583Y-86825713D01*
X108407134Y-86827838D01*
X108413598Y-86830288D01*
X108419962Y-86833065D01*
X108426214Y-86836168D01*
X108432341Y-86839596D01*
X108438332Y-86843351D01*
X108444173Y-86847431D01*
X108449852Y-86851837D01*
X108455357Y-86856569D01*
X108460676Y-86861627D01*
X108667222Y-87068174D01*
X111631227Y-84104170D01*
X111638318Y-84097426D01*
X111645659Y-84091118D01*
X111653233Y-84085245D01*
X111661023Y-84079806D01*
X111669013Y-84074803D01*
X111677187Y-84070235D01*
X111685527Y-84066102D01*
X111694016Y-84062404D01*
X111702639Y-84059141D01*
X111711379Y-84056314D01*
X111720218Y-84053921D01*
X111729140Y-84051963D01*
X111738130Y-84050440D01*
X111747169Y-84049353D01*
X111756241Y-84048700D01*
X111765330Y-84048483D01*
X111774420Y-84048700D01*
X111783492Y-84049353D01*
X111792531Y-84050440D01*
X111801521Y-84051963D01*
X111810443Y-84053921D01*
X111819283Y-84056314D01*
X111828022Y-84059141D01*
X111836645Y-84062404D01*
X111845135Y-84066102D01*
X111853475Y-84070235D01*
X111861649Y-84074803D01*
X111869639Y-84079806D01*
X111877430Y-84085245D01*
X111885004Y-84091118D01*
X111892345Y-84097426D01*
X111899436Y-84104170D01*
X112097030Y-84301763D01*
X112291150Y-84107645D01*
X112301596Y-84097711D01*
X112312408Y-84088418D01*
X112323562Y-84079766D01*
X112335033Y-84071755D01*
X112346797Y-84064384D01*
X112358830Y-84057655D01*
X112371107Y-84051566D01*
X112383604Y-84046119D01*
X112396296Y-84041312D01*
X112409160Y-84037146D01*
X112422169Y-84033621D01*
X112435301Y-84030737D01*
X112448531Y-84028493D01*
X112461834Y-84026891D01*
X112475186Y-84025929D01*
X112488562Y-84025609D01*
X112501938Y-84025929D01*
G37*
D11*
X114623597Y-82748037D02*
X114698023Y-82716532D01*
X115287938Y-82610614D02*
X115360613Y-82617658D01*
X116310073Y-83788983D02*
X116305255Y-83890358D01*
X112027705Y-90159466D02*
X111990718Y-90272093D01*
X114698023Y-82716532D02*
X114772310Y-82688741D01*
X112810255Y-84231928D02*
X113114546Y-83929162D01*
X112907904Y-91630752D02*
X112992651Y-91620184D01*
X115503557Y-82645743D02*
X115573292Y-82666710D01*
X111943509Y-91023284D02*
X111965409Y-91097604D01*
X115573292Y-82666710D02*
X115641511Y-82692243D01*
X112072329Y-90042865D02*
X112027705Y-90159466D01*
X116143136Y-83121411D02*
X116181483Y-83190567D01*
X115063039Y-90346907D02*
X115499012Y-89950900D01*
X115772332Y-82756862D02*
X115834400Y-82795873D01*
X115707947Y-82722307D02*
X115772332Y-82756862D01*
X114848255Y-90533095D02*
X115063039Y-90346907D01*
X114772310Y-82688741D02*
X114846454Y-82664811D01*
X116250129Y-84217494D02*
X116217306Y-84334085D01*
X114426980Y-90874889D02*
X114636110Y-90709552D01*
X113628139Y-91397231D02*
X113821444Y-91290276D01*
X113167133Y-91582519D02*
X113256603Y-91555539D01*
X112203561Y-91446203D02*
X112259001Y-91487553D01*
X116275550Y-84104650D02*
X116250129Y-84217494D01*
X114965113Y-86307247D02*
X114699372Y-86623905D01*
X115360613Y-82617658D02*
X115432575Y-82629380D01*
X116181483Y-83190567D02*
X116215371Y-83263879D01*
X114023874Y-83115924D02*
X114174447Y-83006723D01*
X111927276Y-90944481D02*
X111943509Y-91023284D01*
X116308559Y-83691506D02*
X116310073Y-83788983D01*
X116128380Y-84578366D02*
X116071742Y-84705980D01*
X111912688Y-90773652D02*
X111916929Y-90861251D01*
X116100598Y-83056451D02*
X116143136Y-83121411D01*
X112992651Y-91620184D02*
X113079124Y-91604112D01*
X113114546Y-83929162D02*
X113418482Y-83635903D01*
X112381411Y-91555387D02*
X112447942Y-91581758D01*
X112152255Y-91399972D02*
X112203561Y-91446203D01*
X111992757Y-91167384D02*
X112025335Y-91232568D01*
X111923395Y-90585571D02*
X111914770Y-90681740D01*
X115834400Y-82795873D02*
X115893881Y-82839301D01*
X113721710Y-83361655D02*
X113872947Y-83234631D01*
X116305255Y-83890358D02*
X116293836Y-83995593D01*
X113439733Y-91486115D02*
X113628139Y-91397231D01*
X116287605Y-83508392D02*
X116300980Y-83597963D01*
X112744467Y-91635604D02*
X112825103Y-91635873D01*
X113079124Y-91604112D02*
X113167133Y-91582519D01*
X112825103Y-91635873D02*
X112907904Y-91630752D01*
X112826467Y-88830223D02*
X112608853Y-89122018D01*
X114474353Y-82821591D02*
X114623597Y-82748037D01*
X116300980Y-83597963D02*
X116308559Y-83691506D01*
X113256603Y-91555539D02*
X113439733Y-91486115D01*
X112517732Y-91603021D02*
X112590562Y-91619121D01*
X115850997Y-85110017D02*
X115664715Y-85395260D01*
X114994287Y-82629130D02*
X115067965Y-82617677D01*
X115893881Y-82839301D02*
X115950509Y-82887111D01*
X114846454Y-82664811D02*
X114920448Y-82644891D01*
X111961151Y-90380691D02*
X111938783Y-90485202D01*
D14*
X139259774Y-55800828D02*
X138759774Y-57300828D01*
X138759774Y-57300828D02*
X138259774Y-55800828D01*
X136902632Y-57157971D02*
X136974060Y-57229400D01*
X136974060Y-57229400D02*
X137188346Y-57300828D01*
X137188346Y-57300828D02*
X137331203Y-57300828D01*
X137331203Y-57300828D02*
X137545489Y-57229400D01*
X137545489Y-57229400D02*
X137688346Y-57086542D01*
X137688346Y-57086542D02*
X137759775Y-56943685D01*
X137759775Y-56943685D02*
X137831203Y-56657971D01*
X137831203Y-56657971D02*
X137831203Y-56443685D01*
X137831203Y-56443685D02*
X137759775Y-56157971D01*
X137759775Y-56157971D02*
X137688346Y-56015114D01*
X137688346Y-56015114D02*
X137545489Y-55872257D01*
X137545489Y-55872257D02*
X137331203Y-55800828D01*
X137331203Y-55800828D02*
X137188346Y-55800828D01*
X137188346Y-55800828D02*
X136974060Y-55872257D01*
X136974060Y-55872257D02*
X136902632Y-55943685D01*
X135402632Y-57157971D02*
X135474060Y-57229400D01*
X135474060Y-57229400D02*
X135688346Y-57300828D01*
X135688346Y-57300828D02*
X135831203Y-57300828D01*
X135831203Y-57300828D02*
X136045489Y-57229400D01*
X136045489Y-57229400D02*
X136188346Y-57086542D01*
X136188346Y-57086542D02*
X136259775Y-56943685D01*
X136259775Y-56943685D02*
X136331203Y-56657971D01*
X136331203Y-56657971D02*
X136331203Y-56443685D01*
X136331203Y-56443685D02*
X136259775Y-56157971D01*
X136259775Y-56157971D02*
X136188346Y-56015114D01*
X136188346Y-56015114D02*
X136045489Y-55872257D01*
X136045489Y-55872257D02*
X135831203Y-55800828D01*
X135831203Y-55800828D02*
X135688346Y-55800828D01*
X135688346Y-55800828D02*
X135474060Y-55872257D01*
X135474060Y-55872257D02*
X135402632Y-55943685D01*
X120945489Y-71800828D02*
X120945489Y-70300828D01*
X120945489Y-71015114D02*
X120088346Y-71015114D01*
X120088346Y-71800828D02*
X120088346Y-70300828D01*
X118731203Y-71800828D02*
X118731203Y-71015114D01*
X118731203Y-71015114D02*
X118802631Y-70872257D01*
X118802631Y-70872257D02*
X118945488Y-70800828D01*
X118945488Y-70800828D02*
X119231203Y-70800828D01*
X119231203Y-70800828D02*
X119374060Y-70872257D01*
X118731203Y-71729400D02*
X118874060Y-71800828D01*
X118874060Y-71800828D02*
X119231203Y-71800828D01*
X119231203Y-71800828D02*
X119374060Y-71729400D01*
X119374060Y-71729400D02*
X119445488Y-71586542D01*
X119445488Y-71586542D02*
X119445488Y-71443685D01*
X119445488Y-71443685D02*
X119374060Y-71300828D01*
X119374060Y-71300828D02*
X119231203Y-71229400D01*
X119231203Y-71229400D02*
X118874060Y-71229400D01*
X118874060Y-71229400D02*
X118731203Y-71157971D01*
X118231202Y-70800828D02*
X117659774Y-70800828D01*
X118016917Y-70300828D02*
X118016917Y-71586542D01*
X118016917Y-71586542D02*
X117945488Y-71729400D01*
X117945488Y-71729400D02*
X117802631Y-71800828D01*
X117802631Y-71800828D02*
X117659774Y-71800828D01*
X116516917Y-71729400D02*
X116659774Y-71800828D01*
X116659774Y-71800828D02*
X116945488Y-71800828D01*
X116945488Y-71800828D02*
X117088345Y-71729400D01*
X117088345Y-71729400D02*
X117159774Y-71657971D01*
X117159774Y-71657971D02*
X117231202Y-71515114D01*
X117231202Y-71515114D02*
X117231202Y-71086542D01*
X117231202Y-71086542D02*
X117159774Y-70943685D01*
X117159774Y-70943685D02*
X117088345Y-70872257D01*
X117088345Y-70872257D02*
X116945488Y-70800828D01*
X116945488Y-70800828D02*
X116659774Y-70800828D01*
X116659774Y-70800828D02*
X116516917Y-70872257D01*
X115874060Y-71800828D02*
X115874060Y-70300828D01*
X115231203Y-71800828D02*
X115231203Y-71015114D01*
X115231203Y-71015114D02*
X115302631Y-70872257D01*
X115302631Y-70872257D02*
X115445488Y-70800828D01*
X115445488Y-70800828D02*
X115659774Y-70800828D01*
X115659774Y-70800828D02*
X115802631Y-70872257D01*
X115802631Y-70872257D02*
X115874060Y-70943685D01*
X113588345Y-70800828D02*
X113016917Y-70800828D01*
X113374060Y-71800828D02*
X113374060Y-70515114D01*
X113374060Y-70515114D02*
X113302631Y-70372257D01*
X113302631Y-70372257D02*
X113159774Y-70300828D01*
X113159774Y-70300828D02*
X113016917Y-70300828D01*
X112516917Y-71800828D02*
X112516917Y-70800828D01*
X112516917Y-70300828D02*
X112588345Y-70372257D01*
X112588345Y-70372257D02*
X112516917Y-70443685D01*
X112516917Y-70443685D02*
X112445488Y-70372257D01*
X112445488Y-70372257D02*
X112516917Y-70300828D01*
X112516917Y-70300828D02*
X112516917Y-70443685D01*
X111588345Y-71800828D02*
X111731202Y-71729400D01*
X111731202Y-71729400D02*
X111802631Y-71586542D01*
X111802631Y-71586542D02*
X111802631Y-70300828D01*
X110802631Y-71800828D02*
X110945488Y-71729400D01*
X110945488Y-71729400D02*
X111016917Y-71586542D01*
X111016917Y-71586542D02*
X111016917Y-70300828D01*
X120445489Y-66800828D02*
X120445489Y-65300828D01*
X119588346Y-66800828D02*
X120231203Y-65943685D01*
X119588346Y-65300828D02*
X120445489Y-66157971D01*
X118374060Y-66729400D02*
X118516917Y-66800828D01*
X118516917Y-66800828D02*
X118802632Y-66800828D01*
X118802632Y-66800828D02*
X118945489Y-66729400D01*
X118945489Y-66729400D02*
X119016917Y-66586542D01*
X119016917Y-66586542D02*
X119016917Y-66015114D01*
X119016917Y-66015114D02*
X118945489Y-65872257D01*
X118945489Y-65872257D02*
X118802632Y-65800828D01*
X118802632Y-65800828D02*
X118516917Y-65800828D01*
X118516917Y-65800828D02*
X118374060Y-65872257D01*
X118374060Y-65872257D02*
X118302632Y-66015114D01*
X118302632Y-66015114D02*
X118302632Y-66157971D01*
X118302632Y-66157971D02*
X119016917Y-66300828D01*
X117088346Y-66729400D02*
X117231203Y-66800828D01*
X117231203Y-66800828D02*
X117516918Y-66800828D01*
X117516918Y-66800828D02*
X117659775Y-66729400D01*
X117659775Y-66729400D02*
X117731203Y-66586542D01*
X117731203Y-66586542D02*
X117731203Y-66015114D01*
X117731203Y-66015114D02*
X117659775Y-65872257D01*
X117659775Y-65872257D02*
X117516918Y-65800828D01*
X117516918Y-65800828D02*
X117231203Y-65800828D01*
X117231203Y-65800828D02*
X117088346Y-65872257D01*
X117088346Y-65872257D02*
X117016918Y-66015114D01*
X117016918Y-66015114D02*
X117016918Y-66157971D01*
X117016918Y-66157971D02*
X117731203Y-66300828D01*
X116374061Y-65800828D02*
X116374061Y-67300828D01*
X116374061Y-65872257D02*
X116231204Y-65800828D01*
X116231204Y-65800828D02*
X115945489Y-65800828D01*
X115945489Y-65800828D02*
X115802632Y-65872257D01*
X115802632Y-65872257D02*
X115731204Y-65943685D01*
X115731204Y-65943685D02*
X115659775Y-66086542D01*
X115659775Y-66086542D02*
X115659775Y-66515114D01*
X115659775Y-66515114D02*
X115731204Y-66657971D01*
X115731204Y-66657971D02*
X115802632Y-66729400D01*
X115802632Y-66729400D02*
X115945489Y-66800828D01*
X115945489Y-66800828D02*
X116231204Y-66800828D01*
X116231204Y-66800828D02*
X116374061Y-66729400D01*
X113659775Y-66800828D02*
X113802632Y-66729400D01*
X113802632Y-66729400D02*
X113874061Y-66657971D01*
X113874061Y-66657971D02*
X113945489Y-66515114D01*
X113945489Y-66515114D02*
X113945489Y-66086542D01*
X113945489Y-66086542D02*
X113874061Y-65943685D01*
X113874061Y-65943685D02*
X113802632Y-65872257D01*
X113802632Y-65872257D02*
X113659775Y-65800828D01*
X113659775Y-65800828D02*
X113445489Y-65800828D01*
X113445489Y-65800828D02*
X113302632Y-65872257D01*
X113302632Y-65872257D02*
X113231204Y-65943685D01*
X113231204Y-65943685D02*
X113159775Y-66086542D01*
X113159775Y-66086542D02*
X113159775Y-66515114D01*
X113159775Y-66515114D02*
X113231204Y-66657971D01*
X113231204Y-66657971D02*
X113302632Y-66729400D01*
X113302632Y-66729400D02*
X113445489Y-66800828D01*
X113445489Y-66800828D02*
X113659775Y-66800828D01*
X111874061Y-65800828D02*
X111874061Y-66800828D01*
X112516918Y-65800828D02*
X112516918Y-66586542D01*
X112516918Y-66586542D02*
X112445489Y-66729400D01*
X112445489Y-66729400D02*
X112302632Y-66800828D01*
X112302632Y-66800828D02*
X112088346Y-66800828D01*
X112088346Y-66800828D02*
X111945489Y-66729400D01*
X111945489Y-66729400D02*
X111874061Y-66657971D01*
X111374060Y-65800828D02*
X110802632Y-65800828D01*
X111159775Y-65300828D02*
X111159775Y-66586542D01*
X111159775Y-66586542D02*
X111088346Y-66729400D01*
X111088346Y-66729400D02*
X110945489Y-66800828D01*
X110945489Y-66800828D02*
X110802632Y-66800828D01*
X108516917Y-56229400D02*
X108374060Y-56300828D01*
X108374060Y-56300828D02*
X108088346Y-56300828D01*
X108088346Y-56300828D02*
X107945489Y-56229400D01*
X107945489Y-56229400D02*
X107874060Y-56086542D01*
X107874060Y-56086542D02*
X107874060Y-56015114D01*
X107874060Y-56015114D02*
X107945489Y-55872257D01*
X107945489Y-55872257D02*
X108088346Y-55800828D01*
X108088346Y-55800828D02*
X108302632Y-55800828D01*
X108302632Y-55800828D02*
X108445489Y-55729400D01*
X108445489Y-55729400D02*
X108516917Y-55586542D01*
X108516917Y-55586542D02*
X108516917Y-55515114D01*
X108516917Y-55515114D02*
X108445489Y-55372257D01*
X108445489Y-55372257D02*
X108302632Y-55300828D01*
X108302632Y-55300828D02*
X108088346Y-55300828D01*
X108088346Y-55300828D02*
X107945489Y-55372257D01*
X106588346Y-56229400D02*
X106731203Y-56300828D01*
X106731203Y-56300828D02*
X107016917Y-56300828D01*
X107016917Y-56300828D02*
X107159774Y-56229400D01*
X107159774Y-56229400D02*
X107231203Y-56157971D01*
X107231203Y-56157971D02*
X107302631Y-56015114D01*
X107302631Y-56015114D02*
X107302631Y-55586542D01*
X107302631Y-55586542D02*
X107231203Y-55443685D01*
X107231203Y-55443685D02*
X107159774Y-55372257D01*
X107159774Y-55372257D02*
X107016917Y-55300828D01*
X107016917Y-55300828D02*
X106731203Y-55300828D01*
X106731203Y-55300828D02*
X106588346Y-55372257D01*
X105945489Y-56300828D02*
X105945489Y-55300828D01*
X105945489Y-55586542D02*
X105874060Y-55443685D01*
X105874060Y-55443685D02*
X105802632Y-55372257D01*
X105802632Y-55372257D02*
X105659774Y-55300828D01*
X105659774Y-55300828D02*
X105516917Y-55300828D01*
X104445489Y-56229400D02*
X104588346Y-56300828D01*
X104588346Y-56300828D02*
X104874061Y-56300828D01*
X104874061Y-56300828D02*
X105016918Y-56229400D01*
X105016918Y-56229400D02*
X105088346Y-56086542D01*
X105088346Y-56086542D02*
X105088346Y-55515114D01*
X105088346Y-55515114D02*
X105016918Y-55372257D01*
X105016918Y-55372257D02*
X104874061Y-55300828D01*
X104874061Y-55300828D02*
X104588346Y-55300828D01*
X104588346Y-55300828D02*
X104445489Y-55372257D01*
X104445489Y-55372257D02*
X104374061Y-55515114D01*
X104374061Y-55515114D02*
X104374061Y-55657971D01*
X104374061Y-55657971D02*
X105088346Y-55800828D01*
X103159775Y-56229400D02*
X103302632Y-56300828D01*
X103302632Y-56300828D02*
X103588347Y-56300828D01*
X103588347Y-56300828D02*
X103731204Y-56229400D01*
X103731204Y-56229400D02*
X103802632Y-56086542D01*
X103802632Y-56086542D02*
X103802632Y-55515114D01*
X103802632Y-55515114D02*
X103731204Y-55372257D01*
X103731204Y-55372257D02*
X103588347Y-55300828D01*
X103588347Y-55300828D02*
X103302632Y-55300828D01*
X103302632Y-55300828D02*
X103159775Y-55372257D01*
X103159775Y-55372257D02*
X103088347Y-55515114D01*
X103088347Y-55515114D02*
X103088347Y-55657971D01*
X103088347Y-55657971D02*
X103802632Y-55800828D01*
X102445490Y-55300828D02*
X102445490Y-56300828D01*
X102445490Y-55443685D02*
X102374061Y-55372257D01*
X102374061Y-55372257D02*
X102231204Y-55300828D01*
X102231204Y-55300828D02*
X102016918Y-55300828D01*
X102016918Y-55300828D02*
X101874061Y-55372257D01*
X101874061Y-55372257D02*
X101802633Y-55515114D01*
X101802633Y-55515114D02*
X101802633Y-56300828D01*
X143559774Y-50672257D02*
X143702632Y-50600828D01*
X143702632Y-50600828D02*
X143916917Y-50600828D01*
X143916917Y-50600828D02*
X144131203Y-50672257D01*
X144131203Y-50672257D02*
X144274060Y-50815114D01*
X144274060Y-50815114D02*
X144345489Y-50957971D01*
X144345489Y-50957971D02*
X144416917Y-51243685D01*
X144416917Y-51243685D02*
X144416917Y-51457971D01*
X144416917Y-51457971D02*
X144345489Y-51743685D01*
X144345489Y-51743685D02*
X144274060Y-51886542D01*
X144274060Y-51886542D02*
X144131203Y-52029400D01*
X144131203Y-52029400D02*
X143916917Y-52100828D01*
X143916917Y-52100828D02*
X143774060Y-52100828D01*
X143774060Y-52100828D02*
X143559774Y-52029400D01*
X143559774Y-52029400D02*
X143488346Y-51957971D01*
X143488346Y-51957971D02*
X143488346Y-51457971D01*
X143488346Y-51457971D02*
X143774060Y-51457971D01*
X142845489Y-52100828D02*
X142845489Y-50600828D01*
X142845489Y-50600828D02*
X141988346Y-52100828D01*
X141988346Y-52100828D02*
X141988346Y-50600828D01*
X141274060Y-52100828D02*
X141274060Y-50600828D01*
X141274060Y-50600828D02*
X140916917Y-50600828D01*
X140916917Y-50600828D02*
X140702631Y-50672257D01*
X140702631Y-50672257D02*
X140559774Y-50815114D01*
X140559774Y-50815114D02*
X140488345Y-50957971D01*
X140488345Y-50957971D02*
X140416917Y-51243685D01*
X140416917Y-51243685D02*
X140416917Y-51457971D01*
X140416917Y-51457971D02*
X140488345Y-51743685D01*
X140488345Y-51743685D02*
X140559774Y-51886542D01*
X140559774Y-51886542D02*
X140702631Y-52029400D01*
X140702631Y-52029400D02*
X140916917Y-52100828D01*
X140916917Y-52100828D02*
X141274060Y-52100828D01*
X129157971Y-72811653D02*
X129229400Y-72740225D01*
X129229400Y-72740225D02*
X129300828Y-72525939D01*
X129300828Y-72525939D02*
X129300828Y-72383082D01*
X129300828Y-72383082D02*
X129229400Y-72168796D01*
X129229400Y-72168796D02*
X129086542Y-72025939D01*
X129086542Y-72025939D02*
X128943685Y-71954510D01*
X128943685Y-71954510D02*
X128657971Y-71883082D01*
X128657971Y-71883082D02*
X128443685Y-71883082D01*
X128443685Y-71883082D02*
X128157971Y-71954510D01*
X128157971Y-71954510D02*
X128015114Y-72025939D01*
X128015114Y-72025939D02*
X127872257Y-72168796D01*
X127872257Y-72168796D02*
X127800828Y-72383082D01*
X127800828Y-72383082D02*
X127800828Y-72525939D01*
X127800828Y-72525939D02*
X127872257Y-72740225D01*
X127872257Y-72740225D02*
X127943685Y-72811653D01*
X129300828Y-74311653D02*
X128586542Y-73811653D01*
X129300828Y-73454510D02*
X127800828Y-73454510D01*
X127800828Y-73454510D02*
X127800828Y-74025939D01*
X127800828Y-74025939D02*
X127872257Y-74168796D01*
X127872257Y-74168796D02*
X127943685Y-74240225D01*
X127943685Y-74240225D02*
X128086542Y-74311653D01*
X128086542Y-74311653D02*
X128300828Y-74311653D01*
X128300828Y-74311653D02*
X128443685Y-74240225D01*
X128443685Y-74240225D02*
X128515114Y-74168796D01*
X128515114Y-74168796D02*
X128586542Y-74025939D01*
X128586542Y-74025939D02*
X128586542Y-73454510D01*
X127943685Y-74883082D02*
X127872257Y-74954510D01*
X127872257Y-74954510D02*
X127800828Y-75097368D01*
X127800828Y-75097368D02*
X127800828Y-75454510D01*
X127800828Y-75454510D02*
X127872257Y-75597368D01*
X127872257Y-75597368D02*
X127943685Y-75668796D01*
X127943685Y-75668796D02*
X128086542Y-75740225D01*
X128086542Y-75740225D02*
X128229400Y-75740225D01*
X128229400Y-75740225D02*
X128443685Y-75668796D01*
X128443685Y-75668796D02*
X129300828Y-74811653D01*
X129300828Y-74811653D02*
X129300828Y-75740225D01*
X127800828Y-76668796D02*
X127800828Y-76811653D01*
X127800828Y-76811653D02*
X127872257Y-76954510D01*
X127872257Y-76954510D02*
X127943685Y-77025939D01*
X127943685Y-77025939D02*
X128086542Y-77097367D01*
X128086542Y-77097367D02*
X128372257Y-77168796D01*
X128372257Y-77168796D02*
X128729400Y-77168796D01*
X128729400Y-77168796D02*
X129015114Y-77097367D01*
X129015114Y-77097367D02*
X129157971Y-77025939D01*
X129157971Y-77025939D02*
X129229400Y-76954510D01*
X129229400Y-76954510D02*
X129300828Y-76811653D01*
X129300828Y-76811653D02*
X129300828Y-76668796D01*
X129300828Y-76668796D02*
X129229400Y-76525939D01*
X129229400Y-76525939D02*
X129157971Y-76454510D01*
X129157971Y-76454510D02*
X129015114Y-76383081D01*
X129015114Y-76383081D02*
X128729400Y-76311653D01*
X128729400Y-76311653D02*
X128372257Y-76311653D01*
X128372257Y-76311653D02*
X128086542Y-76383081D01*
X128086542Y-76383081D02*
X127943685Y-76454510D01*
X127943685Y-76454510D02*
X127872257Y-76525939D01*
X127872257Y-76525939D02*
X127800828Y-76668796D01*
X127943685Y-77740224D02*
X127872257Y-77811652D01*
X127872257Y-77811652D02*
X127800828Y-77954510D01*
X127800828Y-77954510D02*
X127800828Y-78311652D01*
X127800828Y-78311652D02*
X127872257Y-78454510D01*
X127872257Y-78454510D02*
X127943685Y-78525938D01*
X127943685Y-78525938D02*
X128086542Y-78597367D01*
X128086542Y-78597367D02*
X128229400Y-78597367D01*
X128229400Y-78597367D02*
X128443685Y-78525938D01*
X128443685Y-78525938D02*
X129300828Y-77668795D01*
X129300828Y-77668795D02*
X129300828Y-78597367D01*
X127800828Y-79097366D02*
X127800828Y-80025938D01*
X127800828Y-80025938D02*
X128372257Y-79525938D01*
X128372257Y-79525938D02*
X128372257Y-79740223D01*
X128372257Y-79740223D02*
X128443685Y-79883081D01*
X128443685Y-79883081D02*
X128515114Y-79954509D01*
X128515114Y-79954509D02*
X128657971Y-80025938D01*
X128657971Y-80025938D02*
X129015114Y-80025938D01*
X129015114Y-80025938D02*
X129157971Y-79954509D01*
X129157971Y-79954509D02*
X129229400Y-79883081D01*
X129229400Y-79883081D02*
X129300828Y-79740223D01*
X129300828Y-79740223D02*
X129300828Y-79311652D01*
X129300828Y-79311652D02*
X129229400Y-79168795D01*
X129229400Y-79168795D02*
X129157971Y-79097366D01*
D15*
X133773183Y-51590608D02*
X133392231Y-51590608D01*
X133630326Y-52257275D02*
X133630326Y-51400132D01*
X133630326Y-51400132D02*
X133582707Y-51304894D01*
X133582707Y-51304894D02*
X133487469Y-51257275D01*
X133487469Y-51257275D02*
X133392231Y-51257275D01*
X133058897Y-52257275D02*
X133058897Y-51590608D01*
X133058897Y-51781084D02*
X133011278Y-51685846D01*
X133011278Y-51685846D02*
X132963659Y-51638227D01*
X132963659Y-51638227D02*
X132868421Y-51590608D01*
X132868421Y-51590608D02*
X132773183Y-51590608D01*
X132058897Y-52209656D02*
X132154135Y-52257275D01*
X132154135Y-52257275D02*
X132344611Y-52257275D01*
X132344611Y-52257275D02*
X132439849Y-52209656D01*
X132439849Y-52209656D02*
X132487468Y-52114417D01*
X132487468Y-52114417D02*
X132487468Y-51733465D01*
X132487468Y-51733465D02*
X132439849Y-51638227D01*
X132439849Y-51638227D02*
X132344611Y-51590608D01*
X132344611Y-51590608D02*
X132154135Y-51590608D01*
X132154135Y-51590608D02*
X132058897Y-51638227D01*
X132058897Y-51638227D02*
X132011278Y-51733465D01*
X132011278Y-51733465D02*
X132011278Y-51828703D01*
X132011278Y-51828703D02*
X132487468Y-51923941D01*
X131154135Y-51590608D02*
X131154135Y-52590608D01*
X131154135Y-52209656D02*
X131249373Y-52257275D01*
X131249373Y-52257275D02*
X131439849Y-52257275D01*
X131439849Y-52257275D02*
X131535087Y-52209656D01*
X131535087Y-52209656D02*
X131582706Y-52162036D01*
X131582706Y-52162036D02*
X131630325Y-52066798D01*
X131630325Y-52066798D02*
X131630325Y-51781084D01*
X131630325Y-51781084D02*
X131582706Y-51685846D01*
X131582706Y-51685846D02*
X131535087Y-51638227D01*
X131535087Y-51638227D02*
X131439849Y-51590608D01*
X131439849Y-51590608D02*
X131249373Y-51590608D01*
X131249373Y-51590608D02*
X131154135Y-51638227D01*
X130677944Y-52019179D02*
X130630325Y-51971560D01*
X130630325Y-51971560D02*
X130487468Y-51923941D01*
X130487468Y-51923941D02*
X130344611Y-51971560D01*
X130344611Y-51971560D02*
X130249373Y-52066798D01*
X130249373Y-52066798D02*
X130106516Y-52114417D01*
X130106516Y-52114417D02*
X129963659Y-52066798D01*
X129963659Y-52066798D02*
X129916040Y-52019179D01*
X130677944Y-51733465D02*
X130630325Y-51685846D01*
X130630325Y-51685846D02*
X130487468Y-51638227D01*
X130487468Y-51638227D02*
X130344611Y-51685846D01*
X130344611Y-51685846D02*
X130249373Y-51781084D01*
X130249373Y-51781084D02*
X130106516Y-51828703D01*
X130106516Y-51828703D02*
X129963659Y-51781084D01*
X129963659Y-51781084D02*
X129916040Y-51733465D01*
X125106515Y-52257275D02*
X125677943Y-52257275D01*
X125392229Y-52257275D02*
X125392229Y-51257275D01*
X125392229Y-51257275D02*
X125487467Y-51400132D01*
X125487467Y-51400132D02*
X125582705Y-51495370D01*
X125582705Y-51495370D02*
X125677943Y-51542989D01*
X124677943Y-52162036D02*
X124630324Y-52209656D01*
X124630324Y-52209656D02*
X124677943Y-52257275D01*
X124677943Y-52257275D02*
X124725562Y-52209656D01*
X124725562Y-52209656D02*
X124677943Y-52162036D01*
X124677943Y-52162036D02*
X124677943Y-52257275D01*
X123773182Y-51590608D02*
X123773182Y-52257275D01*
X124011277Y-51209656D02*
X124249372Y-51923941D01*
X124249372Y-51923941D02*
X123630325Y-51923941D01*
X122820801Y-51590608D02*
X122820801Y-52257275D01*
X123058896Y-51209656D02*
X123296991Y-51923941D01*
X123296991Y-51923941D02*
X122677944Y-51923941D01*
X129535087Y-54248171D02*
X129582706Y-54200552D01*
X129582706Y-54200552D02*
X129677944Y-54057695D01*
X129677944Y-54057695D02*
X129725563Y-53962457D01*
X129725563Y-53962457D02*
X129773182Y-53819600D01*
X129773182Y-53819600D02*
X129820801Y-53581504D01*
X129820801Y-53581504D02*
X129820801Y-53391028D01*
X129820801Y-53391028D02*
X129773182Y-53152933D01*
X129773182Y-53152933D02*
X129725563Y-53010076D01*
X129725563Y-53010076D02*
X129677944Y-52914838D01*
X129677944Y-52914838D02*
X129582706Y-52771980D01*
X129582706Y-52771980D02*
X129535087Y-52724361D01*
X128582706Y-53867219D02*
X128916039Y-53391028D01*
X129154134Y-53867219D02*
X129154134Y-52867219D01*
X129154134Y-52867219D02*
X128773182Y-52867219D01*
X128773182Y-52867219D02*
X128677944Y-52914838D01*
X128677944Y-52914838D02*
X128630325Y-52962457D01*
X128630325Y-52962457D02*
X128582706Y-53057695D01*
X128582706Y-53057695D02*
X128582706Y-53200552D01*
X128582706Y-53200552D02*
X128630325Y-53295790D01*
X128630325Y-53295790D02*
X128677944Y-53343409D01*
X128677944Y-53343409D02*
X128773182Y-53391028D01*
X128773182Y-53391028D02*
X129154134Y-53391028D01*
X127630325Y-53867219D02*
X128201753Y-53867219D01*
X127916039Y-53867219D02*
X127916039Y-52867219D01*
X127916039Y-52867219D02*
X128011277Y-53010076D01*
X128011277Y-53010076D02*
X128106515Y-53105314D01*
X128106515Y-53105314D02*
X128201753Y-53152933D01*
X126439848Y-53486266D02*
X125677944Y-53486266D01*
X126058896Y-53867219D02*
X126058896Y-53105314D01*
X124487467Y-52962457D02*
X124439848Y-52914838D01*
X124439848Y-52914838D02*
X124344610Y-52867219D01*
X124344610Y-52867219D02*
X124106515Y-52867219D01*
X124106515Y-52867219D02*
X124011277Y-52914838D01*
X124011277Y-52914838D02*
X123963658Y-52962457D01*
X123963658Y-52962457D02*
X123916039Y-53057695D01*
X123916039Y-53057695D02*
X123916039Y-53152933D01*
X123916039Y-53152933D02*
X123963658Y-53295790D01*
X123963658Y-53295790D02*
X124535086Y-53867219D01*
X124535086Y-53867219D02*
X123916039Y-53867219D01*
X123344610Y-52867219D02*
X123344610Y-53105314D01*
X123582705Y-53010076D02*
X123344610Y-53105314D01*
X123344610Y-53105314D02*
X123106515Y-53010076D01*
X123487467Y-53295790D02*
X123344610Y-53105314D01*
X123344610Y-53105314D02*
X123201753Y-53295790D01*
X122154134Y-53867219D02*
X122487467Y-53391028D01*
X122725562Y-53867219D02*
X122725562Y-52867219D01*
X122725562Y-52867219D02*
X122344610Y-52867219D01*
X122344610Y-52867219D02*
X122249372Y-52914838D01*
X122249372Y-52914838D02*
X122201753Y-52962457D01*
X122201753Y-52962457D02*
X122154134Y-53057695D01*
X122154134Y-53057695D02*
X122154134Y-53200552D01*
X122154134Y-53200552D02*
X122201753Y-53295790D01*
X122201753Y-53295790D02*
X122249372Y-53343409D01*
X122249372Y-53343409D02*
X122344610Y-53391028D01*
X122344610Y-53391028D02*
X122725562Y-53391028D01*
X121773181Y-52962457D02*
X121725562Y-52914838D01*
X121725562Y-52914838D02*
X121630324Y-52867219D01*
X121630324Y-52867219D02*
X121392229Y-52867219D01*
X121392229Y-52867219D02*
X121296991Y-52914838D01*
X121296991Y-52914838D02*
X121249372Y-52962457D01*
X121249372Y-52962457D02*
X121201753Y-53057695D01*
X121201753Y-53057695D02*
X121201753Y-53152933D01*
X121201753Y-53152933D02*
X121249372Y-53295790D01*
X121249372Y-53295790D02*
X121820800Y-53867219D01*
X121820800Y-53867219D02*
X121201753Y-53867219D01*
X120868419Y-54248171D02*
X120820800Y-54200552D01*
X120820800Y-54200552D02*
X120725562Y-54057695D01*
X120725562Y-54057695D02*
X120677943Y-53962457D01*
X120677943Y-53962457D02*
X120630324Y-53819600D01*
X120630324Y-53819600D02*
X120582705Y-53581504D01*
X120582705Y-53581504D02*
X120582705Y-53391028D01*
X120582705Y-53391028D02*
X120630324Y-53152933D01*
X120630324Y-53152933D02*
X120677943Y-53010076D01*
X120677943Y-53010076D02*
X120725562Y-52914838D01*
X120725562Y-52914838D02*
X120820800Y-52771980D01*
X120820800Y-52771980D02*
X120868419Y-52724361D01*
X119963657Y-52867219D02*
X119963657Y-53105314D01*
X120201752Y-53010076D02*
X119963657Y-53105314D01*
X119963657Y-53105314D02*
X119725562Y-53010076D01*
X120106514Y-53295790D02*
X119963657Y-53105314D01*
X119963657Y-53105314D02*
X119820800Y-53295790D01*
X118773181Y-53771980D02*
X118820800Y-53819600D01*
X118820800Y-53819600D02*
X118963657Y-53867219D01*
X118963657Y-53867219D02*
X119058895Y-53867219D01*
X119058895Y-53867219D02*
X119201752Y-53819600D01*
X119201752Y-53819600D02*
X119296990Y-53724361D01*
X119296990Y-53724361D02*
X119344609Y-53629123D01*
X119344609Y-53629123D02*
X119392228Y-53438647D01*
X119392228Y-53438647D02*
X119392228Y-53295790D01*
X119392228Y-53295790D02*
X119344609Y-53105314D01*
X119344609Y-53105314D02*
X119296990Y-53010076D01*
X119296990Y-53010076D02*
X119201752Y-52914838D01*
X119201752Y-52914838D02*
X119058895Y-52867219D01*
X119058895Y-52867219D02*
X118963657Y-52867219D01*
X118963657Y-52867219D02*
X118820800Y-52914838D01*
X118820800Y-52914838D02*
X118773181Y-52962457D01*
X117916038Y-53200552D02*
X117916038Y-53867219D01*
X118154133Y-52819600D02*
X118392228Y-53533885D01*
X118392228Y-53533885D02*
X117773181Y-53533885D01*
D16*
X142767333Y-90405137D02*
X142767333Y-91928947D01*
X143794862Y-61367333D02*
X142271053Y-61367333D01*
X143032957Y-62129238D02*
X143032957Y-60605428D01*
D14*
G36*
X113333584Y-56617495D02*
G01*
X109129044Y-56617495D01*
X109129044Y-56292665D01*
X109295711Y-56292665D01*
X109303988Y-56350602D01*
X109333807Y-56400964D01*
X109380629Y-56436081D01*
X109437326Y-56450606D01*
X109495263Y-56442329D01*
X109545625Y-56412510D01*
X109565489Y-56390828D01*
X109866918Y-55988923D01*
X109866918Y-56300828D01*
X109869800Y-56330092D01*
X109892198Y-56384164D01*
X109933582Y-56425548D01*
X109987654Y-56447946D01*
X110046182Y-56447946D01*
X110100254Y-56425548D01*
X110141638Y-56384164D01*
X110164036Y-56330092D01*
X110166918Y-56300828D01*
X110166918Y-56282066D01*
X110439524Y-56282066D01*
X110443672Y-56340446D01*
X110469847Y-56392795D01*
X110514062Y-56431142D01*
X110569584Y-56449650D01*
X110627964Y-56445502D01*
X110655428Y-56434992D01*
X110798285Y-56363564D01*
X110803179Y-56360483D01*
X110805487Y-56359714D01*
X110808361Y-56357221D01*
X110823171Y-56347899D01*
X110835493Y-56333690D01*
X110849702Y-56321368D01*
X110859024Y-56306558D01*
X110861517Y-56303684D01*
X110862286Y-56301376D01*
X110865367Y-56296482D01*
X110936796Y-56153624D01*
X110947306Y-56126161D01*
X110947688Y-56120783D01*
X110949750Y-56115806D01*
X110952632Y-56086542D01*
X110952632Y-55300828D01*
X111366918Y-55300828D01*
X111366918Y-56300828D01*
X111369800Y-56330092D01*
X111392198Y-56384164D01*
X111433582Y-56425548D01*
X111487654Y-56447946D01*
X111546182Y-56447946D01*
X111600254Y-56425548D01*
X111641638Y-56384164D01*
X111664036Y-56330092D01*
X111666918Y-56300828D01*
X111666918Y-55872257D01*
X112009774Y-55872257D01*
X112009774Y-56015114D01*
X112012656Y-56044378D01*
X112014719Y-56049358D01*
X112015101Y-56054733D01*
X112025610Y-56082196D01*
X112097039Y-56225053D01*
X112104966Y-56237646D01*
X112106482Y-56241306D01*
X112109863Y-56245425D01*
X112112704Y-56249939D01*
X112115697Y-56252535D01*
X112125137Y-56264037D01*
X112196566Y-56335466D01*
X112208070Y-56344907D01*
X112210665Y-56347899D01*
X112215174Y-56350737D01*
X112219297Y-56354121D01*
X112222958Y-56355637D01*
X112235550Y-56363564D01*
X112378408Y-56434992D01*
X112405871Y-56445502D01*
X112411246Y-56445883D01*
X112416225Y-56447946D01*
X112445489Y-56450828D01*
X112802632Y-56450828D01*
X112817437Y-56449369D01*
X112821392Y-56449651D01*
X112826593Y-56448468D01*
X112831896Y-56447946D01*
X112835553Y-56446430D01*
X112850066Y-56443131D01*
X113064351Y-56371703D01*
X113091202Y-56359714D01*
X113135416Y-56321367D01*
X113161590Y-56269020D01*
X113165739Y-56210640D01*
X113147231Y-56155115D01*
X113108884Y-56110901D01*
X113056537Y-56084727D01*
X112998157Y-56080578D01*
X112969483Y-56087097D01*
X112778289Y-56150828D01*
X112480899Y-56150828D01*
X112391485Y-56106121D01*
X112354481Y-56069117D01*
X112309774Y-55979703D01*
X112309774Y-55907667D01*
X112354481Y-55818253D01*
X112391486Y-55781248D01*
X112497845Y-55728069D01*
X112767583Y-55660635D01*
X112769741Y-55659863D01*
X112770822Y-55659787D01*
X112782996Y-55655128D01*
X112795274Y-55650742D01*
X112796144Y-55650097D01*
X112798285Y-55649278D01*
X112941142Y-55577849D01*
X112953737Y-55569920D01*
X112957394Y-55568406D01*
X112961511Y-55565026D01*
X112966028Y-55562184D01*
X112968625Y-55559189D01*
X112980125Y-55549752D01*
X113051554Y-55478324D01*
X113060996Y-55466818D01*
X113063988Y-55464224D01*
X113066827Y-55459713D01*
X113070209Y-55455593D01*
X113071724Y-55451933D01*
X113079653Y-55439339D01*
X113151081Y-55296481D01*
X113161591Y-55269018D01*
X113161972Y-55263642D01*
X113164035Y-55258664D01*
X113166917Y-55229400D01*
X113166917Y-55086542D01*
X113164035Y-55057278D01*
X113161972Y-55052299D01*
X113161591Y-55046924D01*
X113151081Y-55019461D01*
X113079653Y-54876603D01*
X113071724Y-54864008D01*
X113070209Y-54860349D01*
X113066827Y-54856228D01*
X113063988Y-54851718D01*
X113060996Y-54849123D01*
X113051554Y-54837618D01*
X112980125Y-54766190D01*
X112968625Y-54756752D01*
X112966028Y-54753758D01*
X112961511Y-54750915D01*
X112957394Y-54747536D01*
X112953737Y-54746021D01*
X112941142Y-54738093D01*
X112798285Y-54666664D01*
X112770822Y-54656155D01*
X112765447Y-54655773D01*
X112760467Y-54653710D01*
X112731203Y-54650828D01*
X112374060Y-54650828D01*
X112359248Y-54652286D01*
X112355299Y-54652006D01*
X112350104Y-54653187D01*
X112344796Y-54653710D01*
X112341134Y-54655226D01*
X112326625Y-54658526D01*
X112112340Y-54729955D01*
X112085489Y-54741943D01*
X112041274Y-54780291D01*
X112015101Y-54832638D01*
X112010952Y-54891018D01*
X112029460Y-54946542D01*
X112067808Y-54990757D01*
X112120155Y-55016930D01*
X112178535Y-55021079D01*
X112207208Y-55014559D01*
X112398403Y-54950828D01*
X112695793Y-54950828D01*
X112785207Y-54995535D01*
X112822211Y-55032539D01*
X112866917Y-55121951D01*
X112866917Y-55193990D01*
X112822211Y-55283402D01*
X112785207Y-55320406D01*
X112678846Y-55373587D01*
X112409109Y-55441021D01*
X112406950Y-55441792D01*
X112405870Y-55441869D01*
X112393689Y-55446529D01*
X112381418Y-55450914D01*
X112380548Y-55451558D01*
X112378406Y-55452378D01*
X112235550Y-55523807D01*
X112222956Y-55531734D01*
X112219297Y-55533250D01*
X112215177Y-55536631D01*
X112210664Y-55539472D01*
X112208067Y-55542466D01*
X112196566Y-55551905D01*
X112125137Y-55623334D01*
X112115697Y-55634835D01*
X112112704Y-55637432D01*
X112109863Y-55641945D01*
X112106482Y-55646065D01*
X112104966Y-55649724D01*
X112097039Y-55662318D01*
X112025610Y-55805175D01*
X112015101Y-55832638D01*
X112014719Y-55838012D01*
X112012656Y-55842993D01*
X112009774Y-55872257D01*
X111666918Y-55872257D01*
X111666918Y-55300828D01*
X111664036Y-55271564D01*
X111641638Y-55217492D01*
X111600254Y-55176108D01*
X111546182Y-55153710D01*
X111487654Y-55153710D01*
X111433582Y-55176108D01*
X111392198Y-55217492D01*
X111369800Y-55271564D01*
X111366918Y-55300828D01*
X110952632Y-55300828D01*
X110952632Y-54842995D01*
X111298371Y-54842995D01*
X111298371Y-54901521D01*
X111303715Y-54914421D01*
X111320768Y-54955592D01*
X111320769Y-54955593D01*
X111339424Y-54978324D01*
X111410853Y-55049752D01*
X111433582Y-55068405D01*
X111433583Y-55068406D01*
X111462969Y-55080578D01*
X111487654Y-55090803D01*
X111487655Y-55090803D01*
X111487656Y-55090803D01*
X111546181Y-55090803D01*
X111546182Y-55090803D01*
X111570867Y-55080578D01*
X111600253Y-55068406D01*
X111622984Y-55049751D01*
X111694412Y-54978323D01*
X111713067Y-54955593D01*
X111735463Y-54901520D01*
X111735463Y-54875112D01*
X111735464Y-54842995D01*
X111713067Y-54788922D01*
X111694413Y-54766192D01*
X111622985Y-54694763D01*
X111600254Y-54676108D01*
X111600253Y-54676107D01*
X111568579Y-54662987D01*
X111546182Y-54653710D01*
X111487654Y-54653710D01*
X111465257Y-54662987D01*
X111433583Y-54676107D01*
X111410852Y-54694762D01*
X111339423Y-54766191D01*
X111320768Y-54788922D01*
X111300598Y-54837619D01*
X111298371Y-54842995D01*
X110952632Y-54842995D01*
X110952632Y-54800828D01*
X110949750Y-54771564D01*
X110927352Y-54717492D01*
X110885968Y-54676108D01*
X110831896Y-54653710D01*
X110773368Y-54653710D01*
X110719296Y-54676108D01*
X110677912Y-54717492D01*
X110655514Y-54771564D01*
X110652632Y-54800828D01*
X110652632Y-56051132D01*
X110619399Y-56117596D01*
X110521264Y-56166664D01*
X110496379Y-56182329D01*
X110458032Y-56226544D01*
X110439524Y-56282066D01*
X110166918Y-56282066D01*
X110166918Y-54800828D01*
X110164036Y-54771564D01*
X110141638Y-54717492D01*
X110100254Y-54676108D01*
X110046182Y-54653710D01*
X109987654Y-54653710D01*
X109933582Y-54676108D01*
X109892198Y-54717492D01*
X109869800Y-54771564D01*
X109866918Y-54800828D01*
X109866918Y-55510125D01*
X109551555Y-55194762D01*
X109528824Y-55176107D01*
X109474752Y-55153710D01*
X109416226Y-55153710D01*
X109362154Y-55176107D01*
X109320768Y-55217493D01*
X109298371Y-55271565D01*
X109298371Y-55330091D01*
X109320768Y-55384163D01*
X109339423Y-55406894D01*
X109676004Y-55743475D01*
X109325489Y-56210828D01*
X109310236Y-56235968D01*
X109295711Y-56292665D01*
X109129044Y-56292665D01*
X109129044Y-54484161D01*
X113333584Y-54484161D01*
X113333584Y-56617495D01*
G37*
D17*
X146051009Y-75364285D02*
X146098628Y-75507142D01*
X146098628Y-75507142D02*
X146146247Y-75554761D01*
X146146247Y-75554761D02*
X146241485Y-75602380D01*
X146241485Y-75602380D02*
X146384342Y-75602380D01*
X146384342Y-75602380D02*
X146479580Y-75554761D01*
X146479580Y-75554761D02*
X146527200Y-75507142D01*
X146527200Y-75507142D02*
X146574819Y-75411904D01*
X146574819Y-75411904D02*
X146574819Y-75030952D01*
X146574819Y-75030952D02*
X145574819Y-75030952D01*
X145574819Y-75030952D02*
X145574819Y-75364285D01*
X145574819Y-75364285D02*
X145622438Y-75459523D01*
X145622438Y-75459523D02*
X145670057Y-75507142D01*
X145670057Y-75507142D02*
X145765295Y-75554761D01*
X145765295Y-75554761D02*
X145860533Y-75554761D01*
X145860533Y-75554761D02*
X145955771Y-75507142D01*
X145955771Y-75507142D02*
X146003390Y-75459523D01*
X146003390Y-75459523D02*
X146051009Y-75364285D01*
X146051009Y-75364285D02*
X146051009Y-75030952D01*
X145574819Y-75888095D02*
X145574819Y-76459523D01*
X146574819Y-76173809D02*
X145574819Y-76173809D01*
X146574819Y-77316666D02*
X146574819Y-76745238D01*
X146574819Y-77030952D02*
X145574819Y-77030952D01*
X145574819Y-77030952D02*
X145717676Y-76935714D01*
X145717676Y-76935714D02*
X145812914Y-76840476D01*
X145812914Y-76840476D02*
X145860533Y-76745238D01*
D18*
X130390000Y-83997300D02*
X130390000Y-68302700D01*
X134890000Y-61840000D02*
X136600000Y-61840000D01*
X134890000Y-65458000D02*
X134890000Y-61840000D01*
X134890000Y-90460000D02*
X134890000Y-86842000D01*
X134890000Y-90460000D02*
X136600000Y-90460000D01*
X142110000Y-61840000D02*
X140400000Y-61840000D01*
X142110000Y-61840000D02*
X142110000Y-65458000D01*
X142110000Y-86842000D02*
X142110000Y-90460000D01*
X142110000Y-90460000D02*
X140400000Y-90460000D01*
X144410000Y-74490000D02*
X144410000Y-77810000D01*
X146610000Y-68302700D02*
X146610000Y-72290000D01*
X146610000Y-72290000D02*
X144410000Y-74490000D01*
X146610000Y-80010000D02*
X144410000Y-77810000D01*
X146610000Y-80010000D02*
X146610000Y-83997300D01*
X130388211Y-68304629D02*
G75*
G02*
X134890000Y-65458001I8111799J-7845391D01*
G01*
X134890000Y-86842000D02*
G75*
G02*
X130388211Y-83995371I3610012J10692020D01*
G01*
X142110000Y-65458000D02*
G75*
G02*
X146611789Y-68304629I-3609986J-10691979D01*
G01*
X146611789Y-83995371D02*
G75*
G02*
X142110000Y-86842000I-8111801J7845391D01*
G01*
%LPC*%
D14*
X120016917Y-62729400D02*
X119802632Y-62800828D01*
X119802632Y-62800828D02*
X119445489Y-62800828D01*
X119445489Y-62800828D02*
X119302632Y-62729400D01*
X119302632Y-62729400D02*
X119231203Y-62657971D01*
X119231203Y-62657971D02*
X119159774Y-62515114D01*
X119159774Y-62515114D02*
X119159774Y-62372257D01*
X119159774Y-62372257D02*
X119231203Y-62229400D01*
X119231203Y-62229400D02*
X119302632Y-62157971D01*
X119302632Y-62157971D02*
X119445489Y-62086542D01*
X119445489Y-62086542D02*
X119731203Y-62015114D01*
X119731203Y-62015114D02*
X119874060Y-61943685D01*
X119874060Y-61943685D02*
X119945489Y-61872257D01*
X119945489Y-61872257D02*
X120016917Y-61729400D01*
X120016917Y-61729400D02*
X120016917Y-61586542D01*
X120016917Y-61586542D02*
X119945489Y-61443685D01*
X119945489Y-61443685D02*
X119874060Y-61372257D01*
X119874060Y-61372257D02*
X119731203Y-61300828D01*
X119731203Y-61300828D02*
X119374060Y-61300828D01*
X119374060Y-61300828D02*
X119159774Y-61372257D01*
X118302632Y-62800828D02*
X118445489Y-62729400D01*
X118445489Y-62729400D02*
X118516918Y-62657971D01*
X118516918Y-62657971D02*
X118588346Y-62515114D01*
X118588346Y-62515114D02*
X118588346Y-62086542D01*
X118588346Y-62086542D02*
X118516918Y-61943685D01*
X118516918Y-61943685D02*
X118445489Y-61872257D01*
X118445489Y-61872257D02*
X118302632Y-61800828D01*
X118302632Y-61800828D02*
X118088346Y-61800828D01*
X118088346Y-61800828D02*
X117945489Y-61872257D01*
X117945489Y-61872257D02*
X117874061Y-61943685D01*
X117874061Y-61943685D02*
X117802632Y-62086542D01*
X117802632Y-62086542D02*
X117802632Y-62515114D01*
X117802632Y-62515114D02*
X117874061Y-62657971D01*
X117874061Y-62657971D02*
X117945489Y-62729400D01*
X117945489Y-62729400D02*
X118088346Y-62800828D01*
X118088346Y-62800828D02*
X118302632Y-62800828D01*
X116945489Y-62800828D02*
X117088346Y-62729400D01*
X117088346Y-62729400D02*
X117159775Y-62586542D01*
X117159775Y-62586542D02*
X117159775Y-61300828D01*
X115731204Y-62800828D02*
X115731204Y-61300828D01*
X115731204Y-62729400D02*
X115874061Y-62800828D01*
X115874061Y-62800828D02*
X116159775Y-62800828D01*
X116159775Y-62800828D02*
X116302632Y-62729400D01*
X116302632Y-62729400D02*
X116374061Y-62657971D01*
X116374061Y-62657971D02*
X116445489Y-62515114D01*
X116445489Y-62515114D02*
X116445489Y-62086542D01*
X116445489Y-62086542D02*
X116374061Y-61943685D01*
X116374061Y-61943685D02*
X116302632Y-61872257D01*
X116302632Y-61872257D02*
X116159775Y-61800828D01*
X116159775Y-61800828D02*
X115874061Y-61800828D01*
X115874061Y-61800828D02*
X115731204Y-61872257D01*
X114445489Y-62729400D02*
X114588346Y-62800828D01*
X114588346Y-62800828D02*
X114874061Y-62800828D01*
X114874061Y-62800828D02*
X115016918Y-62729400D01*
X115016918Y-62729400D02*
X115088346Y-62586542D01*
X115088346Y-62586542D02*
X115088346Y-62015114D01*
X115088346Y-62015114D02*
X115016918Y-61872257D01*
X115016918Y-61872257D02*
X114874061Y-61800828D01*
X114874061Y-61800828D02*
X114588346Y-61800828D01*
X114588346Y-61800828D02*
X114445489Y-61872257D01*
X114445489Y-61872257D02*
X114374061Y-62015114D01*
X114374061Y-62015114D02*
X114374061Y-62157971D01*
X114374061Y-62157971D02*
X115088346Y-62300828D01*
X113731204Y-62800828D02*
X113731204Y-61800828D01*
X113731204Y-62086542D02*
X113659775Y-61943685D01*
X113659775Y-61943685D02*
X113588347Y-61872257D01*
X113588347Y-61872257D02*
X113445489Y-61800828D01*
X113445489Y-61800828D02*
X113302632Y-61800828D01*
X111659776Y-62800828D02*
X111659776Y-61300828D01*
X111659776Y-61300828D02*
X111159776Y-62372257D01*
X111159776Y-62372257D02*
X110659776Y-61300828D01*
X110659776Y-61300828D02*
X110659776Y-62800828D01*
X109302633Y-62800828D02*
X109302633Y-62015114D01*
X109302633Y-62015114D02*
X109374061Y-61872257D01*
X109374061Y-61872257D02*
X109516918Y-61800828D01*
X109516918Y-61800828D02*
X109802633Y-61800828D01*
X109802633Y-61800828D02*
X109945490Y-61872257D01*
X109302633Y-62729400D02*
X109445490Y-62800828D01*
X109445490Y-62800828D02*
X109802633Y-62800828D01*
X109802633Y-62800828D02*
X109945490Y-62729400D01*
X109945490Y-62729400D02*
X110016918Y-62586542D01*
X110016918Y-62586542D02*
X110016918Y-62443685D01*
X110016918Y-62443685D02*
X109945490Y-62300828D01*
X109945490Y-62300828D02*
X109802633Y-62229400D01*
X109802633Y-62229400D02*
X109445490Y-62229400D01*
X109445490Y-62229400D02*
X109302633Y-62157971D01*
X108659775Y-62729400D02*
X108516918Y-62800828D01*
X108516918Y-62800828D02*
X108231204Y-62800828D01*
X108231204Y-62800828D02*
X108088347Y-62729400D01*
X108088347Y-62729400D02*
X108016918Y-62586542D01*
X108016918Y-62586542D02*
X108016918Y-62515114D01*
X108016918Y-62515114D02*
X108088347Y-62372257D01*
X108088347Y-62372257D02*
X108231204Y-62300828D01*
X108231204Y-62300828D02*
X108445490Y-62300828D01*
X108445490Y-62300828D02*
X108588347Y-62229400D01*
X108588347Y-62229400D02*
X108659775Y-62086542D01*
X108659775Y-62086542D02*
X108659775Y-62015114D01*
X108659775Y-62015114D02*
X108588347Y-61872257D01*
X108588347Y-61872257D02*
X108445490Y-61800828D01*
X108445490Y-61800828D02*
X108231204Y-61800828D01*
X108231204Y-61800828D02*
X108088347Y-61872257D01*
X107374061Y-62800828D02*
X107374061Y-61300828D01*
X107231204Y-62229400D02*
X106802632Y-62800828D01*
X106802632Y-61800828D02*
X107374061Y-62372257D01*
X104731203Y-61300828D02*
X104445489Y-61300828D01*
X104445489Y-61300828D02*
X104302632Y-61372257D01*
X104302632Y-61372257D02*
X104159775Y-61515114D01*
X104159775Y-61515114D02*
X104088346Y-61800828D01*
X104088346Y-61800828D02*
X104088346Y-62300828D01*
X104088346Y-62300828D02*
X104159775Y-62586542D01*
X104159775Y-62586542D02*
X104302632Y-62729400D01*
X104302632Y-62729400D02*
X104445489Y-62800828D01*
X104445489Y-62800828D02*
X104731203Y-62800828D01*
X104731203Y-62800828D02*
X104874061Y-62729400D01*
X104874061Y-62729400D02*
X105016918Y-62586542D01*
X105016918Y-62586542D02*
X105088346Y-62300828D01*
X105088346Y-62300828D02*
X105088346Y-61800828D01*
X105088346Y-61800828D02*
X105016918Y-61515114D01*
X105016918Y-61515114D02*
X104874061Y-61372257D01*
X104874061Y-61372257D02*
X104731203Y-61300828D01*
X102945489Y-62015114D02*
X103445489Y-62015114D01*
X103445489Y-62800828D02*
X103445489Y-61300828D01*
X103445489Y-61300828D02*
X102731203Y-61300828D01*
X101659775Y-62015114D02*
X102159775Y-62015114D01*
X102159775Y-62800828D02*
X102159775Y-61300828D01*
X102159775Y-61300828D02*
X101445489Y-61300828D01*
D19*
X140000000Y-95500000D03*
X119000000Y-77000000D03*
X121000000Y-57500000D03*
D20*
X145500000Y-95500000D03*
D19*
X133000000Y-89000000D03*
D21*
X143480000Y-53900000D03*
D22*
X140940000Y-53900000D03*
X138400000Y-53900000D03*
D23*
X138497500Y-61275000D03*
D24*
X138497500Y-90900000D03*
%LPD*%
M02*
