G04 #@! TF.GenerationSoftware,KiCad,Pcbnew,8.0.4*
G04 #@! TF.CreationDate,2025-01-10T10:23:46-05:00*
G04 #@! TF.ProjectId,555 Blink-a-tron SMD,35353520-426c-4696-9e6b-2d612d74726f,rev?*
G04 #@! TF.SameCoordinates,Original*
G04 #@! TF.FileFunction,Soldermask,Bot*
G04 #@! TF.FilePolarity,Negative*
%FSLAX46Y46*%
G04 Gerber Fmt 4.6, Leading zero omitted, Abs format (unit mm)*
G04 Created by KiCad (PCBNEW 8.0.4) date 2025-01-10 10:23:46*
%MOMM*%
%LPD*%
G01*
G04 APERTURE LIST*
%ADD10C,0.300000*%
%ADD11R,1.500000X1.500000*%
%ADD12C,3.200000*%
%ADD13R,1.700000X1.700000*%
%ADD14O,1.700000X1.700000*%
%ADD15R,3.505000X3.250000*%
%ADD16R,3.505000X3.500000*%
G04 APERTURE END LIST*
D10*
X120016917Y-62729400D02*
X119802632Y-62800828D01*
X119802632Y-62800828D02*
X119445489Y-62800828D01*
X119445489Y-62800828D02*
X119302632Y-62729400D01*
X119302632Y-62729400D02*
X119231203Y-62657971D01*
X119231203Y-62657971D02*
X119159774Y-62515114D01*
X119159774Y-62515114D02*
X119159774Y-62372257D01*
X119159774Y-62372257D02*
X119231203Y-62229400D01*
X119231203Y-62229400D02*
X119302632Y-62157971D01*
X119302632Y-62157971D02*
X119445489Y-62086542D01*
X119445489Y-62086542D02*
X119731203Y-62015114D01*
X119731203Y-62015114D02*
X119874060Y-61943685D01*
X119874060Y-61943685D02*
X119945489Y-61872257D01*
X119945489Y-61872257D02*
X120016917Y-61729400D01*
X120016917Y-61729400D02*
X120016917Y-61586542D01*
X120016917Y-61586542D02*
X119945489Y-61443685D01*
X119945489Y-61443685D02*
X119874060Y-61372257D01*
X119874060Y-61372257D02*
X119731203Y-61300828D01*
X119731203Y-61300828D02*
X119374060Y-61300828D01*
X119374060Y-61300828D02*
X119159774Y-61372257D01*
X118302632Y-62800828D02*
X118445489Y-62729400D01*
X118445489Y-62729400D02*
X118516918Y-62657971D01*
X118516918Y-62657971D02*
X118588346Y-62515114D01*
X118588346Y-62515114D02*
X118588346Y-62086542D01*
X118588346Y-62086542D02*
X118516918Y-61943685D01*
X118516918Y-61943685D02*
X118445489Y-61872257D01*
X118445489Y-61872257D02*
X118302632Y-61800828D01*
X118302632Y-61800828D02*
X118088346Y-61800828D01*
X118088346Y-61800828D02*
X117945489Y-61872257D01*
X117945489Y-61872257D02*
X117874061Y-61943685D01*
X117874061Y-61943685D02*
X117802632Y-62086542D01*
X117802632Y-62086542D02*
X117802632Y-62515114D01*
X117802632Y-62515114D02*
X117874061Y-62657971D01*
X117874061Y-62657971D02*
X117945489Y-62729400D01*
X117945489Y-62729400D02*
X118088346Y-62800828D01*
X118088346Y-62800828D02*
X118302632Y-62800828D01*
X116945489Y-62800828D02*
X117088346Y-62729400D01*
X117088346Y-62729400D02*
X117159775Y-62586542D01*
X117159775Y-62586542D02*
X117159775Y-61300828D01*
X115731204Y-62800828D02*
X115731204Y-61300828D01*
X115731204Y-62729400D02*
X115874061Y-62800828D01*
X115874061Y-62800828D02*
X116159775Y-62800828D01*
X116159775Y-62800828D02*
X116302632Y-62729400D01*
X116302632Y-62729400D02*
X116374061Y-62657971D01*
X116374061Y-62657971D02*
X116445489Y-62515114D01*
X116445489Y-62515114D02*
X116445489Y-62086542D01*
X116445489Y-62086542D02*
X116374061Y-61943685D01*
X116374061Y-61943685D02*
X116302632Y-61872257D01*
X116302632Y-61872257D02*
X116159775Y-61800828D01*
X116159775Y-61800828D02*
X115874061Y-61800828D01*
X115874061Y-61800828D02*
X115731204Y-61872257D01*
X114445489Y-62729400D02*
X114588346Y-62800828D01*
X114588346Y-62800828D02*
X114874061Y-62800828D01*
X114874061Y-62800828D02*
X115016918Y-62729400D01*
X115016918Y-62729400D02*
X115088346Y-62586542D01*
X115088346Y-62586542D02*
X115088346Y-62015114D01*
X115088346Y-62015114D02*
X115016918Y-61872257D01*
X115016918Y-61872257D02*
X114874061Y-61800828D01*
X114874061Y-61800828D02*
X114588346Y-61800828D01*
X114588346Y-61800828D02*
X114445489Y-61872257D01*
X114445489Y-61872257D02*
X114374061Y-62015114D01*
X114374061Y-62015114D02*
X114374061Y-62157971D01*
X114374061Y-62157971D02*
X115088346Y-62300828D01*
X113731204Y-62800828D02*
X113731204Y-61800828D01*
X113731204Y-62086542D02*
X113659775Y-61943685D01*
X113659775Y-61943685D02*
X113588347Y-61872257D01*
X113588347Y-61872257D02*
X113445489Y-61800828D01*
X113445489Y-61800828D02*
X113302632Y-61800828D01*
X111659776Y-62800828D02*
X111659776Y-61300828D01*
X111659776Y-61300828D02*
X111159776Y-62372257D01*
X111159776Y-62372257D02*
X110659776Y-61300828D01*
X110659776Y-61300828D02*
X110659776Y-62800828D01*
X109302633Y-62800828D02*
X109302633Y-62015114D01*
X109302633Y-62015114D02*
X109374061Y-61872257D01*
X109374061Y-61872257D02*
X109516918Y-61800828D01*
X109516918Y-61800828D02*
X109802633Y-61800828D01*
X109802633Y-61800828D02*
X109945490Y-61872257D01*
X109302633Y-62729400D02*
X109445490Y-62800828D01*
X109445490Y-62800828D02*
X109802633Y-62800828D01*
X109802633Y-62800828D02*
X109945490Y-62729400D01*
X109945490Y-62729400D02*
X110016918Y-62586542D01*
X110016918Y-62586542D02*
X110016918Y-62443685D01*
X110016918Y-62443685D02*
X109945490Y-62300828D01*
X109945490Y-62300828D02*
X109802633Y-62229400D01*
X109802633Y-62229400D02*
X109445490Y-62229400D01*
X109445490Y-62229400D02*
X109302633Y-62157971D01*
X108659775Y-62729400D02*
X108516918Y-62800828D01*
X108516918Y-62800828D02*
X108231204Y-62800828D01*
X108231204Y-62800828D02*
X108088347Y-62729400D01*
X108088347Y-62729400D02*
X108016918Y-62586542D01*
X108016918Y-62586542D02*
X108016918Y-62515114D01*
X108016918Y-62515114D02*
X108088347Y-62372257D01*
X108088347Y-62372257D02*
X108231204Y-62300828D01*
X108231204Y-62300828D02*
X108445490Y-62300828D01*
X108445490Y-62300828D02*
X108588347Y-62229400D01*
X108588347Y-62229400D02*
X108659775Y-62086542D01*
X108659775Y-62086542D02*
X108659775Y-62015114D01*
X108659775Y-62015114D02*
X108588347Y-61872257D01*
X108588347Y-61872257D02*
X108445490Y-61800828D01*
X108445490Y-61800828D02*
X108231204Y-61800828D01*
X108231204Y-61800828D02*
X108088347Y-61872257D01*
X107374061Y-62800828D02*
X107374061Y-61300828D01*
X107231204Y-62229400D02*
X106802632Y-62800828D01*
X106802632Y-61800828D02*
X107374061Y-62372257D01*
X104731203Y-61300828D02*
X104445489Y-61300828D01*
X104445489Y-61300828D02*
X104302632Y-61372257D01*
X104302632Y-61372257D02*
X104159775Y-61515114D01*
X104159775Y-61515114D02*
X104088346Y-61800828D01*
X104088346Y-61800828D02*
X104088346Y-62300828D01*
X104088346Y-62300828D02*
X104159775Y-62586542D01*
X104159775Y-62586542D02*
X104302632Y-62729400D01*
X104302632Y-62729400D02*
X104445489Y-62800828D01*
X104445489Y-62800828D02*
X104731203Y-62800828D01*
X104731203Y-62800828D02*
X104874061Y-62729400D01*
X104874061Y-62729400D02*
X105016918Y-62586542D01*
X105016918Y-62586542D02*
X105088346Y-62300828D01*
X105088346Y-62300828D02*
X105088346Y-61800828D01*
X105088346Y-61800828D02*
X105016918Y-61515114D01*
X105016918Y-61515114D02*
X104874061Y-61372257D01*
X104874061Y-61372257D02*
X104731203Y-61300828D01*
X102945489Y-62015114D02*
X103445489Y-62015114D01*
X103445489Y-62800828D02*
X103445489Y-61300828D01*
X103445489Y-61300828D02*
X102731203Y-61300828D01*
X101659775Y-62015114D02*
X102159775Y-62015114D01*
X102159775Y-62800828D02*
X102159775Y-61300828D01*
X102159775Y-61300828D02*
X101445489Y-61300828D01*
D11*
X140000000Y-95500000D03*
X119000000Y-77000000D03*
X121000000Y-57500000D03*
D12*
X145500000Y-95500000D03*
D11*
X133000000Y-89000000D03*
D13*
X143480000Y-53900000D03*
D14*
X140940000Y-53900000D03*
X138400000Y-53900000D03*
D15*
X138497500Y-61275000D03*
D16*
X138497500Y-90900000D03*
M02*
