G04 #@! TF.GenerationSoftware,KiCad,Pcbnew,8.0.4*
G04 #@! TF.CreationDate,2025-01-10T10:23:46-05:00*
G04 #@! TF.ProjectId,555 Blink-a-tron SMD,35353520-426c-4696-9e6b-2d612d74726f,rev?*
G04 #@! TF.SameCoordinates,Original*
G04 #@! TF.FileFunction,Copper,L1,Top*
G04 #@! TF.FilePolarity,Positive*
%FSLAX46Y46*%
G04 Gerber Fmt 4.6, Leading zero omitted, Abs format (unit mm)*
G04 Created by KiCad (PCBNEW 8.0.4) date 2025-01-10 10:23:46*
%MOMM*%
%LPD*%
G01*
G04 APERTURE LIST*
G04 Aperture macros list*
%AMRoundRect*
0 Rectangle with rounded corners*
0 $1 Rounding radius*
0 $2 $3 $4 $5 $6 $7 $8 $9 X,Y pos of 4 corners*
0 Add a 4 corners polygon primitive as box body*
4,1,4,$2,$3,$4,$5,$6,$7,$8,$9,$2,$3,0*
0 Add four circle primitives for the rounded corners*
1,1,$1+$1,$2,$3*
1,1,$1+$1,$4,$5*
1,1,$1+$1,$6,$7*
1,1,$1+$1,$8,$9*
0 Add four rect primitives between the rounded corners*
20,1,$1+$1,$2,$3,$4,$5,0*
20,1,$1+$1,$4,$5,$6,$7,0*
20,1,$1+$1,$6,$7,$8,$9,0*
20,1,$1+$1,$8,$9,$2,$3,0*%
G04 Aperture macros list end*
G04 #@! TA.AperFunction,ComponentPad*
%ADD10R,1.500000X1.500000*%
G04 #@! TD*
G04 #@! TA.AperFunction,SMDPad,CuDef*
%ADD11RoundRect,0.250000X0.375000X0.625000X-0.375000X0.625000X-0.375000X-0.625000X0.375000X-0.625000X0*%
G04 #@! TD*
G04 #@! TA.AperFunction,SMDPad,CuDef*
%ADD12RoundRect,0.150000X-0.825000X-0.150000X0.825000X-0.150000X0.825000X0.150000X-0.825000X0.150000X0*%
G04 #@! TD*
G04 #@! TA.AperFunction,SMDPad,CuDef*
%ADD13RoundRect,0.250000X-0.325000X-0.650000X0.325000X-0.650000X0.325000X0.650000X-0.325000X0.650000X0*%
G04 #@! TD*
G04 #@! TA.AperFunction,SMDPad,CuDef*
%ADD14RoundRect,0.250000X0.312500X0.625000X-0.312500X0.625000X-0.312500X-0.625000X0.312500X-0.625000X0*%
G04 #@! TD*
G04 #@! TA.AperFunction,SMDPad,CuDef*
%ADD15RoundRect,0.250000X0.625000X-0.312500X0.625000X0.312500X-0.625000X0.312500X-0.625000X-0.312500X0*%
G04 #@! TD*
G04 #@! TA.AperFunction,SMDPad,CuDef*
%ADD16R,2.300000X1.400000*%
G04 #@! TD*
G04 #@! TA.AperFunction,ComponentPad*
%ADD17R,1.700000X1.700000*%
G04 #@! TD*
G04 #@! TA.AperFunction,ComponentPad*
%ADD18O,1.700000X1.700000*%
G04 #@! TD*
G04 #@! TA.AperFunction,ViaPad*
%ADD19C,0.600000*%
G04 #@! TD*
G04 #@! TA.AperFunction,Conductor*
%ADD20C,0.304800*%
G04 #@! TD*
G04 APERTURE END LIST*
D10*
X140000000Y-95500000D03*
D11*
X107900000Y-84500000D03*
X105100000Y-84500000D03*
D12*
X123025000Y-73555000D03*
X123025000Y-74825000D03*
X123025000Y-76095000D03*
X123025000Y-77365000D03*
X123025000Y-78635000D03*
X123025000Y-79905000D03*
X123025000Y-81175000D03*
X123025000Y-82445000D03*
X127975000Y-82445000D03*
X127975000Y-81175000D03*
X127975000Y-79905000D03*
X127975000Y-78635000D03*
X127975000Y-77365000D03*
X127975000Y-76095000D03*
X127975000Y-74825000D03*
X127975000Y-73555000D03*
D13*
X123525000Y-67000000D03*
X126475000Y-67000000D03*
D11*
X107900000Y-73500000D03*
X105100000Y-73500000D03*
D12*
X124050000Y-59000000D03*
X124050000Y-60270000D03*
X124050000Y-61540000D03*
X124050000Y-62810000D03*
X129000000Y-62810000D03*
X129000000Y-61540000D03*
X129000000Y-60270000D03*
X129000000Y-59000000D03*
D14*
X144000000Y-74000000D03*
X141075000Y-74000000D03*
D11*
X107900000Y-90500000D03*
X105100000Y-90500000D03*
X107900000Y-62000000D03*
X105100000Y-62000000D03*
D10*
X119000000Y-77000000D03*
X121000000Y-57500000D03*
D15*
X132500000Y-55962500D03*
X132500000Y-53037500D03*
D11*
X107900000Y-67500000D03*
X105100000Y-67500000D03*
D10*
X133000000Y-89000000D03*
D16*
X128650000Y-97750000D03*
X121350000Y-97750000D03*
X128650000Y-93250000D03*
X121350000Y-93250000D03*
D13*
X131050000Y-72000000D03*
X134000000Y-72000000D03*
D11*
X108000000Y-96000000D03*
X105200000Y-96000000D03*
X107900000Y-79000000D03*
X105100000Y-79000000D03*
D15*
X118500000Y-60462500D03*
X118500000Y-57537500D03*
D13*
X140150000Y-61500000D03*
X143100000Y-61500000D03*
X132525000Y-66500000D03*
X135475000Y-66500000D03*
D17*
X143480000Y-53900000D03*
D18*
X140940000Y-53900000D03*
X138400000Y-53900000D03*
D11*
X108000000Y-56500000D03*
X105200000Y-56500000D03*
D19*
X128500000Y-51500000D03*
X121000000Y-53000000D03*
X113500000Y-51500000D03*
X123500000Y-51500000D03*
X116000000Y-53000000D03*
X126000000Y-53000000D03*
X118500000Y-51500000D03*
X146500000Y-89000000D03*
X148000000Y-67500000D03*
X133500000Y-91000000D03*
X143500000Y-89000000D03*
X132000000Y-92000000D03*
X145000000Y-89000000D03*
X143500000Y-90500000D03*
X132000000Y-91000000D03*
X119000000Y-72500000D03*
X145000000Y-90500000D03*
X119000000Y-73500000D03*
X146500000Y-90500000D03*
X128500000Y-67000000D03*
X133500000Y-92000000D03*
X131500000Y-61500000D03*
X121270000Y-60270000D03*
X119800000Y-81700000D03*
X115000000Y-86500000D03*
X116000000Y-84000000D03*
X119900000Y-83100000D03*
X116500000Y-85500000D03*
X120500000Y-86000000D03*
X113000000Y-74000000D03*
X131500000Y-83000000D03*
X126500000Y-88500000D03*
X114000000Y-72000000D03*
X113500000Y-64500000D03*
X130500000Y-80000000D03*
X115000000Y-90500000D03*
X132000000Y-79500000D03*
X131500000Y-94000000D03*
X112500000Y-94500000D03*
X119000000Y-56000000D03*
X132500000Y-59000000D03*
X120000000Y-68500000D03*
D20*
X138500000Y-94000000D02*
X140000000Y-95500000D01*
X131500000Y-94000000D02*
X138500000Y-94000000D01*
X129500000Y-58500000D02*
X129000000Y-59000000D01*
X128500000Y-51500000D02*
X129500000Y-52500000D01*
X129500000Y-52500000D02*
X129500000Y-58500000D01*
X131500000Y-61500000D02*
X140000000Y-61500000D01*
X128500000Y-61500000D02*
X131500000Y-61500000D01*
X128460000Y-61540000D02*
X128500000Y-61500000D01*
X121270000Y-60270000D02*
X119192500Y-60270000D01*
X121270000Y-60270000D02*
X121270000Y-57730000D01*
X118500000Y-60462500D02*
X118692500Y-60270000D01*
X119192500Y-60270000D02*
X119000000Y-60462500D01*
X121270000Y-60270000D02*
X124050000Y-60270000D01*
X121270000Y-57730000D02*
X121500000Y-57500000D01*
X110900000Y-90500000D02*
X108300000Y-90500000D01*
X121595000Y-79905000D02*
X123025000Y-79905000D01*
X119800000Y-81700000D02*
X121595000Y-79905000D01*
X114900000Y-86500000D02*
X110900000Y-90500000D01*
X115000000Y-86500000D02*
X114900000Y-86500000D01*
X115500000Y-84500000D02*
X108300000Y-84500000D01*
X116000000Y-84000000D02*
X115500000Y-84500000D01*
X119900000Y-83100000D02*
X121825000Y-81175000D01*
X121825000Y-81175000D02*
X123025000Y-81175000D01*
X120500000Y-83995001D02*
X122050001Y-82445000D01*
X120500000Y-86000000D02*
X120500000Y-83995001D01*
X109200000Y-79000000D02*
X108400000Y-79000000D01*
X122050001Y-82445000D02*
X123025000Y-82445000D01*
X115570843Y-82500000D02*
X112700000Y-82500000D01*
X116500000Y-85500000D02*
X116757200Y-85242800D01*
X116757200Y-85242800D02*
X116757200Y-83686357D01*
X112700000Y-82500000D02*
X109200000Y-79000000D01*
X116757200Y-83686357D02*
X115570843Y-82500000D01*
X112500000Y-73500000D02*
X113000000Y-74000000D01*
X127975000Y-82445000D02*
X130945000Y-82445000D01*
X108400000Y-73500000D02*
X112500000Y-73500000D01*
X130945000Y-82445000D02*
X131500000Y-83000000D01*
X132500000Y-84000000D02*
X132500000Y-81500000D01*
X112000000Y-67500000D02*
X114000000Y-69500000D01*
X132500000Y-81500000D02*
X132175000Y-81175000D01*
X132175000Y-81175000D02*
X127975000Y-81175000D01*
X114000000Y-69500000D02*
X114000000Y-72000000D01*
X128000000Y-88500000D02*
X132500000Y-84000000D01*
X108400000Y-67500000D02*
X112000000Y-67500000D01*
X126500000Y-88500000D02*
X128000000Y-88500000D01*
X127975000Y-79905000D02*
X130405000Y-79905000D01*
X130405000Y-79905000D02*
X130500000Y-80000000D01*
X108500000Y-62000000D02*
X108400000Y-62000000D01*
X111000000Y-62000000D02*
X108300000Y-62000000D01*
X113500000Y-64500000D02*
X111000000Y-62000000D01*
X114757200Y-79757200D02*
X114757200Y-60357200D01*
X127975000Y-78635000D02*
X131135000Y-78635000D01*
X110900000Y-56500000D02*
X108300000Y-56500000D01*
X131135000Y-78635000D02*
X132000000Y-79500000D01*
X115000000Y-90500000D02*
X117500000Y-88000000D01*
X114757200Y-60357200D02*
X110900000Y-56500000D01*
X117500000Y-82500000D02*
X114757200Y-79757200D01*
X117500000Y-88000000D02*
X117500000Y-82500000D01*
X116000000Y-78500000D02*
X116000000Y-75500000D01*
X129000000Y-93250000D02*
X121000000Y-93250000D01*
X129750000Y-94000000D02*
X129000000Y-93250000D01*
X118200000Y-89050000D02*
X118200000Y-80700000D01*
X131500000Y-94000000D02*
X129750000Y-94000000D01*
X116675000Y-74825000D02*
X123025000Y-74825000D01*
X116000000Y-75500000D02*
X116675000Y-74825000D01*
X118200000Y-80700000D02*
X116000000Y-78500000D01*
X112500000Y-94500000D02*
X112750000Y-94500000D01*
X112750000Y-94500000D02*
X118200000Y-89050000D01*
X131810000Y-62810000D02*
X129000000Y-62810000D01*
X132525000Y-63525000D02*
X131810000Y-62810000D01*
X132525000Y-66500000D02*
X132525000Y-63525000D01*
X113000000Y-96000000D02*
X108400000Y-96000000D01*
X118900000Y-80100000D02*
X118900000Y-90100000D01*
X120365000Y-78635000D02*
X118900000Y-80100000D01*
X123025000Y-78635000D02*
X120365000Y-78635000D01*
X118900000Y-90100000D02*
X113000000Y-96000000D01*
X119000000Y-57037500D02*
X119000000Y-56000000D01*
X132500000Y-59000000D02*
X132500000Y-55962500D01*
X118500000Y-57537500D02*
X119000000Y-57037500D01*
X131230000Y-60270000D02*
X132500000Y-59000000D01*
X129000000Y-60270000D02*
X131230000Y-60270000D01*
X133000000Y-74000000D02*
X141075000Y-74000000D01*
X127975000Y-74825000D02*
X132175000Y-74825000D01*
X132175000Y-74825000D02*
X133000000Y-74000000D01*
X133109600Y-78109600D02*
X133109600Y-88890400D01*
X133109600Y-88890400D02*
X133000000Y-89000000D01*
X131095000Y-76095000D02*
X133109600Y-78109600D01*
X127975000Y-76095000D02*
X131095000Y-76095000D01*
X119905000Y-76095000D02*
X119000000Y-77000000D01*
X121960000Y-61540000D02*
X124050000Y-61540000D01*
X120000000Y-63500000D02*
X121960000Y-61540000D01*
X120000000Y-68500000D02*
X120000000Y-63500000D01*
X123025000Y-76095000D02*
X119905000Y-76095000D01*
X119365000Y-77365000D02*
X123025000Y-77365000D01*
X119000000Y-77000000D02*
X119365000Y-77365000D01*
G04 #@! TA.AperFunction,Conductor*
G36*
X139543039Y-50520185D02*
G01*
X139588794Y-50572989D01*
X139600000Y-50624500D01*
X139600000Y-52891450D01*
X139580315Y-52958489D01*
X139527511Y-53004244D01*
X139458353Y-53014188D01*
X139394797Y-52985163D01*
X139388319Y-52979131D01*
X139271082Y-52861894D01*
X139077578Y-52726399D01*
X138863492Y-52626570D01*
X138863486Y-52626567D01*
X138650000Y-52569364D01*
X138650000Y-53466988D01*
X138592993Y-53434075D01*
X138465826Y-53400000D01*
X138334174Y-53400000D01*
X138207007Y-53434075D01*
X138150000Y-53466988D01*
X138150000Y-52569364D01*
X138149999Y-52569364D01*
X137936513Y-52626567D01*
X137936507Y-52626570D01*
X137722422Y-52726399D01*
X137722420Y-52726400D01*
X137528926Y-52861886D01*
X137528920Y-52861891D01*
X137361891Y-53028920D01*
X137361886Y-53028926D01*
X137226400Y-53222420D01*
X137226399Y-53222422D01*
X137126570Y-53436507D01*
X137126567Y-53436513D01*
X137069364Y-53649999D01*
X137069364Y-53650000D01*
X137966988Y-53650000D01*
X137934075Y-53707007D01*
X137900000Y-53834174D01*
X137900000Y-53965826D01*
X137934075Y-54092993D01*
X137966988Y-54150000D01*
X137069364Y-54150000D01*
X137126567Y-54363486D01*
X137126570Y-54363492D01*
X137226399Y-54577578D01*
X137361894Y-54771082D01*
X137528917Y-54938105D01*
X137722421Y-55073600D01*
X137936507Y-55173429D01*
X137936516Y-55173433D01*
X138150000Y-55230634D01*
X138150000Y-54333012D01*
X138207007Y-54365925D01*
X138334174Y-54400000D01*
X138465826Y-54400000D01*
X138592993Y-54365925D01*
X138650000Y-54333012D01*
X138650000Y-55230633D01*
X138863483Y-55173433D01*
X138863492Y-55173429D01*
X139077578Y-55073600D01*
X139271082Y-54938105D01*
X139388319Y-54820869D01*
X139449642Y-54787384D01*
X139519334Y-54792368D01*
X139575267Y-54834240D01*
X139599684Y-54899704D01*
X139600000Y-54908550D01*
X139600000Y-55876000D01*
X139580315Y-55943039D01*
X139527511Y-55988794D01*
X139476000Y-56000000D01*
X135224000Y-56000000D01*
X135156961Y-55980315D01*
X135111206Y-55927511D01*
X135100000Y-55876000D01*
X135100000Y-53500000D01*
X133999000Y-53500000D01*
X133931961Y-53480315D01*
X133886206Y-53427511D01*
X133875000Y-53376000D01*
X133875000Y-53287500D01*
X131125001Y-53287500D01*
X131125001Y-53376000D01*
X131105316Y-53443039D01*
X131052512Y-53488794D01*
X131001001Y-53500000D01*
X117500000Y-53500000D01*
X117500000Y-52675013D01*
X131125000Y-52675013D01*
X131125000Y-52787500D01*
X132250000Y-52787500D01*
X132750000Y-52787500D01*
X133874999Y-52787500D01*
X133874999Y-52675028D01*
X133874998Y-52675013D01*
X133864505Y-52572302D01*
X133809358Y-52405880D01*
X133809356Y-52405875D01*
X133717315Y-52256654D01*
X133593345Y-52132684D01*
X133444124Y-52040643D01*
X133444119Y-52040641D01*
X133277697Y-51985494D01*
X133277690Y-51985493D01*
X133174986Y-51975000D01*
X132750000Y-51975000D01*
X132750000Y-52787500D01*
X132250000Y-52787500D01*
X132250000Y-51975000D01*
X131825028Y-51975000D01*
X131825012Y-51975001D01*
X131722302Y-51985494D01*
X131555880Y-52040641D01*
X131555875Y-52040643D01*
X131406654Y-52132684D01*
X131282684Y-52256654D01*
X131190643Y-52405875D01*
X131190641Y-52405880D01*
X131135494Y-52572302D01*
X131135493Y-52572309D01*
X131125000Y-52675013D01*
X117500000Y-52675013D01*
X117500000Y-51500000D01*
X115000000Y-51500000D01*
X115000000Y-53500000D01*
X105500000Y-53500000D01*
X105500000Y-55023638D01*
X105480315Y-55090677D01*
X105463681Y-55111319D01*
X105450000Y-55125000D01*
X105450000Y-57874999D01*
X105463681Y-57888680D01*
X105497166Y-57950003D01*
X105500000Y-57976361D01*
X105500000Y-60501000D01*
X105480315Y-60568039D01*
X105427511Y-60613794D01*
X105376000Y-60625000D01*
X105350000Y-60625000D01*
X105350000Y-63374999D01*
X105376000Y-63374999D01*
X105443039Y-63394684D01*
X105488794Y-63447488D01*
X105500000Y-63498999D01*
X105500000Y-66001000D01*
X105480315Y-66068039D01*
X105427511Y-66113794D01*
X105376000Y-66125000D01*
X105350000Y-66125000D01*
X105350000Y-68874999D01*
X105376000Y-68874999D01*
X105443039Y-68894684D01*
X105488794Y-68947488D01*
X105500000Y-68998999D01*
X105500000Y-72001000D01*
X105480315Y-72068039D01*
X105427511Y-72113794D01*
X105376000Y-72125000D01*
X105350000Y-72125000D01*
X105350000Y-74874999D01*
X105376000Y-74874999D01*
X105443039Y-74894684D01*
X105488794Y-74947488D01*
X105500000Y-74998999D01*
X105500000Y-77501000D01*
X105480315Y-77568039D01*
X105427511Y-77613794D01*
X105376000Y-77625000D01*
X105350000Y-77625000D01*
X105350000Y-80374999D01*
X105376000Y-80374999D01*
X105443039Y-80394684D01*
X105488794Y-80447488D01*
X105500000Y-80498999D01*
X105500000Y-83001000D01*
X105480315Y-83068039D01*
X105427511Y-83113794D01*
X105376000Y-83125000D01*
X105350000Y-83125000D01*
X105350000Y-85874999D01*
X105376000Y-85874999D01*
X105443039Y-85894684D01*
X105488794Y-85947488D01*
X105500000Y-85998999D01*
X105500000Y-89001000D01*
X105480315Y-89068039D01*
X105427511Y-89113794D01*
X105376000Y-89125000D01*
X105350000Y-89125000D01*
X105350000Y-91874999D01*
X105376000Y-91874999D01*
X105443039Y-91894684D01*
X105488794Y-91947488D01*
X105500000Y-91998999D01*
X105500000Y-94523638D01*
X105480315Y-94590677D01*
X105463681Y-94611319D01*
X105450000Y-94625000D01*
X105450000Y-95750000D01*
X106324999Y-95750000D01*
X106324999Y-95325028D01*
X106324998Y-95325013D01*
X106314505Y-95222302D01*
X106259358Y-95055880D01*
X106259356Y-95055875D01*
X106167315Y-94906654D01*
X106043345Y-94782684D01*
X105957183Y-94729539D01*
X105910459Y-94677591D01*
X105899236Y-94608628D01*
X105927080Y-94544546D01*
X105985148Y-94505690D01*
X106022280Y-94500000D01*
X107176768Y-94500000D01*
X107243807Y-94519685D01*
X107289562Y-94572489D01*
X107299506Y-94641647D01*
X107270481Y-94705203D01*
X107241866Y-94729537D01*
X107185653Y-94764210D01*
X107156342Y-94782289D01*
X107032289Y-94906342D01*
X106940187Y-95055663D01*
X106940185Y-95055668D01*
X106940115Y-95055880D01*
X106885001Y-95222203D01*
X106885001Y-95222204D01*
X106885000Y-95222204D01*
X106874500Y-95324983D01*
X106874500Y-96675001D01*
X106874501Y-96675018D01*
X106885000Y-96777796D01*
X106885001Y-96777799D01*
X106939618Y-96942620D01*
X106940186Y-96944334D01*
X107032288Y-97093656D01*
X107156344Y-97217712D01*
X107305666Y-97309814D01*
X107472203Y-97364999D01*
X107574991Y-97375500D01*
X108425008Y-97375499D01*
X108425016Y-97375498D01*
X108425019Y-97375498D01*
X108481302Y-97369748D01*
X108527797Y-97364999D01*
X108694334Y-97309814D01*
X108843656Y-97217712D01*
X108967712Y-97093656D01*
X109024150Y-97002155D01*
X119700000Y-97002155D01*
X119700000Y-97500000D01*
X121100000Y-97500000D01*
X121600000Y-97500000D01*
X123000000Y-97500000D01*
X123000000Y-97002172D01*
X122999999Y-97002155D01*
X127000000Y-97002155D01*
X127000000Y-97500000D01*
X128400000Y-97500000D01*
X128900000Y-97500000D01*
X130300000Y-97500000D01*
X130300000Y-97002172D01*
X130299999Y-97002155D01*
X130293598Y-96942627D01*
X130293596Y-96942620D01*
X130243354Y-96807913D01*
X130243350Y-96807906D01*
X130157190Y-96692812D01*
X130157187Y-96692809D01*
X130042093Y-96606649D01*
X130042086Y-96606645D01*
X129907379Y-96556403D01*
X129907372Y-96556401D01*
X129847844Y-96550000D01*
X128900000Y-96550000D01*
X128900000Y-97500000D01*
X128400000Y-97500000D01*
X128400000Y-96550000D01*
X127452155Y-96550000D01*
X127392627Y-96556401D01*
X127392620Y-96556403D01*
X127257913Y-96606645D01*
X127257906Y-96606649D01*
X127142812Y-96692809D01*
X127142809Y-96692812D01*
X127056649Y-96807906D01*
X127056645Y-96807913D01*
X127006403Y-96942620D01*
X127006401Y-96942627D01*
X127000000Y-97002155D01*
X122999999Y-97002155D01*
X122993598Y-96942627D01*
X122993596Y-96942620D01*
X122943354Y-96807913D01*
X122943350Y-96807906D01*
X122857190Y-96692812D01*
X122857187Y-96692809D01*
X122742093Y-96606649D01*
X122742086Y-96606645D01*
X122607379Y-96556403D01*
X122607372Y-96556401D01*
X122547844Y-96550000D01*
X121600000Y-96550000D01*
X121600000Y-97500000D01*
X121100000Y-97500000D01*
X121100000Y-96550000D01*
X120152155Y-96550000D01*
X120092627Y-96556401D01*
X120092620Y-96556403D01*
X119957913Y-96606645D01*
X119957906Y-96606649D01*
X119842812Y-96692809D01*
X119842809Y-96692812D01*
X119756649Y-96807906D01*
X119756645Y-96807913D01*
X119706403Y-96942620D01*
X119706401Y-96942627D01*
X119700000Y-97002155D01*
X109024150Y-97002155D01*
X109059814Y-96944334D01*
X109114999Y-96777797D01*
X109116378Y-96764297D01*
X109142774Y-96699606D01*
X109199954Y-96659455D01*
X109239736Y-96652900D01*
X113064307Y-96652900D01*
X113149165Y-96636019D01*
X113190444Y-96627809D01*
X113309264Y-96578592D01*
X113318398Y-96572489D01*
X113323468Y-96569102D01*
X113397426Y-96519685D01*
X113416200Y-96507141D01*
X115387022Y-94536319D01*
X115448345Y-94502834D01*
X115474703Y-94500000D01*
X129285500Y-94500000D01*
X129352539Y-94519685D01*
X129354387Y-94520896D01*
X129405717Y-94555193D01*
X129405718Y-94555194D01*
X129440727Y-94578587D01*
X129440735Y-94578591D01*
X129440736Y-94578592D01*
X129559556Y-94627809D01*
X129559560Y-94627809D01*
X129559561Y-94627810D01*
X129685692Y-94652900D01*
X129685695Y-94652900D01*
X130800918Y-94652900D01*
X130831798Y-94656806D01*
X131249498Y-94764215D01*
X131266717Y-94768323D01*
X131266719Y-94768323D01*
X131271559Y-94769478D01*
X131271510Y-94769682D01*
X131286990Y-94773556D01*
X131320745Y-94785368D01*
X131320752Y-94785369D01*
X131499996Y-94805565D01*
X131500000Y-94805565D01*
X131500004Y-94805565D01*
X131679248Y-94785369D01*
X131679248Y-94785368D01*
X131679255Y-94785368D01*
X131721425Y-94770611D01*
X131746133Y-94765017D01*
X131746133Y-94765012D01*
X131746256Y-94764989D01*
X131748908Y-94764389D01*
X131750501Y-94764215D01*
X132168201Y-94656806D01*
X132199082Y-94652900D01*
X132876000Y-94652900D01*
X132943039Y-94672585D01*
X132988794Y-94725389D01*
X133000000Y-94776900D01*
X133000000Y-96500000D01*
X138749876Y-96500000D01*
X138816915Y-96519685D01*
X138849140Y-96549686D01*
X138892454Y-96607546D01*
X138914434Y-96624000D01*
X139007664Y-96693793D01*
X139007671Y-96693797D01*
X139142517Y-96744091D01*
X139142516Y-96744091D01*
X139149444Y-96744835D01*
X139202127Y-96750500D01*
X140797872Y-96750499D01*
X140857483Y-96744091D01*
X140992331Y-96693796D01*
X141107546Y-96607546D01*
X141150858Y-96549687D01*
X141206791Y-96507818D01*
X141250124Y-96500000D01*
X141376000Y-96500000D01*
X141443039Y-96519685D01*
X141488794Y-96572489D01*
X141500000Y-96624000D01*
X141500000Y-99375500D01*
X141480315Y-99442539D01*
X141427511Y-99488294D01*
X141376000Y-99499500D01*
X105006404Y-99499500D01*
X105000171Y-99499343D01*
X104982457Y-99498451D01*
X104617294Y-99480071D01*
X104606621Y-99479070D01*
X104228818Y-99427071D01*
X104218271Y-99425151D01*
X103846384Y-99340717D01*
X103836041Y-99337894D01*
X103472825Y-99221650D01*
X103462766Y-99217944D01*
X103110955Y-99070765D01*
X103101253Y-99066204D01*
X102763468Y-98889185D01*
X102754196Y-98883803D01*
X102432959Y-98678267D01*
X102424187Y-98672104D01*
X102197638Y-98497844D01*
X119700000Y-98497844D01*
X119706401Y-98557372D01*
X119706403Y-98557379D01*
X119756645Y-98692086D01*
X119756649Y-98692093D01*
X119842809Y-98807187D01*
X119842812Y-98807190D01*
X119957906Y-98893350D01*
X119957913Y-98893354D01*
X120092620Y-98943596D01*
X120092627Y-98943598D01*
X120152155Y-98949999D01*
X120152172Y-98950000D01*
X121100000Y-98950000D01*
X121600000Y-98950000D01*
X122547828Y-98950000D01*
X122547844Y-98949999D01*
X122607372Y-98943598D01*
X122607379Y-98943596D01*
X122742086Y-98893354D01*
X122742093Y-98893350D01*
X122857187Y-98807190D01*
X122857190Y-98807187D01*
X122943350Y-98692093D01*
X122943354Y-98692086D01*
X122993596Y-98557379D01*
X122993598Y-98557372D01*
X122999999Y-98497844D01*
X127000000Y-98497844D01*
X127006401Y-98557372D01*
X127006403Y-98557379D01*
X127056645Y-98692086D01*
X127056649Y-98692093D01*
X127142809Y-98807187D01*
X127142812Y-98807190D01*
X127257906Y-98893350D01*
X127257913Y-98893354D01*
X127392620Y-98943596D01*
X127392627Y-98943598D01*
X127452155Y-98949999D01*
X127452172Y-98950000D01*
X128400000Y-98950000D01*
X128900000Y-98950000D01*
X129847828Y-98950000D01*
X129847844Y-98949999D01*
X129907372Y-98943598D01*
X129907379Y-98943596D01*
X130042086Y-98893354D01*
X130042093Y-98893350D01*
X130157187Y-98807190D01*
X130157190Y-98807187D01*
X130243350Y-98692093D01*
X130243354Y-98692086D01*
X130293596Y-98557379D01*
X130293598Y-98557372D01*
X130299999Y-98497844D01*
X130300000Y-98497827D01*
X130300000Y-98000000D01*
X128900000Y-98000000D01*
X128900000Y-98950000D01*
X128400000Y-98950000D01*
X128400000Y-98000000D01*
X127000000Y-98000000D01*
X127000000Y-98497844D01*
X122999999Y-98497844D01*
X123000000Y-98497827D01*
X123000000Y-98000000D01*
X121600000Y-98000000D01*
X121600000Y-98950000D01*
X121100000Y-98950000D01*
X121100000Y-98000000D01*
X119700000Y-98000000D01*
X119700000Y-98497844D01*
X102197638Y-98497844D01*
X102121912Y-98439596D01*
X102113705Y-98432699D01*
X101832636Y-98174944D01*
X101825055Y-98167363D01*
X101567297Y-97886290D01*
X101560403Y-97878087D01*
X101327895Y-97575812D01*
X101321732Y-97567040D01*
X101198858Y-97374998D01*
X101116195Y-97245801D01*
X101110814Y-97236531D01*
X100987996Y-97002172D01*
X100933792Y-96898740D01*
X100929234Y-96889044D01*
X100882693Y-96777795D01*
X100839683Y-96674986D01*
X104075001Y-96674986D01*
X104085494Y-96777697D01*
X104140641Y-96944119D01*
X104140643Y-96944124D01*
X104232684Y-97093345D01*
X104356654Y-97217315D01*
X104505875Y-97309356D01*
X104505880Y-97309358D01*
X104672302Y-97364505D01*
X104672309Y-97364506D01*
X104775019Y-97374999D01*
X104949999Y-97374999D01*
X105450000Y-97374999D01*
X105624972Y-97374999D01*
X105624986Y-97374998D01*
X105727697Y-97364505D01*
X105894119Y-97309358D01*
X105894124Y-97309356D01*
X106043345Y-97217315D01*
X106167315Y-97093345D01*
X106259356Y-96944124D01*
X106259358Y-96944119D01*
X106314505Y-96777697D01*
X106314506Y-96777690D01*
X106324999Y-96674986D01*
X106325000Y-96674973D01*
X106325000Y-96250000D01*
X105450000Y-96250000D01*
X105450000Y-97374999D01*
X104949999Y-97374999D01*
X104950000Y-97374998D01*
X104950000Y-96250000D01*
X104075001Y-96250000D01*
X104075001Y-96674986D01*
X100839683Y-96674986D01*
X100782055Y-96537233D01*
X100778349Y-96527174D01*
X100662105Y-96163958D01*
X100659282Y-96153615D01*
X100574848Y-95781728D01*
X100572928Y-95771181D01*
X100520929Y-95393378D01*
X100519928Y-95382704D01*
X100517024Y-95325013D01*
X104075000Y-95325013D01*
X104075000Y-95750000D01*
X104950000Y-95750000D01*
X104950000Y-94625000D01*
X104775029Y-94625000D01*
X104775012Y-94625001D01*
X104672302Y-94635494D01*
X104505880Y-94690641D01*
X104505875Y-94690643D01*
X104356654Y-94782684D01*
X104232684Y-94906654D01*
X104140643Y-95055875D01*
X104140641Y-95055880D01*
X104085494Y-95222302D01*
X104085493Y-95222309D01*
X104075000Y-95325013D01*
X100517024Y-95325013D01*
X100516045Y-95305565D01*
X100500657Y-94999829D01*
X100500500Y-94993596D01*
X100500500Y-91174986D01*
X103975001Y-91174986D01*
X103985494Y-91277697D01*
X104040641Y-91444119D01*
X104040643Y-91444124D01*
X104132684Y-91593345D01*
X104256654Y-91717315D01*
X104405875Y-91809356D01*
X104405880Y-91809358D01*
X104572302Y-91864505D01*
X104572309Y-91864506D01*
X104675019Y-91874999D01*
X104849999Y-91874999D01*
X104850000Y-91874998D01*
X104850000Y-90750000D01*
X103975001Y-90750000D01*
X103975001Y-91174986D01*
X100500500Y-91174986D01*
X100500500Y-89825013D01*
X103975000Y-89825013D01*
X103975000Y-90250000D01*
X104850000Y-90250000D01*
X104850000Y-89125000D01*
X104675029Y-89125000D01*
X104675012Y-89125001D01*
X104572302Y-89135494D01*
X104405880Y-89190641D01*
X104405875Y-89190643D01*
X104256654Y-89282684D01*
X104132684Y-89406654D01*
X104040643Y-89555875D01*
X104040641Y-89555880D01*
X103985494Y-89722302D01*
X103985493Y-89722309D01*
X103975000Y-89825013D01*
X100500500Y-89825013D01*
X100500500Y-85174986D01*
X103975001Y-85174986D01*
X103985494Y-85277697D01*
X104040641Y-85444119D01*
X104040643Y-85444124D01*
X104132684Y-85593345D01*
X104256654Y-85717315D01*
X104405875Y-85809356D01*
X104405880Y-85809358D01*
X104572302Y-85864505D01*
X104572309Y-85864506D01*
X104675019Y-85874999D01*
X104849999Y-85874999D01*
X104850000Y-85874998D01*
X104850000Y-84750000D01*
X103975001Y-84750000D01*
X103975001Y-85174986D01*
X100500500Y-85174986D01*
X100500500Y-83825013D01*
X103975000Y-83825013D01*
X103975000Y-84250000D01*
X104850000Y-84250000D01*
X104850000Y-83125000D01*
X104675029Y-83125000D01*
X104675012Y-83125001D01*
X104572302Y-83135494D01*
X104405880Y-83190641D01*
X104405875Y-83190643D01*
X104256654Y-83282684D01*
X104132684Y-83406654D01*
X104040643Y-83555875D01*
X104040641Y-83555880D01*
X103985494Y-83722302D01*
X103985493Y-83722309D01*
X103975000Y-83825013D01*
X100500500Y-83825013D01*
X100500500Y-79674986D01*
X103975001Y-79674986D01*
X103985494Y-79777697D01*
X104040641Y-79944119D01*
X104040643Y-79944124D01*
X104132684Y-80093345D01*
X104256654Y-80217315D01*
X104405875Y-80309356D01*
X104405880Y-80309358D01*
X104572302Y-80364505D01*
X104572309Y-80364506D01*
X104675019Y-80374999D01*
X104849999Y-80374999D01*
X104850000Y-80374998D01*
X104850000Y-79250000D01*
X103975001Y-79250000D01*
X103975001Y-79674986D01*
X100500500Y-79674986D01*
X100500500Y-78325013D01*
X103975000Y-78325013D01*
X103975000Y-78750000D01*
X104850000Y-78750000D01*
X104850000Y-77625000D01*
X104675029Y-77625000D01*
X104675012Y-77625001D01*
X104572302Y-77635494D01*
X104405880Y-77690641D01*
X104405875Y-77690643D01*
X104256654Y-77782684D01*
X104132684Y-77906654D01*
X104040643Y-78055875D01*
X104040641Y-78055880D01*
X103985494Y-78222302D01*
X103985493Y-78222309D01*
X103975000Y-78325013D01*
X100500500Y-78325013D01*
X100500500Y-74174986D01*
X103975001Y-74174986D01*
X103985494Y-74277697D01*
X104040641Y-74444119D01*
X104040643Y-74444124D01*
X104132684Y-74593345D01*
X104256654Y-74717315D01*
X104405875Y-74809356D01*
X104405880Y-74809358D01*
X104572302Y-74864505D01*
X104572309Y-74864506D01*
X104675019Y-74874999D01*
X104849999Y-74874999D01*
X104850000Y-74874998D01*
X104850000Y-73750000D01*
X103975001Y-73750000D01*
X103975001Y-74174986D01*
X100500500Y-74174986D01*
X100500500Y-72825013D01*
X103975000Y-72825013D01*
X103975000Y-73250000D01*
X104850000Y-73250000D01*
X104850000Y-72125000D01*
X104675029Y-72125000D01*
X104675012Y-72125001D01*
X104572302Y-72135494D01*
X104405880Y-72190641D01*
X104405875Y-72190643D01*
X104256654Y-72282684D01*
X104132684Y-72406654D01*
X104040643Y-72555875D01*
X104040641Y-72555880D01*
X103985494Y-72722302D01*
X103985493Y-72722309D01*
X103975000Y-72825013D01*
X100500500Y-72825013D01*
X100500500Y-68174986D01*
X103975001Y-68174986D01*
X103985494Y-68277697D01*
X104040641Y-68444119D01*
X104040643Y-68444124D01*
X104132684Y-68593345D01*
X104256654Y-68717315D01*
X104405875Y-68809356D01*
X104405880Y-68809358D01*
X104572302Y-68864505D01*
X104572309Y-68864506D01*
X104675019Y-68874999D01*
X104849999Y-68874999D01*
X104850000Y-68874998D01*
X104850000Y-67750000D01*
X103975001Y-67750000D01*
X103975001Y-68174986D01*
X100500500Y-68174986D01*
X100500500Y-66825013D01*
X103975000Y-66825013D01*
X103975000Y-67250000D01*
X104850000Y-67250000D01*
X104850000Y-66125000D01*
X104675029Y-66125000D01*
X104675012Y-66125001D01*
X104572302Y-66135494D01*
X104405880Y-66190641D01*
X104405875Y-66190643D01*
X104256654Y-66282684D01*
X104132684Y-66406654D01*
X104040643Y-66555875D01*
X104040641Y-66555880D01*
X103985494Y-66722302D01*
X103985493Y-66722309D01*
X103975000Y-66825013D01*
X100500500Y-66825013D01*
X100500500Y-62674986D01*
X103975001Y-62674986D01*
X103985494Y-62777697D01*
X104040641Y-62944119D01*
X104040643Y-62944124D01*
X104132684Y-63093345D01*
X104256654Y-63217315D01*
X104405875Y-63309356D01*
X104405880Y-63309358D01*
X104572302Y-63364505D01*
X104572309Y-63364506D01*
X104675019Y-63374999D01*
X104849999Y-63374999D01*
X104850000Y-63374998D01*
X104850000Y-62250000D01*
X103975001Y-62250000D01*
X103975001Y-62674986D01*
X100500500Y-62674986D01*
X100500500Y-61325013D01*
X103975000Y-61325013D01*
X103975000Y-61750000D01*
X104850000Y-61750000D01*
X104850000Y-60625000D01*
X104675029Y-60625000D01*
X104675012Y-60625001D01*
X104572302Y-60635494D01*
X104405880Y-60690641D01*
X104405875Y-60690643D01*
X104256654Y-60782684D01*
X104132684Y-60906654D01*
X104040643Y-61055875D01*
X104040641Y-61055880D01*
X103985494Y-61222302D01*
X103985493Y-61222309D01*
X103975000Y-61325013D01*
X100500500Y-61325013D01*
X100500500Y-57174986D01*
X104075001Y-57174986D01*
X104085494Y-57277697D01*
X104140641Y-57444119D01*
X104140643Y-57444124D01*
X104232684Y-57593345D01*
X104356654Y-57717315D01*
X104505875Y-57809356D01*
X104505880Y-57809358D01*
X104672302Y-57864505D01*
X104672309Y-57864506D01*
X104775019Y-57874999D01*
X104949999Y-57874999D01*
X104950000Y-57874998D01*
X104950000Y-56750000D01*
X104075001Y-56750000D01*
X104075001Y-57174986D01*
X100500500Y-57174986D01*
X100500500Y-55825013D01*
X104075000Y-55825013D01*
X104075000Y-56250000D01*
X104950000Y-56250000D01*
X104950000Y-55125000D01*
X104775029Y-55125000D01*
X104775012Y-55125001D01*
X104672302Y-55135494D01*
X104505880Y-55190641D01*
X104505875Y-55190643D01*
X104356654Y-55282684D01*
X104232684Y-55406654D01*
X104140643Y-55555875D01*
X104140641Y-55555880D01*
X104085494Y-55722302D01*
X104085493Y-55722309D01*
X104075000Y-55825013D01*
X100500500Y-55825013D01*
X100500500Y-55002706D01*
X100500618Y-54997297D01*
X100509783Y-54787384D01*
X100517386Y-54613226D01*
X100518326Y-54602495D01*
X100568152Y-54224025D01*
X100570025Y-54213405D01*
X100652649Y-53840709D01*
X100655440Y-53830295D01*
X100770230Y-53466227D01*
X100773917Y-53456095D01*
X100920003Y-53103412D01*
X100924561Y-53093638D01*
X101100822Y-52755045D01*
X101106217Y-52745700D01*
X101311325Y-52423744D01*
X101317515Y-52414905D01*
X101549896Y-52112060D01*
X101556834Y-52103791D01*
X101814726Y-51822352D01*
X101822352Y-51814726D01*
X102103791Y-51556834D01*
X102112060Y-51549896D01*
X102414905Y-51317515D01*
X102423744Y-51311325D01*
X102745700Y-51106217D01*
X102755045Y-51100822D01*
X103093638Y-50924561D01*
X103103412Y-50920003D01*
X103456095Y-50773917D01*
X103466227Y-50770230D01*
X103830295Y-50655440D01*
X103840709Y-50652649D01*
X104213405Y-50570025D01*
X104224025Y-50568152D01*
X104602495Y-50518326D01*
X104613226Y-50517386D01*
X104997297Y-50500617D01*
X105002706Y-50500500D01*
X139476000Y-50500500D01*
X139543039Y-50520185D01*
G37*
G04 #@! TD.AperFunction*
G04 #@! TA.AperFunction,Conductor*
G36*
X145002702Y-50500617D02*
G01*
X145386771Y-50517386D01*
X145397506Y-50518326D01*
X145775971Y-50568152D01*
X145786597Y-50570025D01*
X146159284Y-50652648D01*
X146169710Y-50655442D01*
X146533765Y-50770227D01*
X146543911Y-50773920D01*
X146896578Y-50920000D01*
X146906369Y-50924566D01*
X147244942Y-51100816D01*
X147254309Y-51106223D01*
X147376615Y-51184141D01*
X147576244Y-51311318D01*
X147585105Y-51317523D01*
X147887930Y-51549889D01*
X147896217Y-51556843D01*
X148177635Y-51814715D01*
X148185284Y-51822364D01*
X148443156Y-52103782D01*
X148450110Y-52112069D01*
X148682476Y-52414894D01*
X148688681Y-52423755D01*
X148893775Y-52745689D01*
X148899183Y-52755057D01*
X149075430Y-53093623D01*
X149080002Y-53103427D01*
X149226075Y-53456078D01*
X149229775Y-53466244D01*
X149344554Y-53830278D01*
X149347354Y-53840727D01*
X149429971Y-54213389D01*
X149431849Y-54224042D01*
X149481671Y-54602473D01*
X149482614Y-54613249D01*
X149499382Y-54997297D01*
X149499500Y-55002706D01*
X149499500Y-92376000D01*
X149479815Y-92443039D01*
X149427011Y-92488794D01*
X149375500Y-92500000D01*
X130401626Y-92500000D01*
X130334587Y-92480315D01*
X130288832Y-92427511D01*
X130285444Y-92419333D01*
X130243797Y-92307671D01*
X130243793Y-92307664D01*
X130157547Y-92192455D01*
X130157544Y-92192452D01*
X130042335Y-92106206D01*
X130042328Y-92106202D01*
X129907482Y-92055908D01*
X129907483Y-92055908D01*
X129847883Y-92049501D01*
X129847881Y-92049500D01*
X129847873Y-92049500D01*
X129847864Y-92049500D01*
X127452129Y-92049500D01*
X127452123Y-92049501D01*
X127392516Y-92055908D01*
X127257671Y-92106202D01*
X127257664Y-92106206D01*
X127142455Y-92192452D01*
X127142452Y-92192455D01*
X127056206Y-92307664D01*
X127056202Y-92307671D01*
X127014556Y-92419333D01*
X126972685Y-92475267D01*
X126907221Y-92499684D01*
X126898374Y-92500000D01*
X123101626Y-92500000D01*
X123034587Y-92480315D01*
X122988832Y-92427511D01*
X122985444Y-92419333D01*
X122943797Y-92307671D01*
X122943793Y-92307664D01*
X122857547Y-92192455D01*
X122857544Y-92192452D01*
X122742335Y-92106206D01*
X122742328Y-92106202D01*
X122607482Y-92055908D01*
X122607483Y-92055908D01*
X122547883Y-92049501D01*
X122547881Y-92049500D01*
X122547873Y-92049500D01*
X122547864Y-92049500D01*
X120152129Y-92049500D01*
X120152123Y-92049501D01*
X120092516Y-92055908D01*
X119957671Y-92106202D01*
X119957664Y-92106206D01*
X119842455Y-92192452D01*
X119842452Y-92192455D01*
X119756206Y-92307664D01*
X119756202Y-92307671D01*
X119714556Y-92419333D01*
X119672685Y-92475267D01*
X119607221Y-92499684D01*
X119598374Y-92500000D01*
X118624000Y-92500000D01*
X118556961Y-92480315D01*
X118511206Y-92427511D01*
X118500000Y-92376000D01*
X118500000Y-91474703D01*
X118519685Y-91407664D01*
X118536319Y-91387022D01*
X119407137Y-90516204D01*
X119407141Y-90516200D01*
X119478592Y-90409264D01*
X119527809Y-90290444D01*
X119535754Y-90250500D01*
X119552900Y-90164305D01*
X119552900Y-86427721D01*
X119572585Y-86360682D01*
X119625389Y-86314927D01*
X119694547Y-86304983D01*
X119758103Y-86334008D01*
X119781893Y-86361747D01*
X119870184Y-86502262D01*
X119997738Y-86629816D01*
X120150478Y-86725789D01*
X120320745Y-86785368D01*
X120320750Y-86785369D01*
X120499996Y-86805565D01*
X120500000Y-86805565D01*
X120500004Y-86805565D01*
X120679249Y-86785369D01*
X120679252Y-86785368D01*
X120679255Y-86785368D01*
X120849522Y-86725789D01*
X121002262Y-86629816D01*
X121129816Y-86502262D01*
X121225789Y-86349522D01*
X121285368Y-86179255D01*
X121305565Y-86000000D01*
X121305452Y-85998999D01*
X121285369Y-85820750D01*
X121285368Y-85820748D01*
X121285368Y-85820745D01*
X121270613Y-85778580D01*
X121265017Y-85753862D01*
X121265011Y-85753864D01*
X121264984Y-85753720D01*
X121264389Y-85751089D01*
X121264215Y-85749502D01*
X121264215Y-85749499D01*
X121261128Y-85737495D01*
X121156807Y-85331797D01*
X121152900Y-85300916D01*
X121152900Y-84316803D01*
X121172585Y-84249764D01*
X121189219Y-84229122D01*
X122136522Y-83281819D01*
X122197845Y-83248334D01*
X122224203Y-83245500D01*
X123915686Y-83245500D01*
X123915694Y-83245500D01*
X123952569Y-83242598D01*
X123952571Y-83242597D01*
X123952573Y-83242597D01*
X123994191Y-83230505D01*
X124110398Y-83196744D01*
X124251865Y-83113081D01*
X124368081Y-82996865D01*
X124451744Y-82855398D01*
X124497598Y-82697569D01*
X124500500Y-82660694D01*
X124500500Y-82229306D01*
X124497598Y-82192431D01*
X124451744Y-82034602D01*
X124368081Y-81893135D01*
X124368078Y-81893132D01*
X124363298Y-81886969D01*
X124365750Y-81885066D01*
X124339155Y-81836421D01*
X124344104Y-81766726D01*
X124364940Y-81734304D01*
X124363298Y-81733031D01*
X124368075Y-81726870D01*
X124368081Y-81726865D01*
X124451744Y-81585398D01*
X124497598Y-81427569D01*
X124500500Y-81390694D01*
X124500500Y-80959306D01*
X124497598Y-80922431D01*
X124451744Y-80764602D01*
X124368081Y-80623135D01*
X124368078Y-80623132D01*
X124363298Y-80616969D01*
X124365750Y-80615066D01*
X124339155Y-80566421D01*
X124344104Y-80496726D01*
X124364940Y-80464304D01*
X124363298Y-80463031D01*
X124368075Y-80456870D01*
X124368081Y-80456865D01*
X124451744Y-80315398D01*
X124497598Y-80157569D01*
X124500500Y-80120694D01*
X124500500Y-79689306D01*
X124497598Y-79652431D01*
X124451744Y-79494602D01*
X124368081Y-79353135D01*
X124368078Y-79353132D01*
X124363298Y-79346969D01*
X124365750Y-79345066D01*
X124339155Y-79296421D01*
X124344104Y-79226726D01*
X124364940Y-79194304D01*
X124363298Y-79193031D01*
X124368075Y-79186870D01*
X124368081Y-79186865D01*
X124451744Y-79045398D01*
X124497598Y-78887569D01*
X124500500Y-78850694D01*
X124500500Y-78419306D01*
X124497598Y-78382431D01*
X124496903Y-78380040D01*
X124451745Y-78224606D01*
X124451744Y-78224603D01*
X124451744Y-78224602D01*
X124368081Y-78083135D01*
X124368078Y-78083132D01*
X124363298Y-78076969D01*
X124365750Y-78075066D01*
X124339155Y-78026421D01*
X124344104Y-77956726D01*
X124364940Y-77924304D01*
X124363298Y-77923031D01*
X124368075Y-77916870D01*
X124368081Y-77916865D01*
X124451744Y-77775398D01*
X124497598Y-77617569D01*
X124500500Y-77580694D01*
X124500500Y-77149306D01*
X124497598Y-77112431D01*
X124451744Y-76954602D01*
X124368081Y-76813135D01*
X124368078Y-76813132D01*
X124363298Y-76806969D01*
X124365750Y-76805066D01*
X124339155Y-76756421D01*
X124344104Y-76686726D01*
X124364940Y-76654304D01*
X124363298Y-76653031D01*
X124368075Y-76646870D01*
X124368081Y-76646865D01*
X124451744Y-76505398D01*
X124497598Y-76347569D01*
X124500500Y-76310694D01*
X124500500Y-75879306D01*
X124497598Y-75842431D01*
X124451744Y-75684602D01*
X124368081Y-75543135D01*
X124368078Y-75543132D01*
X124363298Y-75536969D01*
X124365750Y-75535066D01*
X124339155Y-75486421D01*
X124344104Y-75416726D01*
X124364940Y-75384304D01*
X124363298Y-75383031D01*
X124368075Y-75376870D01*
X124368081Y-75376865D01*
X124451744Y-75235398D01*
X124497598Y-75077569D01*
X124500500Y-75040694D01*
X124500500Y-74609306D01*
X124497598Y-74572431D01*
X124481126Y-74515736D01*
X124451745Y-74414606D01*
X124451744Y-74414603D01*
X124451744Y-74414602D01*
X124368081Y-74273135D01*
X124368078Y-74273132D01*
X124363298Y-74266969D01*
X124365635Y-74265155D01*
X124338798Y-74216050D01*
X124343756Y-74146356D01*
X124364554Y-74113998D01*
X124362903Y-74112717D01*
X124367686Y-74106550D01*
X124451281Y-73965198D01*
X124497100Y-73807486D01*
X124497295Y-73805001D01*
X124497295Y-73805000D01*
X121552705Y-73805000D01*
X121552704Y-73805001D01*
X121552899Y-73807486D01*
X121598718Y-73965199D01*
X121610416Y-73984978D01*
X121627600Y-74052702D01*
X121605441Y-74118965D01*
X121550975Y-74162728D01*
X121503685Y-74172100D01*
X118624000Y-74172100D01*
X118556961Y-74152415D01*
X118511206Y-74099611D01*
X118500000Y-74048100D01*
X118500000Y-73304998D01*
X121552704Y-73304998D01*
X121552705Y-73305000D01*
X122775000Y-73305000D01*
X123275000Y-73305000D01*
X124497295Y-73305000D01*
X124497295Y-73304998D01*
X124497100Y-73302513D01*
X124451281Y-73144801D01*
X124367685Y-73003447D01*
X124367678Y-73003438D01*
X124251561Y-72887321D01*
X124251552Y-72887314D01*
X124110196Y-72803717D01*
X124110193Y-72803716D01*
X123952495Y-72757900D01*
X123952489Y-72757899D01*
X123915649Y-72755000D01*
X123275000Y-72755000D01*
X123275000Y-73305000D01*
X122775000Y-73305000D01*
X122775000Y-72755000D01*
X122134350Y-72755000D01*
X122097510Y-72757899D01*
X122097504Y-72757900D01*
X121939806Y-72803716D01*
X121939803Y-72803717D01*
X121798447Y-72887314D01*
X121798438Y-72887321D01*
X121682321Y-73003438D01*
X121682314Y-73003447D01*
X121598718Y-73144801D01*
X121552899Y-73302513D01*
X121552704Y-73304998D01*
X118500000Y-73304998D01*
X118500000Y-72129500D01*
X118519685Y-72062461D01*
X118572489Y-72016706D01*
X118624000Y-72005500D01*
X125370500Y-72005500D01*
X125437539Y-72025185D01*
X125483294Y-72077989D01*
X125494500Y-72129500D01*
X125494500Y-73876000D01*
X125494501Y-73876009D01*
X125506052Y-73983450D01*
X125506054Y-73983462D01*
X125517260Y-74034972D01*
X125551383Y-74137497D01*
X125551386Y-74137503D01*
X125629171Y-74258537D01*
X125629179Y-74258548D01*
X125674923Y-74311340D01*
X125674926Y-74311343D01*
X125674930Y-74311347D01*
X125783664Y-74405567D01*
X125783667Y-74405568D01*
X125783668Y-74405569D01*
X125803449Y-74414603D01*
X125914541Y-74465338D01*
X125981580Y-74485023D01*
X125981584Y-74485024D01*
X126124000Y-74505500D01*
X126124003Y-74505500D01*
X126375500Y-74505500D01*
X126442539Y-74525185D01*
X126488294Y-74577989D01*
X126499500Y-74629500D01*
X126499500Y-75040701D01*
X126502401Y-75077567D01*
X126502402Y-75077573D01*
X126548254Y-75235393D01*
X126548255Y-75235396D01*
X126631917Y-75376862D01*
X126636702Y-75383031D01*
X126634256Y-75384927D01*
X126660857Y-75433642D01*
X126655873Y-75503334D01*
X126635069Y-75535703D01*
X126636702Y-75536969D01*
X126631917Y-75543137D01*
X126548255Y-75684603D01*
X126548254Y-75684606D01*
X126502402Y-75842426D01*
X126502401Y-75842432D01*
X126499500Y-75879298D01*
X126499500Y-76310701D01*
X126502401Y-76347567D01*
X126502402Y-76347573D01*
X126548254Y-76505393D01*
X126548255Y-76505396D01*
X126631917Y-76646862D01*
X126636702Y-76653031D01*
X126634369Y-76654840D01*
X126661210Y-76703995D01*
X126656226Y-76773687D01*
X126635470Y-76806021D01*
X126637097Y-76807283D01*
X126632313Y-76813449D01*
X126548718Y-76954801D01*
X126502899Y-77112513D01*
X126502704Y-77114998D01*
X126502705Y-77115000D01*
X129447295Y-77115000D01*
X129447295Y-77114998D01*
X129447100Y-77112513D01*
X129401281Y-76954800D01*
X129389584Y-76935022D01*
X129372400Y-76867298D01*
X129394559Y-76801035D01*
X129449025Y-76757272D01*
X129496315Y-76747900D01*
X130773197Y-76747900D01*
X130840236Y-76767585D01*
X130860878Y-76784219D01*
X132420381Y-78343721D01*
X132453866Y-78405044D01*
X132456700Y-78431402D01*
X132456700Y-78620402D01*
X132437015Y-78687441D01*
X132384211Y-78733196D01*
X132315053Y-78743140D01*
X132269618Y-78727157D01*
X131991941Y-78563075D01*
X131967342Y-78544001D01*
X131551205Y-78127863D01*
X131551204Y-78127862D01*
X131551200Y-78127859D01*
X131444264Y-78056408D01*
X131325444Y-78007191D01*
X131325438Y-78007189D01*
X131199307Y-77982100D01*
X131199305Y-77982100D01*
X129496315Y-77982100D01*
X129429276Y-77962415D01*
X129383521Y-77909611D01*
X129373577Y-77840453D01*
X129389584Y-77794978D01*
X129401281Y-77775199D01*
X129447100Y-77617486D01*
X129447295Y-77615001D01*
X129447295Y-77615000D01*
X126502705Y-77615000D01*
X126502704Y-77615001D01*
X126502899Y-77617486D01*
X126548718Y-77775198D01*
X126632314Y-77916552D01*
X126637100Y-77922722D01*
X126634640Y-77924629D01*
X126661210Y-77973288D01*
X126656226Y-78042980D01*
X126635162Y-78075781D01*
X126636699Y-78076974D01*
X126631915Y-78083140D01*
X126548255Y-78224603D01*
X126548254Y-78224606D01*
X126502402Y-78382426D01*
X126502401Y-78382432D01*
X126499500Y-78419298D01*
X126499500Y-78850701D01*
X126502401Y-78887567D01*
X126502402Y-78887573D01*
X126548254Y-79045393D01*
X126548255Y-79045396D01*
X126631917Y-79186862D01*
X126636702Y-79193031D01*
X126634256Y-79194927D01*
X126660857Y-79243642D01*
X126655873Y-79313334D01*
X126635069Y-79345703D01*
X126636702Y-79346969D01*
X126631917Y-79353137D01*
X126548255Y-79494603D01*
X126548254Y-79494606D01*
X126502402Y-79652426D01*
X126502401Y-79652432D01*
X126499500Y-79689298D01*
X126499500Y-80120701D01*
X126502401Y-80157567D01*
X126502402Y-80157573D01*
X126548254Y-80315393D01*
X126548255Y-80315396D01*
X126548256Y-80315398D01*
X126568437Y-80349522D01*
X126631917Y-80456862D01*
X126636702Y-80463031D01*
X126634256Y-80464927D01*
X126660857Y-80513642D01*
X126655873Y-80583334D01*
X126635069Y-80615703D01*
X126636702Y-80616969D01*
X126631917Y-80623137D01*
X126548255Y-80764603D01*
X126548254Y-80764606D01*
X126502402Y-80922426D01*
X126502401Y-80922432D01*
X126499500Y-80959298D01*
X126499500Y-81390701D01*
X126502401Y-81427567D01*
X126502402Y-81427573D01*
X126548254Y-81585393D01*
X126548255Y-81585396D01*
X126631917Y-81726862D01*
X126636702Y-81733031D01*
X126634256Y-81734927D01*
X126660857Y-81783642D01*
X126655873Y-81853334D01*
X126635069Y-81885703D01*
X126636702Y-81886969D01*
X126631917Y-81893137D01*
X126548255Y-82034603D01*
X126548254Y-82034606D01*
X126502402Y-82192426D01*
X126502401Y-82192432D01*
X126499500Y-82229298D01*
X126499500Y-82660701D01*
X126502401Y-82697567D01*
X126502402Y-82697573D01*
X126548254Y-82855393D01*
X126548255Y-82855396D01*
X126631917Y-82996862D01*
X126631923Y-82996870D01*
X126748129Y-83113076D01*
X126748133Y-83113079D01*
X126748135Y-83113081D01*
X126889602Y-83196744D01*
X126931224Y-83208836D01*
X127047426Y-83242597D01*
X127047429Y-83242597D01*
X127047431Y-83242598D01*
X127084306Y-83245500D01*
X127084314Y-83245500D01*
X128865686Y-83245500D01*
X128865694Y-83245500D01*
X128902569Y-83242598D01*
X128902571Y-83242597D01*
X128902573Y-83242597D01*
X128944191Y-83230505D01*
X129060398Y-83196744D01*
X129198336Y-83115167D01*
X129261457Y-83097900D01*
X130554930Y-83097900D01*
X130621969Y-83117585D01*
X130661685Y-83158818D01*
X130770818Y-83343505D01*
X130773044Y-83347665D01*
X130776073Y-83352487D01*
X130777815Y-83355346D01*
X130782501Y-83363275D01*
X130791740Y-83378304D01*
X130793118Y-83380189D01*
X130798011Y-83387401D01*
X130870183Y-83502261D01*
X130870184Y-83502262D01*
X130997738Y-83629816D01*
X131150478Y-83725789D01*
X131320745Y-83785368D01*
X131320750Y-83785369D01*
X131427254Y-83797368D01*
X131487772Y-83804187D01*
X131552186Y-83831253D01*
X131591741Y-83888848D01*
X131593879Y-83958685D01*
X131561570Y-84015088D01*
X127765878Y-87810781D01*
X127704555Y-87844266D01*
X127678197Y-87847100D01*
X127199083Y-87847100D01*
X127168202Y-87843193D01*
X126750485Y-87735780D01*
X126728432Y-87730519D01*
X126728480Y-87730316D01*
X126713013Y-87726444D01*
X126690225Y-87718470D01*
X126679250Y-87714630D01*
X126500004Y-87694435D01*
X126499996Y-87694435D01*
X126320750Y-87714630D01*
X126320745Y-87714631D01*
X126150476Y-87774211D01*
X125997737Y-87870184D01*
X125870184Y-87997737D01*
X125774211Y-88150476D01*
X125714631Y-88320745D01*
X125714630Y-88320750D01*
X125694435Y-88499996D01*
X125694435Y-88500003D01*
X125714630Y-88679249D01*
X125714631Y-88679254D01*
X125774211Y-88849523D01*
X125869391Y-89001000D01*
X125870184Y-89002262D01*
X125997738Y-89129816D01*
X126150478Y-89225789D01*
X126320745Y-89285368D01*
X126320750Y-89285369D01*
X126499996Y-89305565D01*
X126500000Y-89305565D01*
X126500004Y-89305565D01*
X126679248Y-89285369D01*
X126679248Y-89285368D01*
X126679255Y-89285368D01*
X126721425Y-89270611D01*
X126746133Y-89265017D01*
X126746133Y-89265012D01*
X126746256Y-89264989D01*
X126748908Y-89264389D01*
X126750501Y-89264215D01*
X127168201Y-89156806D01*
X127199082Y-89152900D01*
X128064307Y-89152900D01*
X128180359Y-89129815D01*
X128190444Y-89127809D01*
X128309264Y-89078592D01*
X128330646Y-89064305D01*
X128416200Y-89007141D01*
X132245019Y-85178320D01*
X132306342Y-85144836D01*
X132376034Y-85149820D01*
X132431967Y-85191692D01*
X132456384Y-85257156D01*
X132456700Y-85266002D01*
X132456700Y-87625500D01*
X132437015Y-87692539D01*
X132384211Y-87738294D01*
X132332701Y-87749500D01*
X132202130Y-87749500D01*
X132202123Y-87749501D01*
X132142516Y-87755908D01*
X132007671Y-87806202D01*
X132007664Y-87806206D01*
X131892455Y-87892452D01*
X131892452Y-87892455D01*
X131806206Y-88007664D01*
X131806202Y-88007671D01*
X131755908Y-88142517D01*
X131749501Y-88202116D01*
X131749501Y-88202123D01*
X131749500Y-88202135D01*
X131749500Y-89797870D01*
X131749501Y-89797876D01*
X131755908Y-89857483D01*
X131806202Y-89992328D01*
X131806206Y-89992335D01*
X131892452Y-90107544D01*
X131892455Y-90107547D01*
X132007664Y-90193793D01*
X132007671Y-90193797D01*
X132142517Y-90244091D01*
X132142516Y-90244091D01*
X132149444Y-90244835D01*
X132202127Y-90250500D01*
X133797872Y-90250499D01*
X133857483Y-90244091D01*
X133992331Y-90193796D01*
X134107546Y-90107546D01*
X134193796Y-89992331D01*
X134244091Y-89857483D01*
X134250500Y-89797873D01*
X134250499Y-88202128D01*
X134244091Y-88142517D01*
X134193796Y-88007669D01*
X134193795Y-88007668D01*
X134193793Y-88007664D01*
X134107547Y-87892455D01*
X134107544Y-87892452D01*
X133992335Y-87806206D01*
X133992328Y-87806202D01*
X133850215Y-87753198D01*
X133850705Y-87751883D01*
X133797262Y-87721446D01*
X133764881Y-87659533D01*
X133762500Y-87635350D01*
X133762500Y-78045292D01*
X133737410Y-77919161D01*
X133737409Y-77919160D01*
X133737409Y-77919156D01*
X133688192Y-77800336D01*
X133657033Y-77753703D01*
X133616741Y-77693401D01*
X133616739Y-77693398D01*
X133616736Y-77693395D01*
X131612923Y-75689581D01*
X131579438Y-75628258D01*
X131584422Y-75558566D01*
X131626294Y-75502633D01*
X131691758Y-75478216D01*
X131700604Y-75477900D01*
X132239307Y-75477900D01*
X132329293Y-75460000D01*
X132365444Y-75452809D01*
X132484264Y-75403592D01*
X132591200Y-75332141D01*
X133234121Y-74689218D01*
X133295444Y-74655734D01*
X133321802Y-74652900D01*
X139897764Y-74652900D01*
X139964803Y-74672585D01*
X140010558Y-74725389D01*
X140021122Y-74764298D01*
X140022501Y-74777797D01*
X140022501Y-74777799D01*
X140059451Y-74889305D01*
X140077686Y-74944334D01*
X140169788Y-75093656D01*
X140293844Y-75217712D01*
X140443166Y-75309814D01*
X140609703Y-75364999D01*
X140712491Y-75375500D01*
X141437508Y-75375499D01*
X141437516Y-75375498D01*
X141437519Y-75375498D01*
X141493802Y-75369748D01*
X141540297Y-75364999D01*
X141706834Y-75309814D01*
X141856156Y-75217712D01*
X141980212Y-75093656D01*
X142072314Y-74944334D01*
X142127499Y-74777797D01*
X142138000Y-74675009D01*
X142138000Y-74674986D01*
X142937501Y-74674986D01*
X142947994Y-74777697D01*
X143003141Y-74944119D01*
X143003143Y-74944124D01*
X143095184Y-75093345D01*
X143219154Y-75217315D01*
X143368375Y-75309356D01*
X143368380Y-75309358D01*
X143534802Y-75364505D01*
X143534809Y-75364506D01*
X143637519Y-75374999D01*
X143749999Y-75374999D01*
X144250000Y-75374999D01*
X144362472Y-75374999D01*
X144362486Y-75374998D01*
X144465197Y-75364505D01*
X144631619Y-75309358D01*
X144631624Y-75309356D01*
X144780845Y-75217315D01*
X144904815Y-75093345D01*
X144996856Y-74944124D01*
X144996858Y-74944119D01*
X145052005Y-74777697D01*
X145052006Y-74777690D01*
X145062499Y-74674986D01*
X145062500Y-74674973D01*
X145062500Y-74250000D01*
X144250000Y-74250000D01*
X144250000Y-75374999D01*
X143749999Y-75374999D01*
X143750000Y-75374998D01*
X143750000Y-74250000D01*
X142937501Y-74250000D01*
X142937501Y-74674986D01*
X142138000Y-74674986D01*
X142137999Y-73325013D01*
X142937500Y-73325013D01*
X142937500Y-73750000D01*
X143750000Y-73750000D01*
X144250000Y-73750000D01*
X145062499Y-73750000D01*
X145062499Y-73325028D01*
X145062498Y-73325013D01*
X145052005Y-73222302D01*
X144996858Y-73055880D01*
X144996856Y-73055875D01*
X144904815Y-72906654D01*
X144780845Y-72782684D01*
X144631624Y-72690643D01*
X144631619Y-72690641D01*
X144465197Y-72635494D01*
X144465190Y-72635493D01*
X144362486Y-72625000D01*
X144250000Y-72625000D01*
X144250000Y-73750000D01*
X143750000Y-73750000D01*
X143750000Y-72625000D01*
X143637527Y-72625000D01*
X143637512Y-72625001D01*
X143534802Y-72635494D01*
X143368380Y-72690641D01*
X143368375Y-72690643D01*
X143219154Y-72782684D01*
X143095184Y-72906654D01*
X143003143Y-73055875D01*
X143003141Y-73055880D01*
X142947994Y-73222302D01*
X142947993Y-73222309D01*
X142937500Y-73325013D01*
X142137999Y-73325013D01*
X142137999Y-73324992D01*
X142131615Y-73262501D01*
X142127499Y-73222203D01*
X142127498Y-73222200D01*
X142119062Y-73196742D01*
X142072314Y-73055666D01*
X141980212Y-72906344D01*
X141856156Y-72782288D01*
X141722760Y-72700009D01*
X141706836Y-72690187D01*
X141706831Y-72690185D01*
X141705362Y-72689698D01*
X141540297Y-72635001D01*
X141540295Y-72635000D01*
X141437510Y-72624500D01*
X140712498Y-72624500D01*
X140712480Y-72624501D01*
X140609703Y-72635000D01*
X140609700Y-72635001D01*
X140443168Y-72690185D01*
X140443163Y-72690187D01*
X140293842Y-72782289D01*
X140169789Y-72906342D01*
X140077687Y-73055663D01*
X140077685Y-73055668D01*
X140077615Y-73055880D01*
X140028052Y-73205453D01*
X140022501Y-73222204D01*
X140022500Y-73222205D01*
X140021122Y-73235702D01*
X139994726Y-73300394D01*
X139937546Y-73340545D01*
X139897764Y-73347100D01*
X134987923Y-73347100D01*
X134920884Y-73327415D01*
X134875129Y-73274611D01*
X134865185Y-73205453D01*
X134894210Y-73141897D01*
X134900242Y-73135419D01*
X134917315Y-73118345D01*
X135009356Y-72969124D01*
X135009358Y-72969119D01*
X135064505Y-72802697D01*
X135064506Y-72802690D01*
X135074999Y-72699986D01*
X135075000Y-72699973D01*
X135075000Y-72250000D01*
X132925001Y-72250000D01*
X132925001Y-72699986D01*
X132935494Y-72802697D01*
X132990641Y-72969119D01*
X132990643Y-72969124D01*
X133082684Y-73118345D01*
X133099758Y-73135419D01*
X133133243Y-73196742D01*
X133128259Y-73266434D01*
X133086387Y-73322367D01*
X133020923Y-73346784D01*
X133012077Y-73347100D01*
X132935693Y-73347100D01*
X132809561Y-73372189D01*
X132809555Y-73372191D01*
X132690737Y-73421407D01*
X132583797Y-73492861D01*
X132217181Y-73859477D01*
X132155858Y-73892962D01*
X132086166Y-73887978D01*
X132030233Y-73846106D01*
X132005816Y-73780642D01*
X132005500Y-73771796D01*
X132005500Y-73524009D01*
X132005500Y-73523999D01*
X131993947Y-73416543D01*
X131982741Y-73365032D01*
X131976773Y-73347100D01*
X131948616Y-73262501D01*
X131946118Y-73257281D01*
X131934938Y-73188312D01*
X131962820Y-73124247D01*
X131966304Y-73120436D01*
X131967707Y-73118661D01*
X131967707Y-73118660D01*
X131967712Y-73118656D01*
X132059814Y-72969334D01*
X132114999Y-72802797D01*
X132125500Y-72700009D01*
X132125499Y-71300013D01*
X132925000Y-71300013D01*
X132925000Y-71750000D01*
X133750000Y-71750000D01*
X134250000Y-71750000D01*
X135074999Y-71750000D01*
X135074999Y-71300028D01*
X135074998Y-71300013D01*
X135064505Y-71197302D01*
X135009358Y-71030880D01*
X135009356Y-71030875D01*
X134917315Y-70881654D01*
X134793345Y-70757684D01*
X134644124Y-70665643D01*
X134644119Y-70665641D01*
X134477697Y-70610494D01*
X134477690Y-70610493D01*
X134374986Y-70600000D01*
X134250000Y-70600000D01*
X134250000Y-71750000D01*
X133750000Y-71750000D01*
X133750000Y-70600000D01*
X133625027Y-70600000D01*
X133625012Y-70600001D01*
X133522302Y-70610494D01*
X133355880Y-70665641D01*
X133355875Y-70665643D01*
X133206654Y-70757684D01*
X133082684Y-70881654D01*
X132990643Y-71030875D01*
X132990641Y-71030880D01*
X132935494Y-71197302D01*
X132935493Y-71197309D01*
X132925000Y-71300013D01*
X132125499Y-71300013D01*
X132125499Y-71299992D01*
X132114999Y-71197203D01*
X132059814Y-71030666D01*
X131967712Y-70881344D01*
X131965548Y-70879180D01*
X131964537Y-70877329D01*
X131963234Y-70875681D01*
X131963515Y-70875458D01*
X131932063Y-70817857D01*
X131937047Y-70748165D01*
X131940436Y-70739985D01*
X131965335Y-70685465D01*
X131965338Y-70685459D01*
X131985023Y-70618420D01*
X131985024Y-70618416D01*
X132005500Y-70476000D01*
X132005500Y-70124000D01*
X131993947Y-70016544D01*
X131982741Y-69965033D01*
X131982637Y-69964722D01*
X131948616Y-69862502D01*
X131948613Y-69862496D01*
X131870828Y-69741462D01*
X131870825Y-69741457D01*
X131870820Y-69741451D01*
X131825076Y-69688659D01*
X131825072Y-69688656D01*
X131825070Y-69688653D01*
X131716336Y-69594433D01*
X131716333Y-69594431D01*
X131716331Y-69594430D01*
X131585465Y-69534664D01*
X131585460Y-69534662D01*
X131585459Y-69534662D01*
X131518420Y-69514977D01*
X131518422Y-69514977D01*
X131518417Y-69514976D01*
X131470944Y-69508150D01*
X131376000Y-69494500D01*
X131375998Y-69494500D01*
X125629500Y-69494500D01*
X125562461Y-69474815D01*
X125516706Y-69422011D01*
X125505500Y-69370500D01*
X125505500Y-68355837D01*
X125525185Y-68288798D01*
X125577989Y-68243043D01*
X125647147Y-68233099D01*
X125694597Y-68250299D01*
X125830869Y-68334353D01*
X125830880Y-68334358D01*
X125997302Y-68389505D01*
X125997309Y-68389506D01*
X126100019Y-68399999D01*
X126224999Y-68399999D01*
X126725000Y-68399999D01*
X126849972Y-68399999D01*
X126849986Y-68399998D01*
X126952697Y-68389505D01*
X127119119Y-68334358D01*
X127119124Y-68334356D01*
X127268345Y-68242315D01*
X127392315Y-68118345D01*
X127484356Y-67969124D01*
X127484358Y-67969119D01*
X127539505Y-67802697D01*
X127539506Y-67802690D01*
X127549999Y-67699986D01*
X127550000Y-67699973D01*
X127550000Y-67250000D01*
X126725000Y-67250000D01*
X126725000Y-68399999D01*
X126224999Y-68399999D01*
X126225000Y-68399998D01*
X126225000Y-66750000D01*
X126725000Y-66750000D01*
X127549999Y-66750000D01*
X127549999Y-66300028D01*
X127549998Y-66300013D01*
X127539505Y-66197302D01*
X127484358Y-66030880D01*
X127484356Y-66030875D01*
X127392315Y-65881654D01*
X127268345Y-65757684D01*
X127119124Y-65665643D01*
X127119119Y-65665641D01*
X126952697Y-65610494D01*
X126952690Y-65610493D01*
X126849986Y-65600000D01*
X126725000Y-65600000D01*
X126725000Y-66750000D01*
X126225000Y-66750000D01*
X126225000Y-65600000D01*
X126100027Y-65600000D01*
X126100012Y-65600001D01*
X125997302Y-65610494D01*
X125830880Y-65665641D01*
X125830875Y-65665643D01*
X125694597Y-65749701D01*
X125627204Y-65768141D01*
X125560541Y-65747218D01*
X125515771Y-65693576D01*
X125505500Y-65644162D01*
X125505500Y-63734010D01*
X125505500Y-63734000D01*
X125493947Y-63626544D01*
X125482741Y-63575033D01*
X125478318Y-63561744D01*
X125448616Y-63472502D01*
X125448612Y-63472495D01*
X125426967Y-63438815D01*
X125407281Y-63371776D01*
X125424547Y-63308658D01*
X125476744Y-63220398D01*
X125478099Y-63215736D01*
X125522597Y-63062573D01*
X125522598Y-63062567D01*
X125525499Y-63025701D01*
X125525500Y-63025694D01*
X125525500Y-62594306D01*
X125522598Y-62557431D01*
X125476744Y-62399602D01*
X125393081Y-62258135D01*
X125393078Y-62258132D01*
X125388298Y-62251969D01*
X125390750Y-62250066D01*
X125364155Y-62201421D01*
X125369104Y-62131726D01*
X125389940Y-62099304D01*
X125388298Y-62098031D01*
X125393075Y-62091870D01*
X125393081Y-62091865D01*
X125476744Y-61950398D01*
X125522598Y-61792569D01*
X125525500Y-61755694D01*
X125525500Y-61324306D01*
X125522598Y-61287431D01*
X125509880Y-61243657D01*
X125476745Y-61129606D01*
X125476744Y-61129603D01*
X125476744Y-61129602D01*
X125393081Y-60988135D01*
X125393078Y-60988132D01*
X125388298Y-60981969D01*
X125390750Y-60980066D01*
X125364155Y-60931421D01*
X125369104Y-60861726D01*
X125389940Y-60829304D01*
X125388298Y-60828031D01*
X125393075Y-60821870D01*
X125393081Y-60821865D01*
X125476744Y-60680398D01*
X125510505Y-60564191D01*
X125522597Y-60522573D01*
X125522598Y-60522567D01*
X125525499Y-60485701D01*
X125525500Y-60485694D01*
X125525500Y-60054306D01*
X125522598Y-60017431D01*
X125504748Y-59955993D01*
X125476745Y-59859606D01*
X125476744Y-59859603D01*
X125476744Y-59859602D01*
X125393081Y-59718135D01*
X125393078Y-59718132D01*
X125388298Y-59711969D01*
X125390635Y-59710155D01*
X125363798Y-59661050D01*
X125368756Y-59591356D01*
X125389554Y-59558998D01*
X125387903Y-59557717D01*
X125392686Y-59551550D01*
X125476281Y-59410198D01*
X125522100Y-59252486D01*
X125522295Y-59250001D01*
X125522295Y-59250000D01*
X122577705Y-59250000D01*
X122577704Y-59250001D01*
X122577899Y-59252486D01*
X122623718Y-59410199D01*
X122635416Y-59429978D01*
X122652600Y-59497702D01*
X122630441Y-59563965D01*
X122575975Y-59607728D01*
X122528685Y-59617100D01*
X122046900Y-59617100D01*
X121979861Y-59597415D01*
X121934106Y-59544611D01*
X121922900Y-59493100D01*
X121922900Y-58805281D01*
X121939133Y-58749998D01*
X122577704Y-58749998D01*
X122577705Y-58750000D01*
X123800000Y-58750000D01*
X124300000Y-58750000D01*
X125522295Y-58750000D01*
X125522295Y-58749998D01*
X125522100Y-58747513D01*
X125476281Y-58589801D01*
X125392685Y-58448447D01*
X125392678Y-58448438D01*
X125276561Y-58332321D01*
X125276552Y-58332314D01*
X125135196Y-58248717D01*
X125135193Y-58248716D01*
X124977495Y-58202900D01*
X124977489Y-58202899D01*
X124940649Y-58200000D01*
X124300000Y-58200000D01*
X124300000Y-58750000D01*
X123800000Y-58750000D01*
X123800000Y-58200000D01*
X123159350Y-58200000D01*
X123122510Y-58202899D01*
X123122504Y-58202900D01*
X122964806Y-58248716D01*
X122964803Y-58248717D01*
X122823447Y-58332314D01*
X122823438Y-58332321D01*
X122707321Y-58448438D01*
X122707314Y-58448447D01*
X122623718Y-58589801D01*
X122577899Y-58747513D01*
X122577704Y-58749998D01*
X121939133Y-58749998D01*
X121942585Y-58738242D01*
X121987473Y-58696449D01*
X121992325Y-58693797D01*
X121992331Y-58693796D01*
X122107546Y-58607546D01*
X122193796Y-58492331D01*
X122244091Y-58357483D01*
X122250500Y-58297873D01*
X122250499Y-56702128D01*
X122244091Y-56642517D01*
X122193796Y-56507669D01*
X122193795Y-56507668D01*
X122193793Y-56507664D01*
X122107547Y-56392455D01*
X122107544Y-56392452D01*
X121992335Y-56306206D01*
X121992328Y-56306202D01*
X121857482Y-56255908D01*
X121857483Y-56255908D01*
X121797883Y-56249501D01*
X121797881Y-56249500D01*
X121797873Y-56249500D01*
X121797864Y-56249500D01*
X120202129Y-56249500D01*
X120202123Y-56249501D01*
X120142516Y-56255908D01*
X120007671Y-56306202D01*
X120007669Y-56306203D01*
X119972027Y-56332885D01*
X119906562Y-56357301D01*
X119838289Y-56342449D01*
X119788884Y-56293043D01*
X119774033Y-56224770D01*
X119780675Y-56192665D01*
X119785368Y-56179255D01*
X119793158Y-56110118D01*
X119820224Y-56045703D01*
X119877818Y-56006148D01*
X119916378Y-56000000D01*
X128723100Y-56000000D01*
X128790139Y-56019685D01*
X128835894Y-56072489D01*
X128847100Y-56124000D01*
X128847100Y-58075500D01*
X128827415Y-58142539D01*
X128774611Y-58188294D01*
X128723100Y-58199500D01*
X128109298Y-58199500D01*
X128072432Y-58202401D01*
X128072426Y-58202402D01*
X127914606Y-58248254D01*
X127914603Y-58248255D01*
X127773137Y-58331917D01*
X127773129Y-58331923D01*
X127656923Y-58448129D01*
X127656917Y-58448137D01*
X127573255Y-58589603D01*
X127573254Y-58589606D01*
X127527402Y-58747426D01*
X127527401Y-58747432D01*
X127524500Y-58784298D01*
X127524500Y-59215701D01*
X127527401Y-59252567D01*
X127527402Y-59252573D01*
X127573254Y-59410393D01*
X127573255Y-59410396D01*
X127656917Y-59551862D01*
X127661702Y-59558031D01*
X127659256Y-59559927D01*
X127685857Y-59608642D01*
X127680873Y-59678334D01*
X127660069Y-59710703D01*
X127661702Y-59711969D01*
X127656917Y-59718137D01*
X127573255Y-59859603D01*
X127573254Y-59859606D01*
X127527402Y-60017426D01*
X127527401Y-60017432D01*
X127524500Y-60054298D01*
X127524500Y-60485701D01*
X127527401Y-60522567D01*
X127527402Y-60522573D01*
X127573254Y-60680393D01*
X127573255Y-60680396D01*
X127573256Y-60680398D01*
X127583195Y-60697204D01*
X127656917Y-60821862D01*
X127661702Y-60828031D01*
X127659256Y-60829927D01*
X127685857Y-60878642D01*
X127680873Y-60948334D01*
X127660069Y-60980703D01*
X127661702Y-60981969D01*
X127656917Y-60988137D01*
X127573255Y-61129603D01*
X127573254Y-61129606D01*
X127527402Y-61287426D01*
X127527401Y-61287432D01*
X127524500Y-61324298D01*
X127524500Y-61755701D01*
X127527401Y-61792567D01*
X127527402Y-61792573D01*
X127573254Y-61950393D01*
X127573255Y-61950396D01*
X127656917Y-62091862D01*
X127661702Y-62098031D01*
X127659256Y-62099927D01*
X127685857Y-62148642D01*
X127680873Y-62218334D01*
X127660069Y-62250703D01*
X127661702Y-62251969D01*
X127656917Y-62258137D01*
X127573255Y-62399603D01*
X127573254Y-62399606D01*
X127527402Y-62557426D01*
X127527401Y-62557432D01*
X127524500Y-62594298D01*
X127524500Y-63025701D01*
X127527401Y-63062567D01*
X127527402Y-63062573D01*
X127573254Y-63220393D01*
X127573255Y-63220396D01*
X127656917Y-63361862D01*
X127656923Y-63361870D01*
X127773129Y-63478076D01*
X127773133Y-63478079D01*
X127773135Y-63478081D01*
X127914602Y-63561744D01*
X127956224Y-63573836D01*
X128072426Y-63607597D01*
X128072429Y-63607597D01*
X128072431Y-63607598D01*
X128109306Y-63610500D01*
X128109314Y-63610500D01*
X129890686Y-63610500D01*
X129890694Y-63610500D01*
X129927569Y-63607598D01*
X129927571Y-63607597D01*
X129927573Y-63607597D01*
X129969191Y-63595505D01*
X130085398Y-63561744D01*
X130223336Y-63480167D01*
X130286457Y-63462900D01*
X131488197Y-63462900D01*
X131555236Y-63482585D01*
X131575878Y-63499219D01*
X131835781Y-63759121D01*
X131869266Y-63820444D01*
X131872100Y-63846802D01*
X131872100Y-65101261D01*
X131852415Y-65168300D01*
X131813198Y-65206799D01*
X131731344Y-65257287D01*
X131607289Y-65381342D01*
X131515187Y-65530663D01*
X131515185Y-65530668D01*
X131515115Y-65530880D01*
X131460001Y-65697203D01*
X131460001Y-65697204D01*
X131460000Y-65697204D01*
X131449500Y-65799983D01*
X131449500Y-67200001D01*
X131449501Y-67200018D01*
X131460000Y-67302796D01*
X131460001Y-67302799D01*
X131515115Y-67469119D01*
X131515186Y-67469334D01*
X131607288Y-67618656D01*
X131731344Y-67742712D01*
X131880666Y-67834814D01*
X132047203Y-67889999D01*
X132149991Y-67900500D01*
X132900008Y-67900499D01*
X132900016Y-67900498D01*
X132900019Y-67900498D01*
X132956302Y-67894748D01*
X133002797Y-67889999D01*
X133169334Y-67834814D01*
X133318656Y-67742712D01*
X133442712Y-67618656D01*
X133534814Y-67469334D01*
X133589999Y-67302797D01*
X133600500Y-67200009D01*
X133600500Y-67199986D01*
X134400001Y-67199986D01*
X134410494Y-67302697D01*
X134465641Y-67469119D01*
X134465643Y-67469124D01*
X134557684Y-67618345D01*
X134681654Y-67742315D01*
X134830875Y-67834356D01*
X134830880Y-67834358D01*
X134997302Y-67889505D01*
X134997309Y-67889506D01*
X135100019Y-67899999D01*
X135224999Y-67899999D01*
X135725000Y-67899999D01*
X135849972Y-67899999D01*
X135849986Y-67899998D01*
X135952697Y-67889505D01*
X136119119Y-67834358D01*
X136119124Y-67834356D01*
X136268345Y-67742315D01*
X136392315Y-67618345D01*
X136484356Y-67469124D01*
X136484358Y-67469119D01*
X136539505Y-67302697D01*
X136539506Y-67302690D01*
X136549999Y-67199986D01*
X136550000Y-67199973D01*
X136550000Y-66750000D01*
X135725000Y-66750000D01*
X135725000Y-67899999D01*
X135224999Y-67899999D01*
X135225000Y-67899998D01*
X135225000Y-66750000D01*
X134400001Y-66750000D01*
X134400001Y-67199986D01*
X133600500Y-67199986D01*
X133600499Y-65800013D01*
X134400000Y-65800013D01*
X134400000Y-66250000D01*
X135225000Y-66250000D01*
X135725000Y-66250000D01*
X136549999Y-66250000D01*
X136549999Y-65800028D01*
X136549998Y-65800013D01*
X136539505Y-65697302D01*
X136484358Y-65530880D01*
X136484356Y-65530875D01*
X136392315Y-65381654D01*
X136268345Y-65257684D01*
X136119124Y-65165643D01*
X136119119Y-65165641D01*
X135952697Y-65110494D01*
X135952690Y-65110493D01*
X135849986Y-65100000D01*
X135725000Y-65100000D01*
X135725000Y-66250000D01*
X135225000Y-66250000D01*
X135225000Y-65100000D01*
X135100027Y-65100000D01*
X135100012Y-65100001D01*
X134997302Y-65110494D01*
X134830880Y-65165641D01*
X134830875Y-65165643D01*
X134681654Y-65257684D01*
X134557684Y-65381654D01*
X134465643Y-65530875D01*
X134465641Y-65530880D01*
X134410494Y-65697302D01*
X134410493Y-65697309D01*
X134400000Y-65800013D01*
X133600499Y-65800013D01*
X133600499Y-65799992D01*
X133589999Y-65697203D01*
X133534814Y-65530666D01*
X133442712Y-65381344D01*
X133318656Y-65257288D01*
X133318655Y-65257287D01*
X133236802Y-65206799D01*
X133190078Y-65154851D01*
X133177900Y-65101261D01*
X133177900Y-63460692D01*
X133152810Y-63334561D01*
X133152809Y-63334560D01*
X133152809Y-63334556D01*
X133103592Y-63215736D01*
X133096040Y-63204433D01*
X133032141Y-63108801D01*
X133032139Y-63108798D01*
X133032138Y-63108797D01*
X132287923Y-62364581D01*
X132254438Y-62303258D01*
X132259422Y-62233566D01*
X132301294Y-62177633D01*
X132366758Y-62153216D01*
X132375604Y-62152900D01*
X138957710Y-62152900D01*
X139024749Y-62172585D01*
X139070504Y-62225389D01*
X139081068Y-62264298D01*
X139085001Y-62302797D01*
X139085001Y-62302799D01*
X139105474Y-62364581D01*
X139140186Y-62469334D01*
X139232288Y-62618656D01*
X139356344Y-62742712D01*
X139505666Y-62834814D01*
X139672203Y-62889999D01*
X139774991Y-62900500D01*
X140525008Y-62900499D01*
X140525016Y-62900498D01*
X140525019Y-62900498D01*
X140581302Y-62894748D01*
X140627797Y-62889999D01*
X140794334Y-62834814D01*
X140943656Y-62742712D01*
X141067712Y-62618656D01*
X141159814Y-62469334D01*
X141214999Y-62302797D01*
X141225500Y-62200009D01*
X141225500Y-62199986D01*
X142025001Y-62199986D01*
X142035494Y-62302697D01*
X142090641Y-62469119D01*
X142090643Y-62469124D01*
X142182684Y-62618345D01*
X142306654Y-62742315D01*
X142455875Y-62834356D01*
X142455880Y-62834358D01*
X142622302Y-62889505D01*
X142622309Y-62889506D01*
X142725019Y-62899999D01*
X142849999Y-62899999D01*
X143350000Y-62899999D01*
X143474972Y-62899999D01*
X143474986Y-62899998D01*
X143577697Y-62889505D01*
X143744119Y-62834358D01*
X143744124Y-62834356D01*
X143893345Y-62742315D01*
X144017315Y-62618345D01*
X144109356Y-62469124D01*
X144109358Y-62469119D01*
X144164505Y-62302697D01*
X144164506Y-62302690D01*
X144174999Y-62199986D01*
X144175000Y-62199973D01*
X144175000Y-61750000D01*
X143350000Y-61750000D01*
X143350000Y-62899999D01*
X142849999Y-62899999D01*
X142850000Y-62899998D01*
X142850000Y-61750000D01*
X142025001Y-61750000D01*
X142025001Y-62199986D01*
X141225500Y-62199986D01*
X141225499Y-60800013D01*
X142025000Y-60800013D01*
X142025000Y-61250000D01*
X142850000Y-61250000D01*
X143350000Y-61250000D01*
X144174999Y-61250000D01*
X144174999Y-60800028D01*
X144174998Y-60800013D01*
X144164505Y-60697302D01*
X144109358Y-60530880D01*
X144109356Y-60530875D01*
X144017315Y-60381654D01*
X143893345Y-60257684D01*
X143744124Y-60165643D01*
X143744119Y-60165641D01*
X143577697Y-60110494D01*
X143577690Y-60110493D01*
X143474986Y-60100000D01*
X143350000Y-60100000D01*
X143350000Y-61250000D01*
X142850000Y-61250000D01*
X142850000Y-60100000D01*
X142725027Y-60100000D01*
X142725012Y-60100001D01*
X142622302Y-60110494D01*
X142455880Y-60165641D01*
X142455875Y-60165643D01*
X142306654Y-60257684D01*
X142182684Y-60381654D01*
X142090643Y-60530875D01*
X142090641Y-60530880D01*
X142035494Y-60697302D01*
X142035493Y-60697309D01*
X142025000Y-60800013D01*
X141225499Y-60800013D01*
X141225499Y-60799992D01*
X141214999Y-60697203D01*
X141159814Y-60530666D01*
X141067712Y-60381344D01*
X140943656Y-60257288D01*
X140794334Y-60165186D01*
X140627797Y-60110001D01*
X140627795Y-60110000D01*
X140525010Y-60099500D01*
X139774998Y-60099500D01*
X139774980Y-60099501D01*
X139672203Y-60110000D01*
X139672200Y-60110001D01*
X139505668Y-60165185D01*
X139505663Y-60165187D01*
X139356342Y-60257289D01*
X139232289Y-60381342D01*
X139140187Y-60530663D01*
X139140185Y-60530668D01*
X139112349Y-60614670D01*
X139090571Y-60680396D01*
X139085001Y-60697204D01*
X139085000Y-60697205D01*
X139081068Y-60735702D01*
X139054672Y-60800394D01*
X138997492Y-60840545D01*
X138957710Y-60847100D01*
X132199083Y-60847100D01*
X132168202Y-60843193D01*
X131910887Y-60777026D01*
X131850862Y-60741266D01*
X131819699Y-60678731D01*
X131827292Y-60609275D01*
X131854085Y-60569254D01*
X132467349Y-59955989D01*
X132491935Y-59936924D01*
X132843482Y-59729192D01*
X132847639Y-59726970D01*
X132849513Y-59725791D01*
X132849522Y-59725789D01*
X132852574Y-59723870D01*
X132855313Y-59722201D01*
X132863251Y-59717512D01*
X132878314Y-59708252D01*
X132878321Y-59708245D01*
X132880169Y-59706895D01*
X132887391Y-59701993D01*
X133002262Y-59629816D01*
X133129816Y-59502262D01*
X133225789Y-59349522D01*
X133285368Y-59179255D01*
X133301886Y-59032656D01*
X133305565Y-59000003D01*
X133305565Y-58999996D01*
X133285369Y-58820750D01*
X133285368Y-58820748D01*
X133285368Y-58820745D01*
X133270613Y-58778580D01*
X133265017Y-58753862D01*
X133265011Y-58753864D01*
X133264984Y-58753720D01*
X133264389Y-58751089D01*
X133264355Y-58750782D01*
X133264215Y-58749498D01*
X133163412Y-58357483D01*
X133156807Y-58331797D01*
X133152900Y-58300916D01*
X133152900Y-57139735D01*
X133172585Y-57072696D01*
X133225389Y-57026941D01*
X133264296Y-57016378D01*
X133277797Y-57014999D01*
X133444334Y-56959814D01*
X133593656Y-56867712D01*
X133717712Y-56743656D01*
X133809814Y-56594334D01*
X133864999Y-56427797D01*
X133875500Y-56325009D01*
X133875500Y-56124000D01*
X133895185Y-56056961D01*
X133947989Y-56011206D01*
X133999500Y-56000000D01*
X134516204Y-56000000D01*
X134583243Y-56019685D01*
X134628998Y-56072489D01*
X134633858Y-56084841D01*
X134651383Y-56137497D01*
X134651386Y-56137503D01*
X134729171Y-56258537D01*
X134729179Y-56258548D01*
X134774923Y-56311340D01*
X134774926Y-56311343D01*
X134774930Y-56311347D01*
X134883664Y-56405567D01*
X134883667Y-56405568D01*
X134883668Y-56405569D01*
X134977925Y-56448616D01*
X135014541Y-56465338D01*
X135081580Y-56485023D01*
X135081584Y-56485024D01*
X135224000Y-56505500D01*
X135224003Y-56505500D01*
X139475990Y-56505500D01*
X139476000Y-56505500D01*
X139583456Y-56493947D01*
X139634967Y-56482741D01*
X139669197Y-56471347D01*
X139737497Y-56448616D01*
X139737501Y-56448613D01*
X139737504Y-56448613D01*
X139858543Y-56370825D01*
X139911347Y-56325070D01*
X140005567Y-56216336D01*
X140065338Y-56085459D01*
X140077537Y-56043911D01*
X140100000Y-56006053D01*
X140100000Y-55923122D01*
X140101262Y-55905475D01*
X140105500Y-55876000D01*
X140105500Y-55195067D01*
X140125185Y-55128028D01*
X140177989Y-55082273D01*
X140247147Y-55072329D01*
X140281905Y-55082685D01*
X140476507Y-55173429D01*
X140476516Y-55173433D01*
X140690000Y-55230634D01*
X140690000Y-54333012D01*
X140747007Y-54365925D01*
X140874174Y-54400000D01*
X141005826Y-54400000D01*
X141132993Y-54365925D01*
X141190000Y-54333012D01*
X141190000Y-55230633D01*
X141403483Y-55173433D01*
X141403492Y-55173429D01*
X141617578Y-55073600D01*
X141811078Y-54938108D01*
X141933521Y-54815665D01*
X141994844Y-54782180D01*
X142064536Y-54787164D01*
X142120470Y-54829035D01*
X142137385Y-54860013D01*
X142186645Y-54992086D01*
X142186649Y-54992093D01*
X142272809Y-55107187D01*
X142272812Y-55107190D01*
X142387906Y-55193350D01*
X142387913Y-55193354D01*
X142522620Y-55243596D01*
X142522627Y-55243598D01*
X142582155Y-55249999D01*
X142582172Y-55250000D01*
X143230000Y-55250000D01*
X143230000Y-54333012D01*
X143287007Y-54365925D01*
X143414174Y-54400000D01*
X143545826Y-54400000D01*
X143672993Y-54365925D01*
X143730000Y-54333012D01*
X143730000Y-55250000D01*
X144377828Y-55250000D01*
X144377844Y-55249999D01*
X144437372Y-55243598D01*
X144437379Y-55243596D01*
X144572086Y-55193354D01*
X144572093Y-55193350D01*
X144687187Y-55107190D01*
X144687190Y-55107187D01*
X144773350Y-54992093D01*
X144773354Y-54992086D01*
X144823596Y-54857379D01*
X144823598Y-54857372D01*
X144829999Y-54797844D01*
X144830000Y-54797827D01*
X144830000Y-54150000D01*
X143913012Y-54150000D01*
X143945925Y-54092993D01*
X143980000Y-53965826D01*
X143980000Y-53834174D01*
X143945925Y-53707007D01*
X143913012Y-53650000D01*
X144830000Y-53650000D01*
X144830000Y-53002172D01*
X144829999Y-53002155D01*
X144823598Y-52942627D01*
X144823596Y-52942620D01*
X144773354Y-52807913D01*
X144773350Y-52807906D01*
X144687190Y-52692812D01*
X144687187Y-52692809D01*
X144572093Y-52606649D01*
X144572086Y-52606645D01*
X144437379Y-52556403D01*
X144437372Y-52556401D01*
X144377844Y-52550000D01*
X143730000Y-52550000D01*
X143730000Y-53466988D01*
X143672993Y-53434075D01*
X143545826Y-53400000D01*
X143414174Y-53400000D01*
X143287007Y-53434075D01*
X143230000Y-53466988D01*
X143230000Y-52550000D01*
X142582155Y-52550000D01*
X142522627Y-52556401D01*
X142522620Y-52556403D01*
X142387913Y-52606645D01*
X142387906Y-52606649D01*
X142272812Y-52692809D01*
X142272809Y-52692812D01*
X142186649Y-52807906D01*
X142186646Y-52807911D01*
X142137385Y-52939987D01*
X142095513Y-52995920D01*
X142030049Y-53020337D01*
X141961776Y-53005485D01*
X141933522Y-52984334D01*
X141811082Y-52861894D01*
X141617578Y-52726399D01*
X141403492Y-52626570D01*
X141403486Y-52626567D01*
X141190000Y-52569364D01*
X141190000Y-53466988D01*
X141132993Y-53434075D01*
X141005826Y-53400000D01*
X140874174Y-53400000D01*
X140747007Y-53434075D01*
X140690000Y-53466988D01*
X140690000Y-52569364D01*
X140689999Y-52569364D01*
X140476513Y-52626567D01*
X140476507Y-52626570D01*
X140281905Y-52717315D01*
X140212827Y-52727807D01*
X140149043Y-52699287D01*
X140110804Y-52640811D01*
X140105500Y-52604933D01*
X140105500Y-50624500D01*
X140125185Y-50557461D01*
X140177989Y-50511706D01*
X140229500Y-50500500D01*
X144934108Y-50500500D01*
X144997294Y-50500500D01*
X145002702Y-50500617D01*
G37*
G04 #@! TD.AperFunction*
G04 #@! TA.AperFunction,Conductor*
G36*
X143014075Y-53707007D02*
G01*
X142980000Y-53834174D01*
X142980000Y-53965826D01*
X143014075Y-54092993D01*
X143046988Y-54150000D01*
X141373012Y-54150000D01*
X141405925Y-54092993D01*
X141440000Y-53965826D01*
X141440000Y-53834174D01*
X141405925Y-53707007D01*
X141373012Y-53650000D01*
X143046988Y-53650000D01*
X143014075Y-53707007D01*
G37*
G04 #@! TD.AperFunction*
G04 #@! TA.AperFunction,Conductor*
G36*
X117500000Y-53500000D02*
G01*
X117500000Y-56505313D01*
X117480315Y-56572352D01*
X117441098Y-56610851D01*
X117406344Y-56632287D01*
X117282289Y-56756342D01*
X117190187Y-56905663D01*
X117190186Y-56905666D01*
X117135001Y-57072203D01*
X117135001Y-57072204D01*
X117135000Y-57072204D01*
X117124500Y-57174983D01*
X117124500Y-57900001D01*
X117124501Y-57900019D01*
X117135000Y-58002796D01*
X117135001Y-58002799D01*
X117190185Y-58169331D01*
X117190186Y-58169334D01*
X117269468Y-58297872D01*
X117282289Y-58318657D01*
X117406345Y-58442713D01*
X117415136Y-58448135D01*
X117441095Y-58464147D01*
X117487821Y-58516093D01*
X117500000Y-58569685D01*
X117500000Y-59430313D01*
X117480315Y-59497352D01*
X117441098Y-59535851D01*
X117406344Y-59557287D01*
X117282289Y-59681342D01*
X117190187Y-59830663D01*
X117190185Y-59830668D01*
X117162349Y-59914670D01*
X117135001Y-59997203D01*
X117135001Y-59997204D01*
X117135000Y-59997204D01*
X117124500Y-60099983D01*
X117124500Y-60825001D01*
X117124501Y-60825019D01*
X117135000Y-60927796D01*
X117135001Y-60927799D01*
X117190185Y-61094331D01*
X117190187Y-61094336D01*
X117282289Y-61243657D01*
X117406345Y-61367713D01*
X117422116Y-61377440D01*
X117441095Y-61389147D01*
X117487821Y-61441093D01*
X117500000Y-61494685D01*
X117500000Y-62500000D01*
X119777297Y-62500000D01*
X119844336Y-62519685D01*
X119890091Y-62572489D01*
X119900035Y-62641647D01*
X119871010Y-62705203D01*
X119864978Y-62711681D01*
X119492863Y-63083794D01*
X119492862Y-63083795D01*
X119421407Y-63190737D01*
X119372191Y-63309555D01*
X119372189Y-63309561D01*
X119347100Y-63435692D01*
X119347100Y-67800916D01*
X119343193Y-67831797D01*
X119235780Y-68249513D01*
X119230519Y-68271567D01*
X119230317Y-68271518D01*
X119226442Y-68286989D01*
X119214632Y-68320741D01*
X119214631Y-68320746D01*
X119194435Y-68499996D01*
X119194435Y-68500003D01*
X119214630Y-68679249D01*
X119214631Y-68679254D01*
X119274211Y-68849523D01*
X119370184Y-69002262D01*
X119497738Y-69129816D01*
X119650478Y-69225789D01*
X119820745Y-69285368D01*
X119820750Y-69285369D01*
X119999996Y-69305565D01*
X120000000Y-69305565D01*
X120000004Y-69305565D01*
X120179249Y-69285369D01*
X120179252Y-69285368D01*
X120179255Y-69285368D01*
X120349522Y-69225789D01*
X120502262Y-69129816D01*
X120629816Y-69002262D01*
X120725789Y-68849522D01*
X120785368Y-68679255D01*
X120805565Y-68500000D01*
X120794354Y-68400500D01*
X120785369Y-68320750D01*
X120785368Y-68320746D01*
X120785368Y-68320745D01*
X120770613Y-68278580D01*
X120765017Y-68253862D01*
X120765011Y-68253864D01*
X120764984Y-68253720D01*
X120764389Y-68251089D01*
X120764355Y-68250782D01*
X120764215Y-68249498D01*
X120656807Y-67831797D01*
X120652900Y-67800916D01*
X120652900Y-67699986D01*
X122450001Y-67699986D01*
X122460494Y-67802697D01*
X122515641Y-67969119D01*
X122515643Y-67969124D01*
X122607684Y-68118345D01*
X122731654Y-68242315D01*
X122880875Y-68334356D01*
X122880880Y-68334358D01*
X123047302Y-68389505D01*
X123047309Y-68389506D01*
X123150019Y-68399999D01*
X123274999Y-68399999D01*
X123775000Y-68399999D01*
X123899972Y-68399999D01*
X123899986Y-68399998D01*
X124002697Y-68389505D01*
X124169119Y-68334358D01*
X124169124Y-68334356D01*
X124318345Y-68242315D01*
X124442315Y-68118345D01*
X124534356Y-67969124D01*
X124534358Y-67969119D01*
X124589505Y-67802697D01*
X124589506Y-67802690D01*
X124599999Y-67699986D01*
X124600000Y-67699973D01*
X124600000Y-67250000D01*
X123775000Y-67250000D01*
X123775000Y-68399999D01*
X123274999Y-68399999D01*
X123275000Y-68399998D01*
X123275000Y-67250000D01*
X122450001Y-67250000D01*
X122450001Y-67699986D01*
X120652900Y-67699986D01*
X120652900Y-66300013D01*
X122450000Y-66300013D01*
X122450000Y-66750000D01*
X123275000Y-66750000D01*
X123775000Y-66750000D01*
X124599999Y-66750000D01*
X124599999Y-66300028D01*
X124599998Y-66300013D01*
X124589505Y-66197302D01*
X124534358Y-66030880D01*
X124534356Y-66030875D01*
X124442315Y-65881654D01*
X124318345Y-65757684D01*
X124169124Y-65665643D01*
X124169119Y-65665641D01*
X124002697Y-65610494D01*
X124002690Y-65610493D01*
X123899986Y-65600000D01*
X123775000Y-65600000D01*
X123775000Y-66750000D01*
X123275000Y-66750000D01*
X123275000Y-65600000D01*
X123150027Y-65600000D01*
X123150012Y-65600001D01*
X123047302Y-65610494D01*
X122880880Y-65665641D01*
X122880875Y-65665643D01*
X122731654Y-65757684D01*
X122607684Y-65881654D01*
X122515643Y-66030875D01*
X122515641Y-66030880D01*
X122460494Y-66197302D01*
X122460493Y-66197309D01*
X122450000Y-66300013D01*
X120652900Y-66300013D01*
X120652900Y-63821802D01*
X120672585Y-63754763D01*
X120689219Y-63734121D01*
X121363339Y-63060001D01*
X122577704Y-63060001D01*
X122577899Y-63062486D01*
X122623718Y-63220198D01*
X122707314Y-63361552D01*
X122707321Y-63361561D01*
X122823438Y-63477678D01*
X122823447Y-63477685D01*
X122964803Y-63561282D01*
X122964806Y-63561283D01*
X123122504Y-63607099D01*
X123122510Y-63607100D01*
X123159350Y-63609999D01*
X123159366Y-63610000D01*
X123800000Y-63610000D01*
X123800000Y-63060000D01*
X122577705Y-63060000D01*
X122577704Y-63060001D01*
X121363339Y-63060001D01*
X121887021Y-62536319D01*
X121948344Y-62502834D01*
X121974702Y-62500000D01*
X122468002Y-62500000D01*
X122535041Y-62519685D01*
X122559058Y-62539828D01*
X122577705Y-62560000D01*
X124176000Y-62560000D01*
X124243039Y-62579685D01*
X124288794Y-62632489D01*
X124300000Y-62684000D01*
X124300000Y-63610000D01*
X124876000Y-63610000D01*
X124943039Y-63629685D01*
X124988794Y-63682489D01*
X125000000Y-63734000D01*
X125000000Y-70000000D01*
X131376000Y-70000000D01*
X131443039Y-70019685D01*
X131488794Y-70072489D01*
X131500000Y-70124000D01*
X131500000Y-70476000D01*
X131480315Y-70543039D01*
X131427511Y-70588794D01*
X131376000Y-70600000D01*
X131300000Y-70600000D01*
X131300000Y-73399999D01*
X131376000Y-73399999D01*
X131443039Y-73419684D01*
X131488794Y-73472488D01*
X131500000Y-73523999D01*
X131500000Y-73876000D01*
X131480315Y-73943039D01*
X131427511Y-73988794D01*
X131376000Y-74000000D01*
X129556323Y-74000000D01*
X129489284Y-73980315D01*
X129443529Y-73927511D01*
X129433585Y-73858353D01*
X129437247Y-73841405D01*
X129447099Y-73807494D01*
X129447100Y-73807488D01*
X129447295Y-73805001D01*
X129447295Y-73805000D01*
X126502705Y-73805000D01*
X126502704Y-73805001D01*
X126502899Y-73807488D01*
X126502900Y-73807494D01*
X126512753Y-73841405D01*
X126512554Y-73911274D01*
X126474612Y-73969944D01*
X126410974Y-73998788D01*
X126393677Y-74000000D01*
X126124000Y-74000000D01*
X126056961Y-73980315D01*
X126011206Y-73927511D01*
X126000000Y-73876000D01*
X126000000Y-73304998D01*
X126502704Y-73304998D01*
X126502705Y-73305000D01*
X127725000Y-73305000D01*
X128225000Y-73305000D01*
X129447295Y-73305000D01*
X129447295Y-73304998D01*
X129447100Y-73302513D01*
X129401281Y-73144801D01*
X129317685Y-73003447D01*
X129317678Y-73003438D01*
X129201561Y-72887321D01*
X129201552Y-72887314D01*
X129060196Y-72803717D01*
X129060193Y-72803716D01*
X128902495Y-72757900D01*
X128902489Y-72757899D01*
X128865649Y-72755000D01*
X128225000Y-72755000D01*
X128225000Y-73305000D01*
X127725000Y-73305000D01*
X127725000Y-72755000D01*
X127084350Y-72755000D01*
X127047510Y-72757899D01*
X127047504Y-72757900D01*
X126889806Y-72803716D01*
X126889803Y-72803717D01*
X126748447Y-72887314D01*
X126748438Y-72887321D01*
X126632321Y-73003438D01*
X126632314Y-73003447D01*
X126548718Y-73144801D01*
X126502899Y-73302513D01*
X126502704Y-73304998D01*
X126000000Y-73304998D01*
X126000000Y-72699986D01*
X129975001Y-72699986D01*
X129985494Y-72802697D01*
X130040641Y-72969119D01*
X130040643Y-72969124D01*
X130132684Y-73118345D01*
X130256654Y-73242315D01*
X130405875Y-73334356D01*
X130405880Y-73334358D01*
X130572302Y-73389505D01*
X130572309Y-73389506D01*
X130675019Y-73399999D01*
X130799999Y-73399999D01*
X130800000Y-73399998D01*
X130800000Y-72250000D01*
X129975001Y-72250000D01*
X129975001Y-72699986D01*
X126000000Y-72699986D01*
X126000000Y-71500000D01*
X115534100Y-71500000D01*
X115467061Y-71480315D01*
X115421306Y-71427511D01*
X115410100Y-71376000D01*
X115410100Y-71300013D01*
X129975000Y-71300013D01*
X129975000Y-71750000D01*
X130800000Y-71750000D01*
X130800000Y-70600000D01*
X130675027Y-70600000D01*
X130675012Y-70600001D01*
X130572302Y-70610494D01*
X130405880Y-70665641D01*
X130405875Y-70665643D01*
X130256654Y-70757684D01*
X130132684Y-70881654D01*
X130040643Y-71030875D01*
X130040641Y-71030880D01*
X129985494Y-71197302D01*
X129985493Y-71197309D01*
X129975000Y-71300013D01*
X115410100Y-71300013D01*
X115410100Y-60292892D01*
X115385010Y-60166761D01*
X115385009Y-60166760D01*
X115385009Y-60166756D01*
X115362818Y-60113182D01*
X115335793Y-60047937D01*
X115264341Y-59941001D01*
X115264339Y-59940998D01*
X115036319Y-59712978D01*
X115002834Y-59651655D01*
X115000000Y-59625297D01*
X115000000Y-53500000D01*
X115000000Y-51500000D01*
X117500000Y-51500000D01*
X117500000Y-53500000D01*
G37*
G04 #@! TD.AperFunction*
G04 #@! TA.AperFunction,Conductor*
G36*
X132091215Y-93845341D02*
G01*
X132098373Y-93850719D01*
X132100000Y-93856671D01*
X132100000Y-94143328D01*
X132096573Y-94151601D01*
X132091214Y-94154659D01*
X131624611Y-94274642D01*
X131615745Y-94273384D01*
X131610902Y-94267823D01*
X131500883Y-94004509D01*
X131500857Y-93995556D01*
X131500862Y-93995542D01*
X131610902Y-93732175D01*
X131617253Y-93725865D01*
X131624609Y-93725357D01*
X132091215Y-93845341D01*
G37*
G04 #@! TD.AperFunction*
G04 #@! TA.AperFunction,Conductor*
G36*
X129032027Y-51816500D02*
G01*
X128816500Y-52032027D01*
X128385195Y-51777164D01*
X128499293Y-51499293D01*
X128777164Y-51385195D01*
X129032027Y-51816500D01*
G37*
G04 #@! TD.AperFunction*
G04 #@! TA.AperFunction,Conductor*
G36*
X132091215Y-61345341D02*
G01*
X132098373Y-61350719D01*
X132100000Y-61356671D01*
X132100000Y-61643328D01*
X132096573Y-61651601D01*
X132091214Y-61654659D01*
X131624611Y-61774642D01*
X131615745Y-61773384D01*
X131610902Y-61767823D01*
X131500883Y-61504509D01*
X131500857Y-61495556D01*
X131500862Y-61495542D01*
X131610902Y-61232175D01*
X131617253Y-61225865D01*
X131624609Y-61225357D01*
X132091215Y-61345341D01*
G37*
G04 #@! TD.AperFunction*
G04 #@! TA.AperFunction,Conductor*
G36*
X131384254Y-61226615D02*
G01*
X131389098Y-61232177D01*
X131499115Y-61495489D01*
X131499142Y-61504444D01*
X131499115Y-61504511D01*
X131389098Y-61767822D01*
X131382746Y-61774134D01*
X131375388Y-61774642D01*
X130908786Y-61654659D01*
X130901627Y-61649280D01*
X130900000Y-61643328D01*
X130900000Y-61356671D01*
X130903427Y-61348398D01*
X130908783Y-61345341D01*
X131375389Y-61225357D01*
X131384254Y-61226615D01*
G37*
G04 #@! TD.AperFunction*
G04 #@! TA.AperFunction,Conductor*
G36*
X121154254Y-59996615D02*
G01*
X121159098Y-60002177D01*
X121269115Y-60265489D01*
X121269142Y-60274444D01*
X121269115Y-60274511D01*
X121159098Y-60537822D01*
X121152746Y-60544134D01*
X121145388Y-60544642D01*
X120678786Y-60424659D01*
X120671627Y-60419280D01*
X120670000Y-60413328D01*
X120670000Y-60126671D01*
X120673427Y-60118398D01*
X120678783Y-60115341D01*
X121145389Y-59995357D01*
X121154254Y-59996615D01*
G37*
G04 #@! TD.AperFunction*
G04 #@! TA.AperFunction,Conductor*
G36*
X121421601Y-59673427D02*
G01*
X121424659Y-59678786D01*
X121544642Y-60145388D01*
X121543384Y-60154254D01*
X121537822Y-60159098D01*
X121274511Y-60269115D01*
X121265556Y-60269142D01*
X121265489Y-60269115D01*
X121002177Y-60159098D01*
X120995865Y-60152746D01*
X120995357Y-60145390D01*
X121115341Y-59678786D01*
X121120720Y-59671627D01*
X121126672Y-59670000D01*
X121413328Y-59670000D01*
X121421601Y-59673427D01*
G37*
G04 #@! TD.AperFunction*
G04 #@! TA.AperFunction,Conductor*
G36*
X121861215Y-60115341D02*
G01*
X121868373Y-60120719D01*
X121870000Y-60126671D01*
X121870000Y-60413328D01*
X121866573Y-60421601D01*
X121861214Y-60424659D01*
X121394611Y-60544642D01*
X121385745Y-60543384D01*
X121380902Y-60537823D01*
X121270883Y-60274509D01*
X121270857Y-60265556D01*
X121270862Y-60265542D01*
X121380902Y-60002175D01*
X121387253Y-59995865D01*
X121394609Y-59995357D01*
X121861215Y-60115341D01*
G37*
G04 #@! TD.AperFunction*
G04 #@! TA.AperFunction,Conductor*
G36*
X120122915Y-81174388D02*
G01*
X120325611Y-81377084D01*
X120329038Y-81385357D01*
X120327411Y-81391309D01*
X120082314Y-81806088D01*
X120075155Y-81811467D01*
X120067797Y-81810959D01*
X120008772Y-81786722D01*
X119803815Y-81702563D01*
X119797463Y-81696251D01*
X119797436Y-81696184D01*
X119775200Y-81642033D01*
X119689040Y-81432200D01*
X119689067Y-81423247D01*
X119693909Y-81417686D01*
X120108690Y-81172587D01*
X120117556Y-81171330D01*
X120122915Y-81174388D01*
G37*
G04 #@! TD.AperFunction*
G04 #@! TA.AperFunction,Conductor*
G36*
X114796177Y-86296256D02*
G01*
X114797294Y-86297231D01*
X114999029Y-86497626D01*
X115001606Y-86501483D01*
X115110371Y-86766367D01*
X115110344Y-86775322D01*
X115104019Y-86781623D01*
X114650665Y-86969095D01*
X114641710Y-86969090D01*
X114637921Y-86966556D01*
X114435177Y-86763812D01*
X114431750Y-86755539D01*
X114434171Y-86748413D01*
X114779772Y-86298408D01*
X114787529Y-86293934D01*
X114796177Y-86296256D01*
G37*
G04 #@! TD.AperFunction*
G04 #@! TA.AperFunction,Conductor*
G36*
X115732199Y-83889039D02*
G01*
X115942033Y-83975200D01*
X115996184Y-83997436D01*
X116002536Y-84003748D01*
X116002563Y-84003815D01*
X116110959Y-84267797D01*
X116110932Y-84276752D01*
X116106088Y-84282314D01*
X115691309Y-84527411D01*
X115682443Y-84528669D01*
X115677084Y-84525611D01*
X115474388Y-84322915D01*
X115470961Y-84314642D01*
X115472588Y-84308690D01*
X115491217Y-84277164D01*
X115717686Y-83893910D01*
X115724844Y-83888532D01*
X115732199Y-83889039D01*
G37*
G04 #@! TD.AperFunction*
G04 #@! TA.AperFunction,Conductor*
G36*
X120222915Y-82574388D02*
G01*
X120425611Y-82777084D01*
X120429038Y-82785357D01*
X120427411Y-82791309D01*
X120182314Y-83206088D01*
X120175155Y-83211467D01*
X120167797Y-83210959D01*
X120108772Y-83186722D01*
X119903815Y-83102563D01*
X119897463Y-83096251D01*
X119897436Y-83096184D01*
X119875200Y-83042033D01*
X119789040Y-82832200D01*
X119789067Y-82823247D01*
X119793909Y-82817686D01*
X120208690Y-82572587D01*
X120217556Y-82571330D01*
X120222915Y-82574388D01*
G37*
G04 #@! TD.AperFunction*
G04 #@! TA.AperFunction,Conductor*
G36*
X120651601Y-85403427D02*
G01*
X120654659Y-85408786D01*
X120774642Y-85875388D01*
X120773384Y-85884254D01*
X120767822Y-85889098D01*
X120504511Y-85999115D01*
X120495556Y-85999142D01*
X120495489Y-85999115D01*
X120232177Y-85889098D01*
X120225865Y-85882746D01*
X120225357Y-85875390D01*
X120345341Y-85408786D01*
X120350720Y-85401627D01*
X120356672Y-85400000D01*
X120643328Y-85400000D01*
X120651601Y-85403427D01*
G37*
G04 #@! TD.AperFunction*
G04 #@! TA.AperFunction,Conductor*
G36*
X116903352Y-85009962D02*
G01*
X116906779Y-85018235D01*
X116906511Y-85020724D01*
X116780132Y-85601171D01*
X116775024Y-85608526D01*
X116766211Y-85610114D01*
X116764256Y-85609505D01*
X116502185Y-85501897D01*
X116498336Y-85499328D01*
X116296606Y-85296647D01*
X116293199Y-85288365D01*
X116296645Y-85280100D01*
X116297101Y-85279671D01*
X116591620Y-85018235D01*
X116601477Y-85009485D01*
X116609244Y-85006535D01*
X116895079Y-85006535D01*
X116903352Y-85009962D01*
G37*
G04 #@! TD.AperFunction*
G04 #@! TA.AperFunction,Conductor*
G36*
X112691309Y-73472588D02*
G01*
X113106088Y-73717685D01*
X113111467Y-73724844D01*
X113110959Y-73732202D01*
X113002563Y-73996184D01*
X112996251Y-74002536D01*
X112996184Y-74002563D01*
X112732202Y-74110959D01*
X112723247Y-74110932D01*
X112717685Y-74106088D01*
X112472588Y-73691309D01*
X112471330Y-73682443D01*
X112474386Y-73677086D01*
X112677085Y-73474387D01*
X112685357Y-73470961D01*
X112691309Y-73472588D01*
G37*
G04 #@! TD.AperFunction*
G04 #@! TA.AperFunction,Conductor*
G36*
X131191309Y-82472588D02*
G01*
X131606088Y-82717685D01*
X131611467Y-82724844D01*
X131610959Y-82732202D01*
X131502563Y-82996184D01*
X131496251Y-83002536D01*
X131496184Y-83002563D01*
X131232202Y-83110959D01*
X131223247Y-83110932D01*
X131217685Y-83106088D01*
X130972588Y-82691309D01*
X130971330Y-82682443D01*
X130974386Y-82677086D01*
X131177085Y-82474387D01*
X131185357Y-82470961D01*
X131191309Y-82472588D01*
G37*
G04 #@! TD.AperFunction*
G04 #@! TA.AperFunction,Conductor*
G36*
X114151601Y-71403427D02*
G01*
X114154659Y-71408786D01*
X114274642Y-71875388D01*
X114273384Y-71884254D01*
X114267822Y-71889098D01*
X114004511Y-71999115D01*
X113995556Y-71999142D01*
X113995489Y-71999115D01*
X113732177Y-71889098D01*
X113725865Y-71882746D01*
X113725357Y-71875390D01*
X113845341Y-71408786D01*
X113850720Y-71401627D01*
X113856672Y-71400000D01*
X114143328Y-71400000D01*
X114151601Y-71403427D01*
G37*
G04 #@! TD.AperFunction*
G04 #@! TA.AperFunction,Conductor*
G36*
X127091215Y-88345341D02*
G01*
X127098373Y-88350719D01*
X127100000Y-88356671D01*
X127100000Y-88643328D01*
X127096573Y-88651601D01*
X127091214Y-88654659D01*
X126624611Y-88774642D01*
X126615745Y-88773384D01*
X126610902Y-88767823D01*
X126500883Y-88504509D01*
X126500857Y-88495556D01*
X126500862Y-88495542D01*
X126610902Y-88232175D01*
X126617253Y-88225865D01*
X126624609Y-88225357D01*
X127091215Y-88345341D01*
G37*
G04 #@! TD.AperFunction*
G04 #@! TA.AperFunction,Conductor*
G36*
X130495836Y-79703817D02*
G01*
X130499994Y-79711747D01*
X130500042Y-79712763D01*
X130500992Y-79997632D01*
X130500088Y-80002182D01*
X130389911Y-80265875D01*
X130383559Y-80272187D01*
X130374604Y-80272160D01*
X130374127Y-80271947D01*
X129925609Y-80060563D01*
X129919586Y-80053937D01*
X129918897Y-80049980D01*
X129918897Y-79763288D01*
X129922324Y-79755015D01*
X129929540Y-79751636D01*
X130487288Y-79701150D01*
X130495836Y-79703817D01*
G37*
G04 #@! TD.AperFunction*
G04 #@! TA.AperFunction,Conductor*
G36*
X113191309Y-63972588D02*
G01*
X113606088Y-64217685D01*
X113611467Y-64224844D01*
X113610959Y-64232202D01*
X113502563Y-64496184D01*
X113496251Y-64502536D01*
X113496184Y-64502563D01*
X113232202Y-64610959D01*
X113223247Y-64610932D01*
X113217685Y-64606088D01*
X112972588Y-64191309D01*
X112971330Y-64182443D01*
X112974386Y-64177086D01*
X113177085Y-63974387D01*
X113185357Y-63970961D01*
X113191309Y-63972588D01*
G37*
G04 #@! TD.AperFunction*
G04 #@! TA.AperFunction,Conductor*
G36*
X131691309Y-78972588D02*
G01*
X132106088Y-79217685D01*
X132111467Y-79224844D01*
X132110959Y-79232202D01*
X132002563Y-79496184D01*
X131996251Y-79502536D01*
X131996184Y-79502563D01*
X131732202Y-79610959D01*
X131723247Y-79610932D01*
X131717685Y-79606088D01*
X131472588Y-79191309D01*
X131471330Y-79182443D01*
X131474386Y-79177086D01*
X131677085Y-78974387D01*
X131685357Y-78970961D01*
X131691309Y-78972588D01*
G37*
G04 #@! TD.AperFunction*
G04 #@! TA.AperFunction,Conductor*
G36*
X115322915Y-89974388D02*
G01*
X115525611Y-90177084D01*
X115529038Y-90185357D01*
X115527411Y-90191309D01*
X115282314Y-90606088D01*
X115275155Y-90611467D01*
X115267797Y-90610959D01*
X115208772Y-90586722D01*
X115003815Y-90502563D01*
X114997463Y-90496251D01*
X114997436Y-90496184D01*
X114975200Y-90442033D01*
X114889040Y-90232200D01*
X114889067Y-90223247D01*
X114893909Y-90217686D01*
X115308690Y-89972587D01*
X115317556Y-89971330D01*
X115322915Y-89974388D01*
G37*
G04 #@! TD.AperFunction*
G04 #@! TA.AperFunction,Conductor*
G36*
X131384254Y-93726615D02*
G01*
X131389098Y-93732177D01*
X131499115Y-93995489D01*
X131499142Y-94004444D01*
X131499115Y-94004511D01*
X131389098Y-94267822D01*
X131382746Y-94274134D01*
X131375388Y-94274642D01*
X130908786Y-94154659D01*
X130901627Y-94149280D01*
X130900000Y-94143328D01*
X130900000Y-93856671D01*
X130903427Y-93848398D01*
X130908783Y-93845341D01*
X131375389Y-93725357D01*
X131384254Y-93726615D01*
G37*
G04 #@! TD.AperFunction*
G04 #@! TA.AperFunction,Conductor*
G36*
X112898903Y-94141427D02*
G01*
X112900273Y-94142600D01*
X113102863Y-94345190D01*
X113106290Y-94353463D01*
X113102863Y-94361736D01*
X113102401Y-94362174D01*
X112720354Y-94704759D01*
X112711907Y-94707731D01*
X112704297Y-94704349D01*
X112502758Y-94504149D01*
X112499304Y-94495887D01*
X112499304Y-94495820D01*
X112499976Y-94209994D01*
X112503422Y-94201731D01*
X112509875Y-94198464D01*
X112890204Y-94139312D01*
X112898903Y-94141427D01*
G37*
G04 #@! TD.AperFunction*
G04 #@! TA.AperFunction,Conductor*
G36*
X119267823Y-56110902D02*
G01*
X119274134Y-56117253D01*
X119274642Y-56124611D01*
X119154659Y-56591214D01*
X119149280Y-56598373D01*
X119143328Y-56600000D01*
X118856672Y-56600000D01*
X118848399Y-56596573D01*
X118845341Y-56591214D01*
X118807154Y-56442712D01*
X118725357Y-56124609D01*
X118726615Y-56115745D01*
X118732174Y-56110903D01*
X118995490Y-56000883D01*
X119004444Y-56000857D01*
X119267823Y-56110902D01*
G37*
G04 #@! TD.AperFunction*
G04 #@! TA.AperFunction,Conductor*
G36*
X132651601Y-58403427D02*
G01*
X132654659Y-58408786D01*
X132774642Y-58875388D01*
X132773384Y-58884254D01*
X132767822Y-58889098D01*
X132504511Y-58999115D01*
X132495556Y-58999142D01*
X132495489Y-58999115D01*
X132232177Y-58889098D01*
X132225865Y-58882746D01*
X132225357Y-58875390D01*
X132345341Y-58408786D01*
X132350720Y-58401627D01*
X132356672Y-58400000D01*
X132643328Y-58400000D01*
X132651601Y-58403427D01*
G37*
G04 #@! TD.AperFunction*
G04 #@! TA.AperFunction,Conductor*
G36*
X132232199Y-58889039D02*
G01*
X132442033Y-58975200D01*
X132496184Y-58997436D01*
X132502536Y-59003748D01*
X132502563Y-59003815D01*
X132610959Y-59267797D01*
X132610932Y-59276752D01*
X132606088Y-59282314D01*
X132191309Y-59527411D01*
X132182443Y-59528669D01*
X132177084Y-59525611D01*
X131974388Y-59322915D01*
X131970961Y-59314642D01*
X131972588Y-59308690D01*
X131991217Y-59277164D01*
X132217686Y-58893910D01*
X132224844Y-58888532D01*
X132232199Y-58889039D01*
G37*
G04 #@! TD.AperFunction*
G04 #@! TA.AperFunction,Conductor*
G36*
X120151601Y-67903427D02*
G01*
X120154659Y-67908786D01*
X120274642Y-68375388D01*
X120273384Y-68384254D01*
X120267822Y-68389098D01*
X120004511Y-68499115D01*
X119995556Y-68499142D01*
X119995489Y-68499115D01*
X119732177Y-68389098D01*
X119725865Y-68382746D01*
X119725357Y-68375390D01*
X119845341Y-67908786D01*
X119850720Y-67901627D01*
X119856672Y-67900000D01*
X120143328Y-67900000D01*
X120151601Y-67903427D01*
G37*
G04 #@! TD.AperFunction*
M02*
